%TF.GenerationSoftware,KiCad,Pcbnew,(5.1.6)-1*%
%TF.CreationDate,2021-05-10T16:49:00-07:00*%
%TF.ProjectId,NiCd Battery Shield - VP400KH,4e694364-2042-4617-9474-657279205368,1*%
%TF.SameCoordinates,Original*%
%TF.FileFunction,Copper,L1,Top*%
%TF.FilePolarity,Positive*%
%FSLAX46Y46*%
G04 Gerber Fmt 4.6, Leading zero omitted, Abs format (unit mm)*
G04 Created by KiCad (PCBNEW (5.1.6)-1) date 2021-05-10 16:49:00*
%MOMM*%
%LPD*%
G01*
G04 APERTURE LIST*
%TA.AperFunction,ComponentPad*%
%ADD10C,20.000000*%
%TD*%
%TA.AperFunction,ComponentPad*%
%ADD11C,0.500000*%
%TD*%
%TA.AperFunction,ComponentPad*%
%ADD12O,30.000000X20.000000*%
%TD*%
%TA.AperFunction,ComponentPad*%
%ADD13C,1.250000*%
%TD*%
%TA.AperFunction,ComponentPad*%
%ADD14C,3.500000*%
%TD*%
%TA.AperFunction,ComponentPad*%
%ADD15C,2.000000*%
%TD*%
%TA.AperFunction,ComponentPad*%
%ADD16R,2.000000X2.000000*%
%TD*%
%TA.AperFunction,ComponentPad*%
%ADD17C,1.524000*%
%TD*%
%TA.AperFunction,SMDPad,CuDef*%
%ADD18R,3.500000X2.300000*%
%TD*%
%TA.AperFunction,ComponentPad*%
%ADD19C,4.000000*%
%TD*%
%TA.AperFunction,ComponentPad*%
%ADD20C,2.600000*%
%TD*%
%TA.AperFunction,ComponentPad*%
%ADD21C,1.800000*%
%TD*%
%TA.AperFunction,ComponentPad*%
%ADD22R,1.800000X1.800000*%
%TD*%
%TA.AperFunction,SMDPad,CuDef*%
%ADD23R,1.500000X1.000000*%
%TD*%
%TA.AperFunction,SMDPad,CuDef*%
%ADD24R,2.000000X1.520000*%
%TD*%
%TA.AperFunction,ComponentPad*%
%ADD25O,1.700000X1.700000*%
%TD*%
%TA.AperFunction,ComponentPad*%
%ADD26R,1.700000X1.700000*%
%TD*%
%TA.AperFunction,ComponentPad*%
%ADD27O,2.700000X3.700000*%
%TD*%
%TA.AperFunction,SMDPad,CuDef*%
%ADD28R,1.900000X0.800000*%
%TD*%
%TA.AperFunction,ComponentPad*%
%ADD29O,2.400000X1.600000*%
%TD*%
%TA.AperFunction,ComponentPad*%
%ADD30R,2.400000X1.600000*%
%TD*%
%TA.AperFunction,ComponentPad*%
%ADD31C,1.600000*%
%TD*%
%TA.AperFunction,SMDPad,CuDef*%
%ADD32R,9.400000X10.800000*%
%TD*%
%TA.AperFunction,SMDPad,CuDef*%
%ADD33R,4.600000X1.100000*%
%TD*%
%TA.AperFunction,ComponentPad*%
%ADD34R,1.500000X1.500000*%
%TD*%
%TA.AperFunction,ComponentPad*%
%ADD35C,1.500000*%
%TD*%
%TA.AperFunction,SMDPad,CuDef*%
%ADD36R,2.300000X3.500000*%
%TD*%
%TA.AperFunction,ComponentPad*%
%ADD37C,3.000000*%
%TD*%
%TA.AperFunction,ViaPad*%
%ADD38C,0.800000*%
%TD*%
%TA.AperFunction,Conductor*%
%ADD39C,0.250000*%
%TD*%
%TA.AperFunction,Conductor*%
%ADD40C,1.500000*%
%TD*%
%TA.AperFunction,Conductor*%
%ADD41C,0.750000*%
%TD*%
%TA.AperFunction,Conductor*%
%ADD42C,0.254000*%
%TD*%
G04 APERTURE END LIST*
D10*
%TO.P,J1,1*%
%TO.N,BATTERY+*%
X382000000Y-185000000D03*
D11*
X382000000Y-178650000D03*
X379828172Y-179032952D03*
X377918299Y-180135618D03*
X376500739Y-181825000D03*
X375746471Y-183897334D03*
X375746471Y-186102666D03*
X376500739Y-188175000D03*
X377918299Y-189864382D03*
X379828172Y-190967048D03*
X382000000Y-191350000D03*
X384171828Y-190967048D03*
X386081701Y-189864382D03*
X387499261Y-188175000D03*
X388253529Y-186102666D03*
X388253529Y-183897334D03*
X387499261Y-181825000D03*
X386081701Y-180135618D03*
X384171828Y-179032952D03*
X382000000Y-177380000D03*
X379393807Y-177839542D03*
X377101958Y-179162741D03*
X375400886Y-181190000D03*
X374495765Y-183676801D03*
X374495765Y-186323199D03*
X375400886Y-188810000D03*
X377101958Y-190837259D03*
X379393807Y-192160458D03*
X382000000Y-192620000D03*
X384606193Y-192160458D03*
X386898042Y-190837259D03*
X388599114Y-188810000D03*
X389504235Y-186323199D03*
X389504235Y-183676801D03*
X388599114Y-181190000D03*
X386898042Y-179162741D03*
X384606193Y-177839542D03*
X382000000Y-176110000D03*
X378959441Y-176646133D03*
X376285618Y-178189865D03*
X374301034Y-180555000D03*
X373245059Y-183456268D03*
X373245059Y-186543732D03*
X374301034Y-189445000D03*
X376285618Y-191810135D03*
X378959441Y-193353867D03*
X382000000Y-193890000D03*
X385040559Y-193353867D03*
X387714382Y-191810135D03*
X389698966Y-189445000D03*
X390754941Y-186543732D03*
X390754941Y-183456268D03*
X389698966Y-180555000D03*
X387714382Y-178189865D03*
X385040559Y-176646133D03*
%TD*%
%TO.P,J12,1*%
%TO.N,BATTERY-*%
X58000000Y-193650000D03*
X58000000Y-191110000D03*
X60500000Y-192380000D03*
X60500000Y-191110000D03*
X60500000Y-193650000D03*
X58000000Y-192380000D03*
X55500000Y-193650000D03*
X55500000Y-191110000D03*
X55500000Y-192380000D03*
X58000000Y-178400000D03*
X58000000Y-177130000D03*
X58000000Y-175860000D03*
X60500000Y-178400000D03*
X60500000Y-175860000D03*
X60500000Y-177130000D03*
X55500000Y-178400000D03*
X55500000Y-177130000D03*
X55500000Y-175860000D03*
X68714382Y-191560135D03*
X63000000Y-191100000D03*
X63000000Y-178400000D03*
X65606193Y-177589542D03*
X63000000Y-192370000D03*
X69599114Y-188560000D03*
X66040559Y-176396133D03*
X68714382Y-177939865D03*
X70698966Y-180305000D03*
X63000000Y-177130000D03*
X63000000Y-193640000D03*
X70504235Y-183426801D03*
X68499261Y-187925000D03*
X65171828Y-178782952D03*
X71754941Y-183206268D03*
X70698966Y-189195000D03*
X66040559Y-193103867D03*
X63000000Y-175860000D03*
X67898042Y-178912741D03*
X69599114Y-180940000D03*
X70504235Y-186073199D03*
X67081701Y-189614382D03*
X68499261Y-181575000D03*
X67081701Y-179885618D03*
X65606193Y-191910458D03*
X65171828Y-190717048D03*
X67898042Y-190587259D03*
X69253529Y-183647334D03*
X71754941Y-186293732D03*
X69253529Y-185852666D03*
X47285618Y-191560135D03*
X44245059Y-186293732D03*
X46400886Y-188560000D03*
X53000000Y-191100000D03*
X46746471Y-183647334D03*
X53000000Y-178400000D03*
X46400886Y-180940000D03*
X48918299Y-189614382D03*
X53000000Y-192370000D03*
X53000000Y-177130000D03*
X53000000Y-193640000D03*
X50828172Y-178782952D03*
X50393807Y-177589542D03*
X50828172Y-190717048D03*
X49959441Y-193103867D03*
X45301034Y-189195000D03*
X45301034Y-180305000D03*
X45495765Y-183426801D03*
X47500739Y-181575000D03*
X47285618Y-177939865D03*
X47500739Y-187925000D03*
X49959441Y-176396133D03*
X53000000Y-175860000D03*
X48101958Y-178912741D03*
X50393807Y-191910458D03*
X48101958Y-190587259D03*
X46746471Y-185852666D03*
X48918299Y-179885618D03*
X44245059Y-183206268D03*
X45495765Y-186073199D03*
D12*
X58000000Y-185000000D03*
%TD*%
D13*
%TO.P,J6,15*%
%TO.N,Net-(J6-Pad15)*%
X156005000Y-186340000D03*
%TO.P,J6,14*%
%TO.N,Net-(J6-Pad14)*%
X153235000Y-186340000D03*
%TO.P,J6,13*%
%TO.N,Net-(J6-Pad13)*%
X150465000Y-186340000D03*
%TO.P,J6,12*%
%TO.N,Net-(J6-Pad12)*%
X147695000Y-186340000D03*
%TO.P,J6,11*%
%TO.N,BATTERY-*%
X144925000Y-186340000D03*
%TO.P,J6,10*%
%TO.N,Net-(F10-Pad1)*%
X142155000Y-186340000D03*
%TO.P,J6,9*%
%TO.N,Net-(F9-Pad1)*%
X139385000Y-186340000D03*
%TO.P,J6,8*%
%TO.N,Net-(F8-Pad1)*%
X157390000Y-183500000D03*
%TO.P,J6,7*%
%TO.N,Net-(F7-Pad1)*%
X154620000Y-183500000D03*
%TO.P,J6,6*%
%TO.N,Net-(F6-Pad1)*%
X151850000Y-183500000D03*
%TO.P,J6,5*%
%TO.N,Net-(F5-Pad1)*%
X149080000Y-183500000D03*
%TO.P,J6,4*%
%TO.N,Net-(F4-Pad1)*%
X146310000Y-183500000D03*
%TO.P,J6,3*%
%TO.N,Net-(F3-Pad1)*%
X143540000Y-183500000D03*
%TO.P,J6,2*%
%TO.N,Net-(F2-Pad1)*%
X140770000Y-183500000D03*
%TO.P,J6,1*%
%TO.N,BATTERY+*%
X138000000Y-183500000D03*
D14*
%TO.P,J6,*%
%TO.N,*%
X164345000Y-184920000D03*
X131045000Y-184920000D03*
%TD*%
D15*
%TO.P,C4,2*%
%TO.N,GND*%
X369500000Y-156250000D03*
D16*
%TO.P,C4,1*%
%TO.N,12VDC_BUS*%
X369500000Y-151250000D03*
%TD*%
D17*
%TO.P,J7,1*%
%TO.N,Net-(F6-Pad1)*%
X220000000Y-135000000D03*
%TD*%
D18*
%TO.P,D1,2*%
%TO.N,5V*%
X339300000Y-151000000D03*
%TO.P,D1,1*%
%TO.N,Net-(C5-Pad1)*%
X344700000Y-151000000D03*
%TD*%
D19*
%TO.P,TP19,1*%
%TO.N,/OP-AMPS/CELL10_FUSED*%
X76000000Y-127500000D03*
%TD*%
%TO.P,TP17,1*%
%TO.N,/OP-AMPS/CELL9_FUSED*%
X112000000Y-192500000D03*
%TD*%
%TO.P,TP14,1*%
%TO.N,/OP-AMPS/CELL8_FUSED*%
X148000000Y-127500000D03*
%TD*%
%TO.P,TP12,1*%
%TO.N,/OP-AMPS/CELL7_FUSED*%
X184000000Y-192500000D03*
%TD*%
%TO.P,TP10,1*%
%TO.N,/OP-AMPS/CELL6_FUSED*%
X220000000Y-127500000D03*
%TD*%
%TO.P,TP8,1*%
%TO.N,/OP-AMPS/CELL5_FUSED*%
X256000000Y-192500000D03*
%TD*%
%TO.P,TP6,1*%
%TO.N,/OP-AMPS/CELL4_FUSED*%
X292000000Y-127500000D03*
%TD*%
%TO.P,TP4,1*%
%TO.N,/OP-AMPS/CELL3_FUSED*%
X328000000Y-192500000D03*
%TD*%
%TO.P,TP2,1*%
%TO.N,/OP-AMPS/CELL2_FUSED*%
X364000000Y-127500000D03*
%TD*%
D20*
%TO.P,TP15,1*%
%TO.N,GND*%
X232620000Y-192500000D03*
X225000000Y-192500000D03*
%TD*%
D17*
%TO.P,J11,1*%
%TO.N,Net-(F10-Pad1)*%
X76000000Y-135000000D03*
%TD*%
%TO.P,J10,1*%
%TO.N,Net-(F9-Pad1)*%
X112000000Y-185000000D03*
%TD*%
%TO.P,J9,1*%
%TO.N,Net-(F8-Pad1)*%
X148000000Y-135000000D03*
%TD*%
%TO.P,J8,1*%
%TO.N,Net-(F7-Pad1)*%
X184000000Y-185000000D03*
%TD*%
%TO.P,J5,1*%
%TO.N,Net-(F5-Pad1)*%
X256000000Y-185000000D03*
%TD*%
%TO.P,J4,1*%
%TO.N,Net-(F4-Pad1)*%
X292000000Y-135000000D03*
%TD*%
%TO.P,J3,1*%
%TO.N,Net-(F3-Pad1)*%
X328000000Y-185000000D03*
%TD*%
%TO.P,J2,1*%
%TO.N,Net-(F2-Pad1)*%
X364000000Y-135000000D03*
%TD*%
D21*
%TO.P,D5,2*%
%TO.N,5V*%
X338540000Y-187000000D03*
D22*
%TO.P,D5,1*%
%TO.N,Net-(D5-Pad1)*%
X336000000Y-187000000D03*
%TD*%
D21*
%TO.P,D3,2*%
%TO.N,12VDC_BUS*%
X345540000Y-187000000D03*
D22*
%TO.P,D3,1*%
%TO.N,Net-(D3-Pad1)*%
X343000000Y-187000000D03*
%TD*%
%TO.P,R47,2*%
%TO.N,Net-(D6-Pad2)*%
%TA.AperFunction,SMDPad,CuDef*%
G36*
G01*
X317512500Y-183625000D02*
X317512500Y-182375000D01*
G75*
G02*
X317762500Y-182125000I250000J0D01*
G01*
X318687500Y-182125000D01*
G75*
G02*
X318937500Y-182375000I0J-250000D01*
G01*
X318937500Y-183625000D01*
G75*
G02*
X318687500Y-183875000I-250000J0D01*
G01*
X317762500Y-183875000D01*
G75*
G02*
X317512500Y-183625000I0J250000D01*
G01*
G37*
%TD.AperFunction*%
%TO.P,R47,1*%
%TO.N,Net-(D4-Pad1)*%
%TA.AperFunction,SMDPad,CuDef*%
G36*
G01*
X314537500Y-183625000D02*
X314537500Y-182375000D01*
G75*
G02*
X314787500Y-182125000I250000J0D01*
G01*
X315712500Y-182125000D01*
G75*
G02*
X315962500Y-182375000I0J-250000D01*
G01*
X315962500Y-183625000D01*
G75*
G02*
X315712500Y-183875000I-250000J0D01*
G01*
X314787500Y-183875000D01*
G75*
G02*
X314537500Y-183625000I0J250000D01*
G01*
G37*
%TD.AperFunction*%
%TD*%
D21*
%TO.P,D4,2*%
%TO.N,12VDC_BUS*%
X317790000Y-187000000D03*
D22*
%TO.P,D4,1*%
%TO.N,Net-(D4-Pad1)*%
X315250000Y-187000000D03*
%TD*%
%TO.P,C6,2*%
%TO.N,GND*%
%TA.AperFunction,SMDPad,CuDef*%
G36*
G01*
X333074999Y-167225000D02*
X334925001Y-167225000D01*
G75*
G02*
X335175000Y-167474999I0J-249999D01*
G01*
X335175000Y-169225001D01*
G75*
G02*
X334925001Y-169475000I-249999J0D01*
G01*
X333074999Y-169475000D01*
G75*
G02*
X332825000Y-169225001I0J249999D01*
G01*
X332825000Y-167474999D01*
G75*
G02*
X333074999Y-167225000I249999J0D01*
G01*
G37*
%TD.AperFunction*%
%TO.P,C6,1*%
%TO.N,5V*%
%TA.AperFunction,SMDPad,CuDef*%
G36*
G01*
X333074999Y-162125000D02*
X334925001Y-162125000D01*
G75*
G02*
X335175000Y-162374999I0J-249999D01*
G01*
X335175000Y-164125001D01*
G75*
G02*
X334925001Y-164375000I-249999J0D01*
G01*
X333074999Y-164375000D01*
G75*
G02*
X332825000Y-164125001I0J249999D01*
G01*
X332825000Y-162374999D01*
G75*
G02*
X333074999Y-162125000I249999J0D01*
G01*
G37*
%TD.AperFunction*%
%TD*%
%TO.P,C5,2*%
%TO.N,GND*%
%TA.AperFunction,SMDPad,CuDef*%
G36*
G01*
X356074999Y-160475000D02*
X357925001Y-160475000D01*
G75*
G02*
X358175000Y-160724999I0J-249999D01*
G01*
X358175000Y-162475001D01*
G75*
G02*
X357925001Y-162725000I-249999J0D01*
G01*
X356074999Y-162725000D01*
G75*
G02*
X355825000Y-162475001I0J249999D01*
G01*
X355825000Y-160724999D01*
G75*
G02*
X356074999Y-160475000I249999J0D01*
G01*
G37*
%TD.AperFunction*%
%TO.P,C5,1*%
%TO.N,Net-(C5-Pad1)*%
%TA.AperFunction,SMDPad,CuDef*%
G36*
G01*
X356074999Y-155375000D02*
X357925001Y-155375000D01*
G75*
G02*
X358175000Y-155624999I0J-249999D01*
G01*
X358175000Y-157375001D01*
G75*
G02*
X357925001Y-157625000I-249999J0D01*
G01*
X356074999Y-157625000D01*
G75*
G02*
X355825000Y-157375001I0J249999D01*
G01*
X355825000Y-155624999D01*
G75*
G02*
X356074999Y-155375000I249999J0D01*
G01*
G37*
%TD.AperFunction*%
%TD*%
%TO.P,C1,2*%
%TO.N,GND*%
%TA.AperFunction,SMDPad,CuDef*%
G36*
G01*
X283762500Y-157875000D02*
X283762500Y-156625000D01*
G75*
G02*
X284012500Y-156375000I250000J0D01*
G01*
X284937500Y-156375000D01*
G75*
G02*
X285187500Y-156625000I0J-250000D01*
G01*
X285187500Y-157875000D01*
G75*
G02*
X284937500Y-158125000I-250000J0D01*
G01*
X284012500Y-158125000D01*
G75*
G02*
X283762500Y-157875000I0J250000D01*
G01*
G37*
%TD.AperFunction*%
%TO.P,C1,1*%
%TO.N,12VDC_BUS*%
%TA.AperFunction,SMDPad,CuDef*%
G36*
G01*
X280787500Y-157875000D02*
X280787500Y-156625000D01*
G75*
G02*
X281037500Y-156375000I250000J0D01*
G01*
X281962500Y-156375000D01*
G75*
G02*
X282212500Y-156625000I0J-250000D01*
G01*
X282212500Y-157875000D01*
G75*
G02*
X281962500Y-158125000I-250000J0D01*
G01*
X281037500Y-158125000D01*
G75*
G02*
X280787500Y-157875000I0J250000D01*
G01*
G37*
%TD.AperFunction*%
%TD*%
%TO.P,C2,2*%
%TO.N,GND*%
%TA.AperFunction,SMDPad,CuDef*%
G36*
G01*
X248762500Y-157875000D02*
X248762500Y-156625000D01*
G75*
G02*
X249012500Y-156375000I250000J0D01*
G01*
X249937500Y-156375000D01*
G75*
G02*
X250187500Y-156625000I0J-250000D01*
G01*
X250187500Y-157875000D01*
G75*
G02*
X249937500Y-158125000I-250000J0D01*
G01*
X249012500Y-158125000D01*
G75*
G02*
X248762500Y-157875000I0J250000D01*
G01*
G37*
%TD.AperFunction*%
%TO.P,C2,1*%
%TO.N,12VDC_BUS*%
%TA.AperFunction,SMDPad,CuDef*%
G36*
G01*
X245787500Y-157875000D02*
X245787500Y-156625000D01*
G75*
G02*
X246037500Y-156375000I250000J0D01*
G01*
X246962500Y-156375000D01*
G75*
G02*
X247212500Y-156625000I0J-250000D01*
G01*
X247212500Y-157875000D01*
G75*
G02*
X246962500Y-158125000I-250000J0D01*
G01*
X246037500Y-158125000D01*
G75*
G02*
X245787500Y-157875000I0J250000D01*
G01*
G37*
%TD.AperFunction*%
%TD*%
%TO.P,C3,2*%
%TO.N,GND*%
%TA.AperFunction,SMDPad,CuDef*%
G36*
G01*
X140762500Y-157875000D02*
X140762500Y-156625000D01*
G75*
G02*
X141012500Y-156375000I250000J0D01*
G01*
X141937500Y-156375000D01*
G75*
G02*
X142187500Y-156625000I0J-250000D01*
G01*
X142187500Y-157875000D01*
G75*
G02*
X141937500Y-158125000I-250000J0D01*
G01*
X141012500Y-158125000D01*
G75*
G02*
X140762500Y-157875000I0J250000D01*
G01*
G37*
%TD.AperFunction*%
%TO.P,C3,1*%
%TO.N,12VDC_BUS*%
%TA.AperFunction,SMDPad,CuDef*%
G36*
G01*
X137787500Y-157875000D02*
X137787500Y-156625000D01*
G75*
G02*
X138037500Y-156375000I250000J0D01*
G01*
X138962500Y-156375000D01*
G75*
G02*
X139212500Y-156625000I0J-250000D01*
G01*
X139212500Y-157875000D01*
G75*
G02*
X138962500Y-158125000I-250000J0D01*
G01*
X138037500Y-158125000D01*
G75*
G02*
X137787500Y-157875000I0J250000D01*
G01*
G37*
%TD.AperFunction*%
%TD*%
D18*
%TO.P,D6,2*%
%TO.N,Net-(D6-Pad2)*%
X310650000Y-185500000D03*
%TO.P,D6,1*%
%TO.N,12VDC_BUS*%
X305250000Y-185500000D03*
%TD*%
D23*
%TO.P,D7,1*%
%TO.N,STATUS_CHECK*%
X379550000Y-125900000D03*
%TO.P,D7,2*%
%TO.N,Net-(D7-Pad2)*%
X379550000Y-129100000D03*
%TO.P,D7,4*%
%TO.N,Net-(D7-Pad4)*%
X384450000Y-125900000D03*
%TO.P,D7,3*%
%TO.N,GND*%
X384450000Y-129100000D03*
%TD*%
%TO.P,D8,1*%
%TO.N,STATUS_CHECK*%
X343550000Y-125900000D03*
%TO.P,D8,2*%
%TO.N,Net-(D8-Pad2)*%
X343550000Y-129100000D03*
%TO.P,D8,4*%
%TO.N,Net-(D7-Pad2)*%
X348450000Y-125900000D03*
%TO.P,D8,3*%
%TO.N,GND*%
X348450000Y-129100000D03*
%TD*%
%TO.P,D9,1*%
%TO.N,STATUS_CHECK*%
X307550000Y-125900000D03*
%TO.P,D9,2*%
%TO.N,Net-(D10-Pad4)*%
X307550000Y-129100000D03*
%TO.P,D9,4*%
%TO.N,Net-(D8-Pad2)*%
X312450000Y-125900000D03*
%TO.P,D9,3*%
%TO.N,GND*%
X312450000Y-129100000D03*
%TD*%
%TO.P,D10,1*%
%TO.N,STATUS_CHECK*%
X271550000Y-125900000D03*
%TO.P,D10,2*%
%TO.N,Net-(D10-Pad2)*%
X271550000Y-129100000D03*
%TO.P,D10,4*%
%TO.N,Net-(D10-Pad4)*%
X276450000Y-125900000D03*
%TO.P,D10,3*%
%TO.N,GND*%
X276450000Y-129100000D03*
%TD*%
%TO.P,D11,1*%
%TO.N,STATUS_CHECK*%
X235550000Y-125900000D03*
%TO.P,D11,2*%
%TO.N,Net-(D11-Pad2)*%
X235550000Y-129100000D03*
%TO.P,D11,4*%
%TO.N,Net-(D10-Pad2)*%
X240450000Y-125900000D03*
%TO.P,D11,3*%
%TO.N,GND*%
X240450000Y-129100000D03*
%TD*%
%TO.P,D12,1*%
%TO.N,STATUS_CHECK*%
X199550000Y-125900000D03*
%TO.P,D12,2*%
%TO.N,Net-(D12-Pad2)*%
X199550000Y-129100000D03*
%TO.P,D12,4*%
%TO.N,Net-(D11-Pad2)*%
X204450000Y-125900000D03*
%TO.P,D12,3*%
%TO.N,GND*%
X204450000Y-129100000D03*
%TD*%
%TO.P,D13,1*%
%TO.N,STATUS_CHECK*%
X163550000Y-125900000D03*
%TO.P,D13,2*%
%TO.N,Net-(D13-Pad2)*%
X163550000Y-129100000D03*
%TO.P,D13,4*%
%TO.N,Net-(D12-Pad2)*%
X168450000Y-125900000D03*
%TO.P,D13,3*%
%TO.N,GND*%
X168450000Y-129100000D03*
%TD*%
%TO.P,D14,1*%
%TO.N,STATUS_CHECK*%
X127550000Y-125900000D03*
%TO.P,D14,2*%
%TO.N,Net-(D14-Pad2)*%
X127550000Y-129100000D03*
%TO.P,D14,4*%
%TO.N,Net-(D13-Pad2)*%
X132450000Y-125900000D03*
%TO.P,D14,3*%
%TO.N,GND*%
X132450000Y-129100000D03*
%TD*%
%TO.P,D15,1*%
%TO.N,STATUS_CHECK*%
X91550000Y-125900000D03*
%TO.P,D15,2*%
%TO.N,Net-(D15-Pad2)*%
X91550000Y-129100000D03*
%TO.P,D15,4*%
%TO.N,Net-(D14-Pad2)*%
X96450000Y-125900000D03*
%TO.P,D15,3*%
%TO.N,GND*%
X96450000Y-129100000D03*
%TD*%
%TO.P,D16,1*%
%TO.N,STATUS_CHECK*%
X55550000Y-125900000D03*
%TO.P,D16,2*%
%TO.N,Net-(D16-Pad2)*%
X55550000Y-129100000D03*
%TO.P,D16,4*%
%TO.N,Net-(D15-Pad2)*%
X60450000Y-125900000D03*
%TO.P,D16,3*%
%TO.N,GND*%
X60450000Y-129100000D03*
%TD*%
D24*
%TO.P,F1,2*%
%TO.N,/OP-AMPS/CELL1_FUSED*%
X382000000Y-160960000D03*
%TO.P,F1,1*%
%TO.N,BATTERY+*%
X382000000Y-164000000D03*
%TD*%
%TO.P,F2,2*%
%TO.N,/OP-AMPS/CELL2_FUSED*%
X364000000Y-141040000D03*
%TO.P,F2,1*%
%TO.N,Net-(F2-Pad1)*%
X364000000Y-138000000D03*
%TD*%
%TO.P,F3,2*%
%TO.N,/OP-AMPS/CELL3_FUSED*%
X328000000Y-178960000D03*
%TO.P,F3,1*%
%TO.N,Net-(F3-Pad1)*%
X328000000Y-182000000D03*
%TD*%
%TO.P,F4,2*%
%TO.N,/OP-AMPS/CELL4_FUSED*%
X292000000Y-141040000D03*
%TO.P,F4,1*%
%TO.N,Net-(F4-Pad1)*%
X292000000Y-138000000D03*
%TD*%
%TO.P,F5,2*%
%TO.N,/OP-AMPS/CELL5_FUSED*%
X256000000Y-178460000D03*
%TO.P,F5,1*%
%TO.N,Net-(F5-Pad1)*%
X256000000Y-181500000D03*
%TD*%
%TO.P,F12,2*%
%TO.N,12VDC_BUS*%
X377500000Y-160960000D03*
%TO.P,F12,1*%
%TO.N,BATTERY+*%
X377500000Y-164000000D03*
%TD*%
D25*
%TO.P,J14,4*%
%TO.N,SCL*%
X90500000Y-147045001D03*
%TO.P,J14,3*%
%TO.N,SDA*%
X90500000Y-144505001D03*
%TO.P,J14,2*%
%TO.N,GND*%
X90500000Y-141965001D03*
D26*
%TO.P,J14,1*%
%TO.N,5V*%
X90500000Y-139425001D03*
%TD*%
D27*
%TO.P,J13,2*%
%TO.N,Net-(D6-Pad2)*%
X298750000Y-180000000D03*
%TO.P,J13,1*%
%TO.N,12VDC_BUS*%
%TA.AperFunction,ComponentPad*%
G36*
G01*
X300100000Y-183900001D02*
X300100000Y-187099999D01*
G75*
G02*
X299849999Y-187350000I-250001J0D01*
G01*
X297650001Y-187350000D01*
G75*
G02*
X297400000Y-187099999I0J250001D01*
G01*
X297400000Y-183900001D01*
G75*
G02*
X297650001Y-183650000I250001J0D01*
G01*
X299849999Y-183650000D01*
G75*
G02*
X300100000Y-183900001I0J-250001D01*
G01*
G37*
%TD.AperFunction*%
%TD*%
D25*
%TO.P,J15,6*%
%TO.N,CS*%
X102000000Y-152125001D03*
%TO.P,J15,5*%
%TO.N,SCK*%
X102000000Y-149585001D03*
%TO.P,J15,4*%
%TO.N,MOSI*%
X102000000Y-147045001D03*
%TO.P,J15,3*%
%TO.N,MISO*%
X102000000Y-144505001D03*
%TO.P,J15,2*%
%TO.N,GND*%
X102000000Y-141965001D03*
D26*
%TO.P,J15,1*%
%TO.N,5V*%
X102000000Y-139425001D03*
%TD*%
D28*
%TO.P,Q1,3*%
%TO.N,Net-(D6-Pad2)*%
X305250000Y-178500000D03*
%TO.P,Q1,2*%
%TO.N,Net-(Q1-Pad2)*%
X308250000Y-177550000D03*
%TO.P,Q1,1*%
%TO.N,GND*%
X308250000Y-179450000D03*
%TD*%
%TO.P,R1,2*%
%TO.N,GND*%
%TA.AperFunction,SMDPad,CuDef*%
G36*
G01*
X283762500Y-160375000D02*
X283762500Y-159125000D01*
G75*
G02*
X284012500Y-158875000I250000J0D01*
G01*
X284937500Y-158875000D01*
G75*
G02*
X285187500Y-159125000I0J-250000D01*
G01*
X285187500Y-160375000D01*
G75*
G02*
X284937500Y-160625000I-250000J0D01*
G01*
X284012500Y-160625000D01*
G75*
G02*
X283762500Y-160375000I0J250000D01*
G01*
G37*
%TD.AperFunction*%
%TO.P,R1,1*%
%TO.N,Net-(R1-Pad1)*%
%TA.AperFunction,SMDPad,CuDef*%
G36*
G01*
X280787500Y-160375000D02*
X280787500Y-159125000D01*
G75*
G02*
X281037500Y-158875000I250000J0D01*
G01*
X281962500Y-158875000D01*
G75*
G02*
X282212500Y-159125000I0J-250000D01*
G01*
X282212500Y-160375000D01*
G75*
G02*
X281962500Y-160625000I-250000J0D01*
G01*
X281037500Y-160625000D01*
G75*
G02*
X280787500Y-160375000I0J250000D01*
G01*
G37*
%TD.AperFunction*%
%TD*%
%TO.P,R2,2*%
%TO.N,Net-(R1-Pad1)*%
%TA.AperFunction,SMDPad,CuDef*%
G36*
G01*
X287625000Y-163212500D02*
X286375000Y-163212500D01*
G75*
G02*
X286125000Y-162962500I0J250000D01*
G01*
X286125000Y-162037500D01*
G75*
G02*
X286375000Y-161787500I250000J0D01*
G01*
X287625000Y-161787500D01*
G75*
G02*
X287875000Y-162037500I0J-250000D01*
G01*
X287875000Y-162962500D01*
G75*
G02*
X287625000Y-163212500I-250000J0D01*
G01*
G37*
%TD.AperFunction*%
%TO.P,R2,1*%
%TO.N,/OP-AMPS/CELL1_FUSED*%
%TA.AperFunction,SMDPad,CuDef*%
G36*
G01*
X287625000Y-166187500D02*
X286375000Y-166187500D01*
G75*
G02*
X286125000Y-165937500I0J250000D01*
G01*
X286125000Y-165012500D01*
G75*
G02*
X286375000Y-164762500I250000J0D01*
G01*
X287625000Y-164762500D01*
G75*
G02*
X287875000Y-165012500I0J-250000D01*
G01*
X287875000Y-165937500D01*
G75*
G02*
X287625000Y-166187500I-250000J0D01*
G01*
G37*
%TD.AperFunction*%
%TD*%
%TO.P,R3,2*%
%TO.N,Net-(R3-Pad2)*%
%TA.AperFunction,SMDPad,CuDef*%
G36*
G01*
X284875000Y-163212500D02*
X283625000Y-163212500D01*
G75*
G02*
X283375000Y-162962500I0J250000D01*
G01*
X283375000Y-162037500D01*
G75*
G02*
X283625000Y-161787500I250000J0D01*
G01*
X284875000Y-161787500D01*
G75*
G02*
X285125000Y-162037500I0J-250000D01*
G01*
X285125000Y-162962500D01*
G75*
G02*
X284875000Y-163212500I-250000J0D01*
G01*
G37*
%TD.AperFunction*%
%TO.P,R3,1*%
%TO.N,/OP-AMPS/CELL2_FUSED*%
%TA.AperFunction,SMDPad,CuDef*%
G36*
G01*
X284875000Y-166187500D02*
X283625000Y-166187500D01*
G75*
G02*
X283375000Y-165937500I0J250000D01*
G01*
X283375000Y-165012500D01*
G75*
G02*
X283625000Y-164762500I250000J0D01*
G01*
X284875000Y-164762500D01*
G75*
G02*
X285125000Y-165012500I0J-250000D01*
G01*
X285125000Y-165937500D01*
G75*
G02*
X284875000Y-166187500I-250000J0D01*
G01*
G37*
%TD.AperFunction*%
%TD*%
%TO.P,R4,2*%
%TO.N,A0*%
%TA.AperFunction,SMDPad,CuDef*%
G36*
G01*
X280875000Y-164787500D02*
X282125000Y-164787500D01*
G75*
G02*
X282375000Y-165037500I0J-250000D01*
G01*
X282375000Y-165962500D01*
G75*
G02*
X282125000Y-166212500I-250000J0D01*
G01*
X280875000Y-166212500D01*
G75*
G02*
X280625000Y-165962500I0J250000D01*
G01*
X280625000Y-165037500D01*
G75*
G02*
X280875000Y-164787500I250000J0D01*
G01*
G37*
%TD.AperFunction*%
%TO.P,R4,1*%
%TO.N,Net-(R3-Pad2)*%
%TA.AperFunction,SMDPad,CuDef*%
G36*
G01*
X280875000Y-161812500D02*
X282125000Y-161812500D01*
G75*
G02*
X282375000Y-162062500I0J-250000D01*
G01*
X282375000Y-162987500D01*
G75*
G02*
X282125000Y-163237500I-250000J0D01*
G01*
X280875000Y-163237500D01*
G75*
G02*
X280625000Y-162987500I0J250000D01*
G01*
X280625000Y-162062500D01*
G75*
G02*
X280875000Y-161812500I250000J0D01*
G01*
G37*
%TD.AperFunction*%
%TD*%
%TO.P,R5,2*%
%TO.N,GND*%
%TA.AperFunction,SMDPad,CuDef*%
G36*
G01*
X283787500Y-155375000D02*
X283787500Y-154125000D01*
G75*
G02*
X284037500Y-153875000I250000J0D01*
G01*
X284962500Y-153875000D01*
G75*
G02*
X285212500Y-154125000I0J-250000D01*
G01*
X285212500Y-155375000D01*
G75*
G02*
X284962500Y-155625000I-250000J0D01*
G01*
X284037500Y-155625000D01*
G75*
G02*
X283787500Y-155375000I0J250000D01*
G01*
G37*
%TD.AperFunction*%
%TO.P,R5,1*%
%TO.N,Net-(R5-Pad1)*%
%TA.AperFunction,SMDPad,CuDef*%
G36*
G01*
X280812500Y-155375000D02*
X280812500Y-154125000D01*
G75*
G02*
X281062500Y-153875000I250000J0D01*
G01*
X281987500Y-153875000D01*
G75*
G02*
X282237500Y-154125000I0J-250000D01*
G01*
X282237500Y-155375000D01*
G75*
G02*
X281987500Y-155625000I-250000J0D01*
G01*
X281062500Y-155625000D01*
G75*
G02*
X280812500Y-155375000I0J250000D01*
G01*
G37*
%TD.AperFunction*%
%TD*%
%TO.P,R6,2*%
%TO.N,Net-(R5-Pad1)*%
%TA.AperFunction,SMDPad,CuDef*%
G36*
G01*
X286375000Y-151537500D02*
X287625000Y-151537500D01*
G75*
G02*
X287875000Y-151787500I0J-250000D01*
G01*
X287875000Y-152712500D01*
G75*
G02*
X287625000Y-152962500I-250000J0D01*
G01*
X286375000Y-152962500D01*
G75*
G02*
X286125000Y-152712500I0J250000D01*
G01*
X286125000Y-151787500D01*
G75*
G02*
X286375000Y-151537500I250000J0D01*
G01*
G37*
%TD.AperFunction*%
%TO.P,R6,1*%
%TO.N,/OP-AMPS/CELL2_FUSED*%
%TA.AperFunction,SMDPad,CuDef*%
G36*
G01*
X286375000Y-148562500D02*
X287625000Y-148562500D01*
G75*
G02*
X287875000Y-148812500I0J-250000D01*
G01*
X287875000Y-149737500D01*
G75*
G02*
X287625000Y-149987500I-250000J0D01*
G01*
X286375000Y-149987500D01*
G75*
G02*
X286125000Y-149737500I0J250000D01*
G01*
X286125000Y-148812500D01*
G75*
G02*
X286375000Y-148562500I250000J0D01*
G01*
G37*
%TD.AperFunction*%
%TD*%
%TO.P,R7,2*%
%TO.N,Net-(R7-Pad2)*%
%TA.AperFunction,SMDPad,CuDef*%
G36*
G01*
X283625000Y-151537500D02*
X284875000Y-151537500D01*
G75*
G02*
X285125000Y-151787500I0J-250000D01*
G01*
X285125000Y-152712500D01*
G75*
G02*
X284875000Y-152962500I-250000J0D01*
G01*
X283625000Y-152962500D01*
G75*
G02*
X283375000Y-152712500I0J250000D01*
G01*
X283375000Y-151787500D01*
G75*
G02*
X283625000Y-151537500I250000J0D01*
G01*
G37*
%TD.AperFunction*%
%TO.P,R7,1*%
%TO.N,/OP-AMPS/CELL3_FUSED*%
%TA.AperFunction,SMDPad,CuDef*%
G36*
G01*
X283625000Y-148562500D02*
X284875000Y-148562500D01*
G75*
G02*
X285125000Y-148812500I0J-250000D01*
G01*
X285125000Y-149737500D01*
G75*
G02*
X284875000Y-149987500I-250000J0D01*
G01*
X283625000Y-149987500D01*
G75*
G02*
X283375000Y-149737500I0J250000D01*
G01*
X283375000Y-148812500D01*
G75*
G02*
X283625000Y-148562500I250000J0D01*
G01*
G37*
%TD.AperFunction*%
%TD*%
%TO.P,R8,2*%
%TO.N,A1*%
%TA.AperFunction,SMDPad,CuDef*%
G36*
G01*
X282125000Y-149987500D02*
X280875000Y-149987500D01*
G75*
G02*
X280625000Y-149737500I0J250000D01*
G01*
X280625000Y-148812500D01*
G75*
G02*
X280875000Y-148562500I250000J0D01*
G01*
X282125000Y-148562500D01*
G75*
G02*
X282375000Y-148812500I0J-250000D01*
G01*
X282375000Y-149737500D01*
G75*
G02*
X282125000Y-149987500I-250000J0D01*
G01*
G37*
%TD.AperFunction*%
%TO.P,R8,1*%
%TO.N,Net-(R7-Pad2)*%
%TA.AperFunction,SMDPad,CuDef*%
G36*
G01*
X282125000Y-152962500D02*
X280875000Y-152962500D01*
G75*
G02*
X280625000Y-152712500I0J250000D01*
G01*
X280625000Y-151787500D01*
G75*
G02*
X280875000Y-151537500I250000J0D01*
G01*
X282125000Y-151537500D01*
G75*
G02*
X282375000Y-151787500I0J-250000D01*
G01*
X282375000Y-152712500D01*
G75*
G02*
X282125000Y-152962500I-250000J0D01*
G01*
G37*
%TD.AperFunction*%
%TD*%
%TO.P,R9,2*%
%TO.N,GND*%
%TA.AperFunction,SMDPad,CuDef*%
G36*
G01*
X264487500Y-154125000D02*
X264487500Y-155375000D01*
G75*
G02*
X264237500Y-155625000I-250000J0D01*
G01*
X263312500Y-155625000D01*
G75*
G02*
X263062500Y-155375000I0J250000D01*
G01*
X263062500Y-154125000D01*
G75*
G02*
X263312500Y-153875000I250000J0D01*
G01*
X264237500Y-153875000D01*
G75*
G02*
X264487500Y-154125000I0J-250000D01*
G01*
G37*
%TD.AperFunction*%
%TO.P,R9,1*%
%TO.N,Net-(R10-Pad2)*%
%TA.AperFunction,SMDPad,CuDef*%
G36*
G01*
X267462500Y-154125000D02*
X267462500Y-155375000D01*
G75*
G02*
X267212500Y-155625000I-250000J0D01*
G01*
X266287500Y-155625000D01*
G75*
G02*
X266037500Y-155375000I0J250000D01*
G01*
X266037500Y-154125000D01*
G75*
G02*
X266287500Y-153875000I250000J0D01*
G01*
X267212500Y-153875000D01*
G75*
G02*
X267462500Y-154125000I0J-250000D01*
G01*
G37*
%TD.AperFunction*%
%TD*%
%TO.P,R10,2*%
%TO.N,Net-(R10-Pad2)*%
%TA.AperFunction,SMDPad,CuDef*%
G36*
G01*
X260625000Y-151537500D02*
X261875000Y-151537500D01*
G75*
G02*
X262125000Y-151787500I0J-250000D01*
G01*
X262125000Y-152712500D01*
G75*
G02*
X261875000Y-152962500I-250000J0D01*
G01*
X260625000Y-152962500D01*
G75*
G02*
X260375000Y-152712500I0J250000D01*
G01*
X260375000Y-151787500D01*
G75*
G02*
X260625000Y-151537500I250000J0D01*
G01*
G37*
%TD.AperFunction*%
%TO.P,R10,1*%
%TO.N,/OP-AMPS/CELL3_FUSED*%
%TA.AperFunction,SMDPad,CuDef*%
G36*
G01*
X260625000Y-148562500D02*
X261875000Y-148562500D01*
G75*
G02*
X262125000Y-148812500I0J-250000D01*
G01*
X262125000Y-149737500D01*
G75*
G02*
X261875000Y-149987500I-250000J0D01*
G01*
X260625000Y-149987500D01*
G75*
G02*
X260375000Y-149737500I0J250000D01*
G01*
X260375000Y-148812500D01*
G75*
G02*
X260625000Y-148562500I250000J0D01*
G01*
G37*
%TD.AperFunction*%
%TD*%
%TO.P,R11,2*%
%TO.N,Net-(R11-Pad2)*%
%TA.AperFunction,SMDPad,CuDef*%
G36*
G01*
X263375000Y-151537500D02*
X264625000Y-151537500D01*
G75*
G02*
X264875000Y-151787500I0J-250000D01*
G01*
X264875000Y-152712500D01*
G75*
G02*
X264625000Y-152962500I-250000J0D01*
G01*
X263375000Y-152962500D01*
G75*
G02*
X263125000Y-152712500I0J250000D01*
G01*
X263125000Y-151787500D01*
G75*
G02*
X263375000Y-151537500I250000J0D01*
G01*
G37*
%TD.AperFunction*%
%TO.P,R11,1*%
%TO.N,/OP-AMPS/CELL4_FUSED*%
%TA.AperFunction,SMDPad,CuDef*%
G36*
G01*
X263375000Y-148562500D02*
X264625000Y-148562500D01*
G75*
G02*
X264875000Y-148812500I0J-250000D01*
G01*
X264875000Y-149737500D01*
G75*
G02*
X264625000Y-149987500I-250000J0D01*
G01*
X263375000Y-149987500D01*
G75*
G02*
X263125000Y-149737500I0J250000D01*
G01*
X263125000Y-148812500D01*
G75*
G02*
X263375000Y-148562500I250000J0D01*
G01*
G37*
%TD.AperFunction*%
%TD*%
%TO.P,R12,2*%
%TO.N,A2*%
%TA.AperFunction,SMDPad,CuDef*%
G36*
G01*
X267375000Y-149987500D02*
X266125000Y-149987500D01*
G75*
G02*
X265875000Y-149737500I0J250000D01*
G01*
X265875000Y-148812500D01*
G75*
G02*
X266125000Y-148562500I250000J0D01*
G01*
X267375000Y-148562500D01*
G75*
G02*
X267625000Y-148812500I0J-250000D01*
G01*
X267625000Y-149737500D01*
G75*
G02*
X267375000Y-149987500I-250000J0D01*
G01*
G37*
%TD.AperFunction*%
%TO.P,R12,1*%
%TO.N,Net-(R11-Pad2)*%
%TA.AperFunction,SMDPad,CuDef*%
G36*
G01*
X267375000Y-152962500D02*
X266125000Y-152962500D01*
G75*
G02*
X265875000Y-152712500I0J250000D01*
G01*
X265875000Y-151787500D01*
G75*
G02*
X266125000Y-151537500I250000J0D01*
G01*
X267375000Y-151537500D01*
G75*
G02*
X267625000Y-151787500I0J-250000D01*
G01*
X267625000Y-152712500D01*
G75*
G02*
X267375000Y-152962500I-250000J0D01*
G01*
G37*
%TD.AperFunction*%
%TD*%
%TO.P,R13,2*%
%TO.N,GND*%
%TA.AperFunction,SMDPad,CuDef*%
G36*
G01*
X264487500Y-159125000D02*
X264487500Y-160375000D01*
G75*
G02*
X264237500Y-160625000I-250000J0D01*
G01*
X263312500Y-160625000D01*
G75*
G02*
X263062500Y-160375000I0J250000D01*
G01*
X263062500Y-159125000D01*
G75*
G02*
X263312500Y-158875000I250000J0D01*
G01*
X264237500Y-158875000D01*
G75*
G02*
X264487500Y-159125000I0J-250000D01*
G01*
G37*
%TD.AperFunction*%
%TO.P,R13,1*%
%TO.N,Net-(R13-Pad1)*%
%TA.AperFunction,SMDPad,CuDef*%
G36*
G01*
X267462500Y-159125000D02*
X267462500Y-160375000D01*
G75*
G02*
X267212500Y-160625000I-250000J0D01*
G01*
X266287500Y-160625000D01*
G75*
G02*
X266037500Y-160375000I0J250000D01*
G01*
X266037500Y-159125000D01*
G75*
G02*
X266287500Y-158875000I250000J0D01*
G01*
X267212500Y-158875000D01*
G75*
G02*
X267462500Y-159125000I0J-250000D01*
G01*
G37*
%TD.AperFunction*%
%TD*%
%TO.P,R14,2*%
%TO.N,Net-(R13-Pad1)*%
%TA.AperFunction,SMDPad,CuDef*%
G36*
G01*
X261875000Y-163212500D02*
X260625000Y-163212500D01*
G75*
G02*
X260375000Y-162962500I0J250000D01*
G01*
X260375000Y-162037500D01*
G75*
G02*
X260625000Y-161787500I250000J0D01*
G01*
X261875000Y-161787500D01*
G75*
G02*
X262125000Y-162037500I0J-250000D01*
G01*
X262125000Y-162962500D01*
G75*
G02*
X261875000Y-163212500I-250000J0D01*
G01*
G37*
%TD.AperFunction*%
%TO.P,R14,1*%
%TO.N,/OP-AMPS/CELL4_FUSED*%
%TA.AperFunction,SMDPad,CuDef*%
G36*
G01*
X261875000Y-166187500D02*
X260625000Y-166187500D01*
G75*
G02*
X260375000Y-165937500I0J250000D01*
G01*
X260375000Y-165012500D01*
G75*
G02*
X260625000Y-164762500I250000J0D01*
G01*
X261875000Y-164762500D01*
G75*
G02*
X262125000Y-165012500I0J-250000D01*
G01*
X262125000Y-165937500D01*
G75*
G02*
X261875000Y-166187500I-250000J0D01*
G01*
G37*
%TD.AperFunction*%
%TD*%
%TO.P,R15,2*%
%TO.N,Net-(R15-Pad2)*%
%TA.AperFunction,SMDPad,CuDef*%
G36*
G01*
X264625000Y-163212500D02*
X263375000Y-163212500D01*
G75*
G02*
X263125000Y-162962500I0J250000D01*
G01*
X263125000Y-162037500D01*
G75*
G02*
X263375000Y-161787500I250000J0D01*
G01*
X264625000Y-161787500D01*
G75*
G02*
X264875000Y-162037500I0J-250000D01*
G01*
X264875000Y-162962500D01*
G75*
G02*
X264625000Y-163212500I-250000J0D01*
G01*
G37*
%TD.AperFunction*%
%TO.P,R15,1*%
%TO.N,/OP-AMPS/CELL5_FUSED*%
%TA.AperFunction,SMDPad,CuDef*%
G36*
G01*
X264625000Y-166187500D02*
X263375000Y-166187500D01*
G75*
G02*
X263125000Y-165937500I0J250000D01*
G01*
X263125000Y-165012500D01*
G75*
G02*
X263375000Y-164762500I250000J0D01*
G01*
X264625000Y-164762500D01*
G75*
G02*
X264875000Y-165012500I0J-250000D01*
G01*
X264875000Y-165937500D01*
G75*
G02*
X264625000Y-166187500I-250000J0D01*
G01*
G37*
%TD.AperFunction*%
%TD*%
%TO.P,R16,2*%
%TO.N,A3*%
%TA.AperFunction,SMDPad,CuDef*%
G36*
G01*
X266125000Y-164762500D02*
X267375000Y-164762500D01*
G75*
G02*
X267625000Y-165012500I0J-250000D01*
G01*
X267625000Y-165937500D01*
G75*
G02*
X267375000Y-166187500I-250000J0D01*
G01*
X266125000Y-166187500D01*
G75*
G02*
X265875000Y-165937500I0J250000D01*
G01*
X265875000Y-165012500D01*
G75*
G02*
X266125000Y-164762500I250000J0D01*
G01*
G37*
%TD.AperFunction*%
%TO.P,R16,1*%
%TO.N,Net-(R15-Pad2)*%
%TA.AperFunction,SMDPad,CuDef*%
G36*
G01*
X266125000Y-161787500D02*
X267375000Y-161787500D01*
G75*
G02*
X267625000Y-162037500I0J-250000D01*
G01*
X267625000Y-162962500D01*
G75*
G02*
X267375000Y-163212500I-250000J0D01*
G01*
X266125000Y-163212500D01*
G75*
G02*
X265875000Y-162962500I0J250000D01*
G01*
X265875000Y-162037500D01*
G75*
G02*
X266125000Y-161787500I250000J0D01*
G01*
G37*
%TD.AperFunction*%
%TD*%
%TO.P,R17,2*%
%TO.N,GND*%
%TA.AperFunction,SMDPad,CuDef*%
G36*
G01*
X248762500Y-160625000D02*
X248762500Y-159375000D01*
G75*
G02*
X249012500Y-159125000I250000J0D01*
G01*
X249937500Y-159125000D01*
G75*
G02*
X250187500Y-159375000I0J-250000D01*
G01*
X250187500Y-160625000D01*
G75*
G02*
X249937500Y-160875000I-250000J0D01*
G01*
X249012500Y-160875000D01*
G75*
G02*
X248762500Y-160625000I0J250000D01*
G01*
G37*
%TD.AperFunction*%
%TO.P,R17,1*%
%TO.N,Net-(R17-Pad1)*%
%TA.AperFunction,SMDPad,CuDef*%
G36*
G01*
X245787500Y-160625000D02*
X245787500Y-159375000D01*
G75*
G02*
X246037500Y-159125000I250000J0D01*
G01*
X246962500Y-159125000D01*
G75*
G02*
X247212500Y-159375000I0J-250000D01*
G01*
X247212500Y-160625000D01*
G75*
G02*
X246962500Y-160875000I-250000J0D01*
G01*
X246037500Y-160875000D01*
G75*
G02*
X245787500Y-160625000I0J250000D01*
G01*
G37*
%TD.AperFunction*%
%TD*%
%TO.P,R18,2*%
%TO.N,Net-(R17-Pad1)*%
%TA.AperFunction,SMDPad,CuDef*%
G36*
G01*
X252625000Y-163212500D02*
X251375000Y-163212500D01*
G75*
G02*
X251125000Y-162962500I0J250000D01*
G01*
X251125000Y-162037500D01*
G75*
G02*
X251375000Y-161787500I250000J0D01*
G01*
X252625000Y-161787500D01*
G75*
G02*
X252875000Y-162037500I0J-250000D01*
G01*
X252875000Y-162962500D01*
G75*
G02*
X252625000Y-163212500I-250000J0D01*
G01*
G37*
%TD.AperFunction*%
%TO.P,R18,1*%
%TO.N,/OP-AMPS/CELL5_FUSED*%
%TA.AperFunction,SMDPad,CuDef*%
G36*
G01*
X252625000Y-166187500D02*
X251375000Y-166187500D01*
G75*
G02*
X251125000Y-165937500I0J250000D01*
G01*
X251125000Y-165012500D01*
G75*
G02*
X251375000Y-164762500I250000J0D01*
G01*
X252625000Y-164762500D01*
G75*
G02*
X252875000Y-165012500I0J-250000D01*
G01*
X252875000Y-165937500D01*
G75*
G02*
X252625000Y-166187500I-250000J0D01*
G01*
G37*
%TD.AperFunction*%
%TD*%
%TO.P,R19,2*%
%TO.N,Net-(R19-Pad2)*%
%TA.AperFunction,SMDPad,CuDef*%
G36*
G01*
X249875000Y-163212500D02*
X248625000Y-163212500D01*
G75*
G02*
X248375000Y-162962500I0J250000D01*
G01*
X248375000Y-162037500D01*
G75*
G02*
X248625000Y-161787500I250000J0D01*
G01*
X249875000Y-161787500D01*
G75*
G02*
X250125000Y-162037500I0J-250000D01*
G01*
X250125000Y-162962500D01*
G75*
G02*
X249875000Y-163212500I-250000J0D01*
G01*
G37*
%TD.AperFunction*%
%TO.P,R19,1*%
%TO.N,/OP-AMPS/CELL6_FUSED*%
%TA.AperFunction,SMDPad,CuDef*%
G36*
G01*
X249875000Y-166187500D02*
X248625000Y-166187500D01*
G75*
G02*
X248375000Y-165937500I0J250000D01*
G01*
X248375000Y-165012500D01*
G75*
G02*
X248625000Y-164762500I250000J0D01*
G01*
X249875000Y-164762500D01*
G75*
G02*
X250125000Y-165012500I0J-250000D01*
G01*
X250125000Y-165937500D01*
G75*
G02*
X249875000Y-166187500I-250000J0D01*
G01*
G37*
%TD.AperFunction*%
%TD*%
%TO.P,R20,2*%
%TO.N,A4*%
%TA.AperFunction,SMDPad,CuDef*%
G36*
G01*
X245875000Y-164762500D02*
X247125000Y-164762500D01*
G75*
G02*
X247375000Y-165012500I0J-250000D01*
G01*
X247375000Y-165937500D01*
G75*
G02*
X247125000Y-166187500I-250000J0D01*
G01*
X245875000Y-166187500D01*
G75*
G02*
X245625000Y-165937500I0J250000D01*
G01*
X245625000Y-165012500D01*
G75*
G02*
X245875000Y-164762500I250000J0D01*
G01*
G37*
%TD.AperFunction*%
%TO.P,R20,1*%
%TO.N,Net-(R19-Pad2)*%
%TA.AperFunction,SMDPad,CuDef*%
G36*
G01*
X245875000Y-161787500D02*
X247125000Y-161787500D01*
G75*
G02*
X247375000Y-162037500I0J-250000D01*
G01*
X247375000Y-162962500D01*
G75*
G02*
X247125000Y-163212500I-250000J0D01*
G01*
X245875000Y-163212500D01*
G75*
G02*
X245625000Y-162962500I0J250000D01*
G01*
X245625000Y-162037500D01*
G75*
G02*
X245875000Y-161787500I250000J0D01*
G01*
G37*
%TD.AperFunction*%
%TD*%
%TO.P,R21,2*%
%TO.N,GND*%
%TA.AperFunction,SMDPad,CuDef*%
G36*
G01*
X248762500Y-155375000D02*
X248762500Y-154125000D01*
G75*
G02*
X249012500Y-153875000I250000J0D01*
G01*
X249937500Y-153875000D01*
G75*
G02*
X250187500Y-154125000I0J-250000D01*
G01*
X250187500Y-155375000D01*
G75*
G02*
X249937500Y-155625000I-250000J0D01*
G01*
X249012500Y-155625000D01*
G75*
G02*
X248762500Y-155375000I0J250000D01*
G01*
G37*
%TD.AperFunction*%
%TO.P,R21,1*%
%TO.N,Net-(R21-Pad1)*%
%TA.AperFunction,SMDPad,CuDef*%
G36*
G01*
X245787500Y-155375000D02*
X245787500Y-154125000D01*
G75*
G02*
X246037500Y-153875000I250000J0D01*
G01*
X246962500Y-153875000D01*
G75*
G02*
X247212500Y-154125000I0J-250000D01*
G01*
X247212500Y-155375000D01*
G75*
G02*
X246962500Y-155625000I-250000J0D01*
G01*
X246037500Y-155625000D01*
G75*
G02*
X245787500Y-155375000I0J250000D01*
G01*
G37*
%TD.AperFunction*%
%TD*%
%TO.P,R22,2*%
%TO.N,Net-(R21-Pad1)*%
%TA.AperFunction,SMDPad,CuDef*%
G36*
G01*
X251375000Y-151537500D02*
X252625000Y-151537500D01*
G75*
G02*
X252875000Y-151787500I0J-250000D01*
G01*
X252875000Y-152712500D01*
G75*
G02*
X252625000Y-152962500I-250000J0D01*
G01*
X251375000Y-152962500D01*
G75*
G02*
X251125000Y-152712500I0J250000D01*
G01*
X251125000Y-151787500D01*
G75*
G02*
X251375000Y-151537500I250000J0D01*
G01*
G37*
%TD.AperFunction*%
%TO.P,R22,1*%
%TO.N,/OP-AMPS/CELL6_FUSED*%
%TA.AperFunction,SMDPad,CuDef*%
G36*
G01*
X251375000Y-148562500D02*
X252625000Y-148562500D01*
G75*
G02*
X252875000Y-148812500I0J-250000D01*
G01*
X252875000Y-149737500D01*
G75*
G02*
X252625000Y-149987500I-250000J0D01*
G01*
X251375000Y-149987500D01*
G75*
G02*
X251125000Y-149737500I0J250000D01*
G01*
X251125000Y-148812500D01*
G75*
G02*
X251375000Y-148562500I250000J0D01*
G01*
G37*
%TD.AperFunction*%
%TD*%
%TO.P,R23,2*%
%TO.N,Net-(R23-Pad2)*%
%TA.AperFunction,SMDPad,CuDef*%
G36*
G01*
X248625000Y-151537500D02*
X249875000Y-151537500D01*
G75*
G02*
X250125000Y-151787500I0J-250000D01*
G01*
X250125000Y-152712500D01*
G75*
G02*
X249875000Y-152962500I-250000J0D01*
G01*
X248625000Y-152962500D01*
G75*
G02*
X248375000Y-152712500I0J250000D01*
G01*
X248375000Y-151787500D01*
G75*
G02*
X248625000Y-151537500I250000J0D01*
G01*
G37*
%TD.AperFunction*%
%TO.P,R23,1*%
%TO.N,/OP-AMPS/CELL7_FUSED*%
%TA.AperFunction,SMDPad,CuDef*%
G36*
G01*
X248625000Y-148562500D02*
X249875000Y-148562500D01*
G75*
G02*
X250125000Y-148812500I0J-250000D01*
G01*
X250125000Y-149737500D01*
G75*
G02*
X249875000Y-149987500I-250000J0D01*
G01*
X248625000Y-149987500D01*
G75*
G02*
X248375000Y-149737500I0J250000D01*
G01*
X248375000Y-148812500D01*
G75*
G02*
X248625000Y-148562500I250000J0D01*
G01*
G37*
%TD.AperFunction*%
%TD*%
%TO.P,R24,2*%
%TO.N,A5*%
%TA.AperFunction,SMDPad,CuDef*%
G36*
G01*
X247125000Y-149987500D02*
X245875000Y-149987500D01*
G75*
G02*
X245625000Y-149737500I0J250000D01*
G01*
X245625000Y-148812500D01*
G75*
G02*
X245875000Y-148562500I250000J0D01*
G01*
X247125000Y-148562500D01*
G75*
G02*
X247375000Y-148812500I0J-250000D01*
G01*
X247375000Y-149737500D01*
G75*
G02*
X247125000Y-149987500I-250000J0D01*
G01*
G37*
%TD.AperFunction*%
%TO.P,R24,1*%
%TO.N,Net-(R23-Pad2)*%
%TA.AperFunction,SMDPad,CuDef*%
G36*
G01*
X247125000Y-152962500D02*
X245875000Y-152962500D01*
G75*
G02*
X245625000Y-152712500I0J250000D01*
G01*
X245625000Y-151787500D01*
G75*
G02*
X245875000Y-151537500I250000J0D01*
G01*
X247125000Y-151537500D01*
G75*
G02*
X247375000Y-151787500I0J-250000D01*
G01*
X247375000Y-152712500D01*
G75*
G02*
X247125000Y-152962500I-250000J0D01*
G01*
G37*
%TD.AperFunction*%
%TD*%
%TO.P,R25,2*%
%TO.N,GND*%
%TA.AperFunction,SMDPad,CuDef*%
G36*
G01*
X229487500Y-154125000D02*
X229487500Y-155375000D01*
G75*
G02*
X229237500Y-155625000I-250000J0D01*
G01*
X228312500Y-155625000D01*
G75*
G02*
X228062500Y-155375000I0J250000D01*
G01*
X228062500Y-154125000D01*
G75*
G02*
X228312500Y-153875000I250000J0D01*
G01*
X229237500Y-153875000D01*
G75*
G02*
X229487500Y-154125000I0J-250000D01*
G01*
G37*
%TD.AperFunction*%
%TO.P,R25,1*%
%TO.N,Net-(R25-Pad1)*%
%TA.AperFunction,SMDPad,CuDef*%
G36*
G01*
X232462500Y-154125000D02*
X232462500Y-155375000D01*
G75*
G02*
X232212500Y-155625000I-250000J0D01*
G01*
X231287500Y-155625000D01*
G75*
G02*
X231037500Y-155375000I0J250000D01*
G01*
X231037500Y-154125000D01*
G75*
G02*
X231287500Y-153875000I250000J0D01*
G01*
X232212500Y-153875000D01*
G75*
G02*
X232462500Y-154125000I0J-250000D01*
G01*
G37*
%TD.AperFunction*%
%TD*%
%TO.P,R26,2*%
%TO.N,Net-(R25-Pad1)*%
%TA.AperFunction,SMDPad,CuDef*%
G36*
G01*
X225625000Y-151537500D02*
X226875000Y-151537500D01*
G75*
G02*
X227125000Y-151787500I0J-250000D01*
G01*
X227125000Y-152712500D01*
G75*
G02*
X226875000Y-152962500I-250000J0D01*
G01*
X225625000Y-152962500D01*
G75*
G02*
X225375000Y-152712500I0J250000D01*
G01*
X225375000Y-151787500D01*
G75*
G02*
X225625000Y-151537500I250000J0D01*
G01*
G37*
%TD.AperFunction*%
%TO.P,R26,1*%
%TO.N,/OP-AMPS/CELL7_FUSED*%
%TA.AperFunction,SMDPad,CuDef*%
G36*
G01*
X225625000Y-148562500D02*
X226875000Y-148562500D01*
G75*
G02*
X227125000Y-148812500I0J-250000D01*
G01*
X227125000Y-149737500D01*
G75*
G02*
X226875000Y-149987500I-250000J0D01*
G01*
X225625000Y-149987500D01*
G75*
G02*
X225375000Y-149737500I0J250000D01*
G01*
X225375000Y-148812500D01*
G75*
G02*
X225625000Y-148562500I250000J0D01*
G01*
G37*
%TD.AperFunction*%
%TD*%
%TO.P,R27,2*%
%TO.N,Net-(R27-Pad2)*%
%TA.AperFunction,SMDPad,CuDef*%
G36*
G01*
X228375000Y-151537500D02*
X229625000Y-151537500D01*
G75*
G02*
X229875000Y-151787500I0J-250000D01*
G01*
X229875000Y-152712500D01*
G75*
G02*
X229625000Y-152962500I-250000J0D01*
G01*
X228375000Y-152962500D01*
G75*
G02*
X228125000Y-152712500I0J250000D01*
G01*
X228125000Y-151787500D01*
G75*
G02*
X228375000Y-151537500I250000J0D01*
G01*
G37*
%TD.AperFunction*%
%TO.P,R27,1*%
%TO.N,/OP-AMPS/CELL8_FUSED*%
%TA.AperFunction,SMDPad,CuDef*%
G36*
G01*
X228375000Y-148562500D02*
X229625000Y-148562500D01*
G75*
G02*
X229875000Y-148812500I0J-250000D01*
G01*
X229875000Y-149737500D01*
G75*
G02*
X229625000Y-149987500I-250000J0D01*
G01*
X228375000Y-149987500D01*
G75*
G02*
X228125000Y-149737500I0J250000D01*
G01*
X228125000Y-148812500D01*
G75*
G02*
X228375000Y-148562500I250000J0D01*
G01*
G37*
%TD.AperFunction*%
%TD*%
%TO.P,R28,2*%
%TO.N,A6*%
%TA.AperFunction,SMDPad,CuDef*%
G36*
G01*
X232375000Y-149987500D02*
X231125000Y-149987500D01*
G75*
G02*
X230875000Y-149737500I0J250000D01*
G01*
X230875000Y-148812500D01*
G75*
G02*
X231125000Y-148562500I250000J0D01*
G01*
X232375000Y-148562500D01*
G75*
G02*
X232625000Y-148812500I0J-250000D01*
G01*
X232625000Y-149737500D01*
G75*
G02*
X232375000Y-149987500I-250000J0D01*
G01*
G37*
%TD.AperFunction*%
%TO.P,R28,1*%
%TO.N,Net-(R27-Pad2)*%
%TA.AperFunction,SMDPad,CuDef*%
G36*
G01*
X232375000Y-152962500D02*
X231125000Y-152962500D01*
G75*
G02*
X230875000Y-152712500I0J250000D01*
G01*
X230875000Y-151787500D01*
G75*
G02*
X231125000Y-151537500I250000J0D01*
G01*
X232375000Y-151537500D01*
G75*
G02*
X232625000Y-151787500I0J-250000D01*
G01*
X232625000Y-152712500D01*
G75*
G02*
X232375000Y-152962500I-250000J0D01*
G01*
G37*
%TD.AperFunction*%
%TD*%
%TO.P,R29,2*%
%TO.N,GND*%
%TA.AperFunction,SMDPad,CuDef*%
G36*
G01*
X229487500Y-159375000D02*
X229487500Y-160625000D01*
G75*
G02*
X229237500Y-160875000I-250000J0D01*
G01*
X228312500Y-160875000D01*
G75*
G02*
X228062500Y-160625000I0J250000D01*
G01*
X228062500Y-159375000D01*
G75*
G02*
X228312500Y-159125000I250000J0D01*
G01*
X229237500Y-159125000D01*
G75*
G02*
X229487500Y-159375000I0J-250000D01*
G01*
G37*
%TD.AperFunction*%
%TO.P,R29,1*%
%TO.N,Net-(R29-Pad1)*%
%TA.AperFunction,SMDPad,CuDef*%
G36*
G01*
X232462500Y-159375000D02*
X232462500Y-160625000D01*
G75*
G02*
X232212500Y-160875000I-250000J0D01*
G01*
X231287500Y-160875000D01*
G75*
G02*
X231037500Y-160625000I0J250000D01*
G01*
X231037500Y-159375000D01*
G75*
G02*
X231287500Y-159125000I250000J0D01*
G01*
X232212500Y-159125000D01*
G75*
G02*
X232462500Y-159375000I0J-250000D01*
G01*
G37*
%TD.AperFunction*%
%TD*%
%TO.P,R30,2*%
%TO.N,Net-(R29-Pad1)*%
%TA.AperFunction,SMDPad,CuDef*%
G36*
G01*
X226875000Y-163212500D02*
X225625000Y-163212500D01*
G75*
G02*
X225375000Y-162962500I0J250000D01*
G01*
X225375000Y-162037500D01*
G75*
G02*
X225625000Y-161787500I250000J0D01*
G01*
X226875000Y-161787500D01*
G75*
G02*
X227125000Y-162037500I0J-250000D01*
G01*
X227125000Y-162962500D01*
G75*
G02*
X226875000Y-163212500I-250000J0D01*
G01*
G37*
%TD.AperFunction*%
%TO.P,R30,1*%
%TO.N,/OP-AMPS/CELL8_FUSED*%
%TA.AperFunction,SMDPad,CuDef*%
G36*
G01*
X226875000Y-166187500D02*
X225625000Y-166187500D01*
G75*
G02*
X225375000Y-165937500I0J250000D01*
G01*
X225375000Y-165012500D01*
G75*
G02*
X225625000Y-164762500I250000J0D01*
G01*
X226875000Y-164762500D01*
G75*
G02*
X227125000Y-165012500I0J-250000D01*
G01*
X227125000Y-165937500D01*
G75*
G02*
X226875000Y-166187500I-250000J0D01*
G01*
G37*
%TD.AperFunction*%
%TD*%
%TO.P,R31,2*%
%TO.N,Net-(R31-Pad2)*%
%TA.AperFunction,SMDPad,CuDef*%
G36*
G01*
X229625000Y-163212500D02*
X228375000Y-163212500D01*
G75*
G02*
X228125000Y-162962500I0J250000D01*
G01*
X228125000Y-162037500D01*
G75*
G02*
X228375000Y-161787500I250000J0D01*
G01*
X229625000Y-161787500D01*
G75*
G02*
X229875000Y-162037500I0J-250000D01*
G01*
X229875000Y-162962500D01*
G75*
G02*
X229625000Y-163212500I-250000J0D01*
G01*
G37*
%TD.AperFunction*%
%TO.P,R31,1*%
%TO.N,/OP-AMPS/CELL9_FUSED*%
%TA.AperFunction,SMDPad,CuDef*%
G36*
G01*
X229625000Y-166187500D02*
X228375000Y-166187500D01*
G75*
G02*
X228125000Y-165937500I0J250000D01*
G01*
X228125000Y-165012500D01*
G75*
G02*
X228375000Y-164762500I250000J0D01*
G01*
X229625000Y-164762500D01*
G75*
G02*
X229875000Y-165012500I0J-250000D01*
G01*
X229875000Y-165937500D01*
G75*
G02*
X229625000Y-166187500I-250000J0D01*
G01*
G37*
%TD.AperFunction*%
%TD*%
%TO.P,R32,2*%
%TO.N,A7*%
%TA.AperFunction,SMDPad,CuDef*%
G36*
G01*
X231125000Y-164762500D02*
X232375000Y-164762500D01*
G75*
G02*
X232625000Y-165012500I0J-250000D01*
G01*
X232625000Y-165937500D01*
G75*
G02*
X232375000Y-166187500I-250000J0D01*
G01*
X231125000Y-166187500D01*
G75*
G02*
X230875000Y-165937500I0J250000D01*
G01*
X230875000Y-165012500D01*
G75*
G02*
X231125000Y-164762500I250000J0D01*
G01*
G37*
%TD.AperFunction*%
%TO.P,R32,1*%
%TO.N,Net-(R31-Pad2)*%
%TA.AperFunction,SMDPad,CuDef*%
G36*
G01*
X231125000Y-161787500D02*
X232375000Y-161787500D01*
G75*
G02*
X232625000Y-162037500I0J-250000D01*
G01*
X232625000Y-162962500D01*
G75*
G02*
X232375000Y-163212500I-250000J0D01*
G01*
X231125000Y-163212500D01*
G75*
G02*
X230875000Y-162962500I0J250000D01*
G01*
X230875000Y-162037500D01*
G75*
G02*
X231125000Y-161787500I250000J0D01*
G01*
G37*
%TD.AperFunction*%
%TD*%
%TO.P,R33,2*%
%TO.N,GND*%
%TA.AperFunction,SMDPad,CuDef*%
G36*
G01*
X140762500Y-160625000D02*
X140762500Y-159375000D01*
G75*
G02*
X141012500Y-159125000I250000J0D01*
G01*
X141937500Y-159125000D01*
G75*
G02*
X142187500Y-159375000I0J-250000D01*
G01*
X142187500Y-160625000D01*
G75*
G02*
X141937500Y-160875000I-250000J0D01*
G01*
X141012500Y-160875000D01*
G75*
G02*
X140762500Y-160625000I0J250000D01*
G01*
G37*
%TD.AperFunction*%
%TO.P,R33,1*%
%TO.N,Net-(R33-Pad1)*%
%TA.AperFunction,SMDPad,CuDef*%
G36*
G01*
X137787500Y-160625000D02*
X137787500Y-159375000D01*
G75*
G02*
X138037500Y-159125000I250000J0D01*
G01*
X138962500Y-159125000D01*
G75*
G02*
X139212500Y-159375000I0J-250000D01*
G01*
X139212500Y-160625000D01*
G75*
G02*
X138962500Y-160875000I-250000J0D01*
G01*
X138037500Y-160875000D01*
G75*
G02*
X137787500Y-160625000I0J250000D01*
G01*
G37*
%TD.AperFunction*%
%TD*%
%TO.P,R34,2*%
%TO.N,Net-(R33-Pad1)*%
%TA.AperFunction,SMDPad,CuDef*%
G36*
G01*
X144625000Y-163212500D02*
X143375000Y-163212500D01*
G75*
G02*
X143125000Y-162962500I0J250000D01*
G01*
X143125000Y-162037500D01*
G75*
G02*
X143375000Y-161787500I250000J0D01*
G01*
X144625000Y-161787500D01*
G75*
G02*
X144875000Y-162037500I0J-250000D01*
G01*
X144875000Y-162962500D01*
G75*
G02*
X144625000Y-163212500I-250000J0D01*
G01*
G37*
%TD.AperFunction*%
%TO.P,R34,1*%
%TO.N,/OP-AMPS/CELL9_FUSED*%
%TA.AperFunction,SMDPad,CuDef*%
G36*
G01*
X144625000Y-166187500D02*
X143375000Y-166187500D01*
G75*
G02*
X143125000Y-165937500I0J250000D01*
G01*
X143125000Y-165012500D01*
G75*
G02*
X143375000Y-164762500I250000J0D01*
G01*
X144625000Y-164762500D01*
G75*
G02*
X144875000Y-165012500I0J-250000D01*
G01*
X144875000Y-165937500D01*
G75*
G02*
X144625000Y-166187500I-250000J0D01*
G01*
G37*
%TD.AperFunction*%
%TD*%
%TO.P,R35,2*%
%TO.N,Net-(R35-Pad2)*%
%TA.AperFunction,SMDPad,CuDef*%
G36*
G01*
X141875000Y-163212500D02*
X140625000Y-163212500D01*
G75*
G02*
X140375000Y-162962500I0J250000D01*
G01*
X140375000Y-162037500D01*
G75*
G02*
X140625000Y-161787500I250000J0D01*
G01*
X141875000Y-161787500D01*
G75*
G02*
X142125000Y-162037500I0J-250000D01*
G01*
X142125000Y-162962500D01*
G75*
G02*
X141875000Y-163212500I-250000J0D01*
G01*
G37*
%TD.AperFunction*%
%TO.P,R35,1*%
%TO.N,/OP-AMPS/CELL10_FUSED*%
%TA.AperFunction,SMDPad,CuDef*%
G36*
G01*
X141875000Y-166187500D02*
X140625000Y-166187500D01*
G75*
G02*
X140375000Y-165937500I0J250000D01*
G01*
X140375000Y-165012500D01*
G75*
G02*
X140625000Y-164762500I250000J0D01*
G01*
X141875000Y-164762500D01*
G75*
G02*
X142125000Y-165012500I0J-250000D01*
G01*
X142125000Y-165937500D01*
G75*
G02*
X141875000Y-166187500I-250000J0D01*
G01*
G37*
%TD.AperFunction*%
%TD*%
%TO.P,R36,2*%
%TO.N,A8*%
%TA.AperFunction,SMDPad,CuDef*%
G36*
G01*
X137875000Y-164762500D02*
X139125000Y-164762500D01*
G75*
G02*
X139375000Y-165012500I0J-250000D01*
G01*
X139375000Y-165937500D01*
G75*
G02*
X139125000Y-166187500I-250000J0D01*
G01*
X137875000Y-166187500D01*
G75*
G02*
X137625000Y-165937500I0J250000D01*
G01*
X137625000Y-165012500D01*
G75*
G02*
X137875000Y-164762500I250000J0D01*
G01*
G37*
%TD.AperFunction*%
%TO.P,R36,1*%
%TO.N,Net-(R35-Pad2)*%
%TA.AperFunction,SMDPad,CuDef*%
G36*
G01*
X137875000Y-161787500D02*
X139125000Y-161787500D01*
G75*
G02*
X139375000Y-162037500I0J-250000D01*
G01*
X139375000Y-162962500D01*
G75*
G02*
X139125000Y-163212500I-250000J0D01*
G01*
X137875000Y-163212500D01*
G75*
G02*
X137625000Y-162962500I0J250000D01*
G01*
X137625000Y-162037500D01*
G75*
G02*
X137875000Y-161787500I250000J0D01*
G01*
G37*
%TD.AperFunction*%
%TD*%
%TO.P,R37,2*%
%TO.N,GND*%
%TA.AperFunction,SMDPad,CuDef*%
G36*
G01*
X140762500Y-155375000D02*
X140762500Y-154125000D01*
G75*
G02*
X141012500Y-153875000I250000J0D01*
G01*
X141937500Y-153875000D01*
G75*
G02*
X142187500Y-154125000I0J-250000D01*
G01*
X142187500Y-155375000D01*
G75*
G02*
X141937500Y-155625000I-250000J0D01*
G01*
X141012500Y-155625000D01*
G75*
G02*
X140762500Y-155375000I0J250000D01*
G01*
G37*
%TD.AperFunction*%
%TO.P,R37,1*%
%TO.N,Net-(R37-Pad1)*%
%TA.AperFunction,SMDPad,CuDef*%
G36*
G01*
X137787500Y-155375000D02*
X137787500Y-154125000D01*
G75*
G02*
X138037500Y-153875000I250000J0D01*
G01*
X138962500Y-153875000D01*
G75*
G02*
X139212500Y-154125000I0J-250000D01*
G01*
X139212500Y-155375000D01*
G75*
G02*
X138962500Y-155625000I-250000J0D01*
G01*
X138037500Y-155625000D01*
G75*
G02*
X137787500Y-155375000I0J250000D01*
G01*
G37*
%TD.AperFunction*%
%TD*%
%TO.P,R38,2*%
%TO.N,Net-(R37-Pad1)*%
%TA.AperFunction,SMDPad,CuDef*%
G36*
G01*
X143375000Y-151537500D02*
X144625000Y-151537500D01*
G75*
G02*
X144875000Y-151787500I0J-250000D01*
G01*
X144875000Y-152712500D01*
G75*
G02*
X144625000Y-152962500I-250000J0D01*
G01*
X143375000Y-152962500D01*
G75*
G02*
X143125000Y-152712500I0J250000D01*
G01*
X143125000Y-151787500D01*
G75*
G02*
X143375000Y-151537500I250000J0D01*
G01*
G37*
%TD.AperFunction*%
%TO.P,R38,1*%
%TO.N,/OP-AMPS/CELL10_FUSED*%
%TA.AperFunction,SMDPad,CuDef*%
G36*
G01*
X143375000Y-148562500D02*
X144625000Y-148562500D01*
G75*
G02*
X144875000Y-148812500I0J-250000D01*
G01*
X144875000Y-149737500D01*
G75*
G02*
X144625000Y-149987500I-250000J0D01*
G01*
X143375000Y-149987500D01*
G75*
G02*
X143125000Y-149737500I0J250000D01*
G01*
X143125000Y-148812500D01*
G75*
G02*
X143375000Y-148562500I250000J0D01*
G01*
G37*
%TD.AperFunction*%
%TD*%
%TO.P,R39,2*%
%TO.N,Net-(R39-Pad2)*%
%TA.AperFunction,SMDPad,CuDef*%
G36*
G01*
X140625000Y-151537500D02*
X141875000Y-151537500D01*
G75*
G02*
X142125000Y-151787500I0J-250000D01*
G01*
X142125000Y-152712500D01*
G75*
G02*
X141875000Y-152962500I-250000J0D01*
G01*
X140625000Y-152962500D01*
G75*
G02*
X140375000Y-152712500I0J250000D01*
G01*
X140375000Y-151787500D01*
G75*
G02*
X140625000Y-151537500I250000J0D01*
G01*
G37*
%TD.AperFunction*%
%TO.P,R39,1*%
%TO.N,GND*%
%TA.AperFunction,SMDPad,CuDef*%
G36*
G01*
X140625000Y-148562500D02*
X141875000Y-148562500D01*
G75*
G02*
X142125000Y-148812500I0J-250000D01*
G01*
X142125000Y-149737500D01*
G75*
G02*
X141875000Y-149987500I-250000J0D01*
G01*
X140625000Y-149987500D01*
G75*
G02*
X140375000Y-149737500I0J250000D01*
G01*
X140375000Y-148812500D01*
G75*
G02*
X140625000Y-148562500I250000J0D01*
G01*
G37*
%TD.AperFunction*%
%TD*%
%TO.P,R40,2*%
%TO.N,A9*%
%TA.AperFunction,SMDPad,CuDef*%
G36*
G01*
X139125000Y-149987500D02*
X137875000Y-149987500D01*
G75*
G02*
X137625000Y-149737500I0J250000D01*
G01*
X137625000Y-148812500D01*
G75*
G02*
X137875000Y-148562500I250000J0D01*
G01*
X139125000Y-148562500D01*
G75*
G02*
X139375000Y-148812500I0J-250000D01*
G01*
X139375000Y-149737500D01*
G75*
G02*
X139125000Y-149987500I-250000J0D01*
G01*
G37*
%TD.AperFunction*%
%TO.P,R40,1*%
%TO.N,Net-(R39-Pad2)*%
%TA.AperFunction,SMDPad,CuDef*%
G36*
G01*
X139125000Y-152962500D02*
X137875000Y-152962500D01*
G75*
G02*
X137625000Y-152712500I0J250000D01*
G01*
X137625000Y-151787500D01*
G75*
G02*
X137875000Y-151537500I250000J0D01*
G01*
X139125000Y-151537500D01*
G75*
G02*
X139375000Y-151787500I0J-250000D01*
G01*
X139375000Y-152712500D01*
G75*
G02*
X139125000Y-152962500I-250000J0D01*
G01*
G37*
%TD.AperFunction*%
%TD*%
%TO.P,R41,2*%
%TO.N,AREF*%
%TA.AperFunction,SMDPad,CuDef*%
G36*
G01*
X167375000Y-165262500D02*
X168625000Y-165262500D01*
G75*
G02*
X168875000Y-165512500I0J-250000D01*
G01*
X168875000Y-166437500D01*
G75*
G02*
X168625000Y-166687500I-250000J0D01*
G01*
X167375000Y-166687500D01*
G75*
G02*
X167125000Y-166437500I0J250000D01*
G01*
X167125000Y-165512500D01*
G75*
G02*
X167375000Y-165262500I250000J0D01*
G01*
G37*
%TD.AperFunction*%
%TO.P,R41,1*%
%TO.N,5V*%
%TA.AperFunction,SMDPad,CuDef*%
G36*
G01*
X167375000Y-162287500D02*
X168625000Y-162287500D01*
G75*
G02*
X168875000Y-162537500I0J-250000D01*
G01*
X168875000Y-163462500D01*
G75*
G02*
X168625000Y-163712500I-250000J0D01*
G01*
X167375000Y-163712500D01*
G75*
G02*
X167125000Y-163462500I0J250000D01*
G01*
X167125000Y-162537500D01*
G75*
G02*
X167375000Y-162287500I250000J0D01*
G01*
G37*
%TD.AperFunction*%
%TD*%
%TO.P,R42,2*%
%TO.N,GND*%
%TA.AperFunction,SMDPad,CuDef*%
G36*
G01*
X171375000Y-163712500D02*
X170125000Y-163712500D01*
G75*
G02*
X169875000Y-163462500I0J250000D01*
G01*
X169875000Y-162537500D01*
G75*
G02*
X170125000Y-162287500I250000J0D01*
G01*
X171375000Y-162287500D01*
G75*
G02*
X171625000Y-162537500I0J-250000D01*
G01*
X171625000Y-163462500D01*
G75*
G02*
X171375000Y-163712500I-250000J0D01*
G01*
G37*
%TD.AperFunction*%
%TO.P,R42,1*%
%TO.N,AREF*%
%TA.AperFunction,SMDPad,CuDef*%
G36*
G01*
X171375000Y-166687500D02*
X170125000Y-166687500D01*
G75*
G02*
X169875000Y-166437500I0J250000D01*
G01*
X169875000Y-165512500D01*
G75*
G02*
X170125000Y-165262500I250000J0D01*
G01*
X171375000Y-165262500D01*
G75*
G02*
X171625000Y-165512500I0J-250000D01*
G01*
X171625000Y-166437500D01*
G75*
G02*
X171375000Y-166687500I-250000J0D01*
G01*
G37*
%TD.AperFunction*%
%TD*%
%TO.P,R43,2*%
%TO.N,Net-(R43-Pad2)*%
%TA.AperFunction,SMDPad,CuDef*%
G36*
G01*
X350037500Y-168125000D02*
X350037500Y-166875000D01*
G75*
G02*
X350287500Y-166625000I250000J0D01*
G01*
X351212500Y-166625000D01*
G75*
G02*
X351462500Y-166875000I0J-250000D01*
G01*
X351462500Y-168125000D01*
G75*
G02*
X351212500Y-168375000I-250000J0D01*
G01*
X350287500Y-168375000D01*
G75*
G02*
X350037500Y-168125000I0J250000D01*
G01*
G37*
%TD.AperFunction*%
%TO.P,R43,1*%
%TO.N,5V*%
%TA.AperFunction,SMDPad,CuDef*%
G36*
G01*
X347062500Y-168125000D02*
X347062500Y-166875000D01*
G75*
G02*
X347312500Y-166625000I250000J0D01*
G01*
X348237500Y-166625000D01*
G75*
G02*
X348487500Y-166875000I0J-250000D01*
G01*
X348487500Y-168125000D01*
G75*
G02*
X348237500Y-168375000I-250000J0D01*
G01*
X347312500Y-168375000D01*
G75*
G02*
X347062500Y-168125000I0J250000D01*
G01*
G37*
%TD.AperFunction*%
%TD*%
%TO.P,R44,2*%
%TO.N,GND*%
%TA.AperFunction,SMDPad,CuDef*%
G36*
G01*
X348487500Y-169875000D02*
X348487500Y-171125000D01*
G75*
G02*
X348237500Y-171375000I-250000J0D01*
G01*
X347312500Y-171375000D01*
G75*
G02*
X347062500Y-171125000I0J250000D01*
G01*
X347062500Y-169875000D01*
G75*
G02*
X347312500Y-169625000I250000J0D01*
G01*
X348237500Y-169625000D01*
G75*
G02*
X348487500Y-169875000I0J-250000D01*
G01*
G37*
%TD.AperFunction*%
%TO.P,R44,1*%
%TO.N,Net-(R43-Pad2)*%
%TA.AperFunction,SMDPad,CuDef*%
G36*
G01*
X351462500Y-169875000D02*
X351462500Y-171125000D01*
G75*
G02*
X351212500Y-171375000I-250000J0D01*
G01*
X350287500Y-171375000D01*
G75*
G02*
X350037500Y-171125000I0J250000D01*
G01*
X350037500Y-169875000D01*
G75*
G02*
X350287500Y-169625000I250000J0D01*
G01*
X351212500Y-169625000D01*
G75*
G02*
X351462500Y-169875000I0J-250000D01*
G01*
G37*
%TD.AperFunction*%
%TD*%
%TO.P,R45,2*%
%TO.N,GND*%
%TA.AperFunction,SMDPad,CuDef*%
G36*
G01*
X345262500Y-184625000D02*
X345262500Y-183375000D01*
G75*
G02*
X345512500Y-183125000I250000J0D01*
G01*
X346437500Y-183125000D01*
G75*
G02*
X346687500Y-183375000I0J-250000D01*
G01*
X346687500Y-184625000D01*
G75*
G02*
X346437500Y-184875000I-250000J0D01*
G01*
X345512500Y-184875000D01*
G75*
G02*
X345262500Y-184625000I0J250000D01*
G01*
G37*
%TD.AperFunction*%
%TO.P,R45,1*%
%TO.N,Net-(D3-Pad1)*%
%TA.AperFunction,SMDPad,CuDef*%
G36*
G01*
X342287500Y-184625000D02*
X342287500Y-183375000D01*
G75*
G02*
X342537500Y-183125000I250000J0D01*
G01*
X343462500Y-183125000D01*
G75*
G02*
X343712500Y-183375000I0J-250000D01*
G01*
X343712500Y-184625000D01*
G75*
G02*
X343462500Y-184875000I-250000J0D01*
G01*
X342537500Y-184875000D01*
G75*
G02*
X342287500Y-184625000I0J250000D01*
G01*
G37*
%TD.AperFunction*%
%TD*%
%TO.P,R46,2*%
%TO.N,Net-(D5-Pad1)*%
%TA.AperFunction,SMDPad,CuDef*%
G36*
G01*
X336712500Y-183375000D02*
X336712500Y-184625000D01*
G75*
G02*
X336462500Y-184875000I-250000J0D01*
G01*
X335537500Y-184875000D01*
G75*
G02*
X335287500Y-184625000I0J250000D01*
G01*
X335287500Y-183375000D01*
G75*
G02*
X335537500Y-183125000I250000J0D01*
G01*
X336462500Y-183125000D01*
G75*
G02*
X336712500Y-183375000I0J-250000D01*
G01*
G37*
%TD.AperFunction*%
%TO.P,R46,1*%
%TO.N,GND*%
%TA.AperFunction,SMDPad,CuDef*%
G36*
G01*
X339687500Y-183375000D02*
X339687500Y-184625000D01*
G75*
G02*
X339437500Y-184875000I-250000J0D01*
G01*
X338512500Y-184875000D01*
G75*
G02*
X338262500Y-184625000I0J250000D01*
G01*
X338262500Y-183375000D01*
G75*
G02*
X338512500Y-183125000I250000J0D01*
G01*
X339437500Y-183125000D01*
G75*
G02*
X339687500Y-183375000I0J-250000D01*
G01*
G37*
%TD.AperFunction*%
%TD*%
%TO.P,R48,1*%
%TO.N,CHARGE_CONTROL_SIGNAL*%
%TA.AperFunction,SMDPad,CuDef*%
G36*
G01*
X315437500Y-174375000D02*
X315437500Y-175625000D01*
G75*
G02*
X315187500Y-175875000I-250000J0D01*
G01*
X314262500Y-175875000D01*
G75*
G02*
X314012500Y-175625000I0J250000D01*
G01*
X314012500Y-174375000D01*
G75*
G02*
X314262500Y-174125000I250000J0D01*
G01*
X315187500Y-174125000D01*
G75*
G02*
X315437500Y-174375000I0J-250000D01*
G01*
G37*
%TD.AperFunction*%
%TO.P,R48,2*%
%TO.N,Net-(Q1-Pad2)*%
%TA.AperFunction,SMDPad,CuDef*%
G36*
G01*
X312462500Y-174375000D02*
X312462500Y-175625000D01*
G75*
G02*
X312212500Y-175875000I-250000J0D01*
G01*
X311287500Y-175875000D01*
G75*
G02*
X311037500Y-175625000I0J250000D01*
G01*
X311037500Y-174375000D01*
G75*
G02*
X311287500Y-174125000I250000J0D01*
G01*
X312212500Y-174125000D01*
G75*
G02*
X312462500Y-174375000I0J-250000D01*
G01*
G37*
%TD.AperFunction*%
%TD*%
%TO.P,R49,2*%
%TO.N,GND*%
%TA.AperFunction,SMDPad,CuDef*%
G36*
G01*
X314012500Y-178125000D02*
X314012500Y-176875000D01*
G75*
G02*
X314262500Y-176625000I250000J0D01*
G01*
X315187500Y-176625000D01*
G75*
G02*
X315437500Y-176875000I0J-250000D01*
G01*
X315437500Y-178125000D01*
G75*
G02*
X315187500Y-178375000I-250000J0D01*
G01*
X314262500Y-178375000D01*
G75*
G02*
X314012500Y-178125000I0J250000D01*
G01*
G37*
%TD.AperFunction*%
%TO.P,R49,1*%
%TO.N,Net-(Q1-Pad2)*%
%TA.AperFunction,SMDPad,CuDef*%
G36*
G01*
X311037500Y-178125000D02*
X311037500Y-176875000D01*
G75*
G02*
X311287500Y-176625000I250000J0D01*
G01*
X312212500Y-176625000D01*
G75*
G02*
X312462500Y-176875000I0J-250000D01*
G01*
X312462500Y-178125000D01*
G75*
G02*
X312212500Y-178375000I-250000J0D01*
G01*
X311287500Y-178375000D01*
G75*
G02*
X311037500Y-178125000I0J250000D01*
G01*
G37*
%TD.AperFunction*%
%TD*%
%TO.P,R50,2*%
%TO.N,Net-(D7-Pad4)*%
%TA.AperFunction,SMDPad,CuDef*%
G36*
G01*
X384287500Y-133625000D02*
X384287500Y-132375000D01*
G75*
G02*
X384537500Y-132125000I250000J0D01*
G01*
X385462500Y-132125000D01*
G75*
G02*
X385712500Y-132375000I0J-250000D01*
G01*
X385712500Y-133625000D01*
G75*
G02*
X385462500Y-133875000I-250000J0D01*
G01*
X384537500Y-133875000D01*
G75*
G02*
X384287500Y-133625000I0J250000D01*
G01*
G37*
%TD.AperFunction*%
%TO.P,R50,1*%
%TO.N,DATA*%
%TA.AperFunction,SMDPad,CuDef*%
G36*
G01*
X381312500Y-133625000D02*
X381312500Y-132375000D01*
G75*
G02*
X381562500Y-132125000I250000J0D01*
G01*
X382487500Y-132125000D01*
G75*
G02*
X382737500Y-132375000I0J-250000D01*
G01*
X382737500Y-133625000D01*
G75*
G02*
X382487500Y-133875000I-250000J0D01*
G01*
X381562500Y-133875000D01*
G75*
G02*
X381312500Y-133625000I0J250000D01*
G01*
G37*
%TD.AperFunction*%
%TD*%
D15*
%TO.P,SW1,1*%
%TO.N,GND*%
X279000000Y-186500000D03*
%TO.P,SW1,2*%
%TO.N,Net-(SW1-Pad2)*%
X279000000Y-191000000D03*
%TO.P,SW1,1*%
%TO.N,GND*%
X272500000Y-186500000D03*
%TO.P,SW1,2*%
%TO.N,Net-(SW1-Pad2)*%
X272500000Y-191000000D03*
%TD*%
D29*
%TO.P,U1,14*%
%TO.N,A3*%
X270380000Y-165000000D03*
%TO.P,U1,7*%
%TO.N,A1*%
X278000000Y-149760000D03*
%TO.P,U1,13*%
%TO.N,Net-(R15-Pad2)*%
X270380000Y-162460000D03*
%TO.P,U1,6*%
%TO.N,Net-(R7-Pad2)*%
X278000000Y-152300000D03*
%TO.P,U1,12*%
%TO.N,Net-(R13-Pad1)*%
X270380000Y-159920000D03*
%TO.P,U1,5*%
%TO.N,Net-(R5-Pad1)*%
X278000000Y-154840000D03*
%TO.P,U1,11*%
%TO.N,GND*%
X270380000Y-157380000D03*
%TO.P,U1,4*%
%TO.N,12VDC_BUS*%
X278000000Y-157380000D03*
%TO.P,U1,10*%
%TO.N,Net-(R10-Pad2)*%
X270380000Y-154840000D03*
%TO.P,U1,3*%
%TO.N,Net-(R1-Pad1)*%
X278000000Y-159920000D03*
%TO.P,U1,9*%
%TO.N,Net-(R11-Pad2)*%
X270380000Y-152300000D03*
%TO.P,U1,2*%
%TO.N,Net-(R3-Pad2)*%
X278000000Y-162460000D03*
%TO.P,U1,8*%
%TO.N,A2*%
X270380000Y-149760000D03*
D30*
%TO.P,U1,1*%
%TO.N,A0*%
X278000000Y-165000000D03*
%TD*%
D29*
%TO.P,U2,14*%
%TO.N,A7*%
X235380000Y-165000000D03*
%TO.P,U2,7*%
%TO.N,A5*%
X243000000Y-149760000D03*
%TO.P,U2,13*%
%TO.N,Net-(R31-Pad2)*%
X235380000Y-162460000D03*
%TO.P,U2,6*%
%TO.N,Net-(R23-Pad2)*%
X243000000Y-152300000D03*
%TO.P,U2,12*%
%TO.N,Net-(R29-Pad1)*%
X235380000Y-159920000D03*
%TO.P,U2,5*%
%TO.N,Net-(R21-Pad1)*%
X243000000Y-154840000D03*
%TO.P,U2,11*%
%TO.N,GND*%
X235380000Y-157380000D03*
%TO.P,U2,4*%
%TO.N,12VDC_BUS*%
X243000000Y-157380000D03*
%TO.P,U2,10*%
%TO.N,Net-(R25-Pad1)*%
X235380000Y-154840000D03*
%TO.P,U2,3*%
%TO.N,Net-(R17-Pad1)*%
X243000000Y-159920000D03*
%TO.P,U2,9*%
%TO.N,Net-(R27-Pad2)*%
X235380000Y-152300000D03*
%TO.P,U2,2*%
%TO.N,Net-(R19-Pad2)*%
X243000000Y-162460000D03*
%TO.P,U2,8*%
%TO.N,A6*%
X235380000Y-149760000D03*
D30*
%TO.P,U2,1*%
%TO.N,A4*%
X243000000Y-165000000D03*
%TD*%
D29*
%TO.P,U3,14*%
%TO.N,N/C*%
X127380000Y-165000000D03*
%TO.P,U3,7*%
%TO.N,A9*%
X135000000Y-149760000D03*
%TO.P,U3,13*%
%TO.N,N/C*%
X127380000Y-162460000D03*
%TO.P,U3,6*%
%TO.N,Net-(R39-Pad2)*%
X135000000Y-152300000D03*
%TO.P,U3,12*%
%TO.N,N/C*%
X127380000Y-159920000D03*
%TO.P,U3,5*%
%TO.N,Net-(R37-Pad1)*%
X135000000Y-154840000D03*
%TO.P,U3,11*%
%TO.N,GND*%
X127380000Y-157380000D03*
%TO.P,U3,4*%
%TO.N,12VDC_BUS*%
X135000000Y-157380000D03*
%TO.P,U3,10*%
%TO.N,N/C*%
X127380000Y-154840000D03*
%TO.P,U3,3*%
%TO.N,Net-(R33-Pad1)*%
X135000000Y-159920000D03*
%TO.P,U3,9*%
%TO.N,N/C*%
X127380000Y-152300000D03*
%TO.P,U3,2*%
%TO.N,Net-(R35-Pad2)*%
X135000000Y-162460000D03*
%TO.P,U3,8*%
%TO.N,N/C*%
X127380000Y-149760000D03*
D30*
%TO.P,U3,1*%
%TO.N,A8*%
X135000000Y-165000000D03*
%TD*%
D31*
%TO.P,U4,74*%
%TO.N,Net-(U4-Pad74)*%
X208100000Y-138760000D03*
%TO.P,U4,73*%
%TO.N,Net-(U4-Pad73)*%
X208100000Y-136220000D03*
%TO.P,U4,72*%
%TO.N,Net-(U4-Pad72)*%
X205560000Y-138760000D03*
%TO.P,U4,71*%
%TO.N,Net-(U4-Pad71)*%
X205560000Y-136220000D03*
%TO.P,U4,70*%
%TO.N,Net-(U4-Pad70)*%
X203020000Y-138760000D03*
%TO.P,U4,69*%
%TO.N,Net-(U4-Pad69)*%
X203020000Y-136220000D03*
%TO.P,U4,68*%
%TO.N,Net-(U4-Pad68)*%
X200480000Y-138760000D03*
%TO.P,U4,67*%
%TO.N,Net-(U4-Pad67)*%
X200480000Y-136220000D03*
%TO.P,U4,66*%
%TO.N,Net-(U4-Pad66)*%
X197940000Y-138760000D03*
%TO.P,U4,65*%
%TO.N,Net-(U4-Pad65)*%
X197940000Y-136220000D03*
%TO.P,U4,64*%
%TO.N,Net-(U4-Pad64)*%
X195400000Y-138760000D03*
%TO.P,U4,63*%
%TO.N,Net-(U4-Pad63)*%
X195400000Y-136220000D03*
%TO.P,U4,62*%
%TO.N,Net-(U4-Pad62)*%
X192860000Y-138760000D03*
%TO.P,U4,61*%
%TO.N,Net-(U4-Pad61)*%
X192860000Y-136220000D03*
%TO.P,U4,60*%
%TO.N,Net-(U4-Pad60)*%
X190320000Y-138760000D03*
%TO.P,U4,59*%
%TO.N,Net-(U4-Pad59)*%
X190320000Y-136220000D03*
%TO.P,U4,58*%
%TO.N,Net-(U4-Pad58)*%
X187780000Y-138760000D03*
%TO.P,U4,57*%
%TO.N,Net-(U4-Pad57)*%
X187780000Y-136220000D03*
%TO.P,U4,56*%
%TO.N,Net-(U4-Pad56)*%
X185240000Y-138760000D03*
%TO.P,U4,55*%
%TO.N,Net-(U4-Pad55)*%
X185240000Y-136220000D03*
%TO.P,U4,54*%
%TO.N,Net-(U4-Pad54)*%
X182700000Y-138760000D03*
%TO.P,U4,53*%
%TO.N,Net-(U4-Pad53)*%
X182700000Y-136220000D03*
%TO.P,U4,52*%
%TO.N,A9*%
X180160000Y-138760000D03*
%TO.P,U4,51*%
%TO.N,A8*%
X180160000Y-136220000D03*
%TO.P,U4,50*%
%TO.N,A7*%
X177620000Y-138760000D03*
%TO.P,U4,49*%
%TO.N,A6*%
X177620000Y-136220000D03*
%TO.P,U4,48*%
%TO.N,A5*%
X175080000Y-138760000D03*
%TO.P,U4,47*%
%TO.N,A4*%
X175080000Y-136220000D03*
%TO.P,U4,46*%
%TO.N,A3*%
X172540000Y-138760000D03*
%TO.P,U4,45*%
%TO.N,A2*%
X172540000Y-136220000D03*
%TO.P,U4,44*%
%TO.N,A1*%
X170000000Y-138760000D03*
%TO.P,U4,42*%
%TO.N,Net-(U4-Pad42)*%
X208100000Y-171780000D03*
%TO.P,U4,41*%
%TO.N,Net-(U4-Pad41)*%
X208100000Y-169240000D03*
%TO.P,U4,40*%
%TO.N,Net-(U4-Pad40)*%
X205560000Y-171780000D03*
%TO.P,U4,39*%
%TO.N,Net-(U4-Pad39)*%
X205560000Y-169240000D03*
%TO.P,U4,38*%
%TO.N,Net-(U4-Pad38)*%
X203020000Y-171780000D03*
%TO.P,U4,37*%
%TO.N,Net-(U4-Pad37)*%
X203020000Y-169240000D03*
%TO.P,U4,36*%
%TO.N,Net-(U4-Pad36)*%
X200480000Y-171780000D03*
%TO.P,U4,35*%
%TO.N,Net-(U4-Pad35)*%
X200480000Y-169240000D03*
%TO.P,U4,34*%
%TO.N,Net-(U4-Pad34)*%
X197940000Y-171780000D03*
%TO.P,U4,33*%
%TO.N,Net-(U4-Pad33)*%
X197940000Y-169240000D03*
%TO.P,U4,32*%
%TO.N,SCL*%
X195400000Y-171780000D03*
%TO.P,U4,31*%
%TO.N,SDA*%
X195400000Y-169240000D03*
%TO.P,U4,30*%
%TO.N,Net-(U4-Pad30)*%
X192860000Y-171780000D03*
%TO.P,U4,29*%
%TO.N,STATUS_CHECK*%
X192860000Y-169240000D03*
%TO.P,U4,28*%
%TO.N,Net-(U4-Pad28)*%
X190320000Y-171780000D03*
%TO.P,U4,27*%
%TO.N,Net-(U4-Pad27)*%
X190320000Y-169240000D03*
%TO.P,U4,26*%
%TO.N,Net-(U4-Pad26)*%
X187780000Y-171780000D03*
%TO.P,U4,25*%
%TO.N,Net-(U4-Pad25)*%
X187780000Y-169240000D03*
%TO.P,U4,24*%
%TO.N,Net-(U4-Pad24)*%
X185240000Y-171780000D03*
%TO.P,U4,23*%
%TO.N,Net-(U4-Pad23)*%
X185240000Y-169240000D03*
%TO.P,U4,22*%
%TO.N,Net-(U4-Pad22)*%
X182700000Y-171780000D03*
%TO.P,U4,21*%
%TO.N,Net-(U4-Pad21)*%
X182700000Y-169240000D03*
%TO.P,U4,20*%
%TO.N,Net-(U4-Pad20)*%
X180160000Y-171780000D03*
%TO.P,U4,19*%
%TO.N,Net-(U4-Pad19)*%
X180160000Y-169240000D03*
%TO.P,U4,18*%
%TO.N,Net-(U4-Pad18)*%
X177620000Y-171780000D03*
%TO.P,U4,17*%
%TO.N,Net-(U4-Pad17)*%
X177620000Y-169240000D03*
%TO.P,U4,16*%
%TO.N,Net-(U4-Pad16)*%
X175080000Y-171780000D03*
%TO.P,U4,15*%
%TO.N,CHARGE_CONTROL_SIGNAL*%
X175080000Y-169240000D03*
%TO.P,U4,14*%
%TO.N,Net-(U4-Pad14)*%
X172540000Y-171780000D03*
%TO.P,U4,13*%
%TO.N,DATA*%
X172540000Y-169240000D03*
%TO.P,U4,12*%
%TO.N,Net-(U4-Pad12)*%
X170000000Y-171780000D03*
%TO.P,U4,11*%
%TO.N,Net-(U4-Pad11)*%
X170000000Y-169240000D03*
%TO.P,U4,10*%
%TO.N,Net-(SW1-Pad2)*%
X167460000Y-171780000D03*
%TO.P,U4,9*%
%TO.N,AREF*%
X167460000Y-169240000D03*
%TO.P,U4,8*%
%TO.N,3V3*%
X164920000Y-171780000D03*
%TO.P,U4,7*%
X164920000Y-169240000D03*
%TO.P,U4,6*%
%TO.N,5V*%
X162380000Y-171780000D03*
%TO.P,U4,5*%
X162380000Y-169240000D03*
%TO.P,U4,4*%
%TO.N,GND*%
X159840000Y-171780000D03*
%TO.P,U4,3*%
X159840000Y-169240000D03*
%TO.P,U4,2*%
%TO.N,Net-(U4-Pad2)*%
X157300000Y-171780000D03*
%TO.P,U4,85*%
%TO.N,Net-(U4-Pad85)*%
X208040000Y-159080000D03*
%TO.P,U4,83*%
%TO.N,Net-(U4-Pad83)*%
X208040000Y-156540000D03*
%TO.P,U4,81*%
%TO.N,Net-(U4-Pad81)*%
X208040000Y-154000000D03*
%TO.P,U4,86*%
%TO.N,Net-(U4-Pad86)*%
X205500000Y-159080000D03*
%TO.P,U4,84*%
%TO.N,Net-(U4-Pad84)*%
X205500000Y-156540000D03*
%TO.P,U4,82*%
%TO.N,Net-(U4-Pad82)*%
X205500000Y-154000000D03*
%TO.P,U4,79*%
%TO.N,SCK*%
X208100000Y-146380000D03*
%TO.P,U4,77*%
%TO.N,MISO*%
X208100000Y-143840000D03*
%TO.P,U4,75*%
%TO.N,Net-(U4-Pad75)*%
X208100000Y-141300000D03*
%TO.P,U4,80*%
%TO.N,CS*%
X205560000Y-146380000D03*
%TO.P,U4,78*%
%TO.N,MOSI*%
X205560000Y-143840000D03*
%TO.P,U4,76*%
%TO.N,Net-(U4-Pad76)*%
X205560000Y-141300000D03*
%TO.P,U4,43*%
%TO.N,A0*%
X170000000Y-136220000D03*
%TO.P,U4,1*%
%TO.N,Net-(U4-Pad1)*%
X157300000Y-169240000D03*
%TD*%
D32*
%TO.P,U5,2*%
%TO.N,5V*%
X341625000Y-160500000D03*
D33*
%TO.P,U5,3*%
%TO.N,Net-(C5-Pad1)*%
X350775000Y-157960000D03*
%TO.P,U5,2*%
%TO.N,5V*%
X350775000Y-160500000D03*
%TO.P,U5,1*%
%TO.N,Net-(R43-Pad2)*%
X350775000Y-163040000D03*
%TD*%
D34*
%TO.P,Q2,1*%
%TO.N,GND*%
X309000000Y-173500000D03*
D35*
%TO.P,Q2,3*%
%TO.N,Net-(D6-Pad2)*%
X303920000Y-173500000D03*
%TO.P,Q2,2*%
%TO.N,Net-(Q1-Pad2)*%
X306460000Y-173500000D03*
%TD*%
D36*
%TO.P,D2,2*%
%TO.N,12VDC_BUS*%
X357000000Y-146100000D03*
%TO.P,D2,1*%
%TO.N,Net-(C5-Pad1)*%
X357000000Y-151500000D03*
%TD*%
D24*
%TO.P,F6,2*%
%TO.N,/OP-AMPS/CELL6_FUSED*%
X220000000Y-141040000D03*
%TO.P,F6,1*%
%TO.N,Net-(F6-Pad1)*%
X220000000Y-138000000D03*
%TD*%
%TO.P,F7,2*%
%TO.N,/OP-AMPS/CELL7_FUSED*%
X184000000Y-178960000D03*
%TO.P,F7,1*%
%TO.N,Net-(F7-Pad1)*%
X184000000Y-182000000D03*
%TD*%
%TO.P,F8,2*%
%TO.N,/OP-AMPS/CELL8_FUSED*%
X148000000Y-141040000D03*
%TO.P,F8,1*%
%TO.N,Net-(F8-Pad1)*%
X148000000Y-138000000D03*
%TD*%
%TO.P,F9,2*%
%TO.N,/OP-AMPS/CELL9_FUSED*%
X112000000Y-178960000D03*
%TO.P,F9,1*%
%TO.N,Net-(F9-Pad1)*%
X112000000Y-182000000D03*
%TD*%
%TO.P,F10,2*%
%TO.N,/OP-AMPS/CELL10_FUSED*%
X76000000Y-141040000D03*
%TO.P,F10,1*%
%TO.N,Net-(F10-Pad1)*%
X76000000Y-138000000D03*
%TD*%
%TO.P,F11,2*%
%TO.N,GND*%
X58000000Y-161000000D03*
%TO.P,F11,1*%
%TO.N,BATTERY-*%
X58000000Y-164040000D03*
%TD*%
D19*
%TO.P,TP1,1*%
%TO.N,A0*%
X206000000Y-185000000D03*
%TD*%
%TO.P,TP3,1*%
%TO.N,A1*%
X206000000Y-177500000D03*
%TD*%
%TO.P,TP5,1*%
%TO.N,A2*%
X213000000Y-185000000D03*
%TD*%
%TO.P,TP7,1*%
%TO.N,A3*%
X213000000Y-177500000D03*
%TD*%
%TO.P,TP9,1*%
%TO.N,A4*%
X220000000Y-185000000D03*
%TD*%
%TO.P,TP11,1*%
%TO.N,A5*%
X220000000Y-177500000D03*
%TD*%
%TO.P,TP13,1*%
%TO.N,A6*%
X227000000Y-185000000D03*
%TD*%
%TO.P,TP16,1*%
%TO.N,A7*%
X227000000Y-177500000D03*
%TD*%
%TO.P,TP18,1*%
%TO.N,A8*%
X234000000Y-185000000D03*
%TD*%
%TO.P,TP20,1*%
%TO.N,A9*%
X234000000Y-177500000D03*
%TD*%
%TO.P,TP21,1*%
%TO.N,5V*%
X215000000Y-192500000D03*
%TD*%
D37*
%TO.P,H1,1*%
%TO.N,N/C*%
X49000000Y-131000000D03*
X44000000Y-131000000D03*
X49000000Y-124000000D03*
X44000000Y-124000000D03*
%TD*%
%TO.P,H2,1*%
%TO.N,N/C*%
X88000000Y-196000000D03*
X83000000Y-196000000D03*
X88000000Y-189000000D03*
X83000000Y-189000000D03*
%TD*%
%TO.P,H3,1*%
%TO.N,N/C*%
X396000000Y-131000000D03*
X391000000Y-131000000D03*
X396000000Y-124000000D03*
X391000000Y-124000000D03*
%TD*%
%TO.P,H4,1*%
%TO.N,N/C*%
X357000000Y-196000000D03*
X352000000Y-196000000D03*
X357000000Y-189000000D03*
X352000000Y-189000000D03*
%TD*%
D15*
%TO.P,SW2,2*%
%TO.N,STATUS_CHECK*%
X386000000Y-139000000D03*
%TO.P,SW2,1*%
%TO.N,5V*%
X386000000Y-143500000D03*
%TO.P,SW2,2*%
%TO.N,STATUS_CHECK*%
X379500000Y-139000000D03*
%TO.P,SW2,1*%
%TO.N,5V*%
X379500000Y-143500000D03*
%TD*%
D38*
%TO.N,5V*%
X202750000Y-173250000D03*
%TO.N,/OP-AMPS/CELL1_FUSED*%
X359500000Y-144500000D03*
X311750000Y-149500000D03*
%TO.N,Net-(F2-Pad1)*%
X330500000Y-158250000D03*
%TO.N,/OP-AMPS/CELL2_FUSED*%
X361750000Y-141000000D03*
X313000000Y-148750000D03*
%TO.N,/OP-AMPS/CELL4_FUSED*%
X259750000Y-144499994D03*
X259750000Y-148250000D03*
%TO.N,Net-(F4-Pad1)*%
X329500000Y-159000000D03*
%TO.N,/OP-AMPS/CELL5_FUSED*%
X254500000Y-165500000D03*
X254500000Y-170250000D03*
%TO.N,/OP-AMPS/CELL6_FUSED*%
X250750000Y-144500008D03*
X250750000Y-148000000D03*
%TO.N,/OP-AMPS/CELL8_FUSED*%
X221000000Y-144250000D03*
X226250000Y-156750000D03*
%TO.N,/OP-AMPS/CELL9_FUSED*%
X224500000Y-168500000D03*
X227750000Y-167250000D03*
X136500000Y-168250000D03*
X124000000Y-168500000D03*
%TO.N,SDA*%
X148762666Y-149487347D03*
X172500000Y-157750000D03*
%TO.N,SCL*%
X148750000Y-150500015D03*
X171500000Y-158000000D03*
%TO.N,MISO*%
X148773806Y-145416219D03*
X154500000Y-145250000D03*
%TO.N,MOSI*%
X148773456Y-146441174D03*
X155250000Y-146250000D03*
%TO.N,SCK*%
X148772138Y-147465162D03*
X156000000Y-147250000D03*
%TO.N,CS*%
X148769026Y-148487356D03*
X156750000Y-148250000D03*
%TO.N,A9*%
X133750000Y-167500000D03*
%TO.N,CHARGE_CONTROL_SIGNAL*%
X317000000Y-176000000D03*
%TO.N,Net-(SW1-Pad2)*%
X168375000Y-183625000D03*
%TO.N,DATA*%
X309750000Y-147500000D03*
X366500000Y-140250000D03*
%TO.N,BATTERY+*%
X147725929Y-198274071D03*
%TO.N,BATTERY-*%
X107750000Y-182250000D03*
%TO.N,Net-(F6-Pad1)*%
X231500000Y-169500000D03*
%TO.N,Net-(F8-Pad1)*%
X156750000Y-190500000D03*
X125250000Y-147500000D03*
X125250000Y-141500000D03*
%TO.N,Net-(F10-Pad1)*%
X143000000Y-191250000D03*
%TO.N,GND*%
X288500000Y-157250000D03*
X253250000Y-157250000D03*
X145500000Y-157250000D03*
X384500000Y-131000000D03*
X350500000Y-129000000D03*
X314500000Y-129000000D03*
X278500000Y-129000000D03*
X242500000Y-129000000D03*
X206500000Y-129000000D03*
X170500000Y-129000000D03*
X134500000Y-129000000D03*
X98500000Y-129000000D03*
X62500000Y-129000000D03*
X53000000Y-162500000D03*
X53000000Y-158000000D03*
X63000000Y-158000000D03*
X63000000Y-162500000D03*
X63000000Y-160250000D03*
X53000000Y-160250000D03*
X55500000Y-158000000D03*
X58000000Y-158000000D03*
X60500000Y-158000000D03*
X348000000Y-184000000D03*
X331750000Y-174250000D03*
X334250000Y-174250000D03*
X336750000Y-174250000D03*
X339250000Y-174250000D03*
X341750000Y-174250000D03*
X344250000Y-174250000D03*
X359000000Y-174250000D03*
X359000000Y-171750000D03*
X359000000Y-169250000D03*
X359000000Y-166750000D03*
X314750000Y-179500000D03*
X310250000Y-179500000D03*
X308250000Y-181250000D03*
X173250000Y-163000000D03*
X142487342Y-147762662D03*
X341250000Y-183999990D03*
%TO.N,STATUS_CHECK*%
X165250000Y-137750000D03*
%TD*%
D39*
%TO.N,12VDC_BUS*%
X243130000Y-157250000D02*
X243000000Y-157380000D01*
X246500000Y-157250000D02*
X243130000Y-157250000D01*
X135130000Y-157250000D02*
X135000000Y-157380000D01*
X138500000Y-157250000D02*
X135130000Y-157250000D01*
D40*
X377500000Y-159250000D02*
X369500000Y-151250000D01*
X377500000Y-160960000D02*
X377500000Y-159250000D01*
X364350000Y-146100000D02*
X369500000Y-151250000D01*
X357000000Y-146100000D02*
X364350000Y-146100000D01*
D41*
X298750000Y-185500000D02*
X305250000Y-185500000D01*
D39*
X316564999Y-188225001D02*
X317790000Y-187000000D01*
X307975001Y-188225001D02*
X316564999Y-188225001D01*
X305250000Y-185500000D02*
X307975001Y-188225001D01*
D40*
X308700001Y-195450001D02*
X298750000Y-185500000D01*
X338362791Y-195450001D02*
X308700001Y-195450001D01*
X345540000Y-188272792D02*
X338362791Y-195450001D01*
X345540000Y-187000000D02*
X345540000Y-188272792D01*
X277665113Y-157380000D02*
X278000000Y-157380000D01*
X275849990Y-159195123D02*
X277665113Y-157380000D01*
X275849990Y-168250000D02*
X275849990Y-159195123D01*
X240000000Y-160045113D02*
X242665113Y-157380000D01*
X240000000Y-165710002D02*
X240000000Y-160045113D01*
X242665113Y-157380000D02*
X243000000Y-157380000D01*
X275849990Y-168250000D02*
X242539998Y-168250000D01*
X242539998Y-168250000D02*
X240000000Y-165710002D01*
X275849990Y-168349990D02*
X275849990Y-168250000D01*
D39*
X281370000Y-157380000D02*
X281500000Y-157250000D01*
X278000000Y-157380000D02*
X281370000Y-157380000D01*
D40*
X375000000Y-160960000D02*
X348960000Y-187000000D01*
X348960000Y-187000000D02*
X345540000Y-187000000D01*
X377500000Y-160960000D02*
X375000000Y-160960000D01*
X298750000Y-185500000D02*
X297000000Y-185500000D01*
X279750000Y-168250000D02*
X275849990Y-168250000D01*
X297000000Y-185500000D02*
X279750000Y-168250000D01*
X306324991Y-197825011D02*
X308700001Y-195450001D01*
X180575011Y-197825011D02*
X306324991Y-197825011D01*
X127500000Y-186250000D02*
X130000000Y-188750000D01*
X134370000Y-157380000D02*
X131000000Y-160750000D01*
X171500000Y-188750000D02*
X180575011Y-197825011D01*
X130000000Y-188750000D02*
X171500000Y-188750000D01*
X131000000Y-160750000D02*
X131000000Y-170250000D01*
X135000000Y-157380000D02*
X134370000Y-157380000D01*
X131000000Y-170250000D02*
X127500000Y-173750000D01*
X127500000Y-173750000D02*
X127500000Y-186250000D01*
D41*
%TO.N,5V*%
X350775000Y-160500000D02*
X341625000Y-160500000D01*
X347775000Y-166650000D02*
X341625000Y-160500000D01*
X347775000Y-167500000D02*
X347775000Y-166650000D01*
X339300000Y-151000000D02*
X339300000Y-148450000D01*
X339300000Y-148450000D02*
X344250000Y-143500000D01*
X344250000Y-143500000D02*
X376754244Y-143500000D01*
D39*
X331250000Y-165250000D02*
X332000000Y-165250000D01*
X338540000Y-187000000D02*
X337750000Y-186210000D01*
X337750000Y-183250000D02*
X330750000Y-176250000D01*
X330750000Y-176250000D02*
X330750000Y-165750000D01*
X337750000Y-186210000D02*
X337750000Y-183250000D01*
X330750000Y-165750000D02*
X331250000Y-165250000D01*
D40*
X102000000Y-139425001D02*
X90500000Y-139425001D01*
D41*
X376754244Y-143500000D02*
X379500000Y-143500000D01*
X379500000Y-143500000D02*
X386000000Y-143500000D01*
D39*
X202500000Y-173500000D02*
X202750000Y-173250000D01*
X162380000Y-171780000D02*
X164100000Y-173500000D01*
X164100000Y-173500000D02*
X202500000Y-173500000D01*
D40*
X162380000Y-163000000D02*
X168000000Y-163000000D01*
X162380000Y-169240000D02*
X162380000Y-163000000D01*
X162380000Y-150250000D02*
X162380000Y-169240000D01*
X328250000Y-160500000D02*
X313750000Y-146000000D01*
X209250000Y-150250000D02*
X162380000Y-150250000D01*
X341625000Y-160500000D02*
X328250000Y-160500000D01*
X313750000Y-146000000D02*
X213500000Y-146000000D01*
X213500000Y-146000000D02*
X209250000Y-150250000D01*
X107924921Y-142999922D02*
X104350000Y-139425001D01*
X149249922Y-142999922D02*
X107924921Y-142999922D01*
X162380000Y-150250000D02*
X156500000Y-150250000D01*
X104350000Y-139425001D02*
X102000000Y-139425001D01*
X156500000Y-150250000D02*
X149249922Y-142999922D01*
D39*
%TO.N,Net-(D6-Pad2)*%
X317024990Y-181799990D02*
X318225000Y-183000000D01*
X314350010Y-181799990D02*
X317024990Y-181799990D01*
X310650000Y-185500000D02*
X314350010Y-181799990D01*
D41*
X305250000Y-180100000D02*
X305250000Y-178500000D01*
X310650000Y-185500000D02*
X305250000Y-180100000D01*
X300250000Y-178500000D02*
X298750000Y-180000000D01*
X305250000Y-178500000D02*
X300250000Y-178500000D01*
X305250000Y-174830000D02*
X303920000Y-173500000D01*
X305250000Y-178500000D02*
X305250000Y-174830000D01*
D39*
%TO.N,Net-(D7-Pad2)*%
X349175001Y-125174999D02*
X348450000Y-125900000D01*
X375624999Y-125174999D02*
X349175001Y-125174999D01*
X379550000Y-129100000D02*
X375624999Y-125174999D01*
%TO.N,Net-(D8-Pad2)*%
X315650000Y-129100000D02*
X312450000Y-125900000D01*
X343550000Y-129100000D02*
X315650000Y-129100000D01*
%TO.N,Net-(D10-Pad4)*%
X277175001Y-125174999D02*
X276450000Y-125900000D01*
X303624999Y-125174999D02*
X277175001Y-125174999D01*
X307550000Y-129100000D02*
X303624999Y-125174999D01*
%TO.N,Net-(D10-Pad2)*%
X243650000Y-129100000D02*
X240450000Y-125900000D01*
X271550000Y-129100000D02*
X243650000Y-129100000D01*
%TO.N,Net-(D11-Pad2)*%
X231624999Y-125174999D02*
X205175001Y-125174999D01*
X205175001Y-125174999D02*
X204450000Y-125900000D01*
X235550000Y-129100000D02*
X231624999Y-125174999D01*
%TO.N,Net-(D12-Pad2)*%
X171650000Y-129100000D02*
X168450000Y-125900000D01*
X199550000Y-129100000D02*
X171650000Y-129100000D01*
%TO.N,Net-(D13-Pad2)*%
X133175001Y-125174999D02*
X132450000Y-125900000D01*
X159624999Y-125174999D02*
X133175001Y-125174999D01*
X163550000Y-129100000D02*
X159624999Y-125174999D01*
%TO.N,/OP-AMPS/CELL1_FUSED*%
X367065685Y-144500000D02*
X359500000Y-144500000D01*
X382000000Y-159434315D02*
X367065685Y-144500000D01*
X382000000Y-160960000D02*
X382000000Y-159434315D01*
X291750000Y-149500000D02*
X311750000Y-149500000D01*
X287000000Y-165475000D02*
X287775000Y-165475000D01*
X289750000Y-151500000D02*
X291750000Y-149500000D01*
X289750000Y-163500000D02*
X289750000Y-151500000D01*
X287775000Y-165475000D02*
X289750000Y-163500000D01*
%TO.N,Net-(F2-Pad1)*%
X364000000Y-135000000D02*
X364000000Y-138000000D01*
X336000000Y-142750000D02*
X330500000Y-148250000D01*
X330500000Y-148250000D02*
X330500000Y-158250000D01*
X364000000Y-135000000D02*
X356250000Y-142750000D01*
X356250000Y-142750000D02*
X336000000Y-142750000D01*
%TO.N,/OP-AMPS/CELL2_FUSED*%
X366887001Y-130387001D02*
X364000000Y-127500000D01*
X366887001Y-138152999D02*
X366887001Y-130387001D01*
X364000000Y-141040000D02*
X366887001Y-138152999D01*
X289225001Y-151500001D02*
X287000000Y-149275000D01*
X286963200Y-164437490D02*
X289225001Y-162175689D01*
X289225001Y-162175689D02*
X289225001Y-151500001D01*
X285287510Y-164437490D02*
X286963200Y-164437490D01*
X284250000Y-165475000D02*
X285287510Y-164437490D01*
X364000000Y-141040000D02*
X361790000Y-141040000D01*
X361790000Y-141040000D02*
X361750000Y-141000000D01*
X287525000Y-148750000D02*
X313000000Y-148750000D01*
X287000000Y-149275000D02*
X287525000Y-148750000D01*
%TO.N,/OP-AMPS/CELL3_FUSED*%
X330887001Y-189612999D02*
X328000000Y-192500000D01*
X330887001Y-181847001D02*
X330887001Y-189612999D01*
X328000000Y-178960000D02*
X330887001Y-181847001D01*
X262287510Y-148237490D02*
X261250000Y-149275000D01*
X284250000Y-149275000D02*
X283212490Y-148237490D01*
X283212490Y-148237490D02*
X262287510Y-148237490D01*
X284250000Y-148562500D02*
X284250000Y-149275000D01*
X284562500Y-148250000D02*
X284250000Y-148562500D01*
X286124310Y-148250000D02*
X284562500Y-148250000D01*
X286136820Y-148237490D02*
X286124310Y-148250000D01*
X287863180Y-148237490D02*
X286136820Y-148237490D01*
X328000000Y-162000000D02*
X314024999Y-148024999D01*
X287875690Y-148250000D02*
X287863180Y-148237490D01*
X312426998Y-148250000D02*
X287875690Y-148250000D01*
X328000000Y-178960000D02*
X328000000Y-162000000D01*
X314024999Y-148024999D02*
X312651999Y-148024999D01*
X312651999Y-148024999D02*
X312426998Y-148250000D01*
%TO.N,Net-(F3-Pad1)*%
X328000000Y-185000000D02*
X328000000Y-182000000D01*
%TO.N,/OP-AMPS/CELL4_FUSED*%
X289112999Y-130387001D02*
X292000000Y-127500000D01*
X289112999Y-138152999D02*
X289112999Y-130387001D01*
X292000000Y-141040000D02*
X289112999Y-138152999D01*
X260249994Y-144000000D02*
X259750000Y-144499994D01*
X292000000Y-141040000D02*
X289040000Y-144000000D01*
X289040000Y-144000000D02*
X260249994Y-144000000D01*
X260049990Y-164274990D02*
X261250000Y-165475000D01*
X264000000Y-149987500D02*
X263237500Y-150750000D01*
X260049990Y-151374665D02*
X260049990Y-164274990D01*
X264000000Y-149275000D02*
X264000000Y-149987500D01*
X260674655Y-150750000D02*
X260049990Y-151374665D01*
X263237500Y-150750000D02*
X260674655Y-150750000D01*
X264000000Y-149275000D02*
X262962490Y-150312510D01*
X262962490Y-150312510D02*
X260386820Y-150312510D01*
X260386820Y-150312510D02*
X259750000Y-149675690D01*
X259750000Y-149675690D02*
X259750000Y-148250000D01*
%TO.N,Net-(F4-Pad1)*%
X292000000Y-135000000D02*
X292000000Y-138000000D01*
X328500000Y-159000000D02*
X329500000Y-159000000D01*
X314250000Y-144750000D02*
X328500000Y-159000000D01*
X292000000Y-135000000D02*
X301750000Y-144750000D01*
X301750000Y-144750000D02*
X314250000Y-144750000D01*
%TO.N,Net-(F5-Pad1)*%
X256000000Y-185000000D02*
X256000000Y-181500000D01*
X150830000Y-185250000D02*
X149080000Y-183500000D01*
X244750000Y-196250000D02*
X182250000Y-196250000D01*
X162886411Y-182750000D02*
X160386411Y-185250000D01*
X256000000Y-185000000D02*
X244750000Y-196250000D01*
X182250000Y-196250000D02*
X168750000Y-182750000D01*
X160386411Y-185250000D02*
X150830000Y-185250000D01*
X168750000Y-182750000D02*
X162886411Y-182750000D01*
%TO.N,/OP-AMPS/CELL5_FUSED*%
X258887001Y-189612999D02*
X256000000Y-192500000D01*
X258887001Y-181347001D02*
X258887001Y-189612999D01*
X256000000Y-178460000D02*
X258887001Y-181347001D01*
X253037510Y-166512510D02*
X252000000Y-165475000D01*
X262962490Y-166512510D02*
X253037510Y-166512510D01*
X264000000Y-165475000D02*
X262962490Y-166512510D01*
X252025000Y-165500000D02*
X252000000Y-165475000D01*
X254500000Y-165500000D02*
X252025000Y-165500000D01*
X256000000Y-178460000D02*
X256000000Y-171750000D01*
X256000000Y-171750000D02*
X254500000Y-170250000D01*
%TO.N,/OP-AMPS/CELL6_FUSED*%
X222887001Y-138152999D02*
X222887001Y-130387001D01*
X222887001Y-130387001D02*
X220000000Y-127500000D01*
X220000000Y-141040000D02*
X222887001Y-138152999D01*
X253975001Y-151250001D02*
X252000000Y-149275000D01*
X251963200Y-164437490D02*
X253975001Y-162425689D01*
X253975001Y-162425689D02*
X253975001Y-151250001D01*
X250287510Y-164437490D02*
X251963200Y-164437490D01*
X249250000Y-165475000D02*
X250287510Y-164437490D01*
X250250000Y-144000000D02*
X250750000Y-144500000D01*
X220000000Y-141040000D02*
X222960000Y-144000000D01*
X250750000Y-144500000D02*
X250750000Y-144500008D01*
X222960000Y-144000000D02*
X250250000Y-144000000D01*
X250750000Y-148025000D02*
X250750000Y-148000000D01*
X252000000Y-149275000D02*
X250750000Y-148025000D01*
%TO.N,/OP-AMPS/CELL7_FUSED*%
X227287510Y-148237490D02*
X226250000Y-149275000D01*
X248212490Y-148237490D02*
X227287510Y-148237490D01*
X249250000Y-149275000D02*
X248212490Y-148237490D01*
X184960000Y-178960000D02*
X184000000Y-178960000D01*
X186887001Y-180887001D02*
X184960000Y-178960000D01*
X184000000Y-192500000D02*
X186887001Y-189612999D01*
X186887001Y-189612999D02*
X186887001Y-180887001D01*
X224599980Y-150925020D02*
X226250000Y-149275000D01*
X224599980Y-165725670D02*
X224599980Y-150925020D01*
X237000000Y-186250000D02*
X237000000Y-176250000D01*
X237000000Y-176250000D02*
X229250000Y-168500000D01*
X229250000Y-168500000D02*
X227374310Y-168500000D01*
X227374310Y-168500000D02*
X224599980Y-165725670D01*
X199500000Y-188000000D02*
X235250000Y-188000000D01*
X184000000Y-178960000D02*
X190460000Y-178960000D01*
X235250000Y-188000000D02*
X237000000Y-186250000D01*
X190460000Y-178960000D02*
X199500000Y-188000000D01*
%TO.N,/OP-AMPS/CELL8_FUSED*%
X150887001Y-130387001D02*
X148000000Y-127500000D01*
X150887001Y-138152999D02*
X150887001Y-130387001D01*
X148000000Y-141040000D02*
X150887001Y-138152999D01*
X225049990Y-164274990D02*
X226250000Y-165475000D01*
X227962490Y-150312510D02*
X226286800Y-150312510D01*
X226286800Y-150312510D02*
X225049990Y-151549320D01*
X229000000Y-149275000D02*
X227962490Y-150312510D01*
X225049990Y-155549990D02*
X225049990Y-152950010D01*
X226250000Y-156750000D02*
X225049990Y-155549990D01*
X225049990Y-151549320D02*
X225049990Y-152950010D01*
X225049990Y-152950010D02*
X225049990Y-164274990D01*
X220864998Y-144250000D02*
X221000000Y-144250000D01*
X211114998Y-134500000D02*
X220864998Y-144250000D01*
X148000000Y-141040000D02*
X163210000Y-141040000D01*
X169750000Y-134500000D02*
X211114998Y-134500000D01*
X163210000Y-141040000D02*
X169750000Y-134500000D01*
%TO.N,/OP-AMPS/CELL9_FUSED*%
X109112999Y-181847001D02*
X109112999Y-189612999D01*
X109112999Y-189612999D02*
X112000000Y-192500000D01*
X112000000Y-178960000D02*
X109112999Y-181847001D01*
X227750000Y-166725000D02*
X229000000Y-165475000D01*
X227750000Y-167250000D02*
X227750000Y-166725000D01*
X219000000Y-174000000D02*
X224500000Y-168500000D01*
X152525000Y-174000000D02*
X219000000Y-174000000D01*
X144000000Y-165475000D02*
X152525000Y-174000000D01*
X144000000Y-165475000D02*
X141225000Y-168250000D01*
X141225000Y-168250000D02*
X136500000Y-168250000D01*
X112000000Y-178960000D02*
X113540000Y-178960000D01*
X113540000Y-178960000D02*
X124000000Y-168500000D01*
%TO.N,/OP-AMPS/CELL10_FUSED*%
X78887001Y-130387001D02*
X76000000Y-127500000D01*
X78887001Y-138152999D02*
X78887001Y-130387001D01*
X76000000Y-141040000D02*
X78887001Y-138152999D01*
X146225001Y-151500001D02*
X144000000Y-149275000D01*
X141250000Y-164762500D02*
X142012500Y-164000000D01*
X141250000Y-165475000D02*
X141250000Y-164762500D01*
X142012500Y-164000000D02*
X144500000Y-164000000D01*
X144500000Y-164000000D02*
X146225001Y-162274999D01*
X146225001Y-162274999D02*
X146225001Y-151500001D01*
X144000000Y-148250000D02*
X144000000Y-149275000D01*
X142524999Y-146774999D02*
X144000000Y-148250000D01*
X87799989Y-154299989D02*
X102950011Y-154299989D01*
X76000000Y-142500000D02*
X87799989Y-154299989D01*
X76000000Y-141040000D02*
X76000000Y-142500000D01*
X102950011Y-154299989D02*
X110475001Y-146774999D01*
X110475001Y-146774999D02*
X142524999Y-146774999D01*
%TO.N,SDA*%
X90500000Y-144505001D02*
X99394966Y-153399967D01*
X110102201Y-145874977D02*
X145124977Y-145874977D01*
X148737347Y-149487347D02*
X148762666Y-149487347D01*
X145124977Y-145874977D02*
X148737347Y-149487347D01*
X102577212Y-153399967D02*
X110102201Y-145874977D01*
X99394966Y-153399967D02*
X102577212Y-153399967D01*
X179500000Y-164750000D02*
X172500000Y-157750000D01*
X195400000Y-169240000D02*
X190910000Y-164750000D01*
X190910000Y-164750000D02*
X179500000Y-164750000D01*
%TO.N,SCL*%
X144574973Y-146324988D02*
X148750000Y-150500015D01*
X102763612Y-153849978D02*
X110288601Y-146324988D01*
X110288601Y-146324988D02*
X144574973Y-146324988D01*
X90500000Y-147045001D02*
X97304977Y-153849978D01*
X97304977Y-153849978D02*
X102763612Y-153849978D01*
X178700011Y-165200011D02*
X171500000Y-158000000D01*
X194274999Y-168989997D02*
X190485013Y-165200011D01*
X190485013Y-165200011D02*
X178700011Y-165200011D01*
X195400000Y-171780000D02*
X194274999Y-170654999D01*
X194274999Y-170654999D02*
X194274999Y-168989997D01*
%TO.N,MISO*%
X102000000Y-144505001D02*
X102430068Y-144074933D01*
X102430068Y-144074933D02*
X147432520Y-144074933D01*
X147432520Y-144074933D02*
X148773806Y-145416219D01*
X206974999Y-142714999D02*
X208100000Y-143840000D01*
X204535001Y-142714999D02*
X206974999Y-142714999D01*
X154500000Y-145250000D02*
X202000000Y-145250000D01*
X202000000Y-145250000D02*
X204535001Y-142714999D01*
%TO.N,MOSI*%
X109475056Y-144524944D02*
X146857226Y-144524944D01*
X106954999Y-147045001D02*
X109475056Y-144524944D01*
X146857226Y-144524944D02*
X148773456Y-146441174D01*
X102000000Y-147045001D02*
X106954999Y-147045001D01*
X155250000Y-146250000D02*
X202250000Y-146250000D01*
X204660000Y-143840000D02*
X205560000Y-143840000D01*
X202250000Y-146250000D02*
X204660000Y-143840000D01*
%TO.N,SCK*%
X146281931Y-144974955D02*
X148772138Y-147465162D01*
X109661455Y-144974955D02*
X146281931Y-144974955D01*
X105051410Y-149585001D02*
X109661455Y-144974955D01*
X102000000Y-149585001D02*
X105051410Y-149585001D01*
X206974999Y-145254999D02*
X208100000Y-146380000D01*
X156000000Y-147250000D02*
X202750000Y-147250000D01*
X204745001Y-145254999D02*
X206974999Y-145254999D01*
X202750000Y-147250000D02*
X204745001Y-145254999D01*
%TO.N,CS*%
X109902116Y-145424966D02*
X145706636Y-145424966D01*
X145706636Y-145424966D02*
X148769026Y-148487356D01*
X103202081Y-152125001D02*
X109902116Y-145424966D01*
X102000000Y-152125001D02*
X103202081Y-152125001D01*
X203690000Y-148250000D02*
X205560000Y-146380000D01*
X156750000Y-148250000D02*
X203690000Y-148250000D01*
%TO.N,Net-(Q1-Pad2)*%
X306460000Y-175760000D02*
X308250000Y-177550000D01*
X306460000Y-173500000D02*
X306460000Y-175760000D01*
X311700000Y-177550000D02*
X311750000Y-177500000D01*
X308250000Y-177550000D02*
X311700000Y-177550000D01*
X311750000Y-175000000D02*
X311750000Y-177500000D01*
%TO.N,Net-(R1-Pad1)*%
X278170000Y-159750000D02*
X278000000Y-159920000D01*
X281500000Y-159750000D02*
X278170000Y-159750000D01*
X282000000Y-161250000D02*
X281500000Y-160750000D01*
X286500000Y-161250000D02*
X282000000Y-161250000D01*
X287000000Y-162500000D02*
X287000000Y-161750000D01*
X281500000Y-160750000D02*
X281500000Y-159750000D01*
X287000000Y-161750000D02*
X286500000Y-161250000D01*
%TO.N,Net-(R3-Pad2)*%
X281435000Y-162460000D02*
X281500000Y-162525000D01*
X278000000Y-162460000D02*
X281435000Y-162460000D01*
X284225000Y-162525000D02*
X284250000Y-162500000D01*
X281500000Y-162525000D02*
X284225000Y-162525000D01*
%TO.N,A0*%
X278500000Y-165500000D02*
X278000000Y-165000000D01*
X281500000Y-165500000D02*
X278500000Y-165500000D01*
%TO.N,Net-(R5-Pad1)*%
X281762500Y-153500000D02*
X281525000Y-153737500D01*
X281525000Y-153737500D02*
X281525000Y-154750000D01*
X287000000Y-152250000D02*
X287000000Y-153000000D01*
X286500000Y-153500000D02*
X281762500Y-153500000D01*
X287000000Y-153000000D02*
X286500000Y-153500000D01*
X278090000Y-154750000D02*
X278000000Y-154840000D01*
X281525000Y-154750000D02*
X278090000Y-154750000D01*
%TO.N,Net-(R7-Pad2)*%
X278050000Y-152250000D02*
X278000000Y-152300000D01*
X281500000Y-152250000D02*
X278050000Y-152250000D01*
X281500000Y-152250000D02*
X284250000Y-152250000D01*
%TO.N,A1*%
X278485000Y-149275000D02*
X278000000Y-149760000D01*
X281500000Y-149275000D02*
X278485000Y-149275000D01*
%TO.N,Net-(R10-Pad2)*%
X266750000Y-153750000D02*
X266750000Y-154750000D01*
X266500000Y-153500000D02*
X266750000Y-153750000D01*
X261750000Y-153500000D02*
X266500000Y-153500000D01*
X261250000Y-152250000D02*
X261250000Y-153000000D01*
X261250000Y-153000000D02*
X261750000Y-153500000D01*
X270290000Y-154750000D02*
X270380000Y-154840000D01*
X266750000Y-154750000D02*
X270290000Y-154750000D01*
%TO.N,Net-(R11-Pad2)*%
X266800000Y-152300000D02*
X266750000Y-152250000D01*
X270380000Y-152300000D02*
X266800000Y-152300000D01*
X266750000Y-152250000D02*
X264000000Y-152250000D01*
%TO.N,A2*%
X269895000Y-149275000D02*
X270380000Y-149760000D01*
X266750000Y-149275000D02*
X269895000Y-149275000D01*
%TO.N,Net-(R13-Pad1)*%
X266750000Y-160750000D02*
X266750000Y-159750000D01*
X266250000Y-161250000D02*
X266750000Y-160750000D01*
X261750000Y-161250000D02*
X266250000Y-161250000D01*
X261250000Y-162500000D02*
X261250000Y-161750000D01*
X261250000Y-161750000D02*
X261750000Y-161250000D01*
X270210000Y-159750000D02*
X270380000Y-159920000D01*
X266750000Y-159750000D02*
X270210000Y-159750000D01*
%TO.N,Net-(R15-Pad2)*%
X266790000Y-162460000D02*
X266750000Y-162500000D01*
X270380000Y-162460000D02*
X266790000Y-162460000D01*
X266750000Y-162500000D02*
X264000000Y-162500000D01*
%TO.N,A3*%
X269905000Y-165475000D02*
X270380000Y-165000000D01*
X266750000Y-165475000D02*
X269905000Y-165475000D01*
%TO.N,Net-(R17-Pad1)*%
X243080000Y-160000000D02*
X243000000Y-159920000D01*
X246500000Y-160000000D02*
X243080000Y-160000000D01*
X246500000Y-161000000D02*
X246500000Y-160000000D01*
X246750000Y-161250000D02*
X246500000Y-161000000D01*
X251500000Y-161250000D02*
X246750000Y-161250000D01*
X252000000Y-162500000D02*
X252000000Y-161750000D01*
X252000000Y-161750000D02*
X251500000Y-161250000D01*
%TO.N,Net-(R19-Pad2)*%
X249250000Y-162500000D02*
X246500000Y-162500000D01*
X243040000Y-162500000D02*
X243000000Y-162460000D01*
X246500000Y-162500000D02*
X243040000Y-162500000D01*
%TO.N,A4*%
X243475000Y-165475000D02*
X243000000Y-165000000D01*
X246500000Y-165475000D02*
X243475000Y-165475000D01*
%TO.N,Net-(R21-Pad1)*%
X243090000Y-154750000D02*
X243000000Y-154840000D01*
X246500000Y-154750000D02*
X243090000Y-154750000D01*
X246500000Y-153750000D02*
X246500000Y-154750000D01*
X246700010Y-153549990D02*
X246500000Y-153750000D01*
X252000000Y-152250000D02*
X252000000Y-153000000D01*
X251450010Y-153549990D02*
X246700010Y-153549990D01*
X252000000Y-153000000D02*
X251450010Y-153549990D01*
%TO.N,Net-(R23-Pad2)*%
X243050000Y-152250000D02*
X243000000Y-152300000D01*
X246500000Y-152250000D02*
X243050000Y-152250000D01*
X249250000Y-152250000D02*
X246500000Y-152250000D01*
%TO.N,A5*%
X243485000Y-149275000D02*
X243000000Y-149760000D01*
X246500000Y-149275000D02*
X243485000Y-149275000D01*
%TO.N,Net-(R25-Pad1)*%
X235290000Y-154750000D02*
X235380000Y-154840000D01*
X231750000Y-154750000D02*
X235290000Y-154750000D01*
X231750000Y-153750000D02*
X231750000Y-154750000D01*
X226750000Y-153500000D02*
X231500000Y-153500000D01*
X231500000Y-153500000D02*
X231750000Y-153750000D01*
X226250000Y-152250000D02*
X226250000Y-153000000D01*
X226250000Y-153000000D02*
X226750000Y-153500000D01*
%TO.N,Net-(R27-Pad2)*%
X231800000Y-152300000D02*
X231750000Y-152250000D01*
X235380000Y-152300000D02*
X231800000Y-152300000D01*
X231750000Y-152250000D02*
X229000000Y-152250000D01*
%TO.N,A6*%
X234895000Y-149275000D02*
X235380000Y-149760000D01*
X231750000Y-149275000D02*
X234895000Y-149275000D01*
%TO.N,Net-(R29-Pad1)*%
X235300000Y-160000000D02*
X235380000Y-159920000D01*
X231750000Y-160000000D02*
X235300000Y-160000000D01*
X231750000Y-161000000D02*
X231750000Y-160000000D01*
X231549990Y-161200010D02*
X231750000Y-161000000D01*
X226799990Y-161200010D02*
X231549990Y-161200010D01*
X226250000Y-162500000D02*
X226250000Y-161750000D01*
X226250000Y-161750000D02*
X226799990Y-161200010D01*
%TO.N,Net-(R31-Pad2)*%
X229000000Y-162500000D02*
X231750000Y-162500000D01*
X235340000Y-162500000D02*
X235380000Y-162460000D01*
X231750000Y-162500000D02*
X235340000Y-162500000D01*
%TO.N,A7*%
X234905000Y-165475000D02*
X235380000Y-165000000D01*
X231750000Y-165475000D02*
X234905000Y-165475000D01*
%TO.N,Net-(R33-Pad1)*%
X135080000Y-160000000D02*
X135000000Y-159920000D01*
X138500000Y-160000000D02*
X135080000Y-160000000D01*
X138500000Y-161000000D02*
X138500000Y-160000000D01*
X143500000Y-161250000D02*
X138750000Y-161250000D01*
X144000000Y-162500000D02*
X144000000Y-161750000D01*
X138750000Y-161250000D02*
X138500000Y-161000000D01*
X144000000Y-161750000D02*
X143500000Y-161250000D01*
%TO.N,Net-(R35-Pad2)*%
X135040000Y-162500000D02*
X135000000Y-162460000D01*
X138500000Y-162500000D02*
X135040000Y-162500000D01*
X141250000Y-162500000D02*
X138500000Y-162500000D01*
%TO.N,A8*%
X135475000Y-165475000D02*
X135000000Y-165000000D01*
X138500000Y-165475000D02*
X135475000Y-165475000D01*
X234191002Y-174250000D02*
X236325001Y-176383999D01*
X135000000Y-168000000D02*
X141450011Y-174450011D01*
X236325001Y-176383999D02*
X236325001Y-182674999D01*
X219186400Y-174450011D02*
X219386411Y-174250000D01*
X135000000Y-165000000D02*
X135000000Y-168000000D01*
X141450011Y-174450011D02*
X219186400Y-174450011D01*
X236325001Y-182674999D02*
X234000000Y-185000000D01*
X219386411Y-174250000D02*
X234191002Y-174250000D01*
%TO.N,Net-(R37-Pad1)*%
X135090000Y-154750000D02*
X135000000Y-154840000D01*
X138500000Y-154750000D02*
X135090000Y-154750000D01*
X138750000Y-153500000D02*
X138500000Y-153750000D01*
X138500000Y-153750000D02*
X138500000Y-154750000D01*
X143500000Y-153500000D02*
X138750000Y-153500000D01*
X144000000Y-152250000D02*
X144000000Y-153000000D01*
X144000000Y-153000000D02*
X143500000Y-153500000D01*
%TO.N,Net-(R39-Pad2)*%
X141250000Y-152250000D02*
X138500000Y-152250000D01*
X135050000Y-152250000D02*
X135000000Y-152300000D01*
X138500000Y-152250000D02*
X135050000Y-152250000D01*
%TO.N,A9*%
X135485000Y-149275000D02*
X135000000Y-149760000D01*
X138500000Y-149275000D02*
X135485000Y-149275000D01*
X141150022Y-174900022D02*
X231400022Y-174900022D01*
X133750000Y-167500000D02*
X141150022Y-174900022D01*
X232000001Y-175500001D02*
X234000000Y-177500000D01*
X231400022Y-174900022D02*
X232000001Y-175500001D01*
%TO.N,AREF*%
X167460000Y-166515000D02*
X168000000Y-165975000D01*
X167460000Y-169240000D02*
X167460000Y-166515000D01*
X168000000Y-165975000D02*
X170750000Y-165975000D01*
%TO.N,CHARGE_CONTROL_SIGNAL*%
X316000000Y-175000000D02*
X314725000Y-175000000D01*
X317000000Y-176000000D02*
X316000000Y-175000000D01*
%TO.N,Net-(SW1-Pad2)*%
X279000000Y-191000000D02*
X272500000Y-191000000D01*
X168375000Y-183625000D02*
X168250000Y-183500000D01*
X168875000Y-183625000D02*
X168375000Y-183625000D01*
X272500000Y-191000000D02*
X266750000Y-196750000D01*
X182000000Y-196750000D02*
X168875000Y-183625000D01*
X266750000Y-196750000D02*
X182000000Y-196750000D01*
D40*
%TO.N,3V3*%
X164920000Y-171780000D02*
X164920000Y-169240000D01*
D39*
%TO.N,DATA*%
X173975001Y-167804999D02*
X173975001Y-161548003D01*
X172540000Y-169240000D02*
X173975001Y-167804999D01*
X177101988Y-151325010D02*
X209695282Y-151325010D01*
X170774999Y-158348001D02*
X170774999Y-157651999D01*
X173975001Y-161548003D02*
X170774999Y-158348001D01*
X170774999Y-157651999D02*
X177101988Y-151325010D01*
X209695282Y-151325010D02*
X213945282Y-147075010D01*
X213945282Y-147075010D02*
X249448010Y-147075010D01*
X213945282Y-147075010D02*
X213770293Y-147250000D01*
X213770293Y-147250000D02*
X279750000Y-147250000D01*
X279750000Y-147250000D02*
X309500000Y-147250000D01*
X309500000Y-147250000D02*
X309750000Y-147500000D01*
X373750000Y-133000000D02*
X382025000Y-133000000D01*
X366500000Y-140250000D02*
X373750000Y-133000000D01*
%TO.N,BATTERY+*%
X382000000Y-164000000D02*
X382000000Y-185000000D01*
D40*
X382000000Y-168500000D02*
X382000000Y-185000000D01*
X377500000Y-164000000D02*
X382000000Y-168500000D01*
D39*
X367850001Y-199149999D02*
X148601857Y-199149999D01*
X382000000Y-185000000D02*
X367850001Y-199149999D01*
X148601857Y-199149999D02*
X147725929Y-198274071D01*
D40*
%TO.N,BATTERY-*%
X58000000Y-164040000D02*
X58000000Y-185000000D01*
D39*
X58000000Y-185000000D02*
X105000000Y-185000000D01*
X105000000Y-185000000D02*
X107750000Y-182250000D01*
D41*
%TO.N,Net-(R43-Pad2)*%
X350775000Y-170475000D02*
X350750000Y-170500000D01*
X350775000Y-163040000D02*
X350775000Y-170475000D01*
D39*
%TO.N,Net-(D3-Pad1)*%
X343000000Y-187000000D02*
X343000000Y-184000000D01*
%TO.N,Net-(D4-Pad1)*%
X315250000Y-183000000D02*
X315250000Y-187000000D01*
%TO.N,Net-(D14-Pad2)*%
X99650000Y-129100000D02*
X96450000Y-125900000D01*
X127550000Y-129100000D02*
X99650000Y-129100000D01*
%TO.N,Net-(D15-Pad2)*%
X87624999Y-125174999D02*
X61175001Y-125174999D01*
X61175001Y-125174999D02*
X60450000Y-125900000D01*
X91550000Y-129100000D02*
X87624999Y-125174999D01*
%TO.N,Net-(D5-Pad1)*%
X336000000Y-187000000D02*
X336000000Y-184000000D01*
%TO.N,Net-(D7-Pad4)*%
X385525001Y-126975001D02*
X384450000Y-125900000D01*
X385525001Y-132474999D02*
X385525001Y-126975001D01*
X385000000Y-133000000D02*
X385525001Y-132474999D01*
%TO.N,Net-(F6-Pad1)*%
X220000000Y-135000000D02*
X220000000Y-138000000D01*
X153100000Y-184750000D02*
X151850000Y-183500000D01*
X160250001Y-184750000D02*
X153100000Y-184750000D01*
X168936400Y-182299990D02*
X162700010Y-182299991D01*
X237450010Y-175450010D02*
X237450010Y-193549990D01*
X231500000Y-169500000D02*
X237450010Y-175450010D01*
X162700010Y-182299991D02*
X160250001Y-184750000D01*
X237450010Y-193549990D02*
X235250000Y-195750000D01*
X182386410Y-195750000D02*
X168936400Y-182299990D01*
X235250000Y-195750000D02*
X182386410Y-195750000D01*
%TO.N,Net-(F7-Pad1)*%
X184000000Y-182000000D02*
X184000000Y-185000000D01*
X183500000Y-181500000D02*
X184000000Y-182000000D01*
X154620000Y-183500000D02*
X156620000Y-181500000D01*
X156620000Y-181500000D02*
X183500000Y-181500000D01*
%TO.N,Net-(F8-Pad1)*%
X148000000Y-135000000D02*
X148000000Y-138000000D01*
X156750000Y-190500000D02*
X129750000Y-190500000D01*
X129750000Y-190500000D02*
X125250000Y-186000000D01*
X125250000Y-186000000D02*
X125250000Y-147500000D01*
X141500000Y-141500000D02*
X125250000Y-141500000D01*
X148000000Y-135000000D02*
X141500000Y-141500000D01*
%TO.N,Net-(F9-Pad1)*%
X112000000Y-185000000D02*
X112000000Y-182000000D01*
%TO.N,Net-(F10-Pad1)*%
X76000000Y-135000000D02*
X76000000Y-138000000D01*
X117750000Y-154750000D02*
X124750000Y-161750000D01*
X124750000Y-186136411D02*
X129863589Y-191250000D01*
X87364998Y-154750000D02*
X117750000Y-154750000D01*
X124750000Y-161750000D02*
X124750000Y-186136411D01*
X129863589Y-191250000D02*
X143000000Y-191250000D01*
X74674999Y-136325001D02*
X74674999Y-142060001D01*
X76000000Y-135000000D02*
X74674999Y-136325001D01*
X74674999Y-142060001D02*
X87364998Y-154750000D01*
%TO.N,GND*%
X284500000Y-159725000D02*
X284475000Y-159750000D01*
X284500000Y-154750000D02*
X284500000Y-159725000D01*
X284475000Y-157250000D02*
X288500000Y-157250000D01*
X263775000Y-159750000D02*
X263775000Y-154750000D01*
X249475000Y-160000000D02*
X249475000Y-154750000D01*
X249475000Y-157250000D02*
X253250000Y-157250000D01*
X228775000Y-160000000D02*
X228775000Y-154750000D01*
X141475000Y-160000000D02*
X141475000Y-154750000D01*
X141475000Y-157250000D02*
X145500000Y-157250000D01*
X384450000Y-129100000D02*
X384450000Y-130950000D01*
X384450000Y-130950000D02*
X384500000Y-131000000D01*
X348450000Y-129100000D02*
X350400000Y-129100000D01*
X350400000Y-129100000D02*
X350500000Y-129000000D01*
X312450000Y-129100000D02*
X314400000Y-129100000D01*
X314400000Y-129100000D02*
X314500000Y-129000000D01*
X276450000Y-129100000D02*
X278400000Y-129100000D01*
X278400000Y-129100000D02*
X278500000Y-129000000D01*
X240450000Y-129100000D02*
X242400000Y-129100000D01*
X242400000Y-129100000D02*
X242500000Y-129000000D01*
X204450000Y-129100000D02*
X206400000Y-129100000D01*
X206400000Y-129100000D02*
X206500000Y-129000000D01*
X168450000Y-129100000D02*
X170400000Y-129100000D01*
X170400000Y-129100000D02*
X170500000Y-129000000D01*
X132450000Y-129100000D02*
X134400000Y-129100000D01*
X134400000Y-129100000D02*
X134500000Y-129000000D01*
X96450000Y-129100000D02*
X98400000Y-129100000D01*
X98400000Y-129100000D02*
X98500000Y-129000000D01*
X60450000Y-129100000D02*
X62400000Y-129100000D01*
X62400000Y-129100000D02*
X62500000Y-129000000D01*
X348025000Y-184000000D02*
X348000000Y-184000000D01*
X348000000Y-184000000D02*
X346000000Y-184000000D01*
X314725000Y-177500000D02*
X314725000Y-179475000D01*
X314725000Y-179475000D02*
X314750000Y-179500000D01*
X308250000Y-179450000D02*
X310200000Y-179450000D01*
X310200000Y-179450000D02*
X310250000Y-179500000D01*
X308250000Y-179450000D02*
X308250000Y-181250000D01*
X170750000Y-163000000D02*
X173250000Y-163000000D01*
X266405000Y-157380000D02*
X270380000Y-157380000D01*
X263775000Y-154750000D02*
X266405000Y-157380000D01*
X231405000Y-157380000D02*
X235380000Y-157380000D01*
X228775000Y-154750000D02*
X231405000Y-157380000D01*
X231395000Y-157380000D02*
X235380000Y-157380000D01*
X228775000Y-160000000D02*
X231395000Y-157380000D01*
X266382500Y-157380000D02*
X270380000Y-157380000D01*
X263775000Y-159750000D02*
X264012500Y-159750000D01*
X264012500Y-159750000D02*
X266382500Y-157380000D01*
X141250000Y-149000004D02*
X142487342Y-147762662D01*
X141250000Y-149275000D02*
X141250000Y-149000004D01*
X338975000Y-184000000D02*
X341000000Y-184000000D01*
X341249990Y-184000000D02*
X341250000Y-183999990D01*
X341000000Y-184000000D02*
X341249990Y-184000000D01*
D41*
%TO.N,STATUS_CHECK*%
X342474999Y-124824999D02*
X308625001Y-124824999D01*
X308625001Y-124824999D02*
X307550000Y-125900000D01*
X343550000Y-125900000D02*
X342474999Y-124824999D01*
X236625001Y-124824999D02*
X235550000Y-125900000D01*
X270474999Y-124824999D02*
X236625001Y-124824999D01*
X271550000Y-125900000D02*
X270474999Y-124824999D01*
X164625001Y-124824999D02*
X163550000Y-125900000D01*
X198474999Y-124824999D02*
X164625001Y-124824999D01*
X199550000Y-125900000D02*
X198474999Y-124824999D01*
X128975011Y-124474989D02*
X127550000Y-125900000D01*
X162124989Y-124474989D02*
X128975011Y-124474989D01*
X163550000Y-125900000D02*
X162124989Y-124474989D01*
X92625001Y-124824999D02*
X91550000Y-125900000D01*
X126474999Y-124824999D02*
X92625001Y-124824999D01*
X127550000Y-125900000D02*
X126474999Y-124824999D01*
X56975011Y-124474989D02*
X55550000Y-125900000D01*
X90124989Y-124474989D02*
X56975011Y-124474989D01*
X91550000Y-125900000D02*
X90124989Y-124474989D01*
X200975011Y-124474989D02*
X199550000Y-125900000D01*
X235550000Y-125900000D02*
X235400000Y-125900000D01*
X233974989Y-124474989D02*
X200975011Y-124474989D01*
X235400000Y-125900000D02*
X233974989Y-124474989D01*
X272975011Y-124474989D02*
X271550000Y-125900000D01*
X305974989Y-124474989D02*
X272975011Y-124474989D01*
X307550000Y-125900000D02*
X307400000Y-125900000D01*
X307400000Y-125900000D02*
X305974989Y-124474989D01*
X344975011Y-124474989D02*
X343550000Y-125900000D01*
X377974989Y-124474989D02*
X344975011Y-124474989D01*
X379550000Y-125900000D02*
X379400000Y-125900000D01*
X379400000Y-125900000D02*
X377974989Y-124474989D01*
X379500000Y-139000000D02*
X386000000Y-139000000D01*
X385660001Y-124824999D02*
X386287510Y-125452508D01*
X386287510Y-125452508D02*
X386287510Y-138712490D01*
X379550000Y-125900000D02*
X380625001Y-124824999D01*
X386287510Y-138712490D02*
X386000000Y-139000000D01*
X380625001Y-124824999D02*
X385660001Y-124824999D01*
D39*
X165250000Y-127600000D02*
X163550000Y-125900000D01*
X165250000Y-137750000D02*
X165250000Y-127600000D01*
%TD*%
D42*
%TO.N,GND*%
G36*
X63373000Y-162873000D02*
G01*
X59487447Y-162873000D01*
X59451185Y-162828815D01*
X59354494Y-162749463D01*
X59244180Y-162690498D01*
X59124482Y-162654188D01*
X59000000Y-162641928D01*
X57000000Y-162641928D01*
X56875518Y-162654188D01*
X56755820Y-162690498D01*
X56645506Y-162749463D01*
X56548815Y-162828815D01*
X56512553Y-162873000D01*
X52627000Y-162873000D01*
X52627000Y-161760000D01*
X56361928Y-161760000D01*
X56374188Y-161884482D01*
X56410498Y-162004180D01*
X56469463Y-162114494D01*
X56548815Y-162211185D01*
X56645506Y-162290537D01*
X56755820Y-162349502D01*
X56875518Y-162385812D01*
X57000000Y-162398072D01*
X57714250Y-162395000D01*
X57873000Y-162236250D01*
X57873000Y-161127000D01*
X58127000Y-161127000D01*
X58127000Y-162236250D01*
X58285750Y-162395000D01*
X59000000Y-162398072D01*
X59124482Y-162385812D01*
X59244180Y-162349502D01*
X59354494Y-162290537D01*
X59451185Y-162211185D01*
X59530537Y-162114494D01*
X59589502Y-162004180D01*
X59625812Y-161884482D01*
X59638072Y-161760000D01*
X59635000Y-161285750D01*
X59476250Y-161127000D01*
X58127000Y-161127000D01*
X57873000Y-161127000D01*
X56523750Y-161127000D01*
X56365000Y-161285750D01*
X56361928Y-161760000D01*
X52627000Y-161760000D01*
X52627000Y-160240000D01*
X56361928Y-160240000D01*
X56365000Y-160714250D01*
X56523750Y-160873000D01*
X57873000Y-160873000D01*
X57873000Y-159763750D01*
X58127000Y-159763750D01*
X58127000Y-160873000D01*
X59476250Y-160873000D01*
X59635000Y-160714250D01*
X59638072Y-160240000D01*
X59625812Y-160115518D01*
X59589502Y-159995820D01*
X59530537Y-159885506D01*
X59451185Y-159788815D01*
X59354494Y-159709463D01*
X59244180Y-159650498D01*
X59124482Y-159614188D01*
X59000000Y-159601928D01*
X58285750Y-159605000D01*
X58127000Y-159763750D01*
X57873000Y-159763750D01*
X57714250Y-159605000D01*
X57000000Y-159601928D01*
X56875518Y-159614188D01*
X56755820Y-159650498D01*
X56645506Y-159709463D01*
X56548815Y-159788815D01*
X56469463Y-159885506D01*
X56410498Y-159995820D01*
X56374188Y-160115518D01*
X56361928Y-160240000D01*
X52627000Y-160240000D01*
X52627000Y-157627000D01*
X63373000Y-157627000D01*
X63373000Y-162873000D01*
G37*
X63373000Y-162873000D02*
X59487447Y-162873000D01*
X59451185Y-162828815D01*
X59354494Y-162749463D01*
X59244180Y-162690498D01*
X59124482Y-162654188D01*
X59000000Y-162641928D01*
X57000000Y-162641928D01*
X56875518Y-162654188D01*
X56755820Y-162690498D01*
X56645506Y-162749463D01*
X56548815Y-162828815D01*
X56512553Y-162873000D01*
X52627000Y-162873000D01*
X52627000Y-161760000D01*
X56361928Y-161760000D01*
X56374188Y-161884482D01*
X56410498Y-162004180D01*
X56469463Y-162114494D01*
X56548815Y-162211185D01*
X56645506Y-162290537D01*
X56755820Y-162349502D01*
X56875518Y-162385812D01*
X57000000Y-162398072D01*
X57714250Y-162395000D01*
X57873000Y-162236250D01*
X57873000Y-161127000D01*
X58127000Y-161127000D01*
X58127000Y-162236250D01*
X58285750Y-162395000D01*
X59000000Y-162398072D01*
X59124482Y-162385812D01*
X59244180Y-162349502D01*
X59354494Y-162290537D01*
X59451185Y-162211185D01*
X59530537Y-162114494D01*
X59589502Y-162004180D01*
X59625812Y-161884482D01*
X59638072Y-161760000D01*
X59635000Y-161285750D01*
X59476250Y-161127000D01*
X58127000Y-161127000D01*
X57873000Y-161127000D01*
X56523750Y-161127000D01*
X56365000Y-161285750D01*
X56361928Y-161760000D01*
X52627000Y-161760000D01*
X52627000Y-160240000D01*
X56361928Y-160240000D01*
X56365000Y-160714250D01*
X56523750Y-160873000D01*
X57873000Y-160873000D01*
X57873000Y-159763750D01*
X58127000Y-159763750D01*
X58127000Y-160873000D01*
X59476250Y-160873000D01*
X59635000Y-160714250D01*
X59638072Y-160240000D01*
X59625812Y-160115518D01*
X59589502Y-159995820D01*
X59530537Y-159885506D01*
X59451185Y-159788815D01*
X59354494Y-159709463D01*
X59244180Y-159650498D01*
X59124482Y-159614188D01*
X59000000Y-159601928D01*
X58285750Y-159605000D01*
X58127000Y-159763750D01*
X57873000Y-159763750D01*
X57714250Y-159605000D01*
X57000000Y-159601928D01*
X56875518Y-159614188D01*
X56755820Y-159650498D01*
X56645506Y-159709463D01*
X56548815Y-159788815D01*
X56469463Y-159885506D01*
X56410498Y-159995820D01*
X56374188Y-160115518D01*
X56361928Y-160240000D01*
X52627000Y-160240000D01*
X52627000Y-157627000D01*
X63373000Y-157627000D01*
X63373000Y-162873000D01*
D39*
%TO.N,Net-(C5-Pad1)*%
G36*
X359375000Y-159375000D02*
G01*
X353342067Y-159375000D01*
X353318410Y-159362355D01*
X353199090Y-159326160D01*
X353075000Y-159313938D01*
X348475000Y-159313938D01*
X348350910Y-159326160D01*
X348231590Y-159362355D01*
X348207933Y-159375000D01*
X347625000Y-159375000D01*
X347625000Y-158510000D01*
X347838937Y-158510000D01*
X347851159Y-158634090D01*
X347887354Y-158753411D01*
X347946133Y-158863378D01*
X348025236Y-158959764D01*
X348121622Y-159038867D01*
X348231589Y-159097646D01*
X348350910Y-159133841D01*
X348475000Y-159146063D01*
X350241750Y-159143000D01*
X350400000Y-158984750D01*
X350400000Y-158335000D01*
X351150000Y-158335000D01*
X351150000Y-158984750D01*
X351308250Y-159143000D01*
X353075000Y-159146063D01*
X353199090Y-159133841D01*
X353318411Y-159097646D01*
X353428378Y-159038867D01*
X353524764Y-158959764D01*
X353603867Y-158863378D01*
X353662646Y-158753411D01*
X353698841Y-158634090D01*
X353711063Y-158510000D01*
X353708000Y-158493250D01*
X353549750Y-158335000D01*
X351150000Y-158335000D01*
X350400000Y-158335000D01*
X348000250Y-158335000D01*
X347842000Y-158493250D01*
X347838937Y-158510000D01*
X347625000Y-158510000D01*
X347625000Y-157625000D01*
X355188937Y-157625000D01*
X355201159Y-157749090D01*
X355237354Y-157868411D01*
X355296133Y-157978378D01*
X355375236Y-158074764D01*
X355471622Y-158153867D01*
X355581589Y-158212646D01*
X355700910Y-158248841D01*
X355825000Y-158261063D01*
X356466750Y-158258000D01*
X356625000Y-158099750D01*
X356625000Y-156875000D01*
X357375000Y-156875000D01*
X357375000Y-158099750D01*
X357533250Y-158258000D01*
X358175000Y-158261063D01*
X358299090Y-158248841D01*
X358418411Y-158212646D01*
X358528378Y-158153867D01*
X358624764Y-158074764D01*
X358703867Y-157978378D01*
X358762646Y-157868411D01*
X358798841Y-157749090D01*
X358811063Y-157625000D01*
X358808000Y-157033250D01*
X358649750Y-156875000D01*
X357375000Y-156875000D01*
X356625000Y-156875000D01*
X355350250Y-156875000D01*
X355192000Y-157033250D01*
X355188937Y-157625000D01*
X347625000Y-157625000D01*
X347625000Y-157410000D01*
X347838937Y-157410000D01*
X347842000Y-157426750D01*
X348000250Y-157585000D01*
X350400000Y-157585000D01*
X350400000Y-156935250D01*
X351150000Y-156935250D01*
X351150000Y-157585000D01*
X353549750Y-157585000D01*
X353708000Y-157426750D01*
X353711063Y-157410000D01*
X353698841Y-157285910D01*
X353662646Y-157166589D01*
X353603867Y-157056622D01*
X353524764Y-156960236D01*
X353428378Y-156881133D01*
X353318411Y-156822354D01*
X353199090Y-156786159D01*
X353075000Y-156773937D01*
X351308250Y-156777000D01*
X351150000Y-156935250D01*
X350400000Y-156935250D01*
X350241750Y-156777000D01*
X348475000Y-156773937D01*
X348350910Y-156786159D01*
X348231589Y-156822354D01*
X348121622Y-156881133D01*
X348025236Y-156960236D01*
X347946133Y-157056622D01*
X347887354Y-157166589D01*
X347851159Y-157285910D01*
X347838937Y-157410000D01*
X347625000Y-157410000D01*
X347625000Y-155375000D01*
X355188937Y-155375000D01*
X355192000Y-155966750D01*
X355350250Y-156125000D01*
X356625000Y-156125000D01*
X356625000Y-154900250D01*
X357375000Y-154900250D01*
X357375000Y-156125000D01*
X358649750Y-156125000D01*
X358808000Y-155966750D01*
X358811063Y-155375000D01*
X358798841Y-155250910D01*
X358762646Y-155131589D01*
X358703867Y-155021622D01*
X358624764Y-154925236D01*
X358528378Y-154846133D01*
X358418411Y-154787354D01*
X358299090Y-154751159D01*
X358175000Y-154738937D01*
X357533250Y-154742000D01*
X357375000Y-154900250D01*
X356625000Y-154900250D01*
X356466750Y-154742000D01*
X355825000Y-154738937D01*
X355700910Y-154751159D01*
X355581589Y-154787354D01*
X355471622Y-154846133D01*
X355375236Y-154925236D01*
X355296133Y-155021622D01*
X355237354Y-155131589D01*
X355201159Y-155250910D01*
X355188937Y-155375000D01*
X347625000Y-155375000D01*
X347625000Y-154000000D01*
X347622598Y-153975614D01*
X347615485Y-153952165D01*
X347603934Y-153930554D01*
X347588388Y-153911612D01*
X347569446Y-153896066D01*
X347547835Y-153884515D01*
X347524386Y-153877402D01*
X347500000Y-153875000D01*
X342875000Y-153875000D01*
X342875000Y-153250000D01*
X355213937Y-153250000D01*
X355226159Y-153374090D01*
X355262354Y-153493411D01*
X355321133Y-153603378D01*
X355400236Y-153699764D01*
X355496622Y-153778867D01*
X355606589Y-153837646D01*
X355725910Y-153873841D01*
X355850000Y-153886063D01*
X356466750Y-153883000D01*
X356625000Y-153724750D01*
X356625000Y-151875000D01*
X357375000Y-151875000D01*
X357375000Y-153724750D01*
X357533250Y-153883000D01*
X358150000Y-153886063D01*
X358274090Y-153873841D01*
X358393411Y-153837646D01*
X358503378Y-153778867D01*
X358599764Y-153699764D01*
X358678867Y-153603378D01*
X358737646Y-153493411D01*
X358773841Y-153374090D01*
X358786063Y-153250000D01*
X358783000Y-152033250D01*
X358624750Y-151875000D01*
X357375000Y-151875000D01*
X356625000Y-151875000D01*
X355375250Y-151875000D01*
X355217000Y-152033250D01*
X355213937Y-153250000D01*
X342875000Y-153250000D01*
X342875000Y-152778676D01*
X342950000Y-152786063D01*
X344166750Y-152783000D01*
X344325000Y-152624750D01*
X344325000Y-151375000D01*
X345075000Y-151375000D01*
X345075000Y-152624750D01*
X345233250Y-152783000D01*
X346450000Y-152786063D01*
X346574090Y-152773841D01*
X346693411Y-152737646D01*
X346803378Y-152678867D01*
X346899764Y-152599764D01*
X346978867Y-152503378D01*
X347037646Y-152393411D01*
X347073841Y-152274090D01*
X347086063Y-152150000D01*
X347083000Y-151533250D01*
X346924750Y-151375000D01*
X345075000Y-151375000D01*
X344325000Y-151375000D01*
X344305000Y-151375000D01*
X344305000Y-150625000D01*
X344325000Y-150625000D01*
X344325000Y-149375250D01*
X345075000Y-149375250D01*
X345075000Y-150625000D01*
X346924750Y-150625000D01*
X347083000Y-150466750D01*
X347086063Y-149850000D01*
X347076214Y-149750000D01*
X355213937Y-149750000D01*
X355217000Y-150966750D01*
X355375250Y-151125000D01*
X356625000Y-151125000D01*
X356625000Y-149275250D01*
X357375000Y-149275250D01*
X357375000Y-151125000D01*
X358624750Y-151125000D01*
X358783000Y-150966750D01*
X358786063Y-149750000D01*
X358773841Y-149625910D01*
X358737646Y-149506589D01*
X358678867Y-149396622D01*
X358599764Y-149300236D01*
X358503378Y-149221133D01*
X358393411Y-149162354D01*
X358274090Y-149126159D01*
X358150000Y-149113937D01*
X357533250Y-149117000D01*
X357375000Y-149275250D01*
X356625000Y-149275250D01*
X356466750Y-149117000D01*
X355850000Y-149113937D01*
X355725910Y-149126159D01*
X355606589Y-149162354D01*
X355496622Y-149221133D01*
X355400236Y-149300236D01*
X355321133Y-149396622D01*
X355262354Y-149506589D01*
X355226159Y-149625910D01*
X355213937Y-149750000D01*
X347076214Y-149750000D01*
X347073841Y-149725910D01*
X347037646Y-149606589D01*
X346978867Y-149496622D01*
X346899764Y-149400236D01*
X346803378Y-149321133D01*
X346693411Y-149262354D01*
X346574090Y-149226159D01*
X346450000Y-149213937D01*
X345233250Y-149217000D01*
X345075000Y-149375250D01*
X344325000Y-149375250D01*
X344166750Y-149217000D01*
X342950000Y-149213937D01*
X342875000Y-149221324D01*
X342875000Y-148875000D01*
X359375000Y-148875000D01*
X359375000Y-159375000D01*
G37*
X359375000Y-159375000D02*
X353342067Y-159375000D01*
X353318410Y-159362355D01*
X353199090Y-159326160D01*
X353075000Y-159313938D01*
X348475000Y-159313938D01*
X348350910Y-159326160D01*
X348231590Y-159362355D01*
X348207933Y-159375000D01*
X347625000Y-159375000D01*
X347625000Y-158510000D01*
X347838937Y-158510000D01*
X347851159Y-158634090D01*
X347887354Y-158753411D01*
X347946133Y-158863378D01*
X348025236Y-158959764D01*
X348121622Y-159038867D01*
X348231589Y-159097646D01*
X348350910Y-159133841D01*
X348475000Y-159146063D01*
X350241750Y-159143000D01*
X350400000Y-158984750D01*
X350400000Y-158335000D01*
X351150000Y-158335000D01*
X351150000Y-158984750D01*
X351308250Y-159143000D01*
X353075000Y-159146063D01*
X353199090Y-159133841D01*
X353318411Y-159097646D01*
X353428378Y-159038867D01*
X353524764Y-158959764D01*
X353603867Y-158863378D01*
X353662646Y-158753411D01*
X353698841Y-158634090D01*
X353711063Y-158510000D01*
X353708000Y-158493250D01*
X353549750Y-158335000D01*
X351150000Y-158335000D01*
X350400000Y-158335000D01*
X348000250Y-158335000D01*
X347842000Y-158493250D01*
X347838937Y-158510000D01*
X347625000Y-158510000D01*
X347625000Y-157625000D01*
X355188937Y-157625000D01*
X355201159Y-157749090D01*
X355237354Y-157868411D01*
X355296133Y-157978378D01*
X355375236Y-158074764D01*
X355471622Y-158153867D01*
X355581589Y-158212646D01*
X355700910Y-158248841D01*
X355825000Y-158261063D01*
X356466750Y-158258000D01*
X356625000Y-158099750D01*
X356625000Y-156875000D01*
X357375000Y-156875000D01*
X357375000Y-158099750D01*
X357533250Y-158258000D01*
X358175000Y-158261063D01*
X358299090Y-158248841D01*
X358418411Y-158212646D01*
X358528378Y-158153867D01*
X358624764Y-158074764D01*
X358703867Y-157978378D01*
X358762646Y-157868411D01*
X358798841Y-157749090D01*
X358811063Y-157625000D01*
X358808000Y-157033250D01*
X358649750Y-156875000D01*
X357375000Y-156875000D01*
X356625000Y-156875000D01*
X355350250Y-156875000D01*
X355192000Y-157033250D01*
X355188937Y-157625000D01*
X347625000Y-157625000D01*
X347625000Y-157410000D01*
X347838937Y-157410000D01*
X347842000Y-157426750D01*
X348000250Y-157585000D01*
X350400000Y-157585000D01*
X350400000Y-156935250D01*
X351150000Y-156935250D01*
X351150000Y-157585000D01*
X353549750Y-157585000D01*
X353708000Y-157426750D01*
X353711063Y-157410000D01*
X353698841Y-157285910D01*
X353662646Y-157166589D01*
X353603867Y-157056622D01*
X353524764Y-156960236D01*
X353428378Y-156881133D01*
X353318411Y-156822354D01*
X353199090Y-156786159D01*
X353075000Y-156773937D01*
X351308250Y-156777000D01*
X351150000Y-156935250D01*
X350400000Y-156935250D01*
X350241750Y-156777000D01*
X348475000Y-156773937D01*
X348350910Y-156786159D01*
X348231589Y-156822354D01*
X348121622Y-156881133D01*
X348025236Y-156960236D01*
X347946133Y-157056622D01*
X347887354Y-157166589D01*
X347851159Y-157285910D01*
X347838937Y-157410000D01*
X347625000Y-157410000D01*
X347625000Y-155375000D01*
X355188937Y-155375000D01*
X355192000Y-155966750D01*
X355350250Y-156125000D01*
X356625000Y-156125000D01*
X356625000Y-154900250D01*
X357375000Y-154900250D01*
X357375000Y-156125000D01*
X358649750Y-156125000D01*
X358808000Y-155966750D01*
X358811063Y-155375000D01*
X358798841Y-155250910D01*
X358762646Y-155131589D01*
X358703867Y-155021622D01*
X358624764Y-154925236D01*
X358528378Y-154846133D01*
X358418411Y-154787354D01*
X358299090Y-154751159D01*
X358175000Y-154738937D01*
X357533250Y-154742000D01*
X357375000Y-154900250D01*
X356625000Y-154900250D01*
X356466750Y-154742000D01*
X355825000Y-154738937D01*
X355700910Y-154751159D01*
X355581589Y-154787354D01*
X355471622Y-154846133D01*
X355375236Y-154925236D01*
X355296133Y-155021622D01*
X355237354Y-155131589D01*
X355201159Y-155250910D01*
X355188937Y-155375000D01*
X347625000Y-155375000D01*
X347625000Y-154000000D01*
X347622598Y-153975614D01*
X347615485Y-153952165D01*
X347603934Y-153930554D01*
X347588388Y-153911612D01*
X347569446Y-153896066D01*
X347547835Y-153884515D01*
X347524386Y-153877402D01*
X347500000Y-153875000D01*
X342875000Y-153875000D01*
X342875000Y-153250000D01*
X355213937Y-153250000D01*
X355226159Y-153374090D01*
X355262354Y-153493411D01*
X355321133Y-153603378D01*
X355400236Y-153699764D01*
X355496622Y-153778867D01*
X355606589Y-153837646D01*
X355725910Y-153873841D01*
X355850000Y-153886063D01*
X356466750Y-153883000D01*
X356625000Y-153724750D01*
X356625000Y-151875000D01*
X357375000Y-151875000D01*
X357375000Y-153724750D01*
X357533250Y-153883000D01*
X358150000Y-153886063D01*
X358274090Y-153873841D01*
X358393411Y-153837646D01*
X358503378Y-153778867D01*
X358599764Y-153699764D01*
X358678867Y-153603378D01*
X358737646Y-153493411D01*
X358773841Y-153374090D01*
X358786063Y-153250000D01*
X358783000Y-152033250D01*
X358624750Y-151875000D01*
X357375000Y-151875000D01*
X356625000Y-151875000D01*
X355375250Y-151875000D01*
X355217000Y-152033250D01*
X355213937Y-153250000D01*
X342875000Y-153250000D01*
X342875000Y-152778676D01*
X342950000Y-152786063D01*
X344166750Y-152783000D01*
X344325000Y-152624750D01*
X344325000Y-151375000D01*
X345075000Y-151375000D01*
X345075000Y-152624750D01*
X345233250Y-152783000D01*
X346450000Y-152786063D01*
X346574090Y-152773841D01*
X346693411Y-152737646D01*
X346803378Y-152678867D01*
X346899764Y-152599764D01*
X346978867Y-152503378D01*
X347037646Y-152393411D01*
X347073841Y-152274090D01*
X347086063Y-152150000D01*
X347083000Y-151533250D01*
X346924750Y-151375000D01*
X345075000Y-151375000D01*
X344325000Y-151375000D01*
X344305000Y-151375000D01*
X344305000Y-150625000D01*
X344325000Y-150625000D01*
X344325000Y-149375250D01*
X345075000Y-149375250D01*
X345075000Y-150625000D01*
X346924750Y-150625000D01*
X347083000Y-150466750D01*
X347086063Y-149850000D01*
X347076214Y-149750000D01*
X355213937Y-149750000D01*
X355217000Y-150966750D01*
X355375250Y-151125000D01*
X356625000Y-151125000D01*
X356625000Y-149275250D01*
X357375000Y-149275250D01*
X357375000Y-151125000D01*
X358624750Y-151125000D01*
X358783000Y-150966750D01*
X358786063Y-149750000D01*
X358773841Y-149625910D01*
X358737646Y-149506589D01*
X358678867Y-149396622D01*
X358599764Y-149300236D01*
X358503378Y-149221133D01*
X358393411Y-149162354D01*
X358274090Y-149126159D01*
X358150000Y-149113937D01*
X357533250Y-149117000D01*
X357375000Y-149275250D01*
X356625000Y-149275250D01*
X356466750Y-149117000D01*
X355850000Y-149113937D01*
X355725910Y-149126159D01*
X355606589Y-149162354D01*
X355496622Y-149221133D01*
X355400236Y-149300236D01*
X355321133Y-149396622D01*
X355262354Y-149506589D01*
X355226159Y-149625910D01*
X355213937Y-149750000D01*
X347076214Y-149750000D01*
X347073841Y-149725910D01*
X347037646Y-149606589D01*
X346978867Y-149496622D01*
X346899764Y-149400236D01*
X346803378Y-149321133D01*
X346693411Y-149262354D01*
X346574090Y-149226159D01*
X346450000Y-149213937D01*
X345233250Y-149217000D01*
X345075000Y-149375250D01*
X344325000Y-149375250D01*
X344166750Y-149217000D01*
X342950000Y-149213937D01*
X342875000Y-149221324D01*
X342875000Y-148875000D01*
X359375000Y-148875000D01*
X359375000Y-159375000D01*
%TO.N,GND*%
G36*
X355188937Y-160475000D02*
G01*
X355192000Y-161066750D01*
X355350250Y-161225000D01*
X356625000Y-161225000D01*
X356625000Y-161205000D01*
X357375000Y-161205000D01*
X357375000Y-161225000D01*
X358649750Y-161225000D01*
X358808000Y-161066750D01*
X358811063Y-160475000D01*
X358801214Y-160375000D01*
X359375000Y-160375000D01*
X359375000Y-174625000D01*
X331508000Y-174625000D01*
X331508000Y-171375000D01*
X346426437Y-171375000D01*
X346438659Y-171499090D01*
X346474854Y-171618411D01*
X346533633Y-171728378D01*
X346612736Y-171824764D01*
X346709122Y-171903867D01*
X346819089Y-171962646D01*
X346938410Y-171998841D01*
X347062500Y-172011063D01*
X347241750Y-172008000D01*
X347400000Y-171849750D01*
X347400000Y-170875000D01*
X346587750Y-170875000D01*
X346429500Y-171033250D01*
X346426437Y-171375000D01*
X331508000Y-171375000D01*
X331508000Y-169475000D01*
X332188937Y-169475000D01*
X332201159Y-169599090D01*
X332237354Y-169718411D01*
X332296133Y-169828378D01*
X332375236Y-169924764D01*
X332471622Y-170003867D01*
X332581589Y-170062646D01*
X332700910Y-170098841D01*
X332825000Y-170111063D01*
X333466750Y-170108000D01*
X333625000Y-169949750D01*
X333625000Y-168725000D01*
X334375000Y-168725000D01*
X334375000Y-169949750D01*
X334533250Y-170108000D01*
X335175000Y-170111063D01*
X335299090Y-170098841D01*
X335418411Y-170062646D01*
X335528378Y-170003867D01*
X335624764Y-169924764D01*
X335703867Y-169828378D01*
X335762646Y-169718411D01*
X335798841Y-169599090D01*
X335811063Y-169475000D01*
X335808000Y-168883250D01*
X335649750Y-168725000D01*
X334375000Y-168725000D01*
X333625000Y-168725000D01*
X332350250Y-168725000D01*
X332192000Y-168883250D01*
X332188937Y-169475000D01*
X331508000Y-169475000D01*
X331508000Y-166875000D01*
X332294327Y-166875000D01*
X332237354Y-166981589D01*
X332201159Y-167100910D01*
X332188937Y-167225000D01*
X332192000Y-167816750D01*
X332350250Y-167975000D01*
X333625000Y-167975000D01*
X333625000Y-167955000D01*
X334375000Y-167955000D01*
X334375000Y-167975000D01*
X335649750Y-167975000D01*
X335808000Y-167816750D01*
X335811063Y-167225000D01*
X335798841Y-167100910D01*
X335762646Y-166981589D01*
X335705673Y-166875000D01*
X346125000Y-166875000D01*
X346125000Y-169000000D01*
X346127402Y-169024386D01*
X346134515Y-169047835D01*
X346146066Y-169069446D01*
X346161612Y-169088388D01*
X346180554Y-169103934D01*
X346202165Y-169115485D01*
X346225614Y-169122598D01*
X346250000Y-169125000D01*
X346673948Y-169125000D01*
X346612736Y-169175236D01*
X346533633Y-169271622D01*
X346474854Y-169381589D01*
X346438659Y-169500910D01*
X346426437Y-169625000D01*
X346429500Y-169966750D01*
X346587750Y-170125000D01*
X347400000Y-170125000D01*
X347400000Y-170105000D01*
X348150000Y-170105000D01*
X348150000Y-170125000D01*
X348170000Y-170125000D01*
X348170000Y-170875000D01*
X348150000Y-170875000D01*
X348150000Y-171849750D01*
X348308250Y-172008000D01*
X348487500Y-172011063D01*
X348611590Y-171998841D01*
X348730911Y-171962646D01*
X348840878Y-171903867D01*
X348875000Y-171875863D01*
X348875000Y-172000000D01*
X348877402Y-172024386D01*
X348884515Y-172047835D01*
X348896066Y-172069446D01*
X348911612Y-172088388D01*
X348930554Y-172103934D01*
X348952165Y-172115485D01*
X348975614Y-172122598D01*
X349000000Y-172125000D01*
X354250000Y-172125000D01*
X354274386Y-172122598D01*
X354297835Y-172115485D01*
X354319446Y-172103934D01*
X354338388Y-172088388D01*
X354353934Y-172069446D01*
X354365485Y-172047835D01*
X354372598Y-172024386D01*
X354375000Y-172000000D01*
X354375000Y-162725000D01*
X355188937Y-162725000D01*
X355201159Y-162849090D01*
X355237354Y-162968411D01*
X355296133Y-163078378D01*
X355375236Y-163174764D01*
X355471622Y-163253867D01*
X355581589Y-163312646D01*
X355700910Y-163348841D01*
X355825000Y-163361063D01*
X356466750Y-163358000D01*
X356625000Y-163199750D01*
X356625000Y-161975000D01*
X357375000Y-161975000D01*
X357375000Y-163199750D01*
X357533250Y-163358000D01*
X358175000Y-163361063D01*
X358299090Y-163348841D01*
X358418411Y-163312646D01*
X358528378Y-163253867D01*
X358624764Y-163174764D01*
X358703867Y-163078378D01*
X358762646Y-162968411D01*
X358798841Y-162849090D01*
X358811063Y-162725000D01*
X358808000Y-162133250D01*
X358649750Y-161975000D01*
X357375000Y-161975000D01*
X356625000Y-161975000D01*
X355350250Y-161975000D01*
X355192000Y-162133250D01*
X355188937Y-162725000D01*
X354375000Y-162725000D01*
X354375000Y-160375000D01*
X355198786Y-160375000D01*
X355188937Y-160475000D01*
G37*
X355188937Y-160475000D02*
X355192000Y-161066750D01*
X355350250Y-161225000D01*
X356625000Y-161225000D01*
X356625000Y-161205000D01*
X357375000Y-161205000D01*
X357375000Y-161225000D01*
X358649750Y-161225000D01*
X358808000Y-161066750D01*
X358811063Y-160475000D01*
X358801214Y-160375000D01*
X359375000Y-160375000D01*
X359375000Y-174625000D01*
X331508000Y-174625000D01*
X331508000Y-171375000D01*
X346426437Y-171375000D01*
X346438659Y-171499090D01*
X346474854Y-171618411D01*
X346533633Y-171728378D01*
X346612736Y-171824764D01*
X346709122Y-171903867D01*
X346819089Y-171962646D01*
X346938410Y-171998841D01*
X347062500Y-172011063D01*
X347241750Y-172008000D01*
X347400000Y-171849750D01*
X347400000Y-170875000D01*
X346587750Y-170875000D01*
X346429500Y-171033250D01*
X346426437Y-171375000D01*
X331508000Y-171375000D01*
X331508000Y-169475000D01*
X332188937Y-169475000D01*
X332201159Y-169599090D01*
X332237354Y-169718411D01*
X332296133Y-169828378D01*
X332375236Y-169924764D01*
X332471622Y-170003867D01*
X332581589Y-170062646D01*
X332700910Y-170098841D01*
X332825000Y-170111063D01*
X333466750Y-170108000D01*
X333625000Y-169949750D01*
X333625000Y-168725000D01*
X334375000Y-168725000D01*
X334375000Y-169949750D01*
X334533250Y-170108000D01*
X335175000Y-170111063D01*
X335299090Y-170098841D01*
X335418411Y-170062646D01*
X335528378Y-170003867D01*
X335624764Y-169924764D01*
X335703867Y-169828378D01*
X335762646Y-169718411D01*
X335798841Y-169599090D01*
X335811063Y-169475000D01*
X335808000Y-168883250D01*
X335649750Y-168725000D01*
X334375000Y-168725000D01*
X333625000Y-168725000D01*
X332350250Y-168725000D01*
X332192000Y-168883250D01*
X332188937Y-169475000D01*
X331508000Y-169475000D01*
X331508000Y-166875000D01*
X332294327Y-166875000D01*
X332237354Y-166981589D01*
X332201159Y-167100910D01*
X332188937Y-167225000D01*
X332192000Y-167816750D01*
X332350250Y-167975000D01*
X333625000Y-167975000D01*
X333625000Y-167955000D01*
X334375000Y-167955000D01*
X334375000Y-167975000D01*
X335649750Y-167975000D01*
X335808000Y-167816750D01*
X335811063Y-167225000D01*
X335798841Y-167100910D01*
X335762646Y-166981589D01*
X335705673Y-166875000D01*
X346125000Y-166875000D01*
X346125000Y-169000000D01*
X346127402Y-169024386D01*
X346134515Y-169047835D01*
X346146066Y-169069446D01*
X346161612Y-169088388D01*
X346180554Y-169103934D01*
X346202165Y-169115485D01*
X346225614Y-169122598D01*
X346250000Y-169125000D01*
X346673948Y-169125000D01*
X346612736Y-169175236D01*
X346533633Y-169271622D01*
X346474854Y-169381589D01*
X346438659Y-169500910D01*
X346426437Y-169625000D01*
X346429500Y-169966750D01*
X346587750Y-170125000D01*
X347400000Y-170125000D01*
X347400000Y-170105000D01*
X348150000Y-170105000D01*
X348150000Y-170125000D01*
X348170000Y-170125000D01*
X348170000Y-170875000D01*
X348150000Y-170875000D01*
X348150000Y-171849750D01*
X348308250Y-172008000D01*
X348487500Y-172011063D01*
X348611590Y-171998841D01*
X348730911Y-171962646D01*
X348840878Y-171903867D01*
X348875000Y-171875863D01*
X348875000Y-172000000D01*
X348877402Y-172024386D01*
X348884515Y-172047835D01*
X348896066Y-172069446D01*
X348911612Y-172088388D01*
X348930554Y-172103934D01*
X348952165Y-172115485D01*
X348975614Y-172122598D01*
X349000000Y-172125000D01*
X354250000Y-172125000D01*
X354274386Y-172122598D01*
X354297835Y-172115485D01*
X354319446Y-172103934D01*
X354338388Y-172088388D01*
X354353934Y-172069446D01*
X354365485Y-172047835D01*
X354372598Y-172024386D01*
X354375000Y-172000000D01*
X354375000Y-162725000D01*
X355188937Y-162725000D01*
X355201159Y-162849090D01*
X355237354Y-162968411D01*
X355296133Y-163078378D01*
X355375236Y-163174764D01*
X355471622Y-163253867D01*
X355581589Y-163312646D01*
X355700910Y-163348841D01*
X355825000Y-163361063D01*
X356466750Y-163358000D01*
X356625000Y-163199750D01*
X356625000Y-161975000D01*
X357375000Y-161975000D01*
X357375000Y-163199750D01*
X357533250Y-163358000D01*
X358175000Y-163361063D01*
X358299090Y-163348841D01*
X358418411Y-163312646D01*
X358528378Y-163253867D01*
X358624764Y-163174764D01*
X358703867Y-163078378D01*
X358762646Y-162968411D01*
X358798841Y-162849090D01*
X358811063Y-162725000D01*
X358808000Y-162133250D01*
X358649750Y-161975000D01*
X357375000Y-161975000D01*
X356625000Y-161975000D01*
X355350250Y-161975000D01*
X355192000Y-162133250D01*
X355188937Y-162725000D01*
X354375000Y-162725000D01*
X354375000Y-160375000D01*
X355198786Y-160375000D01*
X355188937Y-160475000D01*
%TO.N,5V*%
G36*
X341875000Y-155000000D02*
G01*
X341877402Y-155024386D01*
X341884515Y-155047835D01*
X341896066Y-155069446D01*
X341911612Y-155088388D01*
X341930554Y-155103934D01*
X341952165Y-155115485D01*
X341975614Y-155122598D01*
X342000000Y-155125000D01*
X346375000Y-155125000D01*
X346375000Y-165875000D01*
X331375000Y-165875000D01*
X331375000Y-158799821D01*
X331415433Y-158739309D01*
X331493302Y-158551315D01*
X331533000Y-158351742D01*
X331533000Y-158148258D01*
X331493302Y-157948685D01*
X331415433Y-157760691D01*
X331375000Y-157700179D01*
X331375000Y-148875000D01*
X341875000Y-148875000D01*
X341875000Y-155000000D01*
G37*
X341875000Y-155000000D02*
X341877402Y-155024386D01*
X341884515Y-155047835D01*
X341896066Y-155069446D01*
X341911612Y-155088388D01*
X341930554Y-155103934D01*
X341952165Y-155115485D01*
X341975614Y-155122598D01*
X342000000Y-155125000D01*
X346375000Y-155125000D01*
X346375000Y-165875000D01*
X331375000Y-165875000D01*
X331375000Y-158799821D01*
X331415433Y-158739309D01*
X331493302Y-158551315D01*
X331533000Y-158351742D01*
X331533000Y-158148258D01*
X331493302Y-157948685D01*
X331415433Y-157760691D01*
X331375000Y-157700179D01*
X331375000Y-148875000D01*
X341875000Y-148875000D01*
X341875000Y-155000000D01*
%TD*%
M02*
