%TF.GenerationSoftware,KiCad,Pcbnew,(5.1.6)-1*%
%TF.CreationDate,2021-05-10T16:49:00-07:00*%
%TF.ProjectId,NiCd Battery Shield - VP400KH,4e694364-2042-4617-9474-657279205368,1*%
%TF.SameCoordinates,Original*%
%TF.FileFunction,Paste,Top*%
%TF.FilePolarity,Positive*%
%FSLAX46Y46*%
G04 Gerber Fmt 4.6, Leading zero omitted, Abs format (unit mm)*
G04 Created by KiCad (PCBNEW (5.1.6)-1) date 2021-05-10 16:49:00*
%MOMM*%
%LPD*%
G01*
G04 APERTURE LIST*
%ADD10R,3.500000X2.300000*%
%ADD11R,1.500000X1.000000*%
%ADD12R,2.000000X1.520000*%
%ADD13R,1.900000X0.800000*%
%ADD14R,4.550000X5.250000*%
%ADD15R,4.600000X1.100000*%
%ADD16R,2.300000X3.500000*%
G04 APERTURE END LIST*
D10*
%TO.C,D1*%
X339300000Y-151000000D03*
X344700000Y-151000000D03*
%TD*%
%TO.C,R47*%
G36*
G01*
X317512500Y-183625000D02*
X317512500Y-182375000D01*
G75*
G02*
X317762500Y-182125000I250000J0D01*
G01*
X318687500Y-182125000D01*
G75*
G02*
X318937500Y-182375000I0J-250000D01*
G01*
X318937500Y-183625000D01*
G75*
G02*
X318687500Y-183875000I-250000J0D01*
G01*
X317762500Y-183875000D01*
G75*
G02*
X317512500Y-183625000I0J250000D01*
G01*
G37*
G36*
G01*
X314537500Y-183625000D02*
X314537500Y-182375000D01*
G75*
G02*
X314787500Y-182125000I250000J0D01*
G01*
X315712500Y-182125000D01*
G75*
G02*
X315962500Y-182375000I0J-250000D01*
G01*
X315962500Y-183625000D01*
G75*
G02*
X315712500Y-183875000I-250000J0D01*
G01*
X314787500Y-183875000D01*
G75*
G02*
X314537500Y-183625000I0J250000D01*
G01*
G37*
%TD*%
%TO.C,C6*%
G36*
G01*
X333074999Y-167225000D02*
X334925001Y-167225000D01*
G75*
G02*
X335175000Y-167474999I0J-249999D01*
G01*
X335175000Y-169225001D01*
G75*
G02*
X334925001Y-169475000I-249999J0D01*
G01*
X333074999Y-169475000D01*
G75*
G02*
X332825000Y-169225001I0J249999D01*
G01*
X332825000Y-167474999D01*
G75*
G02*
X333074999Y-167225000I249999J0D01*
G01*
G37*
G36*
G01*
X333074999Y-162125000D02*
X334925001Y-162125000D01*
G75*
G02*
X335175000Y-162374999I0J-249999D01*
G01*
X335175000Y-164125001D01*
G75*
G02*
X334925001Y-164375000I-249999J0D01*
G01*
X333074999Y-164375000D01*
G75*
G02*
X332825000Y-164125001I0J249999D01*
G01*
X332825000Y-162374999D01*
G75*
G02*
X333074999Y-162125000I249999J0D01*
G01*
G37*
%TD*%
%TO.C,C5*%
G36*
G01*
X356074999Y-160475000D02*
X357925001Y-160475000D01*
G75*
G02*
X358175000Y-160724999I0J-249999D01*
G01*
X358175000Y-162475001D01*
G75*
G02*
X357925001Y-162725000I-249999J0D01*
G01*
X356074999Y-162725000D01*
G75*
G02*
X355825000Y-162475001I0J249999D01*
G01*
X355825000Y-160724999D01*
G75*
G02*
X356074999Y-160475000I249999J0D01*
G01*
G37*
G36*
G01*
X356074999Y-155375000D02*
X357925001Y-155375000D01*
G75*
G02*
X358175000Y-155624999I0J-249999D01*
G01*
X358175000Y-157375001D01*
G75*
G02*
X357925001Y-157625000I-249999J0D01*
G01*
X356074999Y-157625000D01*
G75*
G02*
X355825000Y-157375001I0J249999D01*
G01*
X355825000Y-155624999D01*
G75*
G02*
X356074999Y-155375000I249999J0D01*
G01*
G37*
%TD*%
%TO.C,C1*%
G36*
G01*
X283762500Y-157875000D02*
X283762500Y-156625000D01*
G75*
G02*
X284012500Y-156375000I250000J0D01*
G01*
X284937500Y-156375000D01*
G75*
G02*
X285187500Y-156625000I0J-250000D01*
G01*
X285187500Y-157875000D01*
G75*
G02*
X284937500Y-158125000I-250000J0D01*
G01*
X284012500Y-158125000D01*
G75*
G02*
X283762500Y-157875000I0J250000D01*
G01*
G37*
G36*
G01*
X280787500Y-157875000D02*
X280787500Y-156625000D01*
G75*
G02*
X281037500Y-156375000I250000J0D01*
G01*
X281962500Y-156375000D01*
G75*
G02*
X282212500Y-156625000I0J-250000D01*
G01*
X282212500Y-157875000D01*
G75*
G02*
X281962500Y-158125000I-250000J0D01*
G01*
X281037500Y-158125000D01*
G75*
G02*
X280787500Y-157875000I0J250000D01*
G01*
G37*
%TD*%
%TO.C,C2*%
G36*
G01*
X248762500Y-157875000D02*
X248762500Y-156625000D01*
G75*
G02*
X249012500Y-156375000I250000J0D01*
G01*
X249937500Y-156375000D01*
G75*
G02*
X250187500Y-156625000I0J-250000D01*
G01*
X250187500Y-157875000D01*
G75*
G02*
X249937500Y-158125000I-250000J0D01*
G01*
X249012500Y-158125000D01*
G75*
G02*
X248762500Y-157875000I0J250000D01*
G01*
G37*
G36*
G01*
X245787500Y-157875000D02*
X245787500Y-156625000D01*
G75*
G02*
X246037500Y-156375000I250000J0D01*
G01*
X246962500Y-156375000D01*
G75*
G02*
X247212500Y-156625000I0J-250000D01*
G01*
X247212500Y-157875000D01*
G75*
G02*
X246962500Y-158125000I-250000J0D01*
G01*
X246037500Y-158125000D01*
G75*
G02*
X245787500Y-157875000I0J250000D01*
G01*
G37*
%TD*%
%TO.C,C3*%
G36*
G01*
X140762500Y-157875000D02*
X140762500Y-156625000D01*
G75*
G02*
X141012500Y-156375000I250000J0D01*
G01*
X141937500Y-156375000D01*
G75*
G02*
X142187500Y-156625000I0J-250000D01*
G01*
X142187500Y-157875000D01*
G75*
G02*
X141937500Y-158125000I-250000J0D01*
G01*
X141012500Y-158125000D01*
G75*
G02*
X140762500Y-157875000I0J250000D01*
G01*
G37*
G36*
G01*
X137787500Y-157875000D02*
X137787500Y-156625000D01*
G75*
G02*
X138037500Y-156375000I250000J0D01*
G01*
X138962500Y-156375000D01*
G75*
G02*
X139212500Y-156625000I0J-250000D01*
G01*
X139212500Y-157875000D01*
G75*
G02*
X138962500Y-158125000I-250000J0D01*
G01*
X138037500Y-158125000D01*
G75*
G02*
X137787500Y-157875000I0J250000D01*
G01*
G37*
%TD*%
%TO.C,D6*%
X310650000Y-185500000D03*
X305250000Y-185500000D03*
%TD*%
D11*
%TO.C,D7*%
X379550000Y-125900000D03*
X379550000Y-129100000D03*
X384450000Y-125900000D03*
X384450000Y-129100000D03*
%TD*%
%TO.C,D8*%
X343550000Y-125900000D03*
X343550000Y-129100000D03*
X348450000Y-125900000D03*
X348450000Y-129100000D03*
%TD*%
%TO.C,D9*%
X307550000Y-125900000D03*
X307550000Y-129100000D03*
X312450000Y-125900000D03*
X312450000Y-129100000D03*
%TD*%
%TO.C,D10*%
X271550000Y-125900000D03*
X271550000Y-129100000D03*
X276450000Y-125900000D03*
X276450000Y-129100000D03*
%TD*%
%TO.C,D11*%
X235550000Y-125900000D03*
X235550000Y-129100000D03*
X240450000Y-125900000D03*
X240450000Y-129100000D03*
%TD*%
%TO.C,D12*%
X199550000Y-125900000D03*
X199550000Y-129100000D03*
X204450000Y-125900000D03*
X204450000Y-129100000D03*
%TD*%
%TO.C,D13*%
X163550000Y-125900000D03*
X163550000Y-129100000D03*
X168450000Y-125900000D03*
X168450000Y-129100000D03*
%TD*%
%TO.C,D14*%
X127550000Y-125900000D03*
X127550000Y-129100000D03*
X132450000Y-125900000D03*
X132450000Y-129100000D03*
%TD*%
%TO.C,D15*%
X91550000Y-125900000D03*
X91550000Y-129100000D03*
X96450000Y-125900000D03*
X96450000Y-129100000D03*
%TD*%
%TO.C,D16*%
X55550000Y-125900000D03*
X55550000Y-129100000D03*
X60450000Y-125900000D03*
X60450000Y-129100000D03*
%TD*%
D12*
%TO.C,F1*%
X382000000Y-160960000D03*
X382000000Y-164000000D03*
%TD*%
%TO.C,F2*%
X364000000Y-141040000D03*
X364000000Y-138000000D03*
%TD*%
%TO.C,F3*%
X328000000Y-178960000D03*
X328000000Y-182000000D03*
%TD*%
%TO.C,F4*%
X292000000Y-141040000D03*
X292000000Y-138000000D03*
%TD*%
%TO.C,F5*%
X256000000Y-178460000D03*
X256000000Y-181500000D03*
%TD*%
%TO.C,F12*%
X377500000Y-160960000D03*
X377500000Y-164000000D03*
%TD*%
D13*
%TO.C,Q1*%
X305250000Y-178500000D03*
X308250000Y-177550000D03*
X308250000Y-179450000D03*
%TD*%
%TO.C,R1*%
G36*
G01*
X283762500Y-160375000D02*
X283762500Y-159125000D01*
G75*
G02*
X284012500Y-158875000I250000J0D01*
G01*
X284937500Y-158875000D01*
G75*
G02*
X285187500Y-159125000I0J-250000D01*
G01*
X285187500Y-160375000D01*
G75*
G02*
X284937500Y-160625000I-250000J0D01*
G01*
X284012500Y-160625000D01*
G75*
G02*
X283762500Y-160375000I0J250000D01*
G01*
G37*
G36*
G01*
X280787500Y-160375000D02*
X280787500Y-159125000D01*
G75*
G02*
X281037500Y-158875000I250000J0D01*
G01*
X281962500Y-158875000D01*
G75*
G02*
X282212500Y-159125000I0J-250000D01*
G01*
X282212500Y-160375000D01*
G75*
G02*
X281962500Y-160625000I-250000J0D01*
G01*
X281037500Y-160625000D01*
G75*
G02*
X280787500Y-160375000I0J250000D01*
G01*
G37*
%TD*%
%TO.C,R2*%
G36*
G01*
X287625000Y-163212500D02*
X286375000Y-163212500D01*
G75*
G02*
X286125000Y-162962500I0J250000D01*
G01*
X286125000Y-162037500D01*
G75*
G02*
X286375000Y-161787500I250000J0D01*
G01*
X287625000Y-161787500D01*
G75*
G02*
X287875000Y-162037500I0J-250000D01*
G01*
X287875000Y-162962500D01*
G75*
G02*
X287625000Y-163212500I-250000J0D01*
G01*
G37*
G36*
G01*
X287625000Y-166187500D02*
X286375000Y-166187500D01*
G75*
G02*
X286125000Y-165937500I0J250000D01*
G01*
X286125000Y-165012500D01*
G75*
G02*
X286375000Y-164762500I250000J0D01*
G01*
X287625000Y-164762500D01*
G75*
G02*
X287875000Y-165012500I0J-250000D01*
G01*
X287875000Y-165937500D01*
G75*
G02*
X287625000Y-166187500I-250000J0D01*
G01*
G37*
%TD*%
%TO.C,R3*%
G36*
G01*
X284875000Y-163212500D02*
X283625000Y-163212500D01*
G75*
G02*
X283375000Y-162962500I0J250000D01*
G01*
X283375000Y-162037500D01*
G75*
G02*
X283625000Y-161787500I250000J0D01*
G01*
X284875000Y-161787500D01*
G75*
G02*
X285125000Y-162037500I0J-250000D01*
G01*
X285125000Y-162962500D01*
G75*
G02*
X284875000Y-163212500I-250000J0D01*
G01*
G37*
G36*
G01*
X284875000Y-166187500D02*
X283625000Y-166187500D01*
G75*
G02*
X283375000Y-165937500I0J250000D01*
G01*
X283375000Y-165012500D01*
G75*
G02*
X283625000Y-164762500I250000J0D01*
G01*
X284875000Y-164762500D01*
G75*
G02*
X285125000Y-165012500I0J-250000D01*
G01*
X285125000Y-165937500D01*
G75*
G02*
X284875000Y-166187500I-250000J0D01*
G01*
G37*
%TD*%
%TO.C,R4*%
G36*
G01*
X280875000Y-164787500D02*
X282125000Y-164787500D01*
G75*
G02*
X282375000Y-165037500I0J-250000D01*
G01*
X282375000Y-165962500D01*
G75*
G02*
X282125000Y-166212500I-250000J0D01*
G01*
X280875000Y-166212500D01*
G75*
G02*
X280625000Y-165962500I0J250000D01*
G01*
X280625000Y-165037500D01*
G75*
G02*
X280875000Y-164787500I250000J0D01*
G01*
G37*
G36*
G01*
X280875000Y-161812500D02*
X282125000Y-161812500D01*
G75*
G02*
X282375000Y-162062500I0J-250000D01*
G01*
X282375000Y-162987500D01*
G75*
G02*
X282125000Y-163237500I-250000J0D01*
G01*
X280875000Y-163237500D01*
G75*
G02*
X280625000Y-162987500I0J250000D01*
G01*
X280625000Y-162062500D01*
G75*
G02*
X280875000Y-161812500I250000J0D01*
G01*
G37*
%TD*%
%TO.C,R5*%
G36*
G01*
X283787500Y-155375000D02*
X283787500Y-154125000D01*
G75*
G02*
X284037500Y-153875000I250000J0D01*
G01*
X284962500Y-153875000D01*
G75*
G02*
X285212500Y-154125000I0J-250000D01*
G01*
X285212500Y-155375000D01*
G75*
G02*
X284962500Y-155625000I-250000J0D01*
G01*
X284037500Y-155625000D01*
G75*
G02*
X283787500Y-155375000I0J250000D01*
G01*
G37*
G36*
G01*
X280812500Y-155375000D02*
X280812500Y-154125000D01*
G75*
G02*
X281062500Y-153875000I250000J0D01*
G01*
X281987500Y-153875000D01*
G75*
G02*
X282237500Y-154125000I0J-250000D01*
G01*
X282237500Y-155375000D01*
G75*
G02*
X281987500Y-155625000I-250000J0D01*
G01*
X281062500Y-155625000D01*
G75*
G02*
X280812500Y-155375000I0J250000D01*
G01*
G37*
%TD*%
%TO.C,R6*%
G36*
G01*
X286375000Y-151537500D02*
X287625000Y-151537500D01*
G75*
G02*
X287875000Y-151787500I0J-250000D01*
G01*
X287875000Y-152712500D01*
G75*
G02*
X287625000Y-152962500I-250000J0D01*
G01*
X286375000Y-152962500D01*
G75*
G02*
X286125000Y-152712500I0J250000D01*
G01*
X286125000Y-151787500D01*
G75*
G02*
X286375000Y-151537500I250000J0D01*
G01*
G37*
G36*
G01*
X286375000Y-148562500D02*
X287625000Y-148562500D01*
G75*
G02*
X287875000Y-148812500I0J-250000D01*
G01*
X287875000Y-149737500D01*
G75*
G02*
X287625000Y-149987500I-250000J0D01*
G01*
X286375000Y-149987500D01*
G75*
G02*
X286125000Y-149737500I0J250000D01*
G01*
X286125000Y-148812500D01*
G75*
G02*
X286375000Y-148562500I250000J0D01*
G01*
G37*
%TD*%
%TO.C,R7*%
G36*
G01*
X283625000Y-151537500D02*
X284875000Y-151537500D01*
G75*
G02*
X285125000Y-151787500I0J-250000D01*
G01*
X285125000Y-152712500D01*
G75*
G02*
X284875000Y-152962500I-250000J0D01*
G01*
X283625000Y-152962500D01*
G75*
G02*
X283375000Y-152712500I0J250000D01*
G01*
X283375000Y-151787500D01*
G75*
G02*
X283625000Y-151537500I250000J0D01*
G01*
G37*
G36*
G01*
X283625000Y-148562500D02*
X284875000Y-148562500D01*
G75*
G02*
X285125000Y-148812500I0J-250000D01*
G01*
X285125000Y-149737500D01*
G75*
G02*
X284875000Y-149987500I-250000J0D01*
G01*
X283625000Y-149987500D01*
G75*
G02*
X283375000Y-149737500I0J250000D01*
G01*
X283375000Y-148812500D01*
G75*
G02*
X283625000Y-148562500I250000J0D01*
G01*
G37*
%TD*%
%TO.C,R8*%
G36*
G01*
X282125000Y-149987500D02*
X280875000Y-149987500D01*
G75*
G02*
X280625000Y-149737500I0J250000D01*
G01*
X280625000Y-148812500D01*
G75*
G02*
X280875000Y-148562500I250000J0D01*
G01*
X282125000Y-148562500D01*
G75*
G02*
X282375000Y-148812500I0J-250000D01*
G01*
X282375000Y-149737500D01*
G75*
G02*
X282125000Y-149987500I-250000J0D01*
G01*
G37*
G36*
G01*
X282125000Y-152962500D02*
X280875000Y-152962500D01*
G75*
G02*
X280625000Y-152712500I0J250000D01*
G01*
X280625000Y-151787500D01*
G75*
G02*
X280875000Y-151537500I250000J0D01*
G01*
X282125000Y-151537500D01*
G75*
G02*
X282375000Y-151787500I0J-250000D01*
G01*
X282375000Y-152712500D01*
G75*
G02*
X282125000Y-152962500I-250000J0D01*
G01*
G37*
%TD*%
%TO.C,R9*%
G36*
G01*
X264487500Y-154125000D02*
X264487500Y-155375000D01*
G75*
G02*
X264237500Y-155625000I-250000J0D01*
G01*
X263312500Y-155625000D01*
G75*
G02*
X263062500Y-155375000I0J250000D01*
G01*
X263062500Y-154125000D01*
G75*
G02*
X263312500Y-153875000I250000J0D01*
G01*
X264237500Y-153875000D01*
G75*
G02*
X264487500Y-154125000I0J-250000D01*
G01*
G37*
G36*
G01*
X267462500Y-154125000D02*
X267462500Y-155375000D01*
G75*
G02*
X267212500Y-155625000I-250000J0D01*
G01*
X266287500Y-155625000D01*
G75*
G02*
X266037500Y-155375000I0J250000D01*
G01*
X266037500Y-154125000D01*
G75*
G02*
X266287500Y-153875000I250000J0D01*
G01*
X267212500Y-153875000D01*
G75*
G02*
X267462500Y-154125000I0J-250000D01*
G01*
G37*
%TD*%
%TO.C,R10*%
G36*
G01*
X260625000Y-151537500D02*
X261875000Y-151537500D01*
G75*
G02*
X262125000Y-151787500I0J-250000D01*
G01*
X262125000Y-152712500D01*
G75*
G02*
X261875000Y-152962500I-250000J0D01*
G01*
X260625000Y-152962500D01*
G75*
G02*
X260375000Y-152712500I0J250000D01*
G01*
X260375000Y-151787500D01*
G75*
G02*
X260625000Y-151537500I250000J0D01*
G01*
G37*
G36*
G01*
X260625000Y-148562500D02*
X261875000Y-148562500D01*
G75*
G02*
X262125000Y-148812500I0J-250000D01*
G01*
X262125000Y-149737500D01*
G75*
G02*
X261875000Y-149987500I-250000J0D01*
G01*
X260625000Y-149987500D01*
G75*
G02*
X260375000Y-149737500I0J250000D01*
G01*
X260375000Y-148812500D01*
G75*
G02*
X260625000Y-148562500I250000J0D01*
G01*
G37*
%TD*%
%TO.C,R11*%
G36*
G01*
X263375000Y-151537500D02*
X264625000Y-151537500D01*
G75*
G02*
X264875000Y-151787500I0J-250000D01*
G01*
X264875000Y-152712500D01*
G75*
G02*
X264625000Y-152962500I-250000J0D01*
G01*
X263375000Y-152962500D01*
G75*
G02*
X263125000Y-152712500I0J250000D01*
G01*
X263125000Y-151787500D01*
G75*
G02*
X263375000Y-151537500I250000J0D01*
G01*
G37*
G36*
G01*
X263375000Y-148562500D02*
X264625000Y-148562500D01*
G75*
G02*
X264875000Y-148812500I0J-250000D01*
G01*
X264875000Y-149737500D01*
G75*
G02*
X264625000Y-149987500I-250000J0D01*
G01*
X263375000Y-149987500D01*
G75*
G02*
X263125000Y-149737500I0J250000D01*
G01*
X263125000Y-148812500D01*
G75*
G02*
X263375000Y-148562500I250000J0D01*
G01*
G37*
%TD*%
%TO.C,R12*%
G36*
G01*
X267375000Y-149987500D02*
X266125000Y-149987500D01*
G75*
G02*
X265875000Y-149737500I0J250000D01*
G01*
X265875000Y-148812500D01*
G75*
G02*
X266125000Y-148562500I250000J0D01*
G01*
X267375000Y-148562500D01*
G75*
G02*
X267625000Y-148812500I0J-250000D01*
G01*
X267625000Y-149737500D01*
G75*
G02*
X267375000Y-149987500I-250000J0D01*
G01*
G37*
G36*
G01*
X267375000Y-152962500D02*
X266125000Y-152962500D01*
G75*
G02*
X265875000Y-152712500I0J250000D01*
G01*
X265875000Y-151787500D01*
G75*
G02*
X266125000Y-151537500I250000J0D01*
G01*
X267375000Y-151537500D01*
G75*
G02*
X267625000Y-151787500I0J-250000D01*
G01*
X267625000Y-152712500D01*
G75*
G02*
X267375000Y-152962500I-250000J0D01*
G01*
G37*
%TD*%
%TO.C,R13*%
G36*
G01*
X264487500Y-159125000D02*
X264487500Y-160375000D01*
G75*
G02*
X264237500Y-160625000I-250000J0D01*
G01*
X263312500Y-160625000D01*
G75*
G02*
X263062500Y-160375000I0J250000D01*
G01*
X263062500Y-159125000D01*
G75*
G02*
X263312500Y-158875000I250000J0D01*
G01*
X264237500Y-158875000D01*
G75*
G02*
X264487500Y-159125000I0J-250000D01*
G01*
G37*
G36*
G01*
X267462500Y-159125000D02*
X267462500Y-160375000D01*
G75*
G02*
X267212500Y-160625000I-250000J0D01*
G01*
X266287500Y-160625000D01*
G75*
G02*
X266037500Y-160375000I0J250000D01*
G01*
X266037500Y-159125000D01*
G75*
G02*
X266287500Y-158875000I250000J0D01*
G01*
X267212500Y-158875000D01*
G75*
G02*
X267462500Y-159125000I0J-250000D01*
G01*
G37*
%TD*%
%TO.C,R14*%
G36*
G01*
X261875000Y-163212500D02*
X260625000Y-163212500D01*
G75*
G02*
X260375000Y-162962500I0J250000D01*
G01*
X260375000Y-162037500D01*
G75*
G02*
X260625000Y-161787500I250000J0D01*
G01*
X261875000Y-161787500D01*
G75*
G02*
X262125000Y-162037500I0J-250000D01*
G01*
X262125000Y-162962500D01*
G75*
G02*
X261875000Y-163212500I-250000J0D01*
G01*
G37*
G36*
G01*
X261875000Y-166187500D02*
X260625000Y-166187500D01*
G75*
G02*
X260375000Y-165937500I0J250000D01*
G01*
X260375000Y-165012500D01*
G75*
G02*
X260625000Y-164762500I250000J0D01*
G01*
X261875000Y-164762500D01*
G75*
G02*
X262125000Y-165012500I0J-250000D01*
G01*
X262125000Y-165937500D01*
G75*
G02*
X261875000Y-166187500I-250000J0D01*
G01*
G37*
%TD*%
%TO.C,R15*%
G36*
G01*
X264625000Y-163212500D02*
X263375000Y-163212500D01*
G75*
G02*
X263125000Y-162962500I0J250000D01*
G01*
X263125000Y-162037500D01*
G75*
G02*
X263375000Y-161787500I250000J0D01*
G01*
X264625000Y-161787500D01*
G75*
G02*
X264875000Y-162037500I0J-250000D01*
G01*
X264875000Y-162962500D01*
G75*
G02*
X264625000Y-163212500I-250000J0D01*
G01*
G37*
G36*
G01*
X264625000Y-166187500D02*
X263375000Y-166187500D01*
G75*
G02*
X263125000Y-165937500I0J250000D01*
G01*
X263125000Y-165012500D01*
G75*
G02*
X263375000Y-164762500I250000J0D01*
G01*
X264625000Y-164762500D01*
G75*
G02*
X264875000Y-165012500I0J-250000D01*
G01*
X264875000Y-165937500D01*
G75*
G02*
X264625000Y-166187500I-250000J0D01*
G01*
G37*
%TD*%
%TO.C,R16*%
G36*
G01*
X266125000Y-164762500D02*
X267375000Y-164762500D01*
G75*
G02*
X267625000Y-165012500I0J-250000D01*
G01*
X267625000Y-165937500D01*
G75*
G02*
X267375000Y-166187500I-250000J0D01*
G01*
X266125000Y-166187500D01*
G75*
G02*
X265875000Y-165937500I0J250000D01*
G01*
X265875000Y-165012500D01*
G75*
G02*
X266125000Y-164762500I250000J0D01*
G01*
G37*
G36*
G01*
X266125000Y-161787500D02*
X267375000Y-161787500D01*
G75*
G02*
X267625000Y-162037500I0J-250000D01*
G01*
X267625000Y-162962500D01*
G75*
G02*
X267375000Y-163212500I-250000J0D01*
G01*
X266125000Y-163212500D01*
G75*
G02*
X265875000Y-162962500I0J250000D01*
G01*
X265875000Y-162037500D01*
G75*
G02*
X266125000Y-161787500I250000J0D01*
G01*
G37*
%TD*%
%TO.C,R17*%
G36*
G01*
X248762500Y-160625000D02*
X248762500Y-159375000D01*
G75*
G02*
X249012500Y-159125000I250000J0D01*
G01*
X249937500Y-159125000D01*
G75*
G02*
X250187500Y-159375000I0J-250000D01*
G01*
X250187500Y-160625000D01*
G75*
G02*
X249937500Y-160875000I-250000J0D01*
G01*
X249012500Y-160875000D01*
G75*
G02*
X248762500Y-160625000I0J250000D01*
G01*
G37*
G36*
G01*
X245787500Y-160625000D02*
X245787500Y-159375000D01*
G75*
G02*
X246037500Y-159125000I250000J0D01*
G01*
X246962500Y-159125000D01*
G75*
G02*
X247212500Y-159375000I0J-250000D01*
G01*
X247212500Y-160625000D01*
G75*
G02*
X246962500Y-160875000I-250000J0D01*
G01*
X246037500Y-160875000D01*
G75*
G02*
X245787500Y-160625000I0J250000D01*
G01*
G37*
%TD*%
%TO.C,R18*%
G36*
G01*
X252625000Y-163212500D02*
X251375000Y-163212500D01*
G75*
G02*
X251125000Y-162962500I0J250000D01*
G01*
X251125000Y-162037500D01*
G75*
G02*
X251375000Y-161787500I250000J0D01*
G01*
X252625000Y-161787500D01*
G75*
G02*
X252875000Y-162037500I0J-250000D01*
G01*
X252875000Y-162962500D01*
G75*
G02*
X252625000Y-163212500I-250000J0D01*
G01*
G37*
G36*
G01*
X252625000Y-166187500D02*
X251375000Y-166187500D01*
G75*
G02*
X251125000Y-165937500I0J250000D01*
G01*
X251125000Y-165012500D01*
G75*
G02*
X251375000Y-164762500I250000J0D01*
G01*
X252625000Y-164762500D01*
G75*
G02*
X252875000Y-165012500I0J-250000D01*
G01*
X252875000Y-165937500D01*
G75*
G02*
X252625000Y-166187500I-250000J0D01*
G01*
G37*
%TD*%
%TO.C,R19*%
G36*
G01*
X249875000Y-163212500D02*
X248625000Y-163212500D01*
G75*
G02*
X248375000Y-162962500I0J250000D01*
G01*
X248375000Y-162037500D01*
G75*
G02*
X248625000Y-161787500I250000J0D01*
G01*
X249875000Y-161787500D01*
G75*
G02*
X250125000Y-162037500I0J-250000D01*
G01*
X250125000Y-162962500D01*
G75*
G02*
X249875000Y-163212500I-250000J0D01*
G01*
G37*
G36*
G01*
X249875000Y-166187500D02*
X248625000Y-166187500D01*
G75*
G02*
X248375000Y-165937500I0J250000D01*
G01*
X248375000Y-165012500D01*
G75*
G02*
X248625000Y-164762500I250000J0D01*
G01*
X249875000Y-164762500D01*
G75*
G02*
X250125000Y-165012500I0J-250000D01*
G01*
X250125000Y-165937500D01*
G75*
G02*
X249875000Y-166187500I-250000J0D01*
G01*
G37*
%TD*%
%TO.C,R20*%
G36*
G01*
X245875000Y-164762500D02*
X247125000Y-164762500D01*
G75*
G02*
X247375000Y-165012500I0J-250000D01*
G01*
X247375000Y-165937500D01*
G75*
G02*
X247125000Y-166187500I-250000J0D01*
G01*
X245875000Y-166187500D01*
G75*
G02*
X245625000Y-165937500I0J250000D01*
G01*
X245625000Y-165012500D01*
G75*
G02*
X245875000Y-164762500I250000J0D01*
G01*
G37*
G36*
G01*
X245875000Y-161787500D02*
X247125000Y-161787500D01*
G75*
G02*
X247375000Y-162037500I0J-250000D01*
G01*
X247375000Y-162962500D01*
G75*
G02*
X247125000Y-163212500I-250000J0D01*
G01*
X245875000Y-163212500D01*
G75*
G02*
X245625000Y-162962500I0J250000D01*
G01*
X245625000Y-162037500D01*
G75*
G02*
X245875000Y-161787500I250000J0D01*
G01*
G37*
%TD*%
%TO.C,R21*%
G36*
G01*
X248762500Y-155375000D02*
X248762500Y-154125000D01*
G75*
G02*
X249012500Y-153875000I250000J0D01*
G01*
X249937500Y-153875000D01*
G75*
G02*
X250187500Y-154125000I0J-250000D01*
G01*
X250187500Y-155375000D01*
G75*
G02*
X249937500Y-155625000I-250000J0D01*
G01*
X249012500Y-155625000D01*
G75*
G02*
X248762500Y-155375000I0J250000D01*
G01*
G37*
G36*
G01*
X245787500Y-155375000D02*
X245787500Y-154125000D01*
G75*
G02*
X246037500Y-153875000I250000J0D01*
G01*
X246962500Y-153875000D01*
G75*
G02*
X247212500Y-154125000I0J-250000D01*
G01*
X247212500Y-155375000D01*
G75*
G02*
X246962500Y-155625000I-250000J0D01*
G01*
X246037500Y-155625000D01*
G75*
G02*
X245787500Y-155375000I0J250000D01*
G01*
G37*
%TD*%
%TO.C,R22*%
G36*
G01*
X251375000Y-151537500D02*
X252625000Y-151537500D01*
G75*
G02*
X252875000Y-151787500I0J-250000D01*
G01*
X252875000Y-152712500D01*
G75*
G02*
X252625000Y-152962500I-250000J0D01*
G01*
X251375000Y-152962500D01*
G75*
G02*
X251125000Y-152712500I0J250000D01*
G01*
X251125000Y-151787500D01*
G75*
G02*
X251375000Y-151537500I250000J0D01*
G01*
G37*
G36*
G01*
X251375000Y-148562500D02*
X252625000Y-148562500D01*
G75*
G02*
X252875000Y-148812500I0J-250000D01*
G01*
X252875000Y-149737500D01*
G75*
G02*
X252625000Y-149987500I-250000J0D01*
G01*
X251375000Y-149987500D01*
G75*
G02*
X251125000Y-149737500I0J250000D01*
G01*
X251125000Y-148812500D01*
G75*
G02*
X251375000Y-148562500I250000J0D01*
G01*
G37*
%TD*%
%TO.C,R23*%
G36*
G01*
X248625000Y-151537500D02*
X249875000Y-151537500D01*
G75*
G02*
X250125000Y-151787500I0J-250000D01*
G01*
X250125000Y-152712500D01*
G75*
G02*
X249875000Y-152962500I-250000J0D01*
G01*
X248625000Y-152962500D01*
G75*
G02*
X248375000Y-152712500I0J250000D01*
G01*
X248375000Y-151787500D01*
G75*
G02*
X248625000Y-151537500I250000J0D01*
G01*
G37*
G36*
G01*
X248625000Y-148562500D02*
X249875000Y-148562500D01*
G75*
G02*
X250125000Y-148812500I0J-250000D01*
G01*
X250125000Y-149737500D01*
G75*
G02*
X249875000Y-149987500I-250000J0D01*
G01*
X248625000Y-149987500D01*
G75*
G02*
X248375000Y-149737500I0J250000D01*
G01*
X248375000Y-148812500D01*
G75*
G02*
X248625000Y-148562500I250000J0D01*
G01*
G37*
%TD*%
%TO.C,R24*%
G36*
G01*
X247125000Y-149987500D02*
X245875000Y-149987500D01*
G75*
G02*
X245625000Y-149737500I0J250000D01*
G01*
X245625000Y-148812500D01*
G75*
G02*
X245875000Y-148562500I250000J0D01*
G01*
X247125000Y-148562500D01*
G75*
G02*
X247375000Y-148812500I0J-250000D01*
G01*
X247375000Y-149737500D01*
G75*
G02*
X247125000Y-149987500I-250000J0D01*
G01*
G37*
G36*
G01*
X247125000Y-152962500D02*
X245875000Y-152962500D01*
G75*
G02*
X245625000Y-152712500I0J250000D01*
G01*
X245625000Y-151787500D01*
G75*
G02*
X245875000Y-151537500I250000J0D01*
G01*
X247125000Y-151537500D01*
G75*
G02*
X247375000Y-151787500I0J-250000D01*
G01*
X247375000Y-152712500D01*
G75*
G02*
X247125000Y-152962500I-250000J0D01*
G01*
G37*
%TD*%
%TO.C,R25*%
G36*
G01*
X229487500Y-154125000D02*
X229487500Y-155375000D01*
G75*
G02*
X229237500Y-155625000I-250000J0D01*
G01*
X228312500Y-155625000D01*
G75*
G02*
X228062500Y-155375000I0J250000D01*
G01*
X228062500Y-154125000D01*
G75*
G02*
X228312500Y-153875000I250000J0D01*
G01*
X229237500Y-153875000D01*
G75*
G02*
X229487500Y-154125000I0J-250000D01*
G01*
G37*
G36*
G01*
X232462500Y-154125000D02*
X232462500Y-155375000D01*
G75*
G02*
X232212500Y-155625000I-250000J0D01*
G01*
X231287500Y-155625000D01*
G75*
G02*
X231037500Y-155375000I0J250000D01*
G01*
X231037500Y-154125000D01*
G75*
G02*
X231287500Y-153875000I250000J0D01*
G01*
X232212500Y-153875000D01*
G75*
G02*
X232462500Y-154125000I0J-250000D01*
G01*
G37*
%TD*%
%TO.C,R26*%
G36*
G01*
X225625000Y-151537500D02*
X226875000Y-151537500D01*
G75*
G02*
X227125000Y-151787500I0J-250000D01*
G01*
X227125000Y-152712500D01*
G75*
G02*
X226875000Y-152962500I-250000J0D01*
G01*
X225625000Y-152962500D01*
G75*
G02*
X225375000Y-152712500I0J250000D01*
G01*
X225375000Y-151787500D01*
G75*
G02*
X225625000Y-151537500I250000J0D01*
G01*
G37*
G36*
G01*
X225625000Y-148562500D02*
X226875000Y-148562500D01*
G75*
G02*
X227125000Y-148812500I0J-250000D01*
G01*
X227125000Y-149737500D01*
G75*
G02*
X226875000Y-149987500I-250000J0D01*
G01*
X225625000Y-149987500D01*
G75*
G02*
X225375000Y-149737500I0J250000D01*
G01*
X225375000Y-148812500D01*
G75*
G02*
X225625000Y-148562500I250000J0D01*
G01*
G37*
%TD*%
%TO.C,R27*%
G36*
G01*
X228375000Y-151537500D02*
X229625000Y-151537500D01*
G75*
G02*
X229875000Y-151787500I0J-250000D01*
G01*
X229875000Y-152712500D01*
G75*
G02*
X229625000Y-152962500I-250000J0D01*
G01*
X228375000Y-152962500D01*
G75*
G02*
X228125000Y-152712500I0J250000D01*
G01*
X228125000Y-151787500D01*
G75*
G02*
X228375000Y-151537500I250000J0D01*
G01*
G37*
G36*
G01*
X228375000Y-148562500D02*
X229625000Y-148562500D01*
G75*
G02*
X229875000Y-148812500I0J-250000D01*
G01*
X229875000Y-149737500D01*
G75*
G02*
X229625000Y-149987500I-250000J0D01*
G01*
X228375000Y-149987500D01*
G75*
G02*
X228125000Y-149737500I0J250000D01*
G01*
X228125000Y-148812500D01*
G75*
G02*
X228375000Y-148562500I250000J0D01*
G01*
G37*
%TD*%
%TO.C,R28*%
G36*
G01*
X232375000Y-149987500D02*
X231125000Y-149987500D01*
G75*
G02*
X230875000Y-149737500I0J250000D01*
G01*
X230875000Y-148812500D01*
G75*
G02*
X231125000Y-148562500I250000J0D01*
G01*
X232375000Y-148562500D01*
G75*
G02*
X232625000Y-148812500I0J-250000D01*
G01*
X232625000Y-149737500D01*
G75*
G02*
X232375000Y-149987500I-250000J0D01*
G01*
G37*
G36*
G01*
X232375000Y-152962500D02*
X231125000Y-152962500D01*
G75*
G02*
X230875000Y-152712500I0J250000D01*
G01*
X230875000Y-151787500D01*
G75*
G02*
X231125000Y-151537500I250000J0D01*
G01*
X232375000Y-151537500D01*
G75*
G02*
X232625000Y-151787500I0J-250000D01*
G01*
X232625000Y-152712500D01*
G75*
G02*
X232375000Y-152962500I-250000J0D01*
G01*
G37*
%TD*%
%TO.C,R29*%
G36*
G01*
X229487500Y-159375000D02*
X229487500Y-160625000D01*
G75*
G02*
X229237500Y-160875000I-250000J0D01*
G01*
X228312500Y-160875000D01*
G75*
G02*
X228062500Y-160625000I0J250000D01*
G01*
X228062500Y-159375000D01*
G75*
G02*
X228312500Y-159125000I250000J0D01*
G01*
X229237500Y-159125000D01*
G75*
G02*
X229487500Y-159375000I0J-250000D01*
G01*
G37*
G36*
G01*
X232462500Y-159375000D02*
X232462500Y-160625000D01*
G75*
G02*
X232212500Y-160875000I-250000J0D01*
G01*
X231287500Y-160875000D01*
G75*
G02*
X231037500Y-160625000I0J250000D01*
G01*
X231037500Y-159375000D01*
G75*
G02*
X231287500Y-159125000I250000J0D01*
G01*
X232212500Y-159125000D01*
G75*
G02*
X232462500Y-159375000I0J-250000D01*
G01*
G37*
%TD*%
%TO.C,R30*%
G36*
G01*
X226875000Y-163212500D02*
X225625000Y-163212500D01*
G75*
G02*
X225375000Y-162962500I0J250000D01*
G01*
X225375000Y-162037500D01*
G75*
G02*
X225625000Y-161787500I250000J0D01*
G01*
X226875000Y-161787500D01*
G75*
G02*
X227125000Y-162037500I0J-250000D01*
G01*
X227125000Y-162962500D01*
G75*
G02*
X226875000Y-163212500I-250000J0D01*
G01*
G37*
G36*
G01*
X226875000Y-166187500D02*
X225625000Y-166187500D01*
G75*
G02*
X225375000Y-165937500I0J250000D01*
G01*
X225375000Y-165012500D01*
G75*
G02*
X225625000Y-164762500I250000J0D01*
G01*
X226875000Y-164762500D01*
G75*
G02*
X227125000Y-165012500I0J-250000D01*
G01*
X227125000Y-165937500D01*
G75*
G02*
X226875000Y-166187500I-250000J0D01*
G01*
G37*
%TD*%
%TO.C,R31*%
G36*
G01*
X229625000Y-163212500D02*
X228375000Y-163212500D01*
G75*
G02*
X228125000Y-162962500I0J250000D01*
G01*
X228125000Y-162037500D01*
G75*
G02*
X228375000Y-161787500I250000J0D01*
G01*
X229625000Y-161787500D01*
G75*
G02*
X229875000Y-162037500I0J-250000D01*
G01*
X229875000Y-162962500D01*
G75*
G02*
X229625000Y-163212500I-250000J0D01*
G01*
G37*
G36*
G01*
X229625000Y-166187500D02*
X228375000Y-166187500D01*
G75*
G02*
X228125000Y-165937500I0J250000D01*
G01*
X228125000Y-165012500D01*
G75*
G02*
X228375000Y-164762500I250000J0D01*
G01*
X229625000Y-164762500D01*
G75*
G02*
X229875000Y-165012500I0J-250000D01*
G01*
X229875000Y-165937500D01*
G75*
G02*
X229625000Y-166187500I-250000J0D01*
G01*
G37*
%TD*%
%TO.C,R32*%
G36*
G01*
X231125000Y-164762500D02*
X232375000Y-164762500D01*
G75*
G02*
X232625000Y-165012500I0J-250000D01*
G01*
X232625000Y-165937500D01*
G75*
G02*
X232375000Y-166187500I-250000J0D01*
G01*
X231125000Y-166187500D01*
G75*
G02*
X230875000Y-165937500I0J250000D01*
G01*
X230875000Y-165012500D01*
G75*
G02*
X231125000Y-164762500I250000J0D01*
G01*
G37*
G36*
G01*
X231125000Y-161787500D02*
X232375000Y-161787500D01*
G75*
G02*
X232625000Y-162037500I0J-250000D01*
G01*
X232625000Y-162962500D01*
G75*
G02*
X232375000Y-163212500I-250000J0D01*
G01*
X231125000Y-163212500D01*
G75*
G02*
X230875000Y-162962500I0J250000D01*
G01*
X230875000Y-162037500D01*
G75*
G02*
X231125000Y-161787500I250000J0D01*
G01*
G37*
%TD*%
%TO.C,R33*%
G36*
G01*
X140762500Y-160625000D02*
X140762500Y-159375000D01*
G75*
G02*
X141012500Y-159125000I250000J0D01*
G01*
X141937500Y-159125000D01*
G75*
G02*
X142187500Y-159375000I0J-250000D01*
G01*
X142187500Y-160625000D01*
G75*
G02*
X141937500Y-160875000I-250000J0D01*
G01*
X141012500Y-160875000D01*
G75*
G02*
X140762500Y-160625000I0J250000D01*
G01*
G37*
G36*
G01*
X137787500Y-160625000D02*
X137787500Y-159375000D01*
G75*
G02*
X138037500Y-159125000I250000J0D01*
G01*
X138962500Y-159125000D01*
G75*
G02*
X139212500Y-159375000I0J-250000D01*
G01*
X139212500Y-160625000D01*
G75*
G02*
X138962500Y-160875000I-250000J0D01*
G01*
X138037500Y-160875000D01*
G75*
G02*
X137787500Y-160625000I0J250000D01*
G01*
G37*
%TD*%
%TO.C,R34*%
G36*
G01*
X144625000Y-163212500D02*
X143375000Y-163212500D01*
G75*
G02*
X143125000Y-162962500I0J250000D01*
G01*
X143125000Y-162037500D01*
G75*
G02*
X143375000Y-161787500I250000J0D01*
G01*
X144625000Y-161787500D01*
G75*
G02*
X144875000Y-162037500I0J-250000D01*
G01*
X144875000Y-162962500D01*
G75*
G02*
X144625000Y-163212500I-250000J0D01*
G01*
G37*
G36*
G01*
X144625000Y-166187500D02*
X143375000Y-166187500D01*
G75*
G02*
X143125000Y-165937500I0J250000D01*
G01*
X143125000Y-165012500D01*
G75*
G02*
X143375000Y-164762500I250000J0D01*
G01*
X144625000Y-164762500D01*
G75*
G02*
X144875000Y-165012500I0J-250000D01*
G01*
X144875000Y-165937500D01*
G75*
G02*
X144625000Y-166187500I-250000J0D01*
G01*
G37*
%TD*%
%TO.C,R35*%
G36*
G01*
X141875000Y-163212500D02*
X140625000Y-163212500D01*
G75*
G02*
X140375000Y-162962500I0J250000D01*
G01*
X140375000Y-162037500D01*
G75*
G02*
X140625000Y-161787500I250000J0D01*
G01*
X141875000Y-161787500D01*
G75*
G02*
X142125000Y-162037500I0J-250000D01*
G01*
X142125000Y-162962500D01*
G75*
G02*
X141875000Y-163212500I-250000J0D01*
G01*
G37*
G36*
G01*
X141875000Y-166187500D02*
X140625000Y-166187500D01*
G75*
G02*
X140375000Y-165937500I0J250000D01*
G01*
X140375000Y-165012500D01*
G75*
G02*
X140625000Y-164762500I250000J0D01*
G01*
X141875000Y-164762500D01*
G75*
G02*
X142125000Y-165012500I0J-250000D01*
G01*
X142125000Y-165937500D01*
G75*
G02*
X141875000Y-166187500I-250000J0D01*
G01*
G37*
%TD*%
%TO.C,R36*%
G36*
G01*
X137875000Y-164762500D02*
X139125000Y-164762500D01*
G75*
G02*
X139375000Y-165012500I0J-250000D01*
G01*
X139375000Y-165937500D01*
G75*
G02*
X139125000Y-166187500I-250000J0D01*
G01*
X137875000Y-166187500D01*
G75*
G02*
X137625000Y-165937500I0J250000D01*
G01*
X137625000Y-165012500D01*
G75*
G02*
X137875000Y-164762500I250000J0D01*
G01*
G37*
G36*
G01*
X137875000Y-161787500D02*
X139125000Y-161787500D01*
G75*
G02*
X139375000Y-162037500I0J-250000D01*
G01*
X139375000Y-162962500D01*
G75*
G02*
X139125000Y-163212500I-250000J0D01*
G01*
X137875000Y-163212500D01*
G75*
G02*
X137625000Y-162962500I0J250000D01*
G01*
X137625000Y-162037500D01*
G75*
G02*
X137875000Y-161787500I250000J0D01*
G01*
G37*
%TD*%
%TO.C,R37*%
G36*
G01*
X140762500Y-155375000D02*
X140762500Y-154125000D01*
G75*
G02*
X141012500Y-153875000I250000J0D01*
G01*
X141937500Y-153875000D01*
G75*
G02*
X142187500Y-154125000I0J-250000D01*
G01*
X142187500Y-155375000D01*
G75*
G02*
X141937500Y-155625000I-250000J0D01*
G01*
X141012500Y-155625000D01*
G75*
G02*
X140762500Y-155375000I0J250000D01*
G01*
G37*
G36*
G01*
X137787500Y-155375000D02*
X137787500Y-154125000D01*
G75*
G02*
X138037500Y-153875000I250000J0D01*
G01*
X138962500Y-153875000D01*
G75*
G02*
X139212500Y-154125000I0J-250000D01*
G01*
X139212500Y-155375000D01*
G75*
G02*
X138962500Y-155625000I-250000J0D01*
G01*
X138037500Y-155625000D01*
G75*
G02*
X137787500Y-155375000I0J250000D01*
G01*
G37*
%TD*%
%TO.C,R38*%
G36*
G01*
X143375000Y-151537500D02*
X144625000Y-151537500D01*
G75*
G02*
X144875000Y-151787500I0J-250000D01*
G01*
X144875000Y-152712500D01*
G75*
G02*
X144625000Y-152962500I-250000J0D01*
G01*
X143375000Y-152962500D01*
G75*
G02*
X143125000Y-152712500I0J250000D01*
G01*
X143125000Y-151787500D01*
G75*
G02*
X143375000Y-151537500I250000J0D01*
G01*
G37*
G36*
G01*
X143375000Y-148562500D02*
X144625000Y-148562500D01*
G75*
G02*
X144875000Y-148812500I0J-250000D01*
G01*
X144875000Y-149737500D01*
G75*
G02*
X144625000Y-149987500I-250000J0D01*
G01*
X143375000Y-149987500D01*
G75*
G02*
X143125000Y-149737500I0J250000D01*
G01*
X143125000Y-148812500D01*
G75*
G02*
X143375000Y-148562500I250000J0D01*
G01*
G37*
%TD*%
%TO.C,R39*%
G36*
G01*
X140625000Y-151537500D02*
X141875000Y-151537500D01*
G75*
G02*
X142125000Y-151787500I0J-250000D01*
G01*
X142125000Y-152712500D01*
G75*
G02*
X141875000Y-152962500I-250000J0D01*
G01*
X140625000Y-152962500D01*
G75*
G02*
X140375000Y-152712500I0J250000D01*
G01*
X140375000Y-151787500D01*
G75*
G02*
X140625000Y-151537500I250000J0D01*
G01*
G37*
G36*
G01*
X140625000Y-148562500D02*
X141875000Y-148562500D01*
G75*
G02*
X142125000Y-148812500I0J-250000D01*
G01*
X142125000Y-149737500D01*
G75*
G02*
X141875000Y-149987500I-250000J0D01*
G01*
X140625000Y-149987500D01*
G75*
G02*
X140375000Y-149737500I0J250000D01*
G01*
X140375000Y-148812500D01*
G75*
G02*
X140625000Y-148562500I250000J0D01*
G01*
G37*
%TD*%
%TO.C,R40*%
G36*
G01*
X139125000Y-149987500D02*
X137875000Y-149987500D01*
G75*
G02*
X137625000Y-149737500I0J250000D01*
G01*
X137625000Y-148812500D01*
G75*
G02*
X137875000Y-148562500I250000J0D01*
G01*
X139125000Y-148562500D01*
G75*
G02*
X139375000Y-148812500I0J-250000D01*
G01*
X139375000Y-149737500D01*
G75*
G02*
X139125000Y-149987500I-250000J0D01*
G01*
G37*
G36*
G01*
X139125000Y-152962500D02*
X137875000Y-152962500D01*
G75*
G02*
X137625000Y-152712500I0J250000D01*
G01*
X137625000Y-151787500D01*
G75*
G02*
X137875000Y-151537500I250000J0D01*
G01*
X139125000Y-151537500D01*
G75*
G02*
X139375000Y-151787500I0J-250000D01*
G01*
X139375000Y-152712500D01*
G75*
G02*
X139125000Y-152962500I-250000J0D01*
G01*
G37*
%TD*%
%TO.C,R41*%
G36*
G01*
X167375000Y-165262500D02*
X168625000Y-165262500D01*
G75*
G02*
X168875000Y-165512500I0J-250000D01*
G01*
X168875000Y-166437500D01*
G75*
G02*
X168625000Y-166687500I-250000J0D01*
G01*
X167375000Y-166687500D01*
G75*
G02*
X167125000Y-166437500I0J250000D01*
G01*
X167125000Y-165512500D01*
G75*
G02*
X167375000Y-165262500I250000J0D01*
G01*
G37*
G36*
G01*
X167375000Y-162287500D02*
X168625000Y-162287500D01*
G75*
G02*
X168875000Y-162537500I0J-250000D01*
G01*
X168875000Y-163462500D01*
G75*
G02*
X168625000Y-163712500I-250000J0D01*
G01*
X167375000Y-163712500D01*
G75*
G02*
X167125000Y-163462500I0J250000D01*
G01*
X167125000Y-162537500D01*
G75*
G02*
X167375000Y-162287500I250000J0D01*
G01*
G37*
%TD*%
%TO.C,R42*%
G36*
G01*
X171375000Y-163712500D02*
X170125000Y-163712500D01*
G75*
G02*
X169875000Y-163462500I0J250000D01*
G01*
X169875000Y-162537500D01*
G75*
G02*
X170125000Y-162287500I250000J0D01*
G01*
X171375000Y-162287500D01*
G75*
G02*
X171625000Y-162537500I0J-250000D01*
G01*
X171625000Y-163462500D01*
G75*
G02*
X171375000Y-163712500I-250000J0D01*
G01*
G37*
G36*
G01*
X171375000Y-166687500D02*
X170125000Y-166687500D01*
G75*
G02*
X169875000Y-166437500I0J250000D01*
G01*
X169875000Y-165512500D01*
G75*
G02*
X170125000Y-165262500I250000J0D01*
G01*
X171375000Y-165262500D01*
G75*
G02*
X171625000Y-165512500I0J-250000D01*
G01*
X171625000Y-166437500D01*
G75*
G02*
X171375000Y-166687500I-250000J0D01*
G01*
G37*
%TD*%
%TO.C,R43*%
G36*
G01*
X350037500Y-168125000D02*
X350037500Y-166875000D01*
G75*
G02*
X350287500Y-166625000I250000J0D01*
G01*
X351212500Y-166625000D01*
G75*
G02*
X351462500Y-166875000I0J-250000D01*
G01*
X351462500Y-168125000D01*
G75*
G02*
X351212500Y-168375000I-250000J0D01*
G01*
X350287500Y-168375000D01*
G75*
G02*
X350037500Y-168125000I0J250000D01*
G01*
G37*
G36*
G01*
X347062500Y-168125000D02*
X347062500Y-166875000D01*
G75*
G02*
X347312500Y-166625000I250000J0D01*
G01*
X348237500Y-166625000D01*
G75*
G02*
X348487500Y-166875000I0J-250000D01*
G01*
X348487500Y-168125000D01*
G75*
G02*
X348237500Y-168375000I-250000J0D01*
G01*
X347312500Y-168375000D01*
G75*
G02*
X347062500Y-168125000I0J250000D01*
G01*
G37*
%TD*%
%TO.C,R44*%
G36*
G01*
X348487500Y-169875000D02*
X348487500Y-171125000D01*
G75*
G02*
X348237500Y-171375000I-250000J0D01*
G01*
X347312500Y-171375000D01*
G75*
G02*
X347062500Y-171125000I0J250000D01*
G01*
X347062500Y-169875000D01*
G75*
G02*
X347312500Y-169625000I250000J0D01*
G01*
X348237500Y-169625000D01*
G75*
G02*
X348487500Y-169875000I0J-250000D01*
G01*
G37*
G36*
G01*
X351462500Y-169875000D02*
X351462500Y-171125000D01*
G75*
G02*
X351212500Y-171375000I-250000J0D01*
G01*
X350287500Y-171375000D01*
G75*
G02*
X350037500Y-171125000I0J250000D01*
G01*
X350037500Y-169875000D01*
G75*
G02*
X350287500Y-169625000I250000J0D01*
G01*
X351212500Y-169625000D01*
G75*
G02*
X351462500Y-169875000I0J-250000D01*
G01*
G37*
%TD*%
%TO.C,R45*%
G36*
G01*
X345262500Y-184625000D02*
X345262500Y-183375000D01*
G75*
G02*
X345512500Y-183125000I250000J0D01*
G01*
X346437500Y-183125000D01*
G75*
G02*
X346687500Y-183375000I0J-250000D01*
G01*
X346687500Y-184625000D01*
G75*
G02*
X346437500Y-184875000I-250000J0D01*
G01*
X345512500Y-184875000D01*
G75*
G02*
X345262500Y-184625000I0J250000D01*
G01*
G37*
G36*
G01*
X342287500Y-184625000D02*
X342287500Y-183375000D01*
G75*
G02*
X342537500Y-183125000I250000J0D01*
G01*
X343462500Y-183125000D01*
G75*
G02*
X343712500Y-183375000I0J-250000D01*
G01*
X343712500Y-184625000D01*
G75*
G02*
X343462500Y-184875000I-250000J0D01*
G01*
X342537500Y-184875000D01*
G75*
G02*
X342287500Y-184625000I0J250000D01*
G01*
G37*
%TD*%
%TO.C,R46*%
G36*
G01*
X336712500Y-183375000D02*
X336712500Y-184625000D01*
G75*
G02*
X336462500Y-184875000I-250000J0D01*
G01*
X335537500Y-184875000D01*
G75*
G02*
X335287500Y-184625000I0J250000D01*
G01*
X335287500Y-183375000D01*
G75*
G02*
X335537500Y-183125000I250000J0D01*
G01*
X336462500Y-183125000D01*
G75*
G02*
X336712500Y-183375000I0J-250000D01*
G01*
G37*
G36*
G01*
X339687500Y-183375000D02*
X339687500Y-184625000D01*
G75*
G02*
X339437500Y-184875000I-250000J0D01*
G01*
X338512500Y-184875000D01*
G75*
G02*
X338262500Y-184625000I0J250000D01*
G01*
X338262500Y-183375000D01*
G75*
G02*
X338512500Y-183125000I250000J0D01*
G01*
X339437500Y-183125000D01*
G75*
G02*
X339687500Y-183375000I0J-250000D01*
G01*
G37*
%TD*%
%TO.C,R48*%
G36*
G01*
X315437500Y-174375000D02*
X315437500Y-175625000D01*
G75*
G02*
X315187500Y-175875000I-250000J0D01*
G01*
X314262500Y-175875000D01*
G75*
G02*
X314012500Y-175625000I0J250000D01*
G01*
X314012500Y-174375000D01*
G75*
G02*
X314262500Y-174125000I250000J0D01*
G01*
X315187500Y-174125000D01*
G75*
G02*
X315437500Y-174375000I0J-250000D01*
G01*
G37*
G36*
G01*
X312462500Y-174375000D02*
X312462500Y-175625000D01*
G75*
G02*
X312212500Y-175875000I-250000J0D01*
G01*
X311287500Y-175875000D01*
G75*
G02*
X311037500Y-175625000I0J250000D01*
G01*
X311037500Y-174375000D01*
G75*
G02*
X311287500Y-174125000I250000J0D01*
G01*
X312212500Y-174125000D01*
G75*
G02*
X312462500Y-174375000I0J-250000D01*
G01*
G37*
%TD*%
%TO.C,R49*%
G36*
G01*
X314012500Y-178125000D02*
X314012500Y-176875000D01*
G75*
G02*
X314262500Y-176625000I250000J0D01*
G01*
X315187500Y-176625000D01*
G75*
G02*
X315437500Y-176875000I0J-250000D01*
G01*
X315437500Y-178125000D01*
G75*
G02*
X315187500Y-178375000I-250000J0D01*
G01*
X314262500Y-178375000D01*
G75*
G02*
X314012500Y-178125000I0J250000D01*
G01*
G37*
G36*
G01*
X311037500Y-178125000D02*
X311037500Y-176875000D01*
G75*
G02*
X311287500Y-176625000I250000J0D01*
G01*
X312212500Y-176625000D01*
G75*
G02*
X312462500Y-176875000I0J-250000D01*
G01*
X312462500Y-178125000D01*
G75*
G02*
X312212500Y-178375000I-250000J0D01*
G01*
X311287500Y-178375000D01*
G75*
G02*
X311037500Y-178125000I0J250000D01*
G01*
G37*
%TD*%
%TO.C,R50*%
G36*
G01*
X384287500Y-133625000D02*
X384287500Y-132375000D01*
G75*
G02*
X384537500Y-132125000I250000J0D01*
G01*
X385462500Y-132125000D01*
G75*
G02*
X385712500Y-132375000I0J-250000D01*
G01*
X385712500Y-133625000D01*
G75*
G02*
X385462500Y-133875000I-250000J0D01*
G01*
X384537500Y-133875000D01*
G75*
G02*
X384287500Y-133625000I0J250000D01*
G01*
G37*
G36*
G01*
X381312500Y-133625000D02*
X381312500Y-132375000D01*
G75*
G02*
X381562500Y-132125000I250000J0D01*
G01*
X382487500Y-132125000D01*
G75*
G02*
X382737500Y-132375000I0J-250000D01*
G01*
X382737500Y-133625000D01*
G75*
G02*
X382487500Y-133875000I-250000J0D01*
G01*
X381562500Y-133875000D01*
G75*
G02*
X381312500Y-133625000I0J250000D01*
G01*
G37*
%TD*%
D14*
%TO.C,U5*%
X344050000Y-157725000D03*
X339200000Y-163275000D03*
X344050000Y-163275000D03*
X339200000Y-157725000D03*
D15*
X350775000Y-157960000D03*
X350775000Y-160500000D03*
X350775000Y-163040000D03*
%TD*%
D16*
%TO.C,D2*%
X357000000Y-146100000D03*
X357000000Y-151500000D03*
%TD*%
D12*
%TO.C,F6*%
X220000000Y-141040000D03*
X220000000Y-138000000D03*
%TD*%
%TO.C,F7*%
X184000000Y-178960000D03*
X184000000Y-182000000D03*
%TD*%
%TO.C,F8*%
X148000000Y-141040000D03*
X148000000Y-138000000D03*
%TD*%
%TO.C,F9*%
X112000000Y-178960000D03*
X112000000Y-182000000D03*
%TD*%
%TO.C,F10*%
X76000000Y-141040000D03*
X76000000Y-138000000D03*
%TD*%
%TO.C,F11*%
X58000000Y-161000000D03*
X58000000Y-164040000D03*
%TD*%
M02*
