%TF.GenerationSoftware,KiCad,Pcbnew,(5.1.6)-1*%
%TF.CreationDate,2022-08-08T14:05:23-07:00*%
%TF.ProjectId,NiCd Battery Shield - VP400KH,4e694364-2042-4617-9474-657279205368,1*%
%TF.SameCoordinates,Original*%
%TF.FileFunction,Legend,Top*%
%TF.FilePolarity,Positive*%
%FSLAX46Y46*%
G04 Gerber Fmt 4.6, Leading zero omitted, Abs format (unit mm)*
G04 Created by KiCad (PCBNEW (5.1.6)-1) date 2022-08-08 14:05:23*
%MOMM*%
%LPD*%
G01*
G04 APERTURE LIST*
%ADD10C,0.200000*%
%ADD11C,0.500000*%
%ADD12C,0.120000*%
%ADD13C,0.150000*%
%ADD14C,0.100000*%
G04 APERTURE END LIST*
D10*
X364000000Y-120000000D02*
X364000000Y-133500000D01*
X328000000Y-200000000D02*
X328000000Y-186500000D01*
X292000000Y-122500000D02*
X292000000Y-133500000D01*
X256000000Y-200000000D02*
X256000000Y-186500000D01*
X184000000Y-186500000D02*
X184000000Y-200000000D01*
X148000000Y-120000000D02*
X148000000Y-133500000D01*
X112000000Y-200000000D02*
X112000000Y-186500000D01*
X76000000Y-133500000D02*
X76000000Y-120000000D01*
X76000000Y-165000000D02*
X76000000Y-136500000D01*
D11*
X240000000Y-209500000D02*
X240000000Y-195500000D01*
X200250000Y-195500000D02*
X240000000Y-195500000D01*
D10*
X364000000Y-136500000D02*
X364000000Y-165500000D01*
X211726190Y-193315476D02*
X212440476Y-193315476D01*
X212083333Y-194565476D02*
X212083333Y-193315476D01*
X212857142Y-193910714D02*
X213273809Y-193910714D01*
X213452380Y-194565476D02*
X212857142Y-194565476D01*
X212857142Y-193315476D01*
X213452380Y-193315476D01*
X213928571Y-194505952D02*
X214107142Y-194565476D01*
X214404761Y-194565476D01*
X214523809Y-194505952D01*
X214583333Y-194446428D01*
X214642857Y-194327380D01*
X214642857Y-194208333D01*
X214583333Y-194089285D01*
X214523809Y-194029761D01*
X214404761Y-193970238D01*
X214166666Y-193910714D01*
X214047619Y-193851190D01*
X213988095Y-193791666D01*
X213928571Y-193672619D01*
X213928571Y-193553571D01*
X213988095Y-193434523D01*
X214047619Y-193375000D01*
X214166666Y-193315476D01*
X214464285Y-193315476D01*
X214642857Y-193375000D01*
X215000000Y-193315476D02*
X215714285Y-193315476D01*
X215357142Y-194565476D02*
X215357142Y-193315476D01*
X216130952Y-193910714D02*
X216547619Y-193910714D01*
X216726190Y-194565476D02*
X216130952Y-194565476D01*
X216130952Y-193315476D01*
X216726190Y-193315476D01*
X217976190Y-194565476D02*
X217559523Y-193970238D01*
X217261904Y-194565476D02*
X217261904Y-193315476D01*
X217738095Y-193315476D01*
X217857142Y-193375000D01*
X217916666Y-193434523D01*
X217976190Y-193553571D01*
X217976190Y-193732142D01*
X217916666Y-193851190D01*
X217857142Y-193910714D01*
X217738095Y-193970238D01*
X217261904Y-193970238D01*
X220178571Y-194446428D02*
X220119047Y-194505952D01*
X219940476Y-194565476D01*
X219821428Y-194565476D01*
X219642857Y-194505952D01*
X219523809Y-194386904D01*
X219464285Y-194267857D01*
X219404761Y-194029761D01*
X219404761Y-193851190D01*
X219464285Y-193613095D01*
X219523809Y-193494047D01*
X219642857Y-193375000D01*
X219821428Y-193315476D01*
X219940476Y-193315476D01*
X220119047Y-193375000D01*
X220178571Y-193434523D01*
X220952380Y-193315476D02*
X221190476Y-193315476D01*
X221309523Y-193375000D01*
X221428571Y-193494047D01*
X221488095Y-193732142D01*
X221488095Y-194148809D01*
X221428571Y-194386904D01*
X221309523Y-194505952D01*
X221190476Y-194565476D01*
X220952380Y-194565476D01*
X220833333Y-194505952D01*
X220714285Y-194386904D01*
X220654761Y-194148809D01*
X220654761Y-193732142D01*
X220714285Y-193494047D01*
X220833333Y-193375000D01*
X220952380Y-193315476D01*
X222023809Y-194565476D02*
X222023809Y-193315476D01*
X222738095Y-194565476D01*
X222738095Y-193315476D01*
X223333333Y-194565476D02*
X223333333Y-193315476D01*
X224047619Y-194565476D01*
X224047619Y-193315476D01*
X224642857Y-193910714D02*
X225059523Y-193910714D01*
X225238095Y-194565476D02*
X224642857Y-194565476D01*
X224642857Y-193315476D01*
X225238095Y-193315476D01*
X226488095Y-194446428D02*
X226428571Y-194505952D01*
X226250000Y-194565476D01*
X226130952Y-194565476D01*
X225952380Y-194505952D01*
X225833333Y-194386904D01*
X225773809Y-194267857D01*
X225714285Y-194029761D01*
X225714285Y-193851190D01*
X225773809Y-193613095D01*
X225833333Y-193494047D01*
X225952380Y-193375000D01*
X226130952Y-193315476D01*
X226250000Y-193315476D01*
X226428571Y-193375000D01*
X226488095Y-193434523D01*
X226845238Y-193315476D02*
X227559523Y-193315476D01*
X227202380Y-194565476D02*
X227202380Y-193315476D01*
X227976190Y-194565476D02*
X227976190Y-193315476D01*
X228809523Y-193315476D02*
X229047619Y-193315476D01*
X229166666Y-193375000D01*
X229285714Y-193494047D01*
X229345238Y-193732142D01*
X229345238Y-194148809D01*
X229285714Y-194386904D01*
X229166666Y-194505952D01*
X229047619Y-194565476D01*
X228809523Y-194565476D01*
X228690476Y-194505952D01*
X228571428Y-194386904D01*
X228511904Y-194148809D01*
X228511904Y-193732142D01*
X228571428Y-193494047D01*
X228690476Y-193375000D01*
X228809523Y-193315476D01*
X229880952Y-194565476D02*
X229880952Y-193315476D01*
X230595238Y-194565476D01*
X230595238Y-193315476D01*
D11*
X200250000Y-195500000D02*
X200250000Y-209500000D01*
D10*
X292000000Y-136500000D02*
X292000000Y-200000000D01*
X364000000Y-170000000D02*
X364000000Y-200000000D01*
X328000000Y-183500000D02*
X328000000Y-120000000D01*
X256000000Y-183500000D02*
X256000000Y-120000000D01*
X220000000Y-133500000D02*
X220000000Y-120000000D01*
X220000000Y-192500000D02*
X220000000Y-136500000D01*
X184000000Y-120000000D02*
X184000000Y-183500000D01*
X148000000Y-136500000D02*
X148000000Y-200000000D01*
X112000000Y-183500000D02*
X112000000Y-120000000D01*
X76000000Y-200000000D02*
X76000000Y-170500000D01*
D11*
X41000000Y-171000000D02*
X75000000Y-171000000D01*
X41000000Y-199000000D02*
X41000000Y-171000000D01*
X75000000Y-171000000D02*
X75000000Y-199000000D01*
X75000000Y-199000000D02*
X41000000Y-199000000D01*
X66000000Y-169357142D02*
X66000000Y-166357142D01*
X67714285Y-169357142D01*
X67714285Y-166357142D01*
X69142857Y-167785714D02*
X70142857Y-167785714D01*
X70571428Y-169357142D02*
X69142857Y-169357142D01*
X69142857Y-166357142D01*
X70571428Y-166357142D01*
X73428571Y-166500000D02*
X73142857Y-166357142D01*
X72714285Y-166357142D01*
X72285714Y-166500000D01*
X72000000Y-166785714D01*
X71857142Y-167071428D01*
X71714285Y-167642857D01*
X71714285Y-168071428D01*
X71857142Y-168642857D01*
X72000000Y-168928571D01*
X72285714Y-169214285D01*
X72714285Y-169357142D01*
X73000000Y-169357142D01*
X73428571Y-169214285D01*
X73571428Y-169071428D01*
X73571428Y-168071428D01*
X73000000Y-168071428D01*
X74714285Y-168500000D02*
X76142857Y-168500000D01*
X74428571Y-169357142D02*
X75428571Y-166357142D01*
X76428571Y-169357142D01*
X77000000Y-166357142D02*
X78714285Y-166357142D01*
X77857142Y-169357142D02*
X77857142Y-166357142D01*
X79714285Y-169357142D02*
X79714285Y-166357142D01*
X80714285Y-166357142D02*
X81714285Y-169357142D01*
X82714285Y-166357142D01*
X83714285Y-167785714D02*
X84714285Y-167785714D01*
X85142857Y-169357142D02*
X83714285Y-169357142D01*
X83714285Y-166357142D01*
X85142857Y-166357142D01*
X356000000Y-169357142D02*
X356000000Y-166357142D01*
X357142857Y-166357142D01*
X357428571Y-166500000D01*
X357571428Y-166642857D01*
X357714285Y-166928571D01*
X357714285Y-167357142D01*
X357571428Y-167642857D01*
X357428571Y-167785714D01*
X357142857Y-167928571D01*
X356000000Y-167928571D01*
X359571428Y-166357142D02*
X360142857Y-166357142D01*
X360428571Y-166500000D01*
X360714285Y-166785714D01*
X360857142Y-167357142D01*
X360857142Y-168357142D01*
X360714285Y-168928571D01*
X360428571Y-169214285D01*
X360142857Y-169357142D01*
X359571428Y-169357142D01*
X359285714Y-169214285D01*
X359000000Y-168928571D01*
X358857142Y-168357142D01*
X358857142Y-167357142D01*
X359000000Y-166785714D01*
X359285714Y-166500000D01*
X359571428Y-166357142D01*
X362000000Y-169214285D02*
X362428571Y-169357142D01*
X363142857Y-169357142D01*
X363428571Y-169214285D01*
X363571428Y-169071428D01*
X363714285Y-168785714D01*
X363714285Y-168500000D01*
X363571428Y-168214285D01*
X363428571Y-168071428D01*
X363142857Y-167928571D01*
X362571428Y-167785714D01*
X362285714Y-167642857D01*
X362142857Y-167500000D01*
X362000000Y-167214285D01*
X362000000Y-166928571D01*
X362142857Y-166642857D01*
X362285714Y-166500000D01*
X362571428Y-166357142D01*
X363285714Y-166357142D01*
X363714285Y-166500000D01*
X365000000Y-169357142D02*
X365000000Y-166357142D01*
X366000000Y-166357142D02*
X367714285Y-166357142D01*
X366857142Y-169357142D02*
X366857142Y-166357142D01*
X368714285Y-169357142D02*
X368714285Y-166357142D01*
X369714285Y-166357142D02*
X370714285Y-169357142D01*
X371714285Y-166357142D01*
X372714285Y-167785714D02*
X373714285Y-167785714D01*
X374142857Y-169357142D02*
X372714285Y-169357142D01*
X372714285Y-166357142D01*
X374142857Y-166357142D01*
X399000000Y-199000000D02*
X365000000Y-199000000D01*
X399000000Y-171000000D02*
X399000000Y-199000000D01*
X365000000Y-171000000D02*
X399000000Y-171000000D01*
X365000000Y-199000000D02*
X365000000Y-171000000D01*
D12*
%TO.C,H1*%
X42500000Y-129500000D02*
X42500000Y-125000000D01*
X50500000Y-125000000D02*
X50500000Y-129500000D01*
X45500000Y-132000000D02*
X47500000Y-132000000D01*
X45500000Y-123000000D02*
X47500000Y-123000000D01*
X48500000Y-127500000D02*
G75*
G03*
X48500000Y-127500000I-2000000J0D01*
G01*
%TO.C,H2*%
X77500000Y-195500000D02*
X77500000Y-191000000D01*
X85500000Y-191000000D02*
X85500000Y-195500000D01*
X80500000Y-198000000D02*
X82500000Y-198000000D01*
X80500000Y-189000000D02*
X82500000Y-189000000D01*
X83500000Y-193500000D02*
G75*
G03*
X83500000Y-193500000I-2000000J0D01*
G01*
%TO.C,H3*%
X389500000Y-129500000D02*
X389500000Y-125000000D01*
X397500000Y-125000000D02*
X397500000Y-129500000D01*
X392500000Y-132000000D02*
X394500000Y-132000000D01*
X392500000Y-123000000D02*
X394500000Y-123000000D01*
X395500000Y-127500000D02*
G75*
G03*
X395500000Y-127500000I-2000000J0D01*
G01*
%TO.C,H4*%
X354500000Y-195500000D02*
X354500000Y-191000000D01*
X362500000Y-191000000D02*
X362500000Y-195500000D01*
X357500000Y-198000000D02*
X359500000Y-198000000D01*
X357500000Y-189000000D02*
X359500000Y-189000000D01*
X360500000Y-193500000D02*
G75*
G03*
X360500000Y-193500000I-2000000J0D01*
G01*
%TO.C,J6*%
D13*
X202046666Y-207952380D02*
X202046666Y-208666666D01*
X201999047Y-208809523D01*
X201903809Y-208904761D01*
X201760952Y-208952380D01*
X201665714Y-208952380D01*
X202951428Y-207952380D02*
X202760952Y-207952380D01*
X202665714Y-208000000D01*
X202618095Y-208047619D01*
X202522857Y-208190476D01*
X202475238Y-208380952D01*
X202475238Y-208761904D01*
X202522857Y-208857142D01*
X202570476Y-208904761D01*
X202665714Y-208952380D01*
X202856190Y-208952380D01*
X202951428Y-208904761D01*
X202999047Y-208857142D01*
X203046666Y-208761904D01*
X203046666Y-208523809D01*
X202999047Y-208428571D01*
X202951428Y-208380952D01*
X202856190Y-208333333D01*
X202665714Y-208333333D01*
X202570476Y-208380952D01*
X202522857Y-208428571D01*
X202475238Y-208523809D01*
D14*
X205432142Y-199884285D02*
X205598809Y-199884285D01*
X205670238Y-200146190D02*
X205432142Y-200146190D01*
X205432142Y-199646190D01*
X205670238Y-199646190D01*
X205860714Y-200003333D02*
X206098809Y-200003333D01*
X205813095Y-200146190D02*
X205979761Y-199646190D01*
X206146428Y-200146190D01*
X206289285Y-200122380D02*
X206360714Y-200146190D01*
X206479761Y-200146190D01*
X206527380Y-200122380D01*
X206551190Y-200098571D01*
X206575000Y-200050952D01*
X206575000Y-200003333D01*
X206551190Y-199955714D01*
X206527380Y-199931904D01*
X206479761Y-199908095D01*
X206384523Y-199884285D01*
X206336904Y-199860476D01*
X206313095Y-199836666D01*
X206289285Y-199789047D01*
X206289285Y-199741428D01*
X206313095Y-199693809D01*
X206336904Y-199670000D01*
X206384523Y-199646190D01*
X206503571Y-199646190D01*
X206575000Y-199670000D01*
X206717857Y-199646190D02*
X207003571Y-199646190D01*
X206860714Y-200146190D02*
X206860714Y-199646190D01*
X207170238Y-199884285D02*
X207336904Y-199884285D01*
X207408333Y-200146190D02*
X207170238Y-200146190D01*
X207170238Y-199646190D01*
X207408333Y-199646190D01*
X207908333Y-200146190D02*
X207741666Y-199908095D01*
X207622619Y-200146190D02*
X207622619Y-199646190D01*
X207813095Y-199646190D01*
X207860714Y-199670000D01*
X207884523Y-199693809D01*
X207908333Y-199741428D01*
X207908333Y-199812857D01*
X207884523Y-199860476D01*
X207860714Y-199884285D01*
X207813095Y-199908095D01*
X207622619Y-199908095D01*
X208503571Y-199884285D02*
X208670238Y-199884285D01*
X208741666Y-200146190D02*
X208503571Y-200146190D01*
X208503571Y-199646190D01*
X208741666Y-199646190D01*
X209217857Y-199670000D02*
X209170238Y-199646190D01*
X209098809Y-199646190D01*
X209027380Y-199670000D01*
X208979761Y-199717619D01*
X208955952Y-199765238D01*
X208932142Y-199860476D01*
X208932142Y-199931904D01*
X208955952Y-200027142D01*
X208979761Y-200074761D01*
X209027380Y-200122380D01*
X209098809Y-200146190D01*
X209146428Y-200146190D01*
X209217857Y-200122380D01*
X209241666Y-200098571D01*
X209241666Y-199931904D01*
X209146428Y-199931904D01*
X209717857Y-199670000D02*
X209670238Y-199646190D01*
X209598809Y-199646190D01*
X209527380Y-199670000D01*
X209479761Y-199717619D01*
X209455952Y-199765238D01*
X209432142Y-199860476D01*
X209432142Y-199931904D01*
X209455952Y-200027142D01*
X209479761Y-200074761D01*
X209527380Y-200122380D01*
X209598809Y-200146190D01*
X209646428Y-200146190D01*
X209717857Y-200122380D01*
X209741666Y-200098571D01*
X209741666Y-199931904D01*
X209646428Y-199931904D01*
D13*
X210610714Y-197372380D02*
X210039285Y-197372380D01*
X210325000Y-197372380D02*
X210325000Y-196372380D01*
X210229761Y-196515238D01*
X210134523Y-196610476D01*
X210039285Y-196658095D01*
%TO.C,J1*%
X381666666Y-195882380D02*
X381666666Y-196596666D01*
X381619047Y-196739523D01*
X381523809Y-196834761D01*
X381380952Y-196882380D01*
X381285714Y-196882380D01*
X382666666Y-196882380D02*
X382095238Y-196882380D01*
X382380952Y-196882380D02*
X382380952Y-195882380D01*
X382285714Y-196025238D01*
X382190476Y-196120476D01*
X382095238Y-196168095D01*
%TO.C,J12*%
X57190476Y-195882380D02*
X57190476Y-196596666D01*
X57142857Y-196739523D01*
X57047619Y-196834761D01*
X56904761Y-196882380D01*
X56809523Y-196882380D01*
X58190476Y-196882380D02*
X57619047Y-196882380D01*
X57904761Y-196882380D02*
X57904761Y-195882380D01*
X57809523Y-196025238D01*
X57714285Y-196120476D01*
X57619047Y-196168095D01*
X58571428Y-195977619D02*
X58619047Y-195930000D01*
X58714285Y-195882380D01*
X58952380Y-195882380D01*
X59047619Y-195930000D01*
X59095238Y-195977619D01*
X59142857Y-196072857D01*
X59142857Y-196168095D01*
X59095238Y-196310952D01*
X58523809Y-196882380D01*
X59142857Y-196882380D01*
%TD*%
M02*
