%TF.GenerationSoftware,KiCad,Pcbnew,(5.1.6)-1*%
%TF.CreationDate,2022-08-08T14:05:23-07:00*%
%TF.ProjectId,NiCd Battery Shield - VP400KH,4e694364-2042-4617-9474-657279205368,1*%
%TF.SameCoordinates,Original*%
%TF.FileFunction,Soldermask,Bot*%
%TF.FilePolarity,Negative*%
%FSLAX46Y46*%
G04 Gerber Fmt 4.6, Leading zero omitted, Abs format (unit mm)*
G04 Created by KiCad (PCBNEW (5.1.6)-1) date 2022-08-08 14:05:23*
%MOMM*%
%LPD*%
G01*
G04 APERTURE LIST*
%ADD10C,1.624000*%
%ADD11C,1.350000*%
%ADD12C,3.600000*%
%ADD13C,20.100000*%
%ADD14C,0.600000*%
%ADD15O,30.100000X20.100000*%
%ADD16C,3.100000*%
G04 APERTURE END LIST*
D10*
%TO.C,J4*%
X292000000Y-135000000D03*
%TD*%
D11*
%TO.C,J6*%
X228385000Y-201340000D03*
X225615000Y-201340000D03*
X222845000Y-201340000D03*
X220075000Y-201340000D03*
X217305000Y-201340000D03*
X214535000Y-201340000D03*
X211765000Y-201340000D03*
X229770000Y-198500000D03*
X227000000Y-198500000D03*
X224230000Y-198500000D03*
X221460000Y-198500000D03*
X218690000Y-198500000D03*
X215920000Y-198500000D03*
X213150000Y-198500000D03*
X210380000Y-198500000D03*
D12*
X236725000Y-199920000D03*
X203425000Y-199920000D03*
%TD*%
D10*
%TO.C,J3*%
X328000000Y-185000000D03*
%TD*%
D13*
%TO.C,J1*%
X382000000Y-185000000D03*
D14*
X382000000Y-178650000D03*
X379828172Y-179032952D03*
X377918299Y-180135618D03*
X376500739Y-181825000D03*
X375746471Y-183897334D03*
X375746471Y-186102666D03*
X376500739Y-188175000D03*
X377918299Y-189864382D03*
X379828172Y-190967048D03*
X382000000Y-191350000D03*
X384171828Y-190967048D03*
X386081701Y-189864382D03*
X387499261Y-188175000D03*
X388253529Y-186102666D03*
X388253529Y-183897334D03*
X387499261Y-181825000D03*
X386081701Y-180135618D03*
X384171828Y-179032952D03*
X382000000Y-177380000D03*
X379393807Y-177839542D03*
X377101958Y-179162741D03*
X375400886Y-181190000D03*
X374495765Y-183676801D03*
X374495765Y-186323199D03*
X375400886Y-188810000D03*
X377101958Y-190837259D03*
X379393807Y-192160458D03*
X382000000Y-192620000D03*
X384606193Y-192160458D03*
X386898042Y-190837259D03*
X388599114Y-188810000D03*
X389504235Y-186323199D03*
X389504235Y-183676801D03*
X388599114Y-181190000D03*
X386898042Y-179162741D03*
X384606193Y-177839542D03*
X382000000Y-176110000D03*
X378959441Y-176646133D03*
X376285618Y-178189865D03*
X374301034Y-180555000D03*
X373245059Y-183456268D03*
X373245059Y-186543732D03*
X374301034Y-189445000D03*
X376285618Y-191810135D03*
X378959441Y-193353867D03*
X382000000Y-193890000D03*
X385040559Y-193353867D03*
X387714382Y-191810135D03*
X389698966Y-189445000D03*
X390754941Y-186543732D03*
X390754941Y-183456268D03*
X389698966Y-180555000D03*
X387714382Y-178189865D03*
X385040559Y-176646133D03*
%TD*%
%TO.C,J12*%
X58000000Y-193650000D03*
X58000000Y-191110000D03*
X60500000Y-192380000D03*
X60500000Y-191110000D03*
X60500000Y-193650000D03*
X58000000Y-192380000D03*
X55500000Y-193650000D03*
X55500000Y-191110000D03*
X55500000Y-192380000D03*
X58000000Y-178400000D03*
X58000000Y-177130000D03*
X58000000Y-175860000D03*
X60500000Y-178400000D03*
X60500000Y-175860000D03*
X60500000Y-177130000D03*
X55500000Y-178400000D03*
X55500000Y-177130000D03*
X55500000Y-175860000D03*
X68714382Y-191560135D03*
X63000000Y-191100000D03*
X63000000Y-178400000D03*
X65606193Y-177589542D03*
X63000000Y-192370000D03*
X69599114Y-188560000D03*
X66040559Y-176396133D03*
X68714382Y-177939865D03*
X70698966Y-180305000D03*
X63000000Y-177130000D03*
X63000000Y-193640000D03*
X70504235Y-183426801D03*
X68499261Y-187925000D03*
X65171828Y-178782952D03*
X71754941Y-183206268D03*
X70698966Y-189195000D03*
X66040559Y-193103867D03*
X63000000Y-175860000D03*
X67898042Y-178912741D03*
X69599114Y-180940000D03*
X70504235Y-186073199D03*
X67081701Y-189614382D03*
X68499261Y-181575000D03*
X67081701Y-179885618D03*
X65606193Y-191910458D03*
X65171828Y-190717048D03*
X67898042Y-190587259D03*
X69253529Y-183647334D03*
X71754941Y-186293732D03*
X69253529Y-185852666D03*
X47285618Y-191560135D03*
X44245059Y-186293732D03*
X46400886Y-188560000D03*
X53000000Y-191100000D03*
X46746471Y-183647334D03*
X53000000Y-178400000D03*
X46400886Y-180940000D03*
X48918299Y-189614382D03*
X53000000Y-192370000D03*
X53000000Y-177130000D03*
X53000000Y-193640000D03*
X50828172Y-178782952D03*
X50393807Y-177589542D03*
X50828172Y-190717048D03*
X49959441Y-193103867D03*
X45301034Y-189195000D03*
X45301034Y-180305000D03*
X45495765Y-183426801D03*
X47500739Y-181575000D03*
X47285618Y-177939865D03*
X47500739Y-187925000D03*
X49959441Y-176396133D03*
X53000000Y-175860000D03*
X48101958Y-178912741D03*
X50393807Y-191910458D03*
X48101958Y-190587259D03*
X46746471Y-185852666D03*
X48918299Y-179885618D03*
X44245059Y-183206268D03*
X45495765Y-186073199D03*
D15*
X58000000Y-185000000D03*
%TD*%
D10*
%TO.C,J7*%
X220000000Y-135000000D03*
%TD*%
%TO.C,J11*%
X76000000Y-135000000D03*
%TD*%
%TO.C,J10*%
X112000000Y-185000000D03*
%TD*%
%TO.C,J9*%
X148000000Y-135000000D03*
%TD*%
%TO.C,J8*%
X184000000Y-185000000D03*
%TD*%
%TO.C,J5*%
X256000000Y-185000000D03*
%TD*%
%TO.C,J2*%
X364000000Y-135000000D03*
%TD*%
D16*
%TO.C,H1*%
X49000000Y-131000000D03*
X44000000Y-131000000D03*
X49000000Y-124000000D03*
X44000000Y-124000000D03*
%TD*%
%TO.C,H2*%
X84000000Y-197000000D03*
X79000000Y-197000000D03*
X84000000Y-190000000D03*
X79000000Y-190000000D03*
%TD*%
%TO.C,H3*%
X396000000Y-131000000D03*
X391000000Y-131000000D03*
X396000000Y-124000000D03*
X391000000Y-124000000D03*
%TD*%
%TO.C,H4*%
X361000000Y-197000000D03*
X356000000Y-197000000D03*
X361000000Y-190000000D03*
X356000000Y-190000000D03*
%TD*%
M02*
