G04 #@! TF.GenerationSoftware,KiCad,Pcbnew,(5.1.6)-1*
G04 #@! TF.CreationDate,2021-05-10T16:45:54-07:00*
G04 #@! TF.ProjectId,NiCd Battery Tester PCB Rev 3,4e694364-2042-4617-9474-657279205465,V2*
G04 #@! TF.SameCoordinates,Original*
G04 #@! TF.FileFunction,Paste,Top*
G04 #@! TF.FilePolarity,Positive*
%FSLAX46Y46*%
G04 Gerber Fmt 4.6, Leading zero omitted, Abs format (unit mm)*
G04 Created by KiCad (PCBNEW (5.1.6)-1) date 2021-05-10 16:45:54*
%MOMM*%
%LPD*%
G01*
G04 APERTURE LIST*
%ADD10R,1.520000X2.000000*%
%ADD11R,2.000000X1.520000*%
%ADD12R,1.400000X0.300000*%
G04 APERTURE END LIST*
D10*
X153960000Y-86000000D03*
X157000000Y-86000000D03*
G36*
G01*
X99125000Y-90787500D02*
X100375000Y-90787500D01*
G75*
G02*
X100625000Y-91037500I0J-250000D01*
G01*
X100625000Y-91962500D01*
G75*
G02*
X100375000Y-92212500I-250000J0D01*
G01*
X99125000Y-92212500D01*
G75*
G02*
X98875000Y-91962500I0J250000D01*
G01*
X98875000Y-91037500D01*
G75*
G02*
X99125000Y-90787500I250000J0D01*
G01*
G37*
G36*
G01*
X99125000Y-93762500D02*
X100375000Y-93762500D01*
G75*
G02*
X100625000Y-94012500I0J-250000D01*
G01*
X100625000Y-94937500D01*
G75*
G02*
X100375000Y-95187500I-250000J0D01*
G01*
X99125000Y-95187500D01*
G75*
G02*
X98875000Y-94937500I0J250000D01*
G01*
X98875000Y-94012500D01*
G75*
G02*
X99125000Y-93762500I250000J0D01*
G01*
G37*
G36*
G01*
X101875000Y-90787500D02*
X103125000Y-90787500D01*
G75*
G02*
X103375000Y-91037500I0J-250000D01*
G01*
X103375000Y-91962500D01*
G75*
G02*
X103125000Y-92212500I-250000J0D01*
G01*
X101875000Y-92212500D01*
G75*
G02*
X101625000Y-91962500I0J250000D01*
G01*
X101625000Y-91037500D01*
G75*
G02*
X101875000Y-90787500I250000J0D01*
G01*
G37*
G36*
G01*
X101875000Y-93762500D02*
X103125000Y-93762500D01*
G75*
G02*
X103375000Y-94012500I0J-250000D01*
G01*
X103375000Y-94937500D01*
G75*
G02*
X103125000Y-95187500I-250000J0D01*
G01*
X101875000Y-95187500D01*
G75*
G02*
X101625000Y-94937500I0J250000D01*
G01*
X101625000Y-94012500D01*
G75*
G02*
X101875000Y-93762500I250000J0D01*
G01*
G37*
G36*
G01*
X100125000Y-107962500D02*
X98875000Y-107962500D01*
G75*
G02*
X98625000Y-107712500I0J250000D01*
G01*
X98625000Y-106787500D01*
G75*
G02*
X98875000Y-106537500I250000J0D01*
G01*
X100125000Y-106537500D01*
G75*
G02*
X100375000Y-106787500I0J-250000D01*
G01*
X100375000Y-107712500D01*
G75*
G02*
X100125000Y-107962500I-250000J0D01*
G01*
G37*
G36*
G01*
X100125000Y-104987500D02*
X98875000Y-104987500D01*
G75*
G02*
X98625000Y-104737500I0J250000D01*
G01*
X98625000Y-103812500D01*
G75*
G02*
X98875000Y-103562500I250000J0D01*
G01*
X100125000Y-103562500D01*
G75*
G02*
X100375000Y-103812500I0J-250000D01*
G01*
X100375000Y-104737500D01*
G75*
G02*
X100125000Y-104987500I-250000J0D01*
G01*
G37*
G36*
G01*
X102875000Y-104987500D02*
X101625000Y-104987500D01*
G75*
G02*
X101375000Y-104737500I0J250000D01*
G01*
X101375000Y-103812500D01*
G75*
G02*
X101625000Y-103562500I250000J0D01*
G01*
X102875000Y-103562500D01*
G75*
G02*
X103125000Y-103812500I0J-250000D01*
G01*
X103125000Y-104737500D01*
G75*
G02*
X102875000Y-104987500I-250000J0D01*
G01*
G37*
G36*
G01*
X102875000Y-107962500D02*
X101625000Y-107962500D01*
G75*
G02*
X101375000Y-107712500I0J250000D01*
G01*
X101375000Y-106787500D01*
G75*
G02*
X101625000Y-106537500I250000J0D01*
G01*
X102875000Y-106537500D01*
G75*
G02*
X103125000Y-106787500I0J-250000D01*
G01*
X103125000Y-107712500D01*
G75*
G02*
X102875000Y-107962500I-250000J0D01*
G01*
G37*
G36*
G01*
X127375000Y-104987500D02*
X126125000Y-104987500D01*
G75*
G02*
X125875000Y-104737500I0J250000D01*
G01*
X125875000Y-103812500D01*
G75*
G02*
X126125000Y-103562500I250000J0D01*
G01*
X127375000Y-103562500D01*
G75*
G02*
X127625000Y-103812500I0J-250000D01*
G01*
X127625000Y-104737500D01*
G75*
G02*
X127375000Y-104987500I-250000J0D01*
G01*
G37*
G36*
G01*
X127375000Y-107962500D02*
X126125000Y-107962500D01*
G75*
G02*
X125875000Y-107712500I0J250000D01*
G01*
X125875000Y-106787500D01*
G75*
G02*
X126125000Y-106537500I250000J0D01*
G01*
X127375000Y-106537500D01*
G75*
G02*
X127625000Y-106787500I0J-250000D01*
G01*
X127625000Y-107712500D01*
G75*
G02*
X127375000Y-107962500I-250000J0D01*
G01*
G37*
G36*
G01*
X124625000Y-107962500D02*
X123375000Y-107962500D01*
G75*
G02*
X123125000Y-107712500I0J250000D01*
G01*
X123125000Y-106787500D01*
G75*
G02*
X123375000Y-106537500I250000J0D01*
G01*
X124625000Y-106537500D01*
G75*
G02*
X124875000Y-106787500I0J-250000D01*
G01*
X124875000Y-107712500D01*
G75*
G02*
X124625000Y-107962500I-250000J0D01*
G01*
G37*
G36*
G01*
X124625000Y-104987500D02*
X123375000Y-104987500D01*
G75*
G02*
X123125000Y-104737500I0J250000D01*
G01*
X123125000Y-103812500D01*
G75*
G02*
X123375000Y-103562500I250000J0D01*
G01*
X124625000Y-103562500D01*
G75*
G02*
X124875000Y-103812500I0J-250000D01*
G01*
X124875000Y-104737500D01*
G75*
G02*
X124625000Y-104987500I-250000J0D01*
G01*
G37*
G36*
G01*
X126125000Y-93787500D02*
X127375000Y-93787500D01*
G75*
G02*
X127625000Y-94037500I0J-250000D01*
G01*
X127625000Y-94962500D01*
G75*
G02*
X127375000Y-95212500I-250000J0D01*
G01*
X126125000Y-95212500D01*
G75*
G02*
X125875000Y-94962500I0J250000D01*
G01*
X125875000Y-94037500D01*
G75*
G02*
X126125000Y-93787500I250000J0D01*
G01*
G37*
G36*
G01*
X126125000Y-90812500D02*
X127375000Y-90812500D01*
G75*
G02*
X127625000Y-91062500I0J-250000D01*
G01*
X127625000Y-91987500D01*
G75*
G02*
X127375000Y-92237500I-250000J0D01*
G01*
X126125000Y-92237500D01*
G75*
G02*
X125875000Y-91987500I0J250000D01*
G01*
X125875000Y-91062500D01*
G75*
G02*
X126125000Y-90812500I250000J0D01*
G01*
G37*
G36*
G01*
X123375000Y-90812500D02*
X124625000Y-90812500D01*
G75*
G02*
X124875000Y-91062500I0J-250000D01*
G01*
X124875000Y-91987500D01*
G75*
G02*
X124625000Y-92237500I-250000J0D01*
G01*
X123375000Y-92237500D01*
G75*
G02*
X123125000Y-91987500I0J250000D01*
G01*
X123125000Y-91062500D01*
G75*
G02*
X123375000Y-90812500I250000J0D01*
G01*
G37*
G36*
G01*
X123375000Y-93787500D02*
X124625000Y-93787500D01*
G75*
G02*
X124875000Y-94037500I0J-250000D01*
G01*
X124875000Y-94962500D01*
G75*
G02*
X124625000Y-95212500I-250000J0D01*
G01*
X123375000Y-95212500D01*
G75*
G02*
X123125000Y-94962500I0J250000D01*
G01*
X123125000Y-94037500D01*
G75*
G02*
X123375000Y-93787500I250000J0D01*
G01*
G37*
G36*
G01*
X130125000Y-90800000D02*
X131375000Y-90800000D01*
G75*
G02*
X131625000Y-91050000I0J-250000D01*
G01*
X131625000Y-91975000D01*
G75*
G02*
X131375000Y-92225000I-250000J0D01*
G01*
X130125000Y-92225000D01*
G75*
G02*
X129875000Y-91975000I0J250000D01*
G01*
X129875000Y-91050000D01*
G75*
G02*
X130125000Y-90800000I250000J0D01*
G01*
G37*
G36*
G01*
X130125000Y-93775000D02*
X131375000Y-93775000D01*
G75*
G02*
X131625000Y-94025000I0J-250000D01*
G01*
X131625000Y-94950000D01*
G75*
G02*
X131375000Y-95200000I-250000J0D01*
G01*
X130125000Y-95200000D01*
G75*
G02*
X129875000Y-94950000I0J250000D01*
G01*
X129875000Y-94025000D01*
G75*
G02*
X130125000Y-93775000I250000J0D01*
G01*
G37*
G36*
G01*
X132875000Y-90812500D02*
X134125000Y-90812500D01*
G75*
G02*
X134375000Y-91062500I0J-250000D01*
G01*
X134375000Y-91987500D01*
G75*
G02*
X134125000Y-92237500I-250000J0D01*
G01*
X132875000Y-92237500D01*
G75*
G02*
X132625000Y-91987500I0J250000D01*
G01*
X132625000Y-91062500D01*
G75*
G02*
X132875000Y-90812500I250000J0D01*
G01*
G37*
G36*
G01*
X132875000Y-93787500D02*
X134125000Y-93787500D01*
G75*
G02*
X134375000Y-94037500I0J-250000D01*
G01*
X134375000Y-94962500D01*
G75*
G02*
X134125000Y-95212500I-250000J0D01*
G01*
X132875000Y-95212500D01*
G75*
G02*
X132625000Y-94962500I0J250000D01*
G01*
X132625000Y-94037500D01*
G75*
G02*
X132875000Y-93787500I250000J0D01*
G01*
G37*
G36*
G01*
X131625000Y-107950000D02*
X130375000Y-107950000D01*
G75*
G02*
X130125000Y-107700000I0J250000D01*
G01*
X130125000Y-106775000D01*
G75*
G02*
X130375000Y-106525000I250000J0D01*
G01*
X131625000Y-106525000D01*
G75*
G02*
X131875000Y-106775000I0J-250000D01*
G01*
X131875000Y-107700000D01*
G75*
G02*
X131625000Y-107950000I-250000J0D01*
G01*
G37*
G36*
G01*
X131625000Y-104975000D02*
X130375000Y-104975000D01*
G75*
G02*
X130125000Y-104725000I0J250000D01*
G01*
X130125000Y-103800000D01*
G75*
G02*
X130375000Y-103550000I250000J0D01*
G01*
X131625000Y-103550000D01*
G75*
G02*
X131875000Y-103800000I0J-250000D01*
G01*
X131875000Y-104725000D01*
G75*
G02*
X131625000Y-104975000I-250000J0D01*
G01*
G37*
G36*
G01*
X134375000Y-104987500D02*
X133125000Y-104987500D01*
G75*
G02*
X132875000Y-104737500I0J250000D01*
G01*
X132875000Y-103812500D01*
G75*
G02*
X133125000Y-103562500I250000J0D01*
G01*
X134375000Y-103562500D01*
G75*
G02*
X134625000Y-103812500I0J-250000D01*
G01*
X134625000Y-104737500D01*
G75*
G02*
X134375000Y-104987500I-250000J0D01*
G01*
G37*
G36*
G01*
X134375000Y-107962500D02*
X133125000Y-107962500D01*
G75*
G02*
X132875000Y-107712500I0J250000D01*
G01*
X132875000Y-106787500D01*
G75*
G02*
X133125000Y-106537500I250000J0D01*
G01*
X134375000Y-106537500D01*
G75*
G02*
X134625000Y-106787500I0J-250000D01*
G01*
X134625000Y-107712500D01*
G75*
G02*
X134375000Y-107962500I-250000J0D01*
G01*
G37*
G36*
G01*
X158375000Y-107937500D02*
X157125000Y-107937500D01*
G75*
G02*
X156875000Y-107687500I0J250000D01*
G01*
X156875000Y-106762500D01*
G75*
G02*
X157125000Y-106512500I250000J0D01*
G01*
X158375000Y-106512500D01*
G75*
G02*
X158625000Y-106762500I0J-250000D01*
G01*
X158625000Y-107687500D01*
G75*
G02*
X158375000Y-107937500I-250000J0D01*
G01*
G37*
G36*
G01*
X158375000Y-104962500D02*
X157125000Y-104962500D01*
G75*
G02*
X156875000Y-104712500I0J250000D01*
G01*
X156875000Y-103787500D01*
G75*
G02*
X157125000Y-103537500I250000J0D01*
G01*
X158375000Y-103537500D01*
G75*
G02*
X158625000Y-103787500I0J-250000D01*
G01*
X158625000Y-104712500D01*
G75*
G02*
X158375000Y-104962500I-250000J0D01*
G01*
G37*
G36*
G01*
X155625000Y-104962500D02*
X154375000Y-104962500D01*
G75*
G02*
X154125000Y-104712500I0J250000D01*
G01*
X154125000Y-103787500D01*
G75*
G02*
X154375000Y-103537500I250000J0D01*
G01*
X155625000Y-103537500D01*
G75*
G02*
X155875000Y-103787500I0J-250000D01*
G01*
X155875000Y-104712500D01*
G75*
G02*
X155625000Y-104962500I-250000J0D01*
G01*
G37*
G36*
G01*
X155625000Y-107937500D02*
X154375000Y-107937500D01*
G75*
G02*
X154125000Y-107687500I0J250000D01*
G01*
X154125000Y-106762500D01*
G75*
G02*
X154375000Y-106512500I250000J0D01*
G01*
X155625000Y-106512500D01*
G75*
G02*
X155875000Y-106762500I0J-250000D01*
G01*
X155875000Y-107687500D01*
G75*
G02*
X155625000Y-107937500I-250000J0D01*
G01*
G37*
G36*
G01*
X157125000Y-90812500D02*
X158375000Y-90812500D01*
G75*
G02*
X158625000Y-91062500I0J-250000D01*
G01*
X158625000Y-91987500D01*
G75*
G02*
X158375000Y-92237500I-250000J0D01*
G01*
X157125000Y-92237500D01*
G75*
G02*
X156875000Y-91987500I0J250000D01*
G01*
X156875000Y-91062500D01*
G75*
G02*
X157125000Y-90812500I250000J0D01*
G01*
G37*
G36*
G01*
X157125000Y-93787500D02*
X158375000Y-93787500D01*
G75*
G02*
X158625000Y-94037500I0J-250000D01*
G01*
X158625000Y-94962500D01*
G75*
G02*
X158375000Y-95212500I-250000J0D01*
G01*
X157125000Y-95212500D01*
G75*
G02*
X156875000Y-94962500I0J250000D01*
G01*
X156875000Y-94037500D01*
G75*
G02*
X157125000Y-93787500I250000J0D01*
G01*
G37*
G36*
G01*
X154375000Y-93787500D02*
X155625000Y-93787500D01*
G75*
G02*
X155875000Y-94037500I0J-250000D01*
G01*
X155875000Y-94962500D01*
G75*
G02*
X155625000Y-95212500I-250000J0D01*
G01*
X154375000Y-95212500D01*
G75*
G02*
X154125000Y-94962500I0J250000D01*
G01*
X154125000Y-94037500D01*
G75*
G02*
X154375000Y-93787500I250000J0D01*
G01*
G37*
G36*
G01*
X154375000Y-90812500D02*
X155625000Y-90812500D01*
G75*
G02*
X155875000Y-91062500I0J-250000D01*
G01*
X155875000Y-91987500D01*
G75*
G02*
X155625000Y-92237500I-250000J0D01*
G01*
X154375000Y-92237500D01*
G75*
G02*
X154125000Y-91987500I0J250000D01*
G01*
X154125000Y-91062500D01*
G75*
G02*
X154375000Y-90812500I250000J0D01*
G01*
G37*
G36*
G01*
X161625000Y-93787500D02*
X162875000Y-93787500D01*
G75*
G02*
X163125000Y-94037500I0J-250000D01*
G01*
X163125000Y-94962500D01*
G75*
G02*
X162875000Y-95212500I-250000J0D01*
G01*
X161625000Y-95212500D01*
G75*
G02*
X161375000Y-94962500I0J250000D01*
G01*
X161375000Y-94037500D01*
G75*
G02*
X161625000Y-93787500I250000J0D01*
G01*
G37*
G36*
G01*
X161625000Y-90812500D02*
X162875000Y-90812500D01*
G75*
G02*
X163125000Y-91062500I0J-250000D01*
G01*
X163125000Y-91987500D01*
G75*
G02*
X162875000Y-92237500I-250000J0D01*
G01*
X161625000Y-92237500D01*
G75*
G02*
X161375000Y-91987500I0J250000D01*
G01*
X161375000Y-91062500D01*
G75*
G02*
X161625000Y-90812500I250000J0D01*
G01*
G37*
G36*
G01*
X164375000Y-90812500D02*
X165625000Y-90812500D01*
G75*
G02*
X165875000Y-91062500I0J-250000D01*
G01*
X165875000Y-91987500D01*
G75*
G02*
X165625000Y-92237500I-250000J0D01*
G01*
X164375000Y-92237500D01*
G75*
G02*
X164125000Y-91987500I0J250000D01*
G01*
X164125000Y-91062500D01*
G75*
G02*
X164375000Y-90812500I250000J0D01*
G01*
G37*
G36*
G01*
X164375000Y-93787500D02*
X165625000Y-93787500D01*
G75*
G02*
X165875000Y-94037500I0J-250000D01*
G01*
X165875000Y-94962500D01*
G75*
G02*
X165625000Y-95212500I-250000J0D01*
G01*
X164375000Y-95212500D01*
G75*
G02*
X164125000Y-94962500I0J250000D01*
G01*
X164125000Y-94037500D01*
G75*
G02*
X164375000Y-93787500I250000J0D01*
G01*
G37*
G36*
G01*
X162875000Y-104962500D02*
X161625000Y-104962500D01*
G75*
G02*
X161375000Y-104712500I0J250000D01*
G01*
X161375000Y-103787500D01*
G75*
G02*
X161625000Y-103537500I250000J0D01*
G01*
X162875000Y-103537500D01*
G75*
G02*
X163125000Y-103787500I0J-250000D01*
G01*
X163125000Y-104712500D01*
G75*
G02*
X162875000Y-104962500I-250000J0D01*
G01*
G37*
G36*
G01*
X162875000Y-107937500D02*
X161625000Y-107937500D01*
G75*
G02*
X161375000Y-107687500I0J250000D01*
G01*
X161375000Y-106762500D01*
G75*
G02*
X161625000Y-106512500I250000J0D01*
G01*
X162875000Y-106512500D01*
G75*
G02*
X163125000Y-106762500I0J-250000D01*
G01*
X163125000Y-107687500D01*
G75*
G02*
X162875000Y-107937500I-250000J0D01*
G01*
G37*
G36*
G01*
X106462500Y-96375000D02*
X106462500Y-97625000D01*
G75*
G02*
X106212500Y-97875000I-250000J0D01*
G01*
X105287500Y-97875000D01*
G75*
G02*
X105037500Y-97625000I0J250000D01*
G01*
X105037500Y-96375000D01*
G75*
G02*
X105287500Y-96125000I250000J0D01*
G01*
X106212500Y-96125000D01*
G75*
G02*
X106462500Y-96375000I0J-250000D01*
G01*
G37*
G36*
G01*
X103487500Y-96375000D02*
X103487500Y-97625000D01*
G75*
G02*
X103237500Y-97875000I-250000J0D01*
G01*
X102312500Y-97875000D01*
G75*
G02*
X102062500Y-97625000I0J250000D01*
G01*
X102062500Y-96375000D01*
G75*
G02*
X102312500Y-96125000I250000J0D01*
G01*
X103237500Y-96125000D01*
G75*
G02*
X103487500Y-96375000I0J-250000D01*
G01*
G37*
G36*
G01*
X105875000Y-92212500D02*
X104625000Y-92212500D01*
G75*
G02*
X104375000Y-91962500I0J250000D01*
G01*
X104375000Y-91037500D01*
G75*
G02*
X104625000Y-90787500I250000J0D01*
G01*
X105875000Y-90787500D01*
G75*
G02*
X106125000Y-91037500I0J-250000D01*
G01*
X106125000Y-91962500D01*
G75*
G02*
X105875000Y-92212500I-250000J0D01*
G01*
G37*
G36*
G01*
X105875000Y-95187500D02*
X104625000Y-95187500D01*
G75*
G02*
X104375000Y-94937500I0J250000D01*
G01*
X104375000Y-94012500D01*
G75*
G02*
X104625000Y-93762500I250000J0D01*
G01*
X105875000Y-93762500D01*
G75*
G02*
X106125000Y-94012500I0J-250000D01*
G01*
X106125000Y-94937500D01*
G75*
G02*
X105875000Y-95187500I-250000J0D01*
G01*
G37*
G36*
G01*
X106462500Y-101125000D02*
X106462500Y-102375000D01*
G75*
G02*
X106212500Y-102625000I-250000J0D01*
G01*
X105287500Y-102625000D01*
G75*
G02*
X105037500Y-102375000I0J250000D01*
G01*
X105037500Y-101125000D01*
G75*
G02*
X105287500Y-100875000I250000J0D01*
G01*
X106212500Y-100875000D01*
G75*
G02*
X106462500Y-101125000I0J-250000D01*
G01*
G37*
G36*
G01*
X103487500Y-101125000D02*
X103487500Y-102375000D01*
G75*
G02*
X103237500Y-102625000I-250000J0D01*
G01*
X102312500Y-102625000D01*
G75*
G02*
X102062500Y-102375000I0J250000D01*
G01*
X102062500Y-101125000D01*
G75*
G02*
X102312500Y-100875000I250000J0D01*
G01*
X103237500Y-100875000D01*
G75*
G02*
X103487500Y-101125000I0J-250000D01*
G01*
G37*
G36*
G01*
X104625000Y-103562500D02*
X105875000Y-103562500D01*
G75*
G02*
X106125000Y-103812500I0J-250000D01*
G01*
X106125000Y-104737500D01*
G75*
G02*
X105875000Y-104987500I-250000J0D01*
G01*
X104625000Y-104987500D01*
G75*
G02*
X104375000Y-104737500I0J250000D01*
G01*
X104375000Y-103812500D01*
G75*
G02*
X104625000Y-103562500I250000J0D01*
G01*
G37*
G36*
G01*
X104625000Y-106537500D02*
X105875000Y-106537500D01*
G75*
G02*
X106125000Y-106787500I0J-250000D01*
G01*
X106125000Y-107712500D01*
G75*
G02*
X105875000Y-107962500I-250000J0D01*
G01*
X104625000Y-107962500D01*
G75*
G02*
X104375000Y-107712500I0J250000D01*
G01*
X104375000Y-106787500D01*
G75*
G02*
X104625000Y-106537500I250000J0D01*
G01*
G37*
G36*
G01*
X123287500Y-102375000D02*
X123287500Y-101125000D01*
G75*
G02*
X123537500Y-100875000I250000J0D01*
G01*
X124462500Y-100875000D01*
G75*
G02*
X124712500Y-101125000I0J-250000D01*
G01*
X124712500Y-102375000D01*
G75*
G02*
X124462500Y-102625000I-250000J0D01*
G01*
X123537500Y-102625000D01*
G75*
G02*
X123287500Y-102375000I0J250000D01*
G01*
G37*
G36*
G01*
X120312500Y-102375000D02*
X120312500Y-101125000D01*
G75*
G02*
X120562500Y-100875000I250000J0D01*
G01*
X121487500Y-100875000D01*
G75*
G02*
X121737500Y-101125000I0J-250000D01*
G01*
X121737500Y-102375000D01*
G75*
G02*
X121487500Y-102625000I-250000J0D01*
G01*
X120562500Y-102625000D01*
G75*
G02*
X120312500Y-102375000I0J250000D01*
G01*
G37*
G36*
G01*
X120625000Y-103562500D02*
X121875000Y-103562500D01*
G75*
G02*
X122125000Y-103812500I0J-250000D01*
G01*
X122125000Y-104737500D01*
G75*
G02*
X121875000Y-104987500I-250000J0D01*
G01*
X120625000Y-104987500D01*
G75*
G02*
X120375000Y-104737500I0J250000D01*
G01*
X120375000Y-103812500D01*
G75*
G02*
X120625000Y-103562500I250000J0D01*
G01*
G37*
G36*
G01*
X120625000Y-106537500D02*
X121875000Y-106537500D01*
G75*
G02*
X122125000Y-106787500I0J-250000D01*
G01*
X122125000Y-107712500D01*
G75*
G02*
X121875000Y-107962500I-250000J0D01*
G01*
X120625000Y-107962500D01*
G75*
G02*
X120375000Y-107712500I0J250000D01*
G01*
X120375000Y-106787500D01*
G75*
G02*
X120625000Y-106537500I250000J0D01*
G01*
G37*
G36*
G01*
X123287500Y-97625000D02*
X123287500Y-96375000D01*
G75*
G02*
X123537500Y-96125000I250000J0D01*
G01*
X124462500Y-96125000D01*
G75*
G02*
X124712500Y-96375000I0J-250000D01*
G01*
X124712500Y-97625000D01*
G75*
G02*
X124462500Y-97875000I-250000J0D01*
G01*
X123537500Y-97875000D01*
G75*
G02*
X123287500Y-97625000I0J250000D01*
G01*
G37*
G36*
G01*
X120312500Y-97625000D02*
X120312500Y-96375000D01*
G75*
G02*
X120562500Y-96125000I250000J0D01*
G01*
X121487500Y-96125000D01*
G75*
G02*
X121737500Y-96375000I0J-250000D01*
G01*
X121737500Y-97625000D01*
G75*
G02*
X121487500Y-97875000I-250000J0D01*
G01*
X120562500Y-97875000D01*
G75*
G02*
X120312500Y-97625000I0J250000D01*
G01*
G37*
G36*
G01*
X121875000Y-95212500D02*
X120625000Y-95212500D01*
G75*
G02*
X120375000Y-94962500I0J250000D01*
G01*
X120375000Y-94037500D01*
G75*
G02*
X120625000Y-93787500I250000J0D01*
G01*
X121875000Y-93787500D01*
G75*
G02*
X122125000Y-94037500I0J-250000D01*
G01*
X122125000Y-94962500D01*
G75*
G02*
X121875000Y-95212500I-250000J0D01*
G01*
G37*
G36*
G01*
X121875000Y-92237500D02*
X120625000Y-92237500D01*
G75*
G02*
X120375000Y-91987500I0J250000D01*
G01*
X120375000Y-91062500D01*
G75*
G02*
X120625000Y-90812500I250000J0D01*
G01*
X121875000Y-90812500D01*
G75*
G02*
X122125000Y-91062500I0J-250000D01*
G01*
X122125000Y-91987500D01*
G75*
G02*
X121875000Y-92237500I-250000J0D01*
G01*
G37*
G36*
G01*
X134487500Y-96375000D02*
X134487500Y-97625000D01*
G75*
G02*
X134237500Y-97875000I-250000J0D01*
G01*
X133312500Y-97875000D01*
G75*
G02*
X133062500Y-97625000I0J250000D01*
G01*
X133062500Y-96375000D01*
G75*
G02*
X133312500Y-96125000I250000J0D01*
G01*
X134237500Y-96125000D01*
G75*
G02*
X134487500Y-96375000I0J-250000D01*
G01*
G37*
G36*
G01*
X137462500Y-96375000D02*
X137462500Y-97625000D01*
G75*
G02*
X137212500Y-97875000I-250000J0D01*
G01*
X136287500Y-97875000D01*
G75*
G02*
X136037500Y-97625000I0J250000D01*
G01*
X136037500Y-96375000D01*
G75*
G02*
X136287500Y-96125000I250000J0D01*
G01*
X137212500Y-96125000D01*
G75*
G02*
X137462500Y-96375000I0J-250000D01*
G01*
G37*
G36*
G01*
X136875000Y-92237500D02*
X135625000Y-92237500D01*
G75*
G02*
X135375000Y-91987500I0J250000D01*
G01*
X135375000Y-91062500D01*
G75*
G02*
X135625000Y-90812500I250000J0D01*
G01*
X136875000Y-90812500D01*
G75*
G02*
X137125000Y-91062500I0J-250000D01*
G01*
X137125000Y-91987500D01*
G75*
G02*
X136875000Y-92237500I-250000J0D01*
G01*
G37*
G36*
G01*
X136875000Y-95212500D02*
X135625000Y-95212500D01*
G75*
G02*
X135375000Y-94962500I0J250000D01*
G01*
X135375000Y-94037500D01*
G75*
G02*
X135625000Y-93787500I250000J0D01*
G01*
X136875000Y-93787500D01*
G75*
G02*
X137125000Y-94037500I0J-250000D01*
G01*
X137125000Y-94962500D01*
G75*
G02*
X136875000Y-95212500I-250000J0D01*
G01*
G37*
G36*
G01*
X134487500Y-101125000D02*
X134487500Y-102375000D01*
G75*
G02*
X134237500Y-102625000I-250000J0D01*
G01*
X133312500Y-102625000D01*
G75*
G02*
X133062500Y-102375000I0J250000D01*
G01*
X133062500Y-101125000D01*
G75*
G02*
X133312500Y-100875000I250000J0D01*
G01*
X134237500Y-100875000D01*
G75*
G02*
X134487500Y-101125000I0J-250000D01*
G01*
G37*
G36*
G01*
X137462500Y-101125000D02*
X137462500Y-102375000D01*
G75*
G02*
X137212500Y-102625000I-250000J0D01*
G01*
X136287500Y-102625000D01*
G75*
G02*
X136037500Y-102375000I0J250000D01*
G01*
X136037500Y-101125000D01*
G75*
G02*
X136287500Y-100875000I250000J0D01*
G01*
X137212500Y-100875000D01*
G75*
G02*
X137462500Y-101125000I0J-250000D01*
G01*
G37*
G36*
G01*
X135875000Y-103562500D02*
X137125000Y-103562500D01*
G75*
G02*
X137375000Y-103812500I0J-250000D01*
G01*
X137375000Y-104737500D01*
G75*
G02*
X137125000Y-104987500I-250000J0D01*
G01*
X135875000Y-104987500D01*
G75*
G02*
X135625000Y-104737500I0J250000D01*
G01*
X135625000Y-103812500D01*
G75*
G02*
X135875000Y-103562500I250000J0D01*
G01*
G37*
G36*
G01*
X135875000Y-106537500D02*
X137125000Y-106537500D01*
G75*
G02*
X137375000Y-106787500I0J-250000D01*
G01*
X137375000Y-107712500D01*
G75*
G02*
X137125000Y-107962500I-250000J0D01*
G01*
X135875000Y-107962500D01*
G75*
G02*
X135625000Y-107712500I0J250000D01*
G01*
X135625000Y-106787500D01*
G75*
G02*
X135875000Y-106537500I250000J0D01*
G01*
G37*
G36*
G01*
X154262500Y-102375000D02*
X154262500Y-101125000D01*
G75*
G02*
X154512500Y-100875000I250000J0D01*
G01*
X155437500Y-100875000D01*
G75*
G02*
X155687500Y-101125000I0J-250000D01*
G01*
X155687500Y-102375000D01*
G75*
G02*
X155437500Y-102625000I-250000J0D01*
G01*
X154512500Y-102625000D01*
G75*
G02*
X154262500Y-102375000I0J250000D01*
G01*
G37*
G36*
G01*
X151287500Y-102375000D02*
X151287500Y-101125000D01*
G75*
G02*
X151537500Y-100875000I250000J0D01*
G01*
X152462500Y-100875000D01*
G75*
G02*
X152712500Y-101125000I0J-250000D01*
G01*
X152712500Y-102375000D01*
G75*
G02*
X152462500Y-102625000I-250000J0D01*
G01*
X151537500Y-102625000D01*
G75*
G02*
X151287500Y-102375000I0J250000D01*
G01*
G37*
G36*
G01*
X151625000Y-103562500D02*
X152875000Y-103562500D01*
G75*
G02*
X153125000Y-103812500I0J-250000D01*
G01*
X153125000Y-104737500D01*
G75*
G02*
X152875000Y-104987500I-250000J0D01*
G01*
X151625000Y-104987500D01*
G75*
G02*
X151375000Y-104737500I0J250000D01*
G01*
X151375000Y-103812500D01*
G75*
G02*
X151625000Y-103562500I250000J0D01*
G01*
G37*
G36*
G01*
X151625000Y-106537500D02*
X152875000Y-106537500D01*
G75*
G02*
X153125000Y-106787500I0J-250000D01*
G01*
X153125000Y-107712500D01*
G75*
G02*
X152875000Y-107962500I-250000J0D01*
G01*
X151625000Y-107962500D01*
G75*
G02*
X151375000Y-107712500I0J250000D01*
G01*
X151375000Y-106787500D01*
G75*
G02*
X151625000Y-106537500I250000J0D01*
G01*
G37*
G36*
G01*
X154262500Y-97625000D02*
X154262500Y-96375000D01*
G75*
G02*
X154512500Y-96125000I250000J0D01*
G01*
X155437500Y-96125000D01*
G75*
G02*
X155687500Y-96375000I0J-250000D01*
G01*
X155687500Y-97625000D01*
G75*
G02*
X155437500Y-97875000I-250000J0D01*
G01*
X154512500Y-97875000D01*
G75*
G02*
X154262500Y-97625000I0J250000D01*
G01*
G37*
G36*
G01*
X151287500Y-97625000D02*
X151287500Y-96375000D01*
G75*
G02*
X151537500Y-96125000I250000J0D01*
G01*
X152462500Y-96125000D01*
G75*
G02*
X152712500Y-96375000I0J-250000D01*
G01*
X152712500Y-97625000D01*
G75*
G02*
X152462500Y-97875000I-250000J0D01*
G01*
X151537500Y-97875000D01*
G75*
G02*
X151287500Y-97625000I0J250000D01*
G01*
G37*
G36*
G01*
X152875000Y-95212500D02*
X151625000Y-95212500D01*
G75*
G02*
X151375000Y-94962500I0J250000D01*
G01*
X151375000Y-94037500D01*
G75*
G02*
X151625000Y-93787500I250000J0D01*
G01*
X152875000Y-93787500D01*
G75*
G02*
X153125000Y-94037500I0J-250000D01*
G01*
X153125000Y-94962500D01*
G75*
G02*
X152875000Y-95212500I-250000J0D01*
G01*
G37*
G36*
G01*
X152875000Y-92237500D02*
X151625000Y-92237500D01*
G75*
G02*
X151375000Y-91987500I0J250000D01*
G01*
X151375000Y-91062500D01*
G75*
G02*
X151625000Y-90812500I250000J0D01*
G01*
X152875000Y-90812500D01*
G75*
G02*
X153125000Y-91062500I0J-250000D01*
G01*
X153125000Y-91987500D01*
G75*
G02*
X152875000Y-92237500I-250000J0D01*
G01*
G37*
G36*
G01*
X165737500Y-96375000D02*
X165737500Y-97625000D01*
G75*
G02*
X165487500Y-97875000I-250000J0D01*
G01*
X164562500Y-97875000D01*
G75*
G02*
X164312500Y-97625000I0J250000D01*
G01*
X164312500Y-96375000D01*
G75*
G02*
X164562500Y-96125000I250000J0D01*
G01*
X165487500Y-96125000D01*
G75*
G02*
X165737500Y-96375000I0J-250000D01*
G01*
G37*
G36*
G01*
X168712500Y-96375000D02*
X168712500Y-97625000D01*
G75*
G02*
X168462500Y-97875000I-250000J0D01*
G01*
X167537500Y-97875000D01*
G75*
G02*
X167287500Y-97625000I0J250000D01*
G01*
X167287500Y-96375000D01*
G75*
G02*
X167537500Y-96125000I250000J0D01*
G01*
X168462500Y-96125000D01*
G75*
G02*
X168712500Y-96375000I0J-250000D01*
G01*
G37*
G36*
G01*
X168375000Y-95212500D02*
X167125000Y-95212500D01*
G75*
G02*
X166875000Y-94962500I0J250000D01*
G01*
X166875000Y-94037500D01*
G75*
G02*
X167125000Y-93787500I250000J0D01*
G01*
X168375000Y-93787500D01*
G75*
G02*
X168625000Y-94037500I0J-250000D01*
G01*
X168625000Y-94962500D01*
G75*
G02*
X168375000Y-95212500I-250000J0D01*
G01*
G37*
G36*
G01*
X168375000Y-92237500D02*
X167125000Y-92237500D01*
G75*
G02*
X166875000Y-91987500I0J250000D01*
G01*
X166875000Y-91062500D01*
G75*
G02*
X167125000Y-90812500I250000J0D01*
G01*
X168375000Y-90812500D01*
G75*
G02*
X168625000Y-91062500I0J-250000D01*
G01*
X168625000Y-91987500D01*
G75*
G02*
X168375000Y-92237500I-250000J0D01*
G01*
G37*
G36*
G01*
X165737500Y-101125000D02*
X165737500Y-102375000D01*
G75*
G02*
X165487500Y-102625000I-250000J0D01*
G01*
X164562500Y-102625000D01*
G75*
G02*
X164312500Y-102375000I0J250000D01*
G01*
X164312500Y-101125000D01*
G75*
G02*
X164562500Y-100875000I250000J0D01*
G01*
X165487500Y-100875000D01*
G75*
G02*
X165737500Y-101125000I0J-250000D01*
G01*
G37*
G36*
G01*
X168712500Y-101125000D02*
X168712500Y-102375000D01*
G75*
G02*
X168462500Y-102625000I-250000J0D01*
G01*
X167537500Y-102625000D01*
G75*
G02*
X167287500Y-102375000I0J250000D01*
G01*
X167287500Y-101125000D01*
G75*
G02*
X167537500Y-100875000I250000J0D01*
G01*
X168462500Y-100875000D01*
G75*
G02*
X168712500Y-101125000I0J-250000D01*
G01*
G37*
G36*
G01*
X167125000Y-103537500D02*
X168375000Y-103537500D01*
G75*
G02*
X168625000Y-103787500I0J-250000D01*
G01*
X168625000Y-104712500D01*
G75*
G02*
X168375000Y-104962500I-250000J0D01*
G01*
X167125000Y-104962500D01*
G75*
G02*
X166875000Y-104712500I0J250000D01*
G01*
X166875000Y-103787500D01*
G75*
G02*
X167125000Y-103537500I250000J0D01*
G01*
G37*
G36*
G01*
X167125000Y-106512500D02*
X168375000Y-106512500D01*
G75*
G02*
X168625000Y-106762500I0J-250000D01*
G01*
X168625000Y-107687500D01*
G75*
G02*
X168375000Y-107937500I-250000J0D01*
G01*
X167125000Y-107937500D01*
G75*
G02*
X166875000Y-107687500I0J250000D01*
G01*
X166875000Y-106762500D01*
G75*
G02*
X167125000Y-106512500I250000J0D01*
G01*
G37*
G36*
G01*
X140462500Y-143875000D02*
X140462500Y-145125000D01*
G75*
G02*
X140212500Y-145375000I-250000J0D01*
G01*
X139287500Y-145375000D01*
G75*
G02*
X139037500Y-145125000I0J250000D01*
G01*
X139037500Y-143875000D01*
G75*
G02*
X139287500Y-143625000I250000J0D01*
G01*
X140212500Y-143625000D01*
G75*
G02*
X140462500Y-143875000I0J-250000D01*
G01*
G37*
G36*
G01*
X143437500Y-143875000D02*
X143437500Y-145125000D01*
G75*
G02*
X143187500Y-145375000I-250000J0D01*
G01*
X142262500Y-145375000D01*
G75*
G02*
X142012500Y-145125000I0J250000D01*
G01*
X142012500Y-143875000D01*
G75*
G02*
X142262500Y-143625000I250000J0D01*
G01*
X143187500Y-143625000D01*
G75*
G02*
X143437500Y-143875000I0J-250000D01*
G01*
G37*
G36*
G01*
X140125000Y-137462500D02*
X138875000Y-137462500D01*
G75*
G02*
X138625000Y-137212500I0J250000D01*
G01*
X138625000Y-136287500D01*
G75*
G02*
X138875000Y-136037500I250000J0D01*
G01*
X140125000Y-136037500D01*
G75*
G02*
X140375000Y-136287500I0J-250000D01*
G01*
X140375000Y-137212500D01*
G75*
G02*
X140125000Y-137462500I-250000J0D01*
G01*
G37*
G36*
G01*
X140125000Y-134487500D02*
X138875000Y-134487500D01*
G75*
G02*
X138625000Y-134237500I0J250000D01*
G01*
X138625000Y-133312500D01*
G75*
G02*
X138875000Y-133062500I250000J0D01*
G01*
X140125000Y-133062500D01*
G75*
G02*
X140375000Y-133312500I0J-250000D01*
G01*
X140375000Y-134237500D01*
G75*
G02*
X140125000Y-134487500I-250000J0D01*
G01*
G37*
G36*
G01*
X139037500Y-147625000D02*
X139037500Y-146375000D01*
G75*
G02*
X139287500Y-146125000I250000J0D01*
G01*
X140212500Y-146125000D01*
G75*
G02*
X140462500Y-146375000I0J-250000D01*
G01*
X140462500Y-147625000D01*
G75*
G02*
X140212500Y-147875000I-250000J0D01*
G01*
X139287500Y-147875000D01*
G75*
G02*
X139037500Y-147625000I0J250000D01*
G01*
G37*
G36*
G01*
X142012500Y-147625000D02*
X142012500Y-146375000D01*
G75*
G02*
X142262500Y-146125000I250000J0D01*
G01*
X143187500Y-146125000D01*
G75*
G02*
X143437500Y-146375000I0J-250000D01*
G01*
X143437500Y-147625000D01*
G75*
G02*
X143187500Y-147875000I-250000J0D01*
G01*
X142262500Y-147875000D01*
G75*
G02*
X142012500Y-147625000I0J250000D01*
G01*
G37*
X101960000Y-86000000D03*
X105000000Y-86000000D03*
X170000000Y-86000000D03*
X166960000Y-86000000D03*
X108460000Y-86000000D03*
X111500000Y-86000000D03*
X160460000Y-86000000D03*
X163500000Y-86000000D03*
X114960000Y-86000000D03*
X118000000Y-86000000D03*
X121460000Y-86000000D03*
X124500000Y-86000000D03*
X150500000Y-86000000D03*
X147460000Y-86000000D03*
X131000000Y-86000000D03*
X127960000Y-86000000D03*
X144000000Y-86000000D03*
X140960000Y-86000000D03*
X137500000Y-86000000D03*
X134460000Y-86000000D03*
G36*
G01*
X164375000Y-146787500D02*
X165625000Y-146787500D01*
G75*
G02*
X165875000Y-147037500I0J-250000D01*
G01*
X165875000Y-147962500D01*
G75*
G02*
X165625000Y-148212500I-250000J0D01*
G01*
X164375000Y-148212500D01*
G75*
G02*
X164125000Y-147962500I0J250000D01*
G01*
X164125000Y-147037500D01*
G75*
G02*
X164375000Y-146787500I250000J0D01*
G01*
G37*
G36*
G01*
X164375000Y-143812500D02*
X165625000Y-143812500D01*
G75*
G02*
X165875000Y-144062500I0J-250000D01*
G01*
X165875000Y-144987500D01*
G75*
G02*
X165625000Y-145237500I-250000J0D01*
G01*
X164375000Y-145237500D01*
G75*
G02*
X164125000Y-144987500I0J250000D01*
G01*
X164125000Y-144062500D01*
G75*
G02*
X164375000Y-143812500I250000J0D01*
G01*
G37*
G36*
G01*
X149375000Y-130812500D02*
X150625000Y-130812500D01*
G75*
G02*
X150875000Y-131062500I0J-250000D01*
G01*
X150875000Y-131987500D01*
G75*
G02*
X150625000Y-132237500I-250000J0D01*
G01*
X149375000Y-132237500D01*
G75*
G02*
X149125000Y-131987500I0J250000D01*
G01*
X149125000Y-131062500D01*
G75*
G02*
X149375000Y-130812500I250000J0D01*
G01*
G37*
G36*
G01*
X149375000Y-133787500D02*
X150625000Y-133787500D01*
G75*
G02*
X150875000Y-134037500I0J-250000D01*
G01*
X150875000Y-134962500D01*
G75*
G02*
X150625000Y-135212500I-250000J0D01*
G01*
X149375000Y-135212500D01*
G75*
G02*
X149125000Y-134962500I0J250000D01*
G01*
X149125000Y-134037500D01*
G75*
G02*
X149375000Y-133787500I250000J0D01*
G01*
G37*
G36*
G01*
X165625000Y-107937500D02*
X164375000Y-107937500D01*
G75*
G02*
X164125000Y-107687500I0J250000D01*
G01*
X164125000Y-106762500D01*
G75*
G02*
X164375000Y-106512500I250000J0D01*
G01*
X165625000Y-106512500D01*
G75*
G02*
X165875000Y-106762500I0J-250000D01*
G01*
X165875000Y-107687500D01*
G75*
G02*
X165625000Y-107937500I-250000J0D01*
G01*
G37*
G36*
G01*
X165625000Y-104962500D02*
X164375000Y-104962500D01*
G75*
G02*
X164125000Y-104712500I0J250000D01*
G01*
X164125000Y-103787500D01*
G75*
G02*
X164375000Y-103537500I250000J0D01*
G01*
X165625000Y-103537500D01*
G75*
G02*
X165875000Y-103787500I0J-250000D01*
G01*
X165875000Y-104712500D01*
G75*
G02*
X165625000Y-104962500I-250000J0D01*
G01*
G37*
G36*
G01*
X161625000Y-146787500D02*
X162875000Y-146787500D01*
G75*
G02*
X163125000Y-147037500I0J-250000D01*
G01*
X163125000Y-147962500D01*
G75*
G02*
X162875000Y-148212500I-250000J0D01*
G01*
X161625000Y-148212500D01*
G75*
G02*
X161375000Y-147962500I0J250000D01*
G01*
X161375000Y-147037500D01*
G75*
G02*
X161625000Y-146787500I250000J0D01*
G01*
G37*
G36*
G01*
X161625000Y-143812500D02*
X162875000Y-143812500D01*
G75*
G02*
X163125000Y-144062500I0J-250000D01*
G01*
X163125000Y-144987500D01*
G75*
G02*
X162875000Y-145237500I-250000J0D01*
G01*
X161625000Y-145237500D01*
G75*
G02*
X161375000Y-144987500I0J250000D01*
G01*
X161375000Y-144062500D01*
G75*
G02*
X161625000Y-143812500I250000J0D01*
G01*
G37*
G36*
G01*
X144375000Y-130787500D02*
X145625000Y-130787500D01*
G75*
G02*
X145875000Y-131037500I0J-250000D01*
G01*
X145875000Y-131962500D01*
G75*
G02*
X145625000Y-132212500I-250000J0D01*
G01*
X144375000Y-132212500D01*
G75*
G02*
X144125000Y-131962500I0J250000D01*
G01*
X144125000Y-131037500D01*
G75*
G02*
X144375000Y-130787500I250000J0D01*
G01*
G37*
G36*
G01*
X144375000Y-133762500D02*
X145625000Y-133762500D01*
G75*
G02*
X145875000Y-134012500I0J-250000D01*
G01*
X145875000Y-134937500D01*
G75*
G02*
X145625000Y-135187500I-250000J0D01*
G01*
X144375000Y-135187500D01*
G75*
G02*
X144125000Y-134937500I0J250000D01*
G01*
X144125000Y-134012500D01*
G75*
G02*
X144375000Y-133762500I250000J0D01*
G01*
G37*
G36*
G01*
X105187500Y-98725000D02*
X105187500Y-99975000D01*
G75*
G02*
X104937500Y-100225000I-250000J0D01*
G01*
X104012500Y-100225000D01*
G75*
G02*
X103762500Y-99975000I0J250000D01*
G01*
X103762500Y-98725000D01*
G75*
G02*
X104012500Y-98475000I250000J0D01*
G01*
X104937500Y-98475000D01*
G75*
G02*
X105187500Y-98725000I0J-250000D01*
G01*
G37*
G36*
G01*
X102212500Y-98725000D02*
X102212500Y-99975000D01*
G75*
G02*
X101962500Y-100225000I-250000J0D01*
G01*
X101037500Y-100225000D01*
G75*
G02*
X100787500Y-99975000I0J250000D01*
G01*
X100787500Y-98725000D01*
G75*
G02*
X101037500Y-98475000I250000J0D01*
G01*
X101962500Y-98475000D01*
G75*
G02*
X102212500Y-98725000I0J-250000D01*
G01*
G37*
G36*
G01*
X135962500Y-98725000D02*
X135962500Y-99975000D01*
G75*
G02*
X135712500Y-100225000I-250000J0D01*
G01*
X134787500Y-100225000D01*
G75*
G02*
X134537500Y-99975000I0J250000D01*
G01*
X134537500Y-98725000D01*
G75*
G02*
X134787500Y-98475000I250000J0D01*
G01*
X135712500Y-98475000D01*
G75*
G02*
X135962500Y-98725000I0J-250000D01*
G01*
G37*
G36*
G01*
X132987500Y-98725000D02*
X132987500Y-99975000D01*
G75*
G02*
X132737500Y-100225000I-250000J0D01*
G01*
X131812500Y-100225000D01*
G75*
G02*
X131562500Y-99975000I0J250000D01*
G01*
X131562500Y-98725000D01*
G75*
G02*
X131812500Y-98475000I250000J0D01*
G01*
X132737500Y-98475000D01*
G75*
G02*
X132987500Y-98725000I0J-250000D01*
G01*
G37*
G36*
G01*
X164537500Y-98725000D02*
X164537500Y-99975000D01*
G75*
G02*
X164287500Y-100225000I-250000J0D01*
G01*
X163362500Y-100225000D01*
G75*
G02*
X163112500Y-99975000I0J250000D01*
G01*
X163112500Y-98725000D01*
G75*
G02*
X163362500Y-98475000I250000J0D01*
G01*
X164287500Y-98475000D01*
G75*
G02*
X164537500Y-98725000I0J-250000D01*
G01*
G37*
G36*
G01*
X167512500Y-98725000D02*
X167512500Y-99975000D01*
G75*
G02*
X167262500Y-100225000I-250000J0D01*
G01*
X166337500Y-100225000D01*
G75*
G02*
X166087500Y-99975000I0J250000D01*
G01*
X166087500Y-98725000D01*
G75*
G02*
X166337500Y-98475000I250000J0D01*
G01*
X167262500Y-98475000D01*
G75*
G02*
X167512500Y-98725000I0J-250000D01*
G01*
G37*
D11*
X101000000Y-117960000D03*
X101000000Y-121000000D03*
G36*
G01*
X107787500Y-74625000D02*
X107787500Y-73375000D01*
G75*
G02*
X108037500Y-73125000I250000J0D01*
G01*
X108962500Y-73125000D01*
G75*
G02*
X109212500Y-73375000I0J-250000D01*
G01*
X109212500Y-74625000D01*
G75*
G02*
X108962500Y-74875000I-250000J0D01*
G01*
X108037500Y-74875000D01*
G75*
G02*
X107787500Y-74625000I0J250000D01*
G01*
G37*
G36*
G01*
X110762500Y-74625000D02*
X110762500Y-73375000D01*
G75*
G02*
X111012500Y-73125000I250000J0D01*
G01*
X111937500Y-73125000D01*
G75*
G02*
X112187500Y-73375000I0J-250000D01*
G01*
X112187500Y-74625000D01*
G75*
G02*
X111937500Y-74875000I-250000J0D01*
G01*
X111012500Y-74875000D01*
G75*
G02*
X110762500Y-74625000I0J250000D01*
G01*
G37*
G36*
G01*
X113687500Y-137625000D02*
X113687500Y-138875000D01*
G75*
G02*
X113437500Y-139125000I-250000J0D01*
G01*
X112512500Y-139125000D01*
G75*
G02*
X112262500Y-138875000I0J250000D01*
G01*
X112262500Y-137625000D01*
G75*
G02*
X112512500Y-137375000I250000J0D01*
G01*
X113437500Y-137375000D01*
G75*
G02*
X113687500Y-137625000I0J-250000D01*
G01*
G37*
G36*
G01*
X110712500Y-137625000D02*
X110712500Y-138875000D01*
G75*
G02*
X110462500Y-139125000I-250000J0D01*
G01*
X109537500Y-139125000D01*
G75*
G02*
X109287500Y-138875000I0J250000D01*
G01*
X109287500Y-137625000D01*
G75*
G02*
X109537500Y-137375000I250000J0D01*
G01*
X110462500Y-137375000D01*
G75*
G02*
X110712500Y-137625000I0J-250000D01*
G01*
G37*
G36*
G01*
X110712500Y-140875000D02*
X110712500Y-142125000D01*
G75*
G02*
X110462500Y-142375000I-250000J0D01*
G01*
X109537500Y-142375000D01*
G75*
G02*
X109287500Y-142125000I0J250000D01*
G01*
X109287500Y-140875000D01*
G75*
G02*
X109537500Y-140625000I250000J0D01*
G01*
X110462500Y-140625000D01*
G75*
G02*
X110712500Y-140875000I0J-250000D01*
G01*
G37*
G36*
G01*
X113687500Y-140875000D02*
X113687500Y-142125000D01*
G75*
G02*
X113437500Y-142375000I-250000J0D01*
G01*
X112512500Y-142375000D01*
G75*
G02*
X112262500Y-142125000I0J250000D01*
G01*
X112262500Y-140875000D01*
G75*
G02*
X112512500Y-140625000I250000J0D01*
G01*
X113437500Y-140625000D01*
G75*
G02*
X113687500Y-140875000I0J-250000D01*
G01*
G37*
G36*
G01*
X150375000Y-142437500D02*
X149125000Y-142437500D01*
G75*
G02*
X148875000Y-142187500I0J250000D01*
G01*
X148875000Y-141262500D01*
G75*
G02*
X149125000Y-141012500I250000J0D01*
G01*
X150375000Y-141012500D01*
G75*
G02*
X150625000Y-141262500I0J-250000D01*
G01*
X150625000Y-142187500D01*
G75*
G02*
X150375000Y-142437500I-250000J0D01*
G01*
G37*
G36*
G01*
X150375000Y-139462500D02*
X149125000Y-139462500D01*
G75*
G02*
X148875000Y-139212500I0J250000D01*
G01*
X148875000Y-138287500D01*
G75*
G02*
X149125000Y-138037500I250000J0D01*
G01*
X150375000Y-138037500D01*
G75*
G02*
X150625000Y-138287500I0J-250000D01*
G01*
X150625000Y-139212500D01*
G75*
G02*
X150375000Y-139462500I-250000J0D01*
G01*
G37*
G36*
G01*
X151875000Y-133787500D02*
X153125000Y-133787500D01*
G75*
G02*
X153375000Y-134037500I0J-250000D01*
G01*
X153375000Y-134962500D01*
G75*
G02*
X153125000Y-135212500I-250000J0D01*
G01*
X151875000Y-135212500D01*
G75*
G02*
X151625000Y-134962500I0J250000D01*
G01*
X151625000Y-134037500D01*
G75*
G02*
X151875000Y-133787500I250000J0D01*
G01*
G37*
G36*
G01*
X151875000Y-130812500D02*
X153125000Y-130812500D01*
G75*
G02*
X153375000Y-131062500I0J-250000D01*
G01*
X153375000Y-131987500D01*
G75*
G02*
X153125000Y-132237500I-250000J0D01*
G01*
X151875000Y-132237500D01*
G75*
G02*
X151625000Y-131987500I0J250000D01*
G01*
X151625000Y-131062500D01*
G75*
G02*
X151875000Y-130812500I250000J0D01*
G01*
G37*
G36*
G01*
X113287500Y-127125000D02*
X113287500Y-125875000D01*
G75*
G02*
X113537500Y-125625000I250000J0D01*
G01*
X114462500Y-125625000D01*
G75*
G02*
X114712500Y-125875000I0J-250000D01*
G01*
X114712500Y-127125000D01*
G75*
G02*
X114462500Y-127375000I-250000J0D01*
G01*
X113537500Y-127375000D01*
G75*
G02*
X113287500Y-127125000I0J250000D01*
G01*
G37*
G36*
G01*
X116262500Y-127125000D02*
X116262500Y-125875000D01*
G75*
G02*
X116512500Y-125625000I250000J0D01*
G01*
X117437500Y-125625000D01*
G75*
G02*
X117687500Y-125875000I0J-250000D01*
G01*
X117687500Y-127125000D01*
G75*
G02*
X117437500Y-127375000I-250000J0D01*
G01*
X116512500Y-127375000D01*
G75*
G02*
X116262500Y-127125000I0J250000D01*
G01*
G37*
G36*
G01*
X125687500Y-125875000D02*
X125687500Y-127125000D01*
G75*
G02*
X125437500Y-127375000I-250000J0D01*
G01*
X124512500Y-127375000D01*
G75*
G02*
X124262500Y-127125000I0J250000D01*
G01*
X124262500Y-125875000D01*
G75*
G02*
X124512500Y-125625000I250000J0D01*
G01*
X125437500Y-125625000D01*
G75*
G02*
X125687500Y-125875000I0J-250000D01*
G01*
G37*
G36*
G01*
X122712500Y-125875000D02*
X122712500Y-127125000D01*
G75*
G02*
X122462500Y-127375000I-250000J0D01*
G01*
X121537500Y-127375000D01*
G75*
G02*
X121287500Y-127125000I0J250000D01*
G01*
X121287500Y-125875000D01*
G75*
G02*
X121537500Y-125625000I250000J0D01*
G01*
X122462500Y-125625000D01*
G75*
G02*
X122712500Y-125875000I0J-250000D01*
G01*
G37*
G36*
G01*
X131737500Y-64125000D02*
X131737500Y-65375000D01*
G75*
G02*
X131487500Y-65625000I-250000J0D01*
G01*
X130562500Y-65625000D01*
G75*
G02*
X130312500Y-65375000I0J250000D01*
G01*
X130312500Y-64125000D01*
G75*
G02*
X130562500Y-63875000I250000J0D01*
G01*
X131487500Y-63875000D01*
G75*
G02*
X131737500Y-64125000I0J-250000D01*
G01*
G37*
G36*
G01*
X134712500Y-64125000D02*
X134712500Y-65375000D01*
G75*
G02*
X134462500Y-65625000I-250000J0D01*
G01*
X133537500Y-65625000D01*
G75*
G02*
X133287500Y-65375000I0J250000D01*
G01*
X133287500Y-64125000D01*
G75*
G02*
X133537500Y-63875000I250000J0D01*
G01*
X134462500Y-63875000D01*
G75*
G02*
X134712500Y-64125000I0J-250000D01*
G01*
G37*
G36*
G01*
X100550000Y-138245000D02*
X100550000Y-137945000D01*
G75*
G02*
X100700000Y-137795000I150000J0D01*
G01*
X102350000Y-137795000D01*
G75*
G02*
X102500000Y-137945000I0J-150000D01*
G01*
X102500000Y-138245000D01*
G75*
G02*
X102350000Y-138395000I-150000J0D01*
G01*
X100700000Y-138395000D01*
G75*
G02*
X100550000Y-138245000I0J150000D01*
G01*
G37*
G36*
G01*
X100550000Y-139515000D02*
X100550000Y-139215000D01*
G75*
G02*
X100700000Y-139065000I150000J0D01*
G01*
X102350000Y-139065000D01*
G75*
G02*
X102500000Y-139215000I0J-150000D01*
G01*
X102500000Y-139515000D01*
G75*
G02*
X102350000Y-139665000I-150000J0D01*
G01*
X100700000Y-139665000D01*
G75*
G02*
X100550000Y-139515000I0J150000D01*
G01*
G37*
G36*
G01*
X100550000Y-140785000D02*
X100550000Y-140485000D01*
G75*
G02*
X100700000Y-140335000I150000J0D01*
G01*
X102350000Y-140335000D01*
G75*
G02*
X102500000Y-140485000I0J-150000D01*
G01*
X102500000Y-140785000D01*
G75*
G02*
X102350000Y-140935000I-150000J0D01*
G01*
X100700000Y-140935000D01*
G75*
G02*
X100550000Y-140785000I0J150000D01*
G01*
G37*
G36*
G01*
X100550000Y-142055000D02*
X100550000Y-141755000D01*
G75*
G02*
X100700000Y-141605000I150000J0D01*
G01*
X102350000Y-141605000D01*
G75*
G02*
X102500000Y-141755000I0J-150000D01*
G01*
X102500000Y-142055000D01*
G75*
G02*
X102350000Y-142205000I-150000J0D01*
G01*
X100700000Y-142205000D01*
G75*
G02*
X100550000Y-142055000I0J150000D01*
G01*
G37*
G36*
G01*
X105500000Y-142055000D02*
X105500000Y-141755000D01*
G75*
G02*
X105650000Y-141605000I150000J0D01*
G01*
X107300000Y-141605000D01*
G75*
G02*
X107450000Y-141755000I0J-150000D01*
G01*
X107450000Y-142055000D01*
G75*
G02*
X107300000Y-142205000I-150000J0D01*
G01*
X105650000Y-142205000D01*
G75*
G02*
X105500000Y-142055000I0J150000D01*
G01*
G37*
G36*
G01*
X105500000Y-140785000D02*
X105500000Y-140485000D01*
G75*
G02*
X105650000Y-140335000I150000J0D01*
G01*
X107300000Y-140335000D01*
G75*
G02*
X107450000Y-140485000I0J-150000D01*
G01*
X107450000Y-140785000D01*
G75*
G02*
X107300000Y-140935000I-150000J0D01*
G01*
X105650000Y-140935000D01*
G75*
G02*
X105500000Y-140785000I0J150000D01*
G01*
G37*
G36*
G01*
X105500000Y-139515000D02*
X105500000Y-139215000D01*
G75*
G02*
X105650000Y-139065000I150000J0D01*
G01*
X107300000Y-139065000D01*
G75*
G02*
X107450000Y-139215000I0J-150000D01*
G01*
X107450000Y-139515000D01*
G75*
G02*
X107300000Y-139665000I-150000J0D01*
G01*
X105650000Y-139665000D01*
G75*
G02*
X105500000Y-139515000I0J150000D01*
G01*
G37*
G36*
G01*
X105500000Y-138245000D02*
X105500000Y-137945000D01*
G75*
G02*
X105650000Y-137795000I150000J0D01*
G01*
X107300000Y-137795000D01*
G75*
G02*
X107450000Y-137945000I0J-150000D01*
G01*
X107450000Y-138245000D01*
G75*
G02*
X107300000Y-138395000I-150000J0D01*
G01*
X105650000Y-138395000D01*
G75*
G02*
X105500000Y-138245000I0J150000D01*
G01*
G37*
D12*
X142300000Y-136750000D03*
X142300000Y-137250000D03*
X142300000Y-137750000D03*
X142300000Y-138250000D03*
X142300000Y-138750000D03*
X146700000Y-138750000D03*
X146700000Y-138250000D03*
X146700000Y-137750000D03*
X146700000Y-137250000D03*
X146700000Y-136750000D03*
M02*
