G04 #@! TF.GenerationSoftware,KiCad,Pcbnew,(5.1.6)-1*
G04 #@! TF.CreationDate,2021-05-10T16:45:54-07:00*
G04 #@! TF.ProjectId,NiCd Battery Tester PCB Rev 3,4e694364-2042-4617-9474-657279205465,V2*
G04 #@! TF.SameCoordinates,Original*
G04 #@! TF.FileFunction,Legend,Bot*
G04 #@! TF.FilePolarity,Positive*
%FSLAX46Y46*%
G04 Gerber Fmt 4.6, Leading zero omitted, Abs format (unit mm)*
G04 Created by KiCad (PCBNEW (5.1.6)-1) date 2021-05-10 16:45:54*
%MOMM*%
%LPD*%
G01*
G04 APERTURE LIST*
%ADD10C,0.150000*%
%ADD11C,0.120000*%
G04 APERTURE END LIST*
D10*
X92190476Y-96452380D02*
X92000000Y-96452380D01*
X91904761Y-96404761D01*
X91857142Y-96357142D01*
X91761904Y-96214285D01*
X91714285Y-96023809D01*
X91714285Y-95642857D01*
X91761904Y-95547619D01*
X91809523Y-95500000D01*
X91904761Y-95452380D01*
X92095238Y-95452380D01*
X92190476Y-95500000D01*
X92238095Y-95547619D01*
X92285714Y-95642857D01*
X92285714Y-95880952D01*
X92238095Y-95976190D01*
X92190476Y-96023809D01*
X92095238Y-96071428D01*
X91904761Y-96071428D01*
X91809523Y-96023809D01*
X91761904Y-95976190D01*
X91714285Y-95880952D01*
X92190476Y-76452380D02*
X92761904Y-76452380D01*
X92476190Y-76452380D02*
X92476190Y-75452380D01*
X92571428Y-75595238D01*
X92666666Y-75690476D01*
X92761904Y-75738095D01*
X91285714Y-75452380D02*
X91761904Y-75452380D01*
X91809523Y-75928571D01*
X91761904Y-75880952D01*
X91666666Y-75833333D01*
X91428571Y-75833333D01*
X91333333Y-75880952D01*
X91285714Y-75928571D01*
X91238095Y-76023809D01*
X91238095Y-76261904D01*
X91285714Y-76357142D01*
X91333333Y-76404761D01*
X91428571Y-76452380D01*
X91666666Y-76452380D01*
X91761904Y-76404761D01*
X91809523Y-76357142D01*
X95095238Y-74380952D02*
X95190476Y-74333333D01*
X95238095Y-74285714D01*
X95285714Y-74190476D01*
X95285714Y-74142857D01*
X95238095Y-74047619D01*
X95190476Y-74000000D01*
X95095238Y-73952380D01*
X94904761Y-73952380D01*
X94809523Y-74000000D01*
X94761904Y-74047619D01*
X94714285Y-74142857D01*
X94714285Y-74190476D01*
X94761904Y-74285714D01*
X94809523Y-74333333D01*
X94904761Y-74380952D01*
X95095238Y-74380952D01*
X95190476Y-74428571D01*
X95238095Y-74476190D01*
X95285714Y-74571428D01*
X95285714Y-74761904D01*
X95238095Y-74857142D01*
X95190476Y-74904761D01*
X95095238Y-74952380D01*
X94904761Y-74952380D01*
X94809523Y-74904761D01*
X94761904Y-74857142D01*
X94714285Y-74761904D01*
X94714285Y-74571428D01*
X94761904Y-74476190D01*
X94809523Y-74428571D01*
X94904761Y-74380952D01*
X94714285Y-97952380D02*
X95285714Y-97952380D01*
X95000000Y-97952380D02*
X95000000Y-96952380D01*
X95095238Y-97095238D01*
X95190476Y-97190476D01*
X95285714Y-97238095D01*
D11*
X104500000Y-86000000D02*
X104500000Y-68000000D01*
X107000000Y-86000000D02*
X104000000Y-86000000D01*
X107000000Y-68000000D02*
X107000000Y-86000000D01*
X97000000Y-68000000D02*
X107000000Y-68000000D01*
X97000000Y-86000000D02*
X97000000Y-68000000D01*
X107000000Y-86000000D02*
X97000000Y-86000000D01*
D10*
X102797619Y-69107142D02*
X102845238Y-69154761D01*
X102988095Y-69202380D01*
X103083333Y-69202380D01*
X103226190Y-69154761D01*
X103321428Y-69059523D01*
X103369047Y-68964285D01*
X103416666Y-68773809D01*
X103416666Y-68630952D01*
X103369047Y-68440476D01*
X103321428Y-68345238D01*
X103226190Y-68250000D01*
X103083333Y-68202380D01*
X102988095Y-68202380D01*
X102845238Y-68250000D01*
X102797619Y-68297619D01*
X102369047Y-68678571D02*
X102035714Y-68678571D01*
X101892857Y-69202380D02*
X102369047Y-69202380D01*
X102369047Y-68202380D01*
X101892857Y-68202380D01*
X100988095Y-69202380D02*
X101464285Y-69202380D01*
X101464285Y-68202380D01*
X100178571Y-69202380D02*
X100654761Y-69202380D01*
X100654761Y-68202380D01*
X99321428Y-69202380D02*
X99892857Y-69202380D01*
X99607142Y-69202380D02*
X99607142Y-68202380D01*
X99702380Y-68345238D01*
X99797619Y-68440476D01*
X99892857Y-68488095D01*
X98892857Y-68821428D02*
X98130952Y-68821428D01*
X98511904Y-69202380D02*
X98511904Y-68440476D01*
X102797619Y-70757142D02*
X102845238Y-70804761D01*
X102988095Y-70852380D01*
X103083333Y-70852380D01*
X103226190Y-70804761D01*
X103321428Y-70709523D01*
X103369047Y-70614285D01*
X103416666Y-70423809D01*
X103416666Y-70280952D01*
X103369047Y-70090476D01*
X103321428Y-69995238D01*
X103226190Y-69900000D01*
X103083333Y-69852380D01*
X102988095Y-69852380D01*
X102845238Y-69900000D01*
X102797619Y-69947619D01*
X102369047Y-70328571D02*
X102035714Y-70328571D01*
X101892857Y-70852380D02*
X102369047Y-70852380D01*
X102369047Y-69852380D01*
X101892857Y-69852380D01*
X100988095Y-70852380D02*
X101464285Y-70852380D01*
X101464285Y-69852380D01*
X100178571Y-70852380D02*
X100654761Y-70852380D01*
X100654761Y-69852380D01*
X99892857Y-69947619D02*
X99845238Y-69900000D01*
X99750000Y-69852380D01*
X99511904Y-69852380D01*
X99416666Y-69900000D01*
X99369047Y-69947619D01*
X99321428Y-70042857D01*
X99321428Y-70138095D01*
X99369047Y-70280952D01*
X99940476Y-70852380D01*
X99321428Y-70852380D01*
X98892857Y-70471428D02*
X98130952Y-70471428D01*
X98511904Y-70852380D02*
X98511904Y-70090476D01*
X102797619Y-72407142D02*
X102845238Y-72454761D01*
X102988095Y-72502380D01*
X103083333Y-72502380D01*
X103226190Y-72454761D01*
X103321428Y-72359523D01*
X103369047Y-72264285D01*
X103416666Y-72073809D01*
X103416666Y-71930952D01*
X103369047Y-71740476D01*
X103321428Y-71645238D01*
X103226190Y-71550000D01*
X103083333Y-71502380D01*
X102988095Y-71502380D01*
X102845238Y-71550000D01*
X102797619Y-71597619D01*
X102369047Y-71978571D02*
X102035714Y-71978571D01*
X101892857Y-72502380D02*
X102369047Y-72502380D01*
X102369047Y-71502380D01*
X101892857Y-71502380D01*
X100988095Y-72502380D02*
X101464285Y-72502380D01*
X101464285Y-71502380D01*
X100178571Y-72502380D02*
X100654761Y-72502380D01*
X100654761Y-71502380D01*
X99940476Y-71502380D02*
X99321428Y-71502380D01*
X99654761Y-71883333D01*
X99511904Y-71883333D01*
X99416666Y-71930952D01*
X99369047Y-71978571D01*
X99321428Y-72073809D01*
X99321428Y-72311904D01*
X99369047Y-72407142D01*
X99416666Y-72454761D01*
X99511904Y-72502380D01*
X99797619Y-72502380D01*
X99892857Y-72454761D01*
X99940476Y-72407142D01*
X98892857Y-72121428D02*
X98130952Y-72121428D01*
X98511904Y-72502380D02*
X98511904Y-71740476D01*
X102797619Y-74057142D02*
X102845238Y-74104761D01*
X102988095Y-74152380D01*
X103083333Y-74152380D01*
X103226190Y-74104761D01*
X103321428Y-74009523D01*
X103369047Y-73914285D01*
X103416666Y-73723809D01*
X103416666Y-73580952D01*
X103369047Y-73390476D01*
X103321428Y-73295238D01*
X103226190Y-73200000D01*
X103083333Y-73152380D01*
X102988095Y-73152380D01*
X102845238Y-73200000D01*
X102797619Y-73247619D01*
X102369047Y-73628571D02*
X102035714Y-73628571D01*
X101892857Y-74152380D02*
X102369047Y-74152380D01*
X102369047Y-73152380D01*
X101892857Y-73152380D01*
X100988095Y-74152380D02*
X101464285Y-74152380D01*
X101464285Y-73152380D01*
X100178571Y-74152380D02*
X100654761Y-74152380D01*
X100654761Y-73152380D01*
X99416666Y-73485714D02*
X99416666Y-74152380D01*
X99654761Y-73104761D02*
X99892857Y-73819047D01*
X99273809Y-73819047D01*
X98892857Y-73771428D02*
X98130952Y-73771428D01*
X98511904Y-74152380D02*
X98511904Y-73390476D01*
X102797619Y-75707142D02*
X102845238Y-75754761D01*
X102988095Y-75802380D01*
X103083333Y-75802380D01*
X103226190Y-75754761D01*
X103321428Y-75659523D01*
X103369047Y-75564285D01*
X103416666Y-75373809D01*
X103416666Y-75230952D01*
X103369047Y-75040476D01*
X103321428Y-74945238D01*
X103226190Y-74850000D01*
X103083333Y-74802380D01*
X102988095Y-74802380D01*
X102845238Y-74850000D01*
X102797619Y-74897619D01*
X102369047Y-75278571D02*
X102035714Y-75278571D01*
X101892857Y-75802380D02*
X102369047Y-75802380D01*
X102369047Y-74802380D01*
X101892857Y-74802380D01*
X100988095Y-75802380D02*
X101464285Y-75802380D01*
X101464285Y-74802380D01*
X100178571Y-75802380D02*
X100654761Y-75802380D01*
X100654761Y-74802380D01*
X99369047Y-74802380D02*
X99845238Y-74802380D01*
X99892857Y-75278571D01*
X99845238Y-75230952D01*
X99750000Y-75183333D01*
X99511904Y-75183333D01*
X99416666Y-75230952D01*
X99369047Y-75278571D01*
X99321428Y-75373809D01*
X99321428Y-75611904D01*
X99369047Y-75707142D01*
X99416666Y-75754761D01*
X99511904Y-75802380D01*
X99750000Y-75802380D01*
X99845238Y-75754761D01*
X99892857Y-75707142D01*
X98892857Y-75421428D02*
X98130952Y-75421428D01*
X98511904Y-75802380D02*
X98511904Y-75040476D01*
X102797619Y-77357142D02*
X102845238Y-77404761D01*
X102988095Y-77452380D01*
X103083333Y-77452380D01*
X103226190Y-77404761D01*
X103321428Y-77309523D01*
X103369047Y-77214285D01*
X103416666Y-77023809D01*
X103416666Y-76880952D01*
X103369047Y-76690476D01*
X103321428Y-76595238D01*
X103226190Y-76500000D01*
X103083333Y-76452380D01*
X102988095Y-76452380D01*
X102845238Y-76500000D01*
X102797619Y-76547619D01*
X102369047Y-76928571D02*
X102035714Y-76928571D01*
X101892857Y-77452380D02*
X102369047Y-77452380D01*
X102369047Y-76452380D01*
X101892857Y-76452380D01*
X100988095Y-77452380D02*
X101464285Y-77452380D01*
X101464285Y-76452380D01*
X100178571Y-77452380D02*
X100654761Y-77452380D01*
X100654761Y-76452380D01*
X99416666Y-76452380D02*
X99607142Y-76452380D01*
X99702380Y-76500000D01*
X99750000Y-76547619D01*
X99845238Y-76690476D01*
X99892857Y-76880952D01*
X99892857Y-77261904D01*
X99845238Y-77357142D01*
X99797619Y-77404761D01*
X99702380Y-77452380D01*
X99511904Y-77452380D01*
X99416666Y-77404761D01*
X99369047Y-77357142D01*
X99321428Y-77261904D01*
X99321428Y-77023809D01*
X99369047Y-76928571D01*
X99416666Y-76880952D01*
X99511904Y-76833333D01*
X99702380Y-76833333D01*
X99797619Y-76880952D01*
X99845238Y-76928571D01*
X99892857Y-77023809D01*
X98892857Y-77071428D02*
X98130952Y-77071428D01*
X98511904Y-77452380D02*
X98511904Y-76690476D01*
X102797619Y-79007142D02*
X102845238Y-79054761D01*
X102988095Y-79102380D01*
X103083333Y-79102380D01*
X103226190Y-79054761D01*
X103321428Y-78959523D01*
X103369047Y-78864285D01*
X103416666Y-78673809D01*
X103416666Y-78530952D01*
X103369047Y-78340476D01*
X103321428Y-78245238D01*
X103226190Y-78150000D01*
X103083333Y-78102380D01*
X102988095Y-78102380D01*
X102845238Y-78150000D01*
X102797619Y-78197619D01*
X102369047Y-78578571D02*
X102035714Y-78578571D01*
X101892857Y-79102380D02*
X102369047Y-79102380D01*
X102369047Y-78102380D01*
X101892857Y-78102380D01*
X100988095Y-79102380D02*
X101464285Y-79102380D01*
X101464285Y-78102380D01*
X100178571Y-79102380D02*
X100654761Y-79102380D01*
X100654761Y-78102380D01*
X99940476Y-78102380D02*
X99273809Y-78102380D01*
X99702380Y-79102380D01*
X98892857Y-78721428D02*
X98130952Y-78721428D01*
X98511904Y-79102380D02*
X98511904Y-78340476D01*
X102797619Y-80657142D02*
X102845238Y-80704761D01*
X102988095Y-80752380D01*
X103083333Y-80752380D01*
X103226190Y-80704761D01*
X103321428Y-80609523D01*
X103369047Y-80514285D01*
X103416666Y-80323809D01*
X103416666Y-80180952D01*
X103369047Y-79990476D01*
X103321428Y-79895238D01*
X103226190Y-79800000D01*
X103083333Y-79752380D01*
X102988095Y-79752380D01*
X102845238Y-79800000D01*
X102797619Y-79847619D01*
X102369047Y-80228571D02*
X102035714Y-80228571D01*
X101892857Y-80752380D02*
X102369047Y-80752380D01*
X102369047Y-79752380D01*
X101892857Y-79752380D01*
X100988095Y-80752380D02*
X101464285Y-80752380D01*
X101464285Y-79752380D01*
X100178571Y-80752380D02*
X100654761Y-80752380D01*
X100654761Y-79752380D01*
X99702380Y-80180952D02*
X99797619Y-80133333D01*
X99845238Y-80085714D01*
X99892857Y-79990476D01*
X99892857Y-79942857D01*
X99845238Y-79847619D01*
X99797619Y-79800000D01*
X99702380Y-79752380D01*
X99511904Y-79752380D01*
X99416666Y-79800000D01*
X99369047Y-79847619D01*
X99321428Y-79942857D01*
X99321428Y-79990476D01*
X99369047Y-80085714D01*
X99416666Y-80133333D01*
X99511904Y-80180952D01*
X99702380Y-80180952D01*
X99797619Y-80228571D01*
X99845238Y-80276190D01*
X99892857Y-80371428D01*
X99892857Y-80561904D01*
X99845238Y-80657142D01*
X99797619Y-80704761D01*
X99702380Y-80752380D01*
X99511904Y-80752380D01*
X99416666Y-80704761D01*
X99369047Y-80657142D01*
X99321428Y-80561904D01*
X99321428Y-80371428D01*
X99369047Y-80276190D01*
X99416666Y-80228571D01*
X99511904Y-80180952D01*
X98892857Y-80371428D02*
X98130952Y-80371428D01*
X98511904Y-80752380D02*
X98511904Y-79990476D01*
X102797619Y-82307142D02*
X102845238Y-82354761D01*
X102988095Y-82402380D01*
X103083333Y-82402380D01*
X103226190Y-82354761D01*
X103321428Y-82259523D01*
X103369047Y-82164285D01*
X103416666Y-81973809D01*
X103416666Y-81830952D01*
X103369047Y-81640476D01*
X103321428Y-81545238D01*
X103226190Y-81450000D01*
X103083333Y-81402380D01*
X102988095Y-81402380D01*
X102845238Y-81450000D01*
X102797619Y-81497619D01*
X102369047Y-81878571D02*
X102035714Y-81878571D01*
X101892857Y-82402380D02*
X102369047Y-82402380D01*
X102369047Y-81402380D01*
X101892857Y-81402380D01*
X100988095Y-82402380D02*
X101464285Y-82402380D01*
X101464285Y-81402380D01*
X100178571Y-82402380D02*
X100654761Y-82402380D01*
X100654761Y-81402380D01*
X99797619Y-82402380D02*
X99607142Y-82402380D01*
X99511904Y-82354761D01*
X99464285Y-82307142D01*
X99369047Y-82164285D01*
X99321428Y-81973809D01*
X99321428Y-81592857D01*
X99369047Y-81497619D01*
X99416666Y-81450000D01*
X99511904Y-81402380D01*
X99702380Y-81402380D01*
X99797619Y-81450000D01*
X99845238Y-81497619D01*
X99892857Y-81592857D01*
X99892857Y-81830952D01*
X99845238Y-81926190D01*
X99797619Y-81973809D01*
X99702380Y-82021428D01*
X99511904Y-82021428D01*
X99416666Y-81973809D01*
X99369047Y-81926190D01*
X99321428Y-81830952D01*
X98892857Y-82021428D02*
X98130952Y-82021428D01*
X98511904Y-82402380D02*
X98511904Y-81640476D01*
X103273809Y-83957142D02*
X103321428Y-84004761D01*
X103464285Y-84052380D01*
X103559523Y-84052380D01*
X103702380Y-84004761D01*
X103797619Y-83909523D01*
X103845238Y-83814285D01*
X103892857Y-83623809D01*
X103892857Y-83480952D01*
X103845238Y-83290476D01*
X103797619Y-83195238D01*
X103702380Y-83100000D01*
X103559523Y-83052380D01*
X103464285Y-83052380D01*
X103321428Y-83100000D01*
X103273809Y-83147619D01*
X102845238Y-83528571D02*
X102511904Y-83528571D01*
X102369047Y-84052380D02*
X102845238Y-84052380D01*
X102845238Y-83052380D01*
X102369047Y-83052380D01*
X101464285Y-84052380D02*
X101940476Y-84052380D01*
X101940476Y-83052380D01*
X100654761Y-84052380D02*
X101130952Y-84052380D01*
X101130952Y-83052380D01*
X99797619Y-84052380D02*
X100369047Y-84052380D01*
X100083333Y-84052380D02*
X100083333Y-83052380D01*
X100178571Y-83195238D01*
X100273809Y-83290476D01*
X100369047Y-83338095D01*
X99178571Y-83052380D02*
X99083333Y-83052380D01*
X98988095Y-83100000D01*
X98940476Y-83147619D01*
X98892857Y-83242857D01*
X98845238Y-83433333D01*
X98845238Y-83671428D01*
X98892857Y-83861904D01*
X98940476Y-83957142D01*
X98988095Y-84004761D01*
X99083333Y-84052380D01*
X99178571Y-84052380D01*
X99273809Y-84004761D01*
X99321428Y-83957142D01*
X99369047Y-83861904D01*
X99416666Y-83671428D01*
X99416666Y-83433333D01*
X99369047Y-83242857D01*
X99321428Y-83147619D01*
X99273809Y-83100000D01*
X99178571Y-83052380D01*
X98416666Y-83671428D02*
X97654761Y-83671428D01*
X98035714Y-84052380D02*
X98035714Y-83290476D01*
X103273809Y-85607142D02*
X103321428Y-85654761D01*
X103464285Y-85702380D01*
X103559523Y-85702380D01*
X103702380Y-85654761D01*
X103797619Y-85559523D01*
X103845238Y-85464285D01*
X103892857Y-85273809D01*
X103892857Y-85130952D01*
X103845238Y-84940476D01*
X103797619Y-84845238D01*
X103702380Y-84750000D01*
X103559523Y-84702380D01*
X103464285Y-84702380D01*
X103321428Y-84750000D01*
X103273809Y-84797619D01*
X102845238Y-85178571D02*
X102511904Y-85178571D01*
X102369047Y-85702380D02*
X102845238Y-85702380D01*
X102845238Y-84702380D01*
X102369047Y-84702380D01*
X101464285Y-85702380D02*
X101940476Y-85702380D01*
X101940476Y-84702380D01*
X100654761Y-85702380D02*
X101130952Y-85702380D01*
X101130952Y-84702380D01*
X99797619Y-85702380D02*
X100369047Y-85702380D01*
X100083333Y-85702380D02*
X100083333Y-84702380D01*
X100178571Y-84845238D01*
X100273809Y-84940476D01*
X100369047Y-84988095D01*
X99178571Y-84702380D02*
X99083333Y-84702380D01*
X98988095Y-84750000D01*
X98940476Y-84797619D01*
X98892857Y-84892857D01*
X98845238Y-85083333D01*
X98845238Y-85321428D01*
X98892857Y-85511904D01*
X98940476Y-85607142D01*
X98988095Y-85654761D01*
X99083333Y-85702380D01*
X99178571Y-85702380D01*
X99273809Y-85654761D01*
X99321428Y-85607142D01*
X99369047Y-85511904D01*
X99416666Y-85321428D01*
X99416666Y-85083333D01*
X99369047Y-84892857D01*
X99321428Y-84797619D01*
X99273809Y-84750000D01*
X99178571Y-84702380D01*
X98416666Y-85321428D02*
X97654761Y-85321428D01*
X105464285Y-69202380D02*
X106035714Y-69202380D01*
X105750000Y-69202380D02*
X105750000Y-68202380D01*
X105845238Y-68345238D01*
X105940476Y-68440476D01*
X106035714Y-68488095D01*
X106035714Y-69947619D02*
X105988095Y-69900000D01*
X105892857Y-69852380D01*
X105654761Y-69852380D01*
X105559523Y-69900000D01*
X105511904Y-69947619D01*
X105464285Y-70042857D01*
X105464285Y-70138095D01*
X105511904Y-70280952D01*
X106083333Y-70852380D01*
X105464285Y-70852380D01*
X106083333Y-71502380D02*
X105464285Y-71502380D01*
X105797619Y-71883333D01*
X105654761Y-71883333D01*
X105559523Y-71930952D01*
X105511904Y-71978571D01*
X105464285Y-72073809D01*
X105464285Y-72311904D01*
X105511904Y-72407142D01*
X105559523Y-72454761D01*
X105654761Y-72502380D01*
X105940476Y-72502380D01*
X106035714Y-72454761D01*
X106083333Y-72407142D01*
X105559523Y-73485714D02*
X105559523Y-74152380D01*
X105797619Y-73104761D02*
X106035714Y-73819047D01*
X105416666Y-73819047D01*
X105511904Y-74802380D02*
X105988095Y-74802380D01*
X106035714Y-75278571D01*
X105988095Y-75230952D01*
X105892857Y-75183333D01*
X105654761Y-75183333D01*
X105559523Y-75230952D01*
X105511904Y-75278571D01*
X105464285Y-75373809D01*
X105464285Y-75611904D01*
X105511904Y-75707142D01*
X105559523Y-75754761D01*
X105654761Y-75802380D01*
X105892857Y-75802380D01*
X105988095Y-75754761D01*
X106035714Y-75707142D01*
X105559523Y-76452380D02*
X105750000Y-76452380D01*
X105845238Y-76500000D01*
X105892857Y-76547619D01*
X105988095Y-76690476D01*
X106035714Y-76880952D01*
X106035714Y-77261904D01*
X105988095Y-77357142D01*
X105940476Y-77404761D01*
X105845238Y-77452380D01*
X105654761Y-77452380D01*
X105559523Y-77404761D01*
X105511904Y-77357142D01*
X105464285Y-77261904D01*
X105464285Y-77023809D01*
X105511904Y-76928571D01*
X105559523Y-76880952D01*
X105654761Y-76833333D01*
X105845238Y-76833333D01*
X105940476Y-76880952D01*
X105988095Y-76928571D01*
X106035714Y-77023809D01*
X106083333Y-78102380D02*
X105416666Y-78102380D01*
X105845238Y-79102380D01*
X105845238Y-80180952D02*
X105940476Y-80133333D01*
X105988095Y-80085714D01*
X106035714Y-79990476D01*
X106035714Y-79942857D01*
X105988095Y-79847619D01*
X105940476Y-79800000D01*
X105845238Y-79752380D01*
X105654761Y-79752380D01*
X105559523Y-79800000D01*
X105511904Y-79847619D01*
X105464285Y-79942857D01*
X105464285Y-79990476D01*
X105511904Y-80085714D01*
X105559523Y-80133333D01*
X105654761Y-80180952D01*
X105845238Y-80180952D01*
X105940476Y-80228571D01*
X105988095Y-80276190D01*
X106035714Y-80371428D01*
X106035714Y-80561904D01*
X105988095Y-80657142D01*
X105940476Y-80704761D01*
X105845238Y-80752380D01*
X105654761Y-80752380D01*
X105559523Y-80704761D01*
X105511904Y-80657142D01*
X105464285Y-80561904D01*
X105464285Y-80371428D01*
X105511904Y-80276190D01*
X105559523Y-80228571D01*
X105654761Y-80180952D01*
X105940476Y-82402380D02*
X105750000Y-82402380D01*
X105654761Y-82354761D01*
X105607142Y-82307142D01*
X105511904Y-82164285D01*
X105464285Y-81973809D01*
X105464285Y-81592857D01*
X105511904Y-81497619D01*
X105559523Y-81450000D01*
X105654761Y-81402380D01*
X105845238Y-81402380D01*
X105940476Y-81450000D01*
X105988095Y-81497619D01*
X106035714Y-81592857D01*
X106035714Y-81830952D01*
X105988095Y-81926190D01*
X105940476Y-81973809D01*
X105845238Y-82021428D01*
X105654761Y-82021428D01*
X105559523Y-81973809D01*
X105511904Y-81926190D01*
X105464285Y-81830952D01*
X105940476Y-84052380D02*
X106511904Y-84052380D01*
X106226190Y-84052380D02*
X106226190Y-83052380D01*
X106321428Y-83195238D01*
X106416666Y-83290476D01*
X106511904Y-83338095D01*
X105321428Y-83052380D02*
X105226190Y-83052380D01*
X105130952Y-83100000D01*
X105083333Y-83147619D01*
X105035714Y-83242857D01*
X104988095Y-83433333D01*
X104988095Y-83671428D01*
X105035714Y-83861904D01*
X105083333Y-83957142D01*
X105130952Y-84004761D01*
X105226190Y-84052380D01*
X105321428Y-84052380D01*
X105416666Y-84004761D01*
X105464285Y-83957142D01*
X105511904Y-83861904D01*
X105559523Y-83671428D01*
X105559523Y-83433333D01*
X105511904Y-83242857D01*
X105464285Y-83147619D01*
X105416666Y-83100000D01*
X105321428Y-83052380D01*
X105940476Y-85702380D02*
X106511904Y-85702380D01*
X106226190Y-85702380D02*
X106226190Y-84702380D01*
X106321428Y-84845238D01*
X106416666Y-84940476D01*
X106511904Y-84988095D01*
X104988095Y-85702380D02*
X105559523Y-85702380D01*
X105273809Y-85702380D02*
X105273809Y-84702380D01*
X105369047Y-84845238D01*
X105464285Y-84940476D01*
X105559523Y-84988095D01*
M02*
