M48
; DRILL file {KiCad (5.1.6)-1} date 05/10/21 16:45:52
; FORMAT={-:-/ absolute / inch / decimal}
; #@! TF.CreationDate,2021-05-10T16:45:52-07:00
; #@! TF.GenerationSoftware,Kicad,Pcbnew,(5.1.6)-1
; #@! TF.FileFunction,Plated,1,2,PTH
FMAT,2
INCH
T1C0.0157
T2C0.0276
T3C0.0300
T4C0.0315
T5C0.0354
T6C0.0394
T7C0.0433
T8C0.0630
T9C0.1201
%
G90
G05
T1
X3.376Y-5.2362
X3.376Y-5.2756
X3.376Y-5.315
X3.376Y-5.3543
X3.376Y-5.3937
X3.376Y-5.4331
X3.376Y-5.4724
X3.376Y-5.5512
X3.376Y-5.5906
X3.376Y-5.6299
X3.376Y-5.6693
X3.376Y-5.7087
X3.376Y-5.748
X3.376Y-5.7874
X3.6024Y-5.4724
X3.6024Y-5.5512
X3.6516Y-5.4724
X3.6516Y-5.5512
X3.7008Y-5.4724
X3.7008Y-5.5512
X3.75Y-5.4724
X3.75Y-5.5512
X3.8287Y-5.2362
X3.8287Y-5.7776
X3.878Y-5.2362
X3.878Y-5.7776
X3.9272Y-5.2362
X3.9272Y-5.7776
X3.9272Y-3.8583
X3.9764Y-5.2362
X3.9764Y-5.7776
X4.0256Y-5.2362
X4.0256Y-5.7776
X4.1929Y-5.6496
X4.5965Y-5.4429
X4.6949Y-4.9803
X4.7736Y-3.6614
X4.8622Y-4.9803
X4.8819Y-3.9075
X5.1378Y-3.8583
X5.437Y-4.7087
X5.437Y-4.7402
X5.4685Y-4.7087
X5.4685Y-4.7402
X5.5669Y-5.2677
X5.6201Y-5.876
X5.685Y-4.9764
X5.685Y-5.0079
X5.689Y-5.4232
X5.7165Y-4.9764
X5.7165Y-5.0079
X5.9055Y-5.2362
X5.9744Y-5.5709
X5.9941Y-4.1634
X6.0039Y-5.2362
X6.1024Y-3.9075
X6.2303Y-5.2756
X6.2303Y-5.3248
X6.3091Y-5.689
X6.3287Y-3.8583
X6.685Y-3.2362
X6.6929Y-3.4646
X6.7323Y-3.2362
X6.7795Y-3.2362
X6.8268Y-3.2362
X6.8504Y-4.5669
X6.8996Y-4.5669
X6.9134Y-3.126
X6.9488Y-4.5669
X6.9685Y-3.126
X6.998Y-4.5669
X7.0157Y-3.126
X7.063Y-3.126
T2
X4.3307Y-5.315
X4.0846Y-5.0098
X4.6457Y-5.1476
X4.9606Y-5.1476
X4.3406Y-4.9803
X4.8031Y-5.315
X4.9606Y-5.315
X4.3307Y-5.1476
X4.4882Y-5.315
X4.6457Y-5.315
X4.4882Y-5.1476
X4.8031Y-5.1476
T3
X4.2717Y-2.5984
X4.4685Y-2.5984
T4
X4.1142Y-4.7047
X4.2126Y-4.7047
X4.4291Y-5.9646
X4.5276Y-5.9646
X5.1004Y-5.9642
X5.1004Y-6.0642
X5.2004Y-5.9642
X5.2004Y-6.0642
X5.3004Y-5.9642
X5.3004Y-6.0642
X5.4004Y-5.9642
X5.4004Y-6.0642
X5.5004Y-5.9642
X5.5004Y-6.0642
X5.6004Y-4.6642
X5.6004Y-4.7642
X5.6004Y-5.9642
X5.6004Y-6.0642
X5.7004Y-4.6642
X5.7004Y-4.7642
X5.7004Y-5.9642
X5.7004Y-6.0642
X5.8004Y-4.6642
X5.8004Y-4.7642
X5.8004Y-5.9642
X5.8004Y-6.0642
X5.9004Y-4.6642
X5.9004Y-4.7642
X5.9004Y-5.9642
X5.9004Y-6.0642
X6.0004Y-4.6642
X6.0004Y-4.7642
X6.0004Y-5.9642
X6.0004Y-6.0642
X6.1004Y-4.6642
X6.1004Y-4.7642
X6.1004Y-5.9642
X6.1004Y-6.0642
X6.2004Y-4.6642
X6.2004Y-4.7642
X6.2004Y-5.9642
X6.2004Y-6.0642
X6.3004Y-4.6642
X6.3004Y-4.7642
X6.3004Y-5.9642
X6.3004Y-6.0642
X6.4004Y-4.6642
X6.4004Y-4.7642
X6.4004Y-5.9642
X6.4004Y-6.0642
X6.5004Y-4.6642
X6.5004Y-4.7642
X6.5004Y-5.9642
X6.5004Y-6.0642
X6.6004Y-4.6642
X6.6004Y-4.7642
X6.6004Y-5.9642
X6.6004Y-6.0642
X6.7004Y-4.6642
X6.7004Y-4.7642
X6.7004Y-5.9642
X6.7004Y-6.0642
X6.8004Y-4.6642
X6.8004Y-4.7642
X6.8004Y-5.9642
X6.8004Y-6.0642
X6.9004Y-4.6642
X6.9004Y-4.7642
X6.9004Y-5.9642
X6.9004Y-6.0642
X6.998Y-5.3642
X6.998Y-5.4642
X6.998Y-5.5642
X7.0004Y-4.6642
X7.0004Y-4.7642
X7.0004Y-4.8642
X7.0004Y-4.9642
X7.0004Y-5.0642
X7.0004Y-5.9642
X7.0004Y-6.0642
X7.098Y-5.3642
X7.098Y-5.4642
X7.098Y-5.5642
X7.1004Y-4.6642
X7.1004Y-4.7642
X7.1004Y-4.8642
X7.1004Y-4.9642
X7.1004Y-5.0642
X7.1004Y-5.9642
X7.1004Y-6.0642
X5.5217Y-3.6122
X5.5217Y-3.7122
X5.5217Y-3.8122
X5.5217Y-3.9122
X5.5217Y-4.0122
X5.5217Y-4.1122
X5.5217Y-4.2122
X5.8217Y-3.6122
X5.8217Y-3.7122
X5.8217Y-3.8122
X5.8217Y-3.9122
X5.8217Y-4.0122
X5.8217Y-4.1122
X5.8217Y-4.2122
X6.7618Y-3.6122
X6.7618Y-3.7122
X6.7618Y-3.8122
X6.7618Y-3.9122
X6.7618Y-4.0122
X6.7618Y-4.1122
X6.7618Y-4.2122
X7.0618Y-3.6122
X7.0618Y-3.7122
X7.0618Y-3.8122
X7.0618Y-3.9122
X7.0618Y-4.0122
X7.0618Y-4.1122
X7.0618Y-4.2122
X4.3012Y-3.6122
X4.3012Y-3.7122
X4.3012Y-3.8122
X4.3012Y-3.9122
X4.3012Y-4.0122
X4.3012Y-4.1122
X4.3012Y-4.2122
X4.6012Y-3.6122
X4.6012Y-3.7122
X4.6012Y-3.8122
X4.6012Y-3.9122
X4.6012Y-4.0122
X4.6012Y-4.1122
X4.6012Y-4.2122
T5
X4.4882Y-4.7441
X4.5882Y-4.7441
X4.8031Y-4.7451
X4.9031Y-4.7451
T6
X4.7736Y-2.4508
X4.7736Y-2.5508
X4.7736Y-2.6508
X4.7736Y-2.7508
X3.6252Y-3.0587
X3.6252Y-3.1677
X3.6252Y-3.2768
X3.6252Y-3.3858
X3.6252Y-3.4949
X3.6252Y-3.6039
X3.6252Y-3.713
X3.737Y-3.0041
X3.737Y-3.1132
X3.737Y-3.2222
X3.737Y-3.3313
X3.737Y-3.4404
X3.737Y-3.5494
X3.737Y-3.6585
X3.737Y-3.7675
X5.6299Y-2.628
X5.6299Y-2.728
X5.6299Y-2.828
X5.6299Y-2.928
X5.6299Y-3.028
X5.6299Y-3.128
X4.9902Y-2.4508
X4.9902Y-2.5508
X4.9902Y-2.6508
T7
X4.685Y-5.8858
X4.685Y-6.063
X4.9409Y-5.8858
X4.9409Y-6.063
X4.685Y-5.5512
X4.685Y-5.7283
X4.9409Y-5.5512
X4.9409Y-5.7283
T8
X3.5945Y-4.7992
X3.7126Y-4.9843
X3.8307Y-4.7992
X3.6024Y-5.374
X3.6024Y-5.674
T9
X3.6803Y-2.7303
X3.6803Y-4.0413
T0
M30
