%TF.GenerationSoftware,KiCad,Pcbnew,(5.1.6)-1*%
%TF.CreationDate,2022-08-08T14:05:23-07:00*%
%TF.ProjectId,NiCd Battery Shield - VP400KH,4e694364-2042-4617-9474-657279205368,1*%
%TF.SameCoordinates,Original*%
%TF.FileFunction,Copper,L1,Top*%
%TF.FilePolarity,Positive*%
%FSLAX46Y46*%
G04 Gerber Fmt 4.6, Leading zero omitted, Abs format (unit mm)*
G04 Created by KiCad (PCBNEW (5.1.6)-1) date 2022-08-08 14:05:23*
%MOMM*%
%LPD*%
G01*
G04 APERTURE LIST*
%TA.AperFunction,ComponentPad*%
%ADD10C,1.524000*%
%TD*%
%TA.AperFunction,ComponentPad*%
%ADD11C,1.250000*%
%TD*%
%TA.AperFunction,ComponentPad*%
%ADD12C,3.500000*%
%TD*%
%TA.AperFunction,ComponentPad*%
%ADD13C,20.000000*%
%TD*%
%TA.AperFunction,ComponentPad*%
%ADD14C,0.500000*%
%TD*%
%TA.AperFunction,ComponentPad*%
%ADD15O,30.000000X20.000000*%
%TD*%
%TA.AperFunction,ComponentPad*%
%ADD16C,3.000000*%
%TD*%
%TA.AperFunction,ViaPad*%
%ADD17C,0.800000*%
%TD*%
%TA.AperFunction,Conductor*%
%ADD18C,0.250000*%
%TD*%
G04 APERTURE END LIST*
D10*
%TO.P,J4,1*%
%TO.N,Net-(J4-Pad1)*%
X292000000Y-135000000D03*
%TD*%
D11*
%TO.P,J6,15*%
%TO.N,Net-(J6-Pad15)*%
X228385000Y-201340000D03*
%TO.P,J6,14*%
%TO.N,Net-(J6-Pad14)*%
X225615000Y-201340000D03*
%TO.P,J6,13*%
%TO.N,Net-(J6-Pad13)*%
X222845000Y-201340000D03*
%TO.P,J6,12*%
%TO.N,Net-(J6-Pad12)*%
X220075000Y-201340000D03*
%TO.P,J6,11*%
%TO.N,Net-(J12-Pad1)*%
X217305000Y-201340000D03*
%TO.P,J6,10*%
%TO.N,Net-(J11-Pad1)*%
X214535000Y-201340000D03*
%TO.P,J6,9*%
%TO.N,Net-(J10-Pad1)*%
X211765000Y-201340000D03*
%TO.P,J6,8*%
%TO.N,Net-(J6-Pad8)*%
X229770000Y-198500000D03*
%TO.P,J6,7*%
%TO.N,Net-(J6-Pad7)*%
X227000000Y-198500000D03*
%TO.P,J6,6*%
%TO.N,Net-(J6-Pad6)*%
X224230000Y-198500000D03*
%TO.P,J6,5*%
%TO.N,Net-(J5-Pad1)*%
X221460000Y-198500000D03*
%TO.P,J6,4*%
%TO.N,Net-(J4-Pad1)*%
X218690000Y-198500000D03*
%TO.P,J6,3*%
%TO.N,Net-(J3-Pad1)*%
X215920000Y-198500000D03*
%TO.P,J6,2*%
%TO.N,Net-(J2-Pad1)*%
X213150000Y-198500000D03*
%TO.P,J6,1*%
%TO.N,Net-(J1-Pad1)*%
X210380000Y-198500000D03*
D12*
%TO.P,J6,*%
%TO.N,*%
X236725000Y-199920000D03*
X203425000Y-199920000D03*
%TD*%
D10*
%TO.P,J3,1*%
%TO.N,Net-(J3-Pad1)*%
X328000000Y-185000000D03*
%TD*%
D13*
%TO.P,J1,1*%
%TO.N,Net-(J1-Pad1)*%
X382000000Y-185000000D03*
D14*
X382000000Y-178650000D03*
X379828172Y-179032952D03*
X377918299Y-180135618D03*
X376500739Y-181825000D03*
X375746471Y-183897334D03*
X375746471Y-186102666D03*
X376500739Y-188175000D03*
X377918299Y-189864382D03*
X379828172Y-190967048D03*
X382000000Y-191350000D03*
X384171828Y-190967048D03*
X386081701Y-189864382D03*
X387499261Y-188175000D03*
X388253529Y-186102666D03*
X388253529Y-183897334D03*
X387499261Y-181825000D03*
X386081701Y-180135618D03*
X384171828Y-179032952D03*
X382000000Y-177380000D03*
X379393807Y-177839542D03*
X377101958Y-179162741D03*
X375400886Y-181190000D03*
X374495765Y-183676801D03*
X374495765Y-186323199D03*
X375400886Y-188810000D03*
X377101958Y-190837259D03*
X379393807Y-192160458D03*
X382000000Y-192620000D03*
X384606193Y-192160458D03*
X386898042Y-190837259D03*
X388599114Y-188810000D03*
X389504235Y-186323199D03*
X389504235Y-183676801D03*
X388599114Y-181190000D03*
X386898042Y-179162741D03*
X384606193Y-177839542D03*
X382000000Y-176110000D03*
X378959441Y-176646133D03*
X376285618Y-178189865D03*
X374301034Y-180555000D03*
X373245059Y-183456268D03*
X373245059Y-186543732D03*
X374301034Y-189445000D03*
X376285618Y-191810135D03*
X378959441Y-193353867D03*
X382000000Y-193890000D03*
X385040559Y-193353867D03*
X387714382Y-191810135D03*
X389698966Y-189445000D03*
X390754941Y-186543732D03*
X390754941Y-183456268D03*
X389698966Y-180555000D03*
X387714382Y-178189865D03*
X385040559Y-176646133D03*
%TD*%
%TO.P,J12,1*%
%TO.N,Net-(J12-Pad1)*%
X58000000Y-193650000D03*
X58000000Y-191110000D03*
X60500000Y-192380000D03*
X60500000Y-191110000D03*
X60500000Y-193650000D03*
X58000000Y-192380000D03*
X55500000Y-193650000D03*
X55500000Y-191110000D03*
X55500000Y-192380000D03*
X58000000Y-178400000D03*
X58000000Y-177130000D03*
X58000000Y-175860000D03*
X60500000Y-178400000D03*
X60500000Y-175860000D03*
X60500000Y-177130000D03*
X55500000Y-178400000D03*
X55500000Y-177130000D03*
X55500000Y-175860000D03*
X68714382Y-191560135D03*
X63000000Y-191100000D03*
X63000000Y-178400000D03*
X65606193Y-177589542D03*
X63000000Y-192370000D03*
X69599114Y-188560000D03*
X66040559Y-176396133D03*
X68714382Y-177939865D03*
X70698966Y-180305000D03*
X63000000Y-177130000D03*
X63000000Y-193640000D03*
X70504235Y-183426801D03*
X68499261Y-187925000D03*
X65171828Y-178782952D03*
X71754941Y-183206268D03*
X70698966Y-189195000D03*
X66040559Y-193103867D03*
X63000000Y-175860000D03*
X67898042Y-178912741D03*
X69599114Y-180940000D03*
X70504235Y-186073199D03*
X67081701Y-189614382D03*
X68499261Y-181575000D03*
X67081701Y-179885618D03*
X65606193Y-191910458D03*
X65171828Y-190717048D03*
X67898042Y-190587259D03*
X69253529Y-183647334D03*
X71754941Y-186293732D03*
X69253529Y-185852666D03*
X47285618Y-191560135D03*
X44245059Y-186293732D03*
X46400886Y-188560000D03*
X53000000Y-191100000D03*
X46746471Y-183647334D03*
X53000000Y-178400000D03*
X46400886Y-180940000D03*
X48918299Y-189614382D03*
X53000000Y-192370000D03*
X53000000Y-177130000D03*
X53000000Y-193640000D03*
X50828172Y-178782952D03*
X50393807Y-177589542D03*
X50828172Y-190717048D03*
X49959441Y-193103867D03*
X45301034Y-189195000D03*
X45301034Y-180305000D03*
X45495765Y-183426801D03*
X47500739Y-181575000D03*
X47285618Y-177939865D03*
X47500739Y-187925000D03*
X49959441Y-176396133D03*
X53000000Y-175860000D03*
X48101958Y-178912741D03*
X50393807Y-191910458D03*
X48101958Y-190587259D03*
X46746471Y-185852666D03*
X48918299Y-179885618D03*
X44245059Y-183206268D03*
X45495765Y-186073199D03*
D15*
X58000000Y-185000000D03*
%TD*%
D10*
%TO.P,J7,1*%
%TO.N,Net-(J6-Pad6)*%
X220000000Y-135000000D03*
%TD*%
%TO.P,J11,1*%
%TO.N,Net-(J11-Pad1)*%
X76000000Y-135000000D03*
%TD*%
%TO.P,J10,1*%
%TO.N,Net-(J10-Pad1)*%
X112000000Y-185000000D03*
%TD*%
%TO.P,J9,1*%
%TO.N,Net-(J6-Pad8)*%
X148000000Y-135000000D03*
%TD*%
%TO.P,J8,1*%
%TO.N,Net-(J6-Pad7)*%
X184000000Y-185000000D03*
%TD*%
%TO.P,J5,1*%
%TO.N,Net-(J5-Pad1)*%
X256000000Y-185000000D03*
%TD*%
%TO.P,J2,1*%
%TO.N,Net-(J2-Pad1)*%
X364000000Y-135000000D03*
%TD*%
D16*
%TO.P,H1,1*%
%TO.N,N/C*%
X49000000Y-131000000D03*
X44000000Y-131000000D03*
X49000000Y-124000000D03*
X44000000Y-124000000D03*
%TD*%
%TO.P,H2,1*%
%TO.N,N/C*%
X84000000Y-197000000D03*
X79000000Y-197000000D03*
X84000000Y-190000000D03*
X79000000Y-190000000D03*
%TD*%
%TO.P,H3,1*%
%TO.N,N/C*%
X396000000Y-131000000D03*
X391000000Y-131000000D03*
X396000000Y-124000000D03*
X391000000Y-124000000D03*
%TD*%
%TO.P,H4,1*%
%TO.N,N/C*%
X361000000Y-197000000D03*
X356000000Y-197000000D03*
X361000000Y-190000000D03*
X356000000Y-190000000D03*
%TD*%
D17*
%TO.N,Net-(J1-Pad1)*%
X235750000Y-196500000D03*
%TO.N,Net-(J2-Pad1)*%
X234500000Y-196500000D03*
%TO.N,Net-(J3-Pad1)*%
X233250000Y-196500000D03*
%TO.N,Net-(J4-Pad1)*%
X232000000Y-196500000D03*
%TO.N,Net-(J5-Pad1)*%
X230750000Y-196500000D03*
%TD*%
D18*
%TO.N,Net-(J1-Pad1)*%
X236250000Y-196000000D02*
X235750000Y-196500000D01*
X358000000Y-185000000D02*
X353750000Y-189250000D01*
X382000000Y-185000000D02*
X358000000Y-185000000D01*
X353750000Y-189250000D02*
X353750000Y-193750000D01*
X353750000Y-193750000D02*
X351500000Y-196000000D01*
X351500000Y-196000000D02*
X236250000Y-196000000D01*
X235750000Y-196500000D02*
X235750000Y-196500000D01*
%TO.N,Net-(J2-Pad1)*%
X235500000Y-195500000D02*
X234500000Y-196500000D01*
X325000000Y-195500000D02*
X235500000Y-195500000D01*
X354750000Y-125750000D02*
X341250000Y-125750000D01*
X364000000Y-135000000D02*
X354750000Y-125750000D01*
X333250000Y-133750000D02*
X333250000Y-187250000D01*
X341250000Y-125750000D02*
X333250000Y-133750000D01*
X333250000Y-187250000D02*
X325000000Y-195500000D01*
X234500000Y-196500000D02*
X234500000Y-196500000D01*
%TO.N,Net-(J3-Pad1)*%
X234750000Y-195000000D02*
X233250000Y-196500000D01*
X328000000Y-185000000D02*
X318000000Y-195000000D01*
X318000000Y-195000000D02*
X234750000Y-195000000D01*
X233250000Y-196500000D02*
X233250000Y-196500000D01*
%TO.N,Net-(J4-Pad1)*%
X234000000Y-194500000D02*
X232000000Y-196500000D01*
X283500000Y-194500000D02*
X234000000Y-194500000D01*
X292000000Y-135000000D02*
X292000000Y-186000000D01*
X292000000Y-186000000D02*
X283500000Y-194500000D01*
X232000000Y-196500000D02*
X232000000Y-196500000D01*
%TO.N,Net-(J5-Pad1)*%
X233250000Y-194000000D02*
X230750000Y-196500000D01*
X256000000Y-185000000D02*
X247000000Y-194000000D01*
X247000000Y-194000000D02*
X233250000Y-194000000D01*
X230750000Y-196500000D02*
X230750000Y-196500000D01*
%TO.N,Net-(J12-Pad1)*%
X203433998Y-203000000D02*
X215645000Y-203000000D01*
X199258999Y-198825001D02*
X203433998Y-203000000D01*
X215645000Y-203000000D02*
X217305000Y-201340000D01*
X58000000Y-185000000D02*
X71825001Y-198825001D01*
X71825001Y-198825001D02*
X199258999Y-198825001D01*
%TO.N,Net-(J11-Pad1)*%
X209790001Y-202290001D02*
X213584999Y-202290001D01*
X85649990Y-188899990D02*
X94000000Y-197250000D01*
X94000000Y-197250000D02*
X204750000Y-197250000D01*
X85649990Y-144649990D02*
X85649990Y-188899990D01*
X204750000Y-197250000D02*
X209790001Y-202290001D01*
X213584999Y-202290001D02*
X214535000Y-201340000D01*
X76000000Y-135000000D02*
X85649990Y-144649990D01*
%TO.N,Net-(J10-Pad1)*%
X211140001Y-200715001D02*
X211765000Y-201340000D01*
X207224989Y-196799989D02*
X211140001Y-200715001D01*
X123799989Y-196799989D02*
X207224989Y-196799989D01*
X112000000Y-185000000D02*
X123799989Y-196799989D01*
%TO.N,Net-(J6-Pad8)*%
X228270000Y-200000000D02*
X229770000Y-198500000D01*
X148000000Y-182750000D02*
X161250000Y-196000000D01*
X161250000Y-196000000D02*
X217596002Y-196000000D01*
X148000000Y-135000000D02*
X148000000Y-182750000D01*
X217596002Y-196000000D02*
X221596002Y-200000000D01*
X221596002Y-200000000D02*
X228270000Y-200000000D01*
%TO.N,Net-(J6-Pad7)*%
X227000000Y-197500000D02*
X227000000Y-198500000D01*
X224000000Y-194500000D02*
X227000000Y-197500000D01*
X184000000Y-185000000D02*
X193500000Y-194500000D01*
X193500000Y-194500000D02*
X224000000Y-194500000D01*
%TO.N,Net-(J6-Pad6)*%
X228250000Y-199000000D02*
X227750000Y-199500000D01*
X220000000Y-181500000D02*
X226500000Y-188000000D01*
X228250000Y-192750000D02*
X228250000Y-199000000D01*
X225230000Y-199500000D02*
X224230000Y-198500000D01*
X226500000Y-188000000D02*
X226500000Y-191000000D01*
X227750000Y-199500000D02*
X225230000Y-199500000D01*
X220000000Y-135000000D02*
X220000000Y-181500000D01*
X226500000Y-191000000D02*
X228250000Y-192750000D01*
%TD*%
M02*
