M48
; DRILL file {KiCad (5.1.6)-1} date 08/08/22 14:05:22
; FORMAT={3:3/ absolute / metric / suppress leading zeros}
; #@! TF.CreationDate,2022-08-08T14:05:22-07:00
; #@! TF.GenerationSoftware,Kicad,Pcbnew,(5.1.6)-1
FMAT,2
METRIC,TZ
T1C0.400
T2C0.500
T3C0.762
T4C1.000
T5C1.850
T6C3.050
T7C10.250
%
G90
G05
T1
X230750Y-196500
X232000Y-196500
X233250Y-196500
X234500Y-196500
X235750Y-196500
T2
X373245Y-183456
X373245Y-186544
X374301Y-180555
X374301Y-189445
X374496Y-183677
X374496Y-186323
X375401Y-181190
X375401Y-188810
X375746Y-183897
X375746Y-186103
X376286Y-178190
X376286Y-191810
X376501Y-181825
X376501Y-188175
X377102Y-179163
X377102Y-190837
X377918Y-180136
X377918Y-189864
X378959Y-176646
X378959Y-193354
X379394Y-177840
X379394Y-192160
X379828Y-179033
X379828Y-190967
X382000Y-176110
X382000Y-177380
X382000Y-178650
X382000Y-191350
X382000Y-192620
X382000Y-193890
X384172Y-179033
X384172Y-190967
X384606Y-177840
X384606Y-192160
X385041Y-176646
X385041Y-193354
X386082Y-180136
X386082Y-189864
X386898Y-179163
X386898Y-190837
X387499Y-181825
X387499Y-188175
X387714Y-178190
X387714Y-191810
X388254Y-183897
X388254Y-186103
X388599Y-181190
X388599Y-188810
X389504Y-183677
X389504Y-186323
X389699Y-180555
X389699Y-189445
X390755Y-183456
X390755Y-186544
X44245Y-183206
X44245Y-186294
X45301Y-180305
X45301Y-189195
X45496Y-183427
X45496Y-186073
X46401Y-180940
X46401Y-188560
X46746Y-183647
X46746Y-185853
X47286Y-177940
X47286Y-191560
X47501Y-181575
X47501Y-187925
X48102Y-178913
X48102Y-190587
X48918Y-179886
X48918Y-189614
X49959Y-176396
X49959Y-193104
X50394Y-177590
X50394Y-191910
X50828Y-178783
X50828Y-190717
X53000Y-175860
X53000Y-177130
X53000Y-178400
X53000Y-191100
X53000Y-192370
X53000Y-193640
X55500Y-175860
X55500Y-177130
X55500Y-178400
X55500Y-191110
X55500Y-192380
X55500Y-193650
X58000Y-175860
X58000Y-177130
X58000Y-178400
X58000Y-191110
X58000Y-192380
X58000Y-193650
X60500Y-175860
X60500Y-177130
X60500Y-178400
X60500Y-191110
X60500Y-192380
X60500Y-193650
X63000Y-175860
X63000Y-177130
X63000Y-178400
X63000Y-191100
X63000Y-192370
X63000Y-193640
X65172Y-178783
X65172Y-190717
X65606Y-177590
X65606Y-191910
X66041Y-176396
X66041Y-193104
X67082Y-179886
X67082Y-189614
X67898Y-178913
X67898Y-190587
X68499Y-181575
X68499Y-187925
X68714Y-177940
X68714Y-191560
X69254Y-183647
X69254Y-185853
X69599Y-180940
X69599Y-188560
X70504Y-183427
X70504Y-186073
X70699Y-180305
X70699Y-189195
X71755Y-183206
X71755Y-186294
T3
X148000Y-135000
X256000Y-185000
X184000Y-185000
X220000Y-135000
X364000Y-135000
X328000Y-185000
X76000Y-135000
X292000Y-135000
X112000Y-185000
T4
X210380Y-198500
X211765Y-201340
X213150Y-198500
X214535Y-201340
X215920Y-198500
X217305Y-201340
X218690Y-198500
X220075Y-201340
X221460Y-198500
X222845Y-201340
X224230Y-198500
X225615Y-201340
X227000Y-198500
X228385Y-201340
X229770Y-198500
T5
X79000Y-190000
X79000Y-197000
X84000Y-190000
X84000Y-197000
X356000Y-190000
X356000Y-197000
X361000Y-190000
X361000Y-197000
X391000Y-124000
X391000Y-131000
X396000Y-124000
X396000Y-131000
X44000Y-124000
X44000Y-131000
X49000Y-124000
X49000Y-131000
T6
X203425Y-199920
X236725Y-199920
T7
X382000Y-185000
T7
G00X53125Y-185000
M15
G01X62875Y-185000
M16
G05
T0
M30
