%TF.GenerationSoftware,KiCad,Pcbnew,(5.1.6)-1*%
%TF.CreationDate,2022-08-08T14:05:23-07:00*%
%TF.ProjectId,NiCd Battery Shield - VP400KH,4e694364-2042-4617-9474-657279205368,1*%
%TF.SameCoordinates,Original*%
%TF.FileFunction,Profile,NP*%
%FSLAX46Y46*%
G04 Gerber Fmt 4.6, Leading zero omitted, Abs format (unit mm)*
G04 Created by KiCad (PCBNEW (5.1.6)-1) date 2022-08-08 14:05:23*
%MOMM*%
%LPD*%
G01*
G04 APERTURE LIST*
%TA.AperFunction,Profile*%
%ADD10C,0.050000*%
%TD*%
G04 APERTURE END LIST*
D10*
X390000000Y-162500000D02*
G75*
G02*
X374000000Y-162500000I-8000000J0D01*
G01*
X41000000Y-200000000D02*
X199000000Y-200000000D01*
X241000000Y-200000000D02*
X399000000Y-200000000D01*
X241000000Y-209500000D02*
X241000000Y-200000000D01*
X199000000Y-209500000D02*
X241000000Y-209500000D01*
X199000000Y-200000000D02*
X199000000Y-209500000D01*
X50000000Y-135000000D02*
G75*
G02*
X66000000Y-135000000I8000000J0D01*
G01*
X86000000Y-135000000D02*
G75*
G02*
X102000000Y-135000000I8000000J0D01*
G01*
X122000000Y-135000000D02*
G75*
G02*
X138000000Y-135000000I8000000J0D01*
G01*
X158000000Y-135000000D02*
G75*
G02*
X174000000Y-135000000I8000000J0D01*
G01*
X194000000Y-135000000D02*
G75*
G02*
X210000000Y-135000000I8000000J0D01*
G01*
X230000000Y-135000000D02*
G75*
G02*
X246000000Y-135000000I8000000J0D01*
G01*
X266000000Y-135000000D02*
G75*
G02*
X282000000Y-135000000I8000000J0D01*
G01*
X66000000Y-162500000D02*
G75*
G02*
X50000000Y-162500000I-8000000J0D01*
G01*
X102000000Y-185000000D02*
G75*
G02*
X86000000Y-185000000I-8000000J0D01*
G01*
X138000000Y-185000000D02*
G75*
G02*
X122000000Y-185000000I-8000000J0D01*
G01*
X174000000Y-185000000D02*
G75*
G02*
X158000000Y-185000000I-8000000J0D01*
G01*
X210000000Y-185000000D02*
G75*
G02*
X194000000Y-185000000I-8000000J0D01*
G01*
X246000000Y-185000000D02*
G75*
G02*
X230000000Y-185000000I-8000000J0D01*
G01*
X282000000Y-185000000D02*
G75*
G02*
X266000000Y-185000000I-8000000J0D01*
G01*
X66000000Y-135000000D02*
X66000000Y-162500000D01*
X102000000Y-135000000D02*
X102000000Y-185000000D01*
X138000000Y-135000000D02*
X138000000Y-185000000D01*
X174000000Y-135000000D02*
X174000000Y-185000000D01*
X210000000Y-135000000D02*
X210000000Y-185000000D01*
X246000000Y-135000000D02*
X246000000Y-185000000D01*
X282000000Y-135000000D02*
X282000000Y-185000000D01*
X50000000Y-162500000D02*
X50000000Y-135000000D01*
X86000000Y-185000000D02*
X86000000Y-135000000D01*
X122000000Y-185000000D02*
X122000000Y-135000000D01*
X158000000Y-185000000D02*
X158000000Y-135000000D01*
X194000000Y-185000000D02*
X194000000Y-135000000D01*
X230000000Y-185000000D02*
X230000000Y-135000000D01*
X266000000Y-185000000D02*
X266000000Y-135000000D01*
X302000000Y-185000000D02*
X302000000Y-135000000D01*
X318000000Y-135000000D02*
X318000000Y-185000000D01*
X302000000Y-135000000D02*
G75*
G02*
X318000000Y-135000000I8000000J0D01*
G01*
X318000000Y-185000000D02*
G75*
G02*
X302000000Y-185000000I-8000000J0D01*
G01*
X354000000Y-135000000D02*
X354000000Y-185000000D01*
X338000000Y-185000000D02*
X338000000Y-135000000D01*
X354000000Y-185000000D02*
G75*
G02*
X338000000Y-185000000I-8000000J0D01*
G01*
X338000000Y-135000000D02*
G75*
G02*
X354000000Y-135000000I8000000J0D01*
G01*
X390000000Y-135000000D02*
X390000000Y-162500000D01*
X374000000Y-135000000D02*
X374000000Y-162500000D01*
X374000000Y-135000000D02*
G75*
G02*
X390000000Y-135000000I8000000J0D01*
G01*
X400000000Y-199000000D02*
G75*
G02*
X399000000Y-200000000I-1000000J0D01*
G01*
X399000000Y-120000000D02*
G75*
G02*
X400000000Y-121000000I0J-1000000D01*
G01*
X40000000Y-121000000D02*
G75*
G02*
X41000000Y-120000000I1000000J0D01*
G01*
X41000000Y-200000000D02*
G75*
G02*
X40000000Y-199000000I0J1000000D01*
G01*
X40000000Y-121000000D02*
X40000000Y-199000000D01*
X399000000Y-120000000D02*
X41000000Y-120000000D01*
X400000000Y-199000000D02*
X400000000Y-121000000D01*
M02*
