%TF.GenerationSoftware,KiCad,Pcbnew,(5.1.6)-1*%
%TF.CreationDate,2022-06-29T11:00:19-07:00*%
%TF.ProjectId,ESP32 Adapter Board,45535033-3220-4416-9461-707465722042,rev?*%
%TF.SameCoordinates,Original*%
%TF.FileFunction,Copper,L2,Bot*%
%TF.FilePolarity,Positive*%
%FSLAX46Y46*%
G04 Gerber Fmt 4.6, Leading zero omitted, Abs format (unit mm)*
G04 Created by KiCad (PCBNEW (5.1.6)-1) date 2022-06-29 11:00:19*
%MOMM*%
%LPD*%
G01*
G04 APERTURE LIST*
%TA.AperFunction,ComponentPad*%
%ADD10O,1.500000X2.000000*%
%TD*%
%TA.AperFunction,ComponentPad*%
%ADD11C,1.600000*%
%TD*%
%TA.AperFunction,Conductor*%
%ADD12C,1.000000*%
%TD*%
%TA.AperFunction,Conductor*%
%ADD13C,0.250000*%
%TD*%
%TA.AperFunction,Conductor*%
%ADD14C,0.254000*%
%TD*%
G04 APERTURE END LIST*
D10*
%TO.P,U1,38*%
%TO.N,GND*%
X187000000Y-83500000D03*
%TO.P,U1,37*%
%TO.N,MOSI*%
X184460000Y-83500000D03*
%TO.P,U1,36*%
%TO.N,SCL*%
X181920000Y-83500000D03*
%TO.P,U1,35*%
%TO.N,BUS_CONNECT_SIGNAL*%
X179380000Y-83500000D03*
%TO.P,U1,34*%
%TO.N,STATUS_CHECK*%
X176840000Y-83500000D03*
%TO.P,U1,33*%
%TO.N,SDA*%
X174300000Y-83500000D03*
%TO.P,U1,32*%
%TO.N,GND*%
X171760000Y-83500000D03*
%TO.P,U1,31*%
%TO.N,MISO*%
X169220000Y-83500000D03*
%TO.P,U1,30*%
%TO.N,SCK*%
X166680000Y-83500000D03*
%TO.P,U1,29*%
%TO.N,CS*%
X164140000Y-83500000D03*
%TO.P,U1,28*%
%TO.N,EXTERNAL_INTERRUPT*%
X161600000Y-83500000D03*
%TO.P,U1,27*%
%TO.N,CHARGE_CONTROL_SIGNAL*%
X159060000Y-83500000D03*
%TO.P,U1,26*%
%TO.N,DATA*%
X156520000Y-83500000D03*
%TO.P,U1,25*%
%TO.N,Net-(U1-Pad25)*%
X153980000Y-83500000D03*
%TO.P,U1,24*%
%TO.N,Net-(U1-Pad24)*%
X151440000Y-83500000D03*
%TO.P,U1,23*%
%TO.N,Net-(U1-Pad23)*%
X148900000Y-83500000D03*
%TO.P,U1,22*%
%TO.N,Net-(U1-Pad22)*%
X146360000Y-83500000D03*
%TO.P,U1,21*%
%TO.N,Net-(U1-Pad21)*%
X143820000Y-83500000D03*
%TO.P,U1,20*%
%TO.N,Net-(U1-Pad20)*%
X141280000Y-83500000D03*
%TO.P,U1,19*%
%TO.N,5V*%
X141280000Y-60500000D03*
%TO.P,U1,18*%
%TO.N,Net-(U1-Pad18)*%
X143820000Y-60500000D03*
%TO.P,U1,17*%
%TO.N,Net-(U1-Pad17)*%
X146360000Y-60500000D03*
%TO.P,U1,16*%
%TO.N,Net-(U1-Pad16)*%
X148900000Y-60500000D03*
%TO.P,U1,15*%
%TO.N,Net-(U1-Pad15)*%
X151440000Y-60500000D03*
%TO.P,U1,14*%
%TO.N,GND*%
X153980000Y-60500000D03*
%TO.P,U1,13*%
%TO.N,A0*%
X156520000Y-60500000D03*
%TO.P,U1,12*%
%TO.N,A1*%
X159060000Y-60500000D03*
%TO.P,U1,11*%
%TO.N,A2*%
X161600000Y-60500000D03*
%TO.P,U1,10*%
%TO.N,A3*%
X164140000Y-60500000D03*
%TO.P,U1,9*%
%TO.N,A4*%
X166680000Y-60500000D03*
%TO.P,U1,8*%
%TO.N,Net-(U1-Pad8)*%
X169220000Y-60500000D03*
%TO.P,U1,7*%
%TO.N,A5*%
X171760000Y-60500000D03*
%TO.P,U1,6*%
%TO.N,A6*%
X174300000Y-60500000D03*
%TO.P,U1,5*%
%TO.N,A7*%
X176840000Y-60500000D03*
%TO.P,U1,4*%
%TO.N,A9*%
X179380000Y-60500000D03*
%TO.P,U1,3*%
%TO.N,A8*%
X181920000Y-60500000D03*
%TO.P,U1,2*%
%TO.N,Net-(U1-Pad2)*%
X184460000Y-60500000D03*
%TO.P,U1,1*%
%TO.N,3V3*%
X187000000Y-60500000D03*
%TD*%
D11*
%TO.P,U2,74*%
%TO.N,Net-(U2-Pad74)*%
X192229999Y-56760000D03*
%TO.P,U2,73*%
%TO.N,Net-(U2-Pad73)*%
X192229999Y-54220000D03*
%TO.P,U2,72*%
%TO.N,Net-(U2-Pad72)*%
X189689999Y-56760000D03*
%TO.P,U2,71*%
%TO.N,Net-(U2-Pad71)*%
X189689999Y-54220000D03*
%TO.P,U2,70*%
%TO.N,Net-(U2-Pad70)*%
X187149999Y-56760000D03*
%TO.P,U2,69*%
%TO.N,Net-(U2-Pad69)*%
X187149999Y-54220000D03*
%TO.P,U2,68*%
%TO.N,Net-(U2-Pad68)*%
X184609999Y-56760000D03*
%TO.P,U2,67*%
%TO.N,Net-(U2-Pad67)*%
X184609999Y-54220000D03*
%TO.P,U2,66*%
%TO.N,Net-(U2-Pad66)*%
X182069999Y-56760000D03*
%TO.P,U2,65*%
%TO.N,Net-(U2-Pad65)*%
X182069999Y-54220000D03*
%TO.P,U2,64*%
%TO.N,Net-(U2-Pad64)*%
X179529999Y-56760000D03*
%TO.P,U2,63*%
%TO.N,Net-(U2-Pad63)*%
X179529999Y-54220000D03*
%TO.P,U2,62*%
%TO.N,Net-(U2-Pad62)*%
X176989999Y-56760000D03*
%TO.P,U2,61*%
%TO.N,Net-(U2-Pad61)*%
X176989999Y-54220000D03*
%TO.P,U2,60*%
%TO.N,Net-(U2-Pad60)*%
X174449999Y-56760000D03*
%TO.P,U2,59*%
%TO.N,Net-(U2-Pad59)*%
X174449999Y-54220000D03*
%TO.P,U2,58*%
%TO.N,A15*%
X171909999Y-56760000D03*
%TO.P,U2,57*%
%TO.N,Net-(U2-Pad57)*%
X171909999Y-54220000D03*
%TO.P,U2,56*%
%TO.N,Net-(U2-Pad56)*%
X169369999Y-56760000D03*
%TO.P,U2,55*%
%TO.N,Net-(U2-Pad55)*%
X169369999Y-54220000D03*
%TO.P,U2,54*%
%TO.N,Net-(U2-Pad54)*%
X166829999Y-56760000D03*
%TO.P,U2,53*%
%TO.N,Net-(U2-Pad53)*%
X166829999Y-54220000D03*
%TO.P,U2,52*%
%TO.N,A9*%
X164289999Y-56760000D03*
%TO.P,U2,51*%
%TO.N,A8*%
X164289999Y-54220000D03*
%TO.P,U2,50*%
%TO.N,A7*%
X161749999Y-56760000D03*
%TO.P,U2,49*%
%TO.N,A6*%
X161749999Y-54220000D03*
%TO.P,U2,48*%
%TO.N,A5*%
X159209999Y-56760000D03*
%TO.P,U2,47*%
%TO.N,A4*%
X159209999Y-54220000D03*
%TO.P,U2,46*%
%TO.N,A3*%
X156669999Y-56760000D03*
%TO.P,U2,45*%
%TO.N,A2*%
X156669999Y-54220000D03*
%TO.P,U2,44*%
%TO.N,A1*%
X154129999Y-56760000D03*
%TO.P,U2,42*%
%TO.N,BUS_CONNECT_SIGNAL*%
X192229999Y-89780000D03*
%TO.P,U2,41*%
%TO.N,Net-(U2-Pad41)*%
X192229999Y-87240000D03*
%TO.P,U2,40*%
%TO.N,Net-(U2-Pad40)*%
X189689999Y-89780000D03*
%TO.P,U2,39*%
%TO.N,Net-(U2-Pad39)*%
X189689999Y-87240000D03*
%TO.P,U2,38*%
%TO.N,Net-(U2-Pad38)*%
X187149999Y-89780000D03*
%TO.P,U2,37*%
%TO.N,Net-(U2-Pad37)*%
X187149999Y-87240000D03*
%TO.P,U2,36*%
%TO.N,Net-(U2-Pad36)*%
X184609999Y-89780000D03*
%TO.P,U2,35*%
%TO.N,Net-(U2-Pad35)*%
X184609999Y-87240000D03*
%TO.P,U2,34*%
%TO.N,Net-(U2-Pad34)*%
X182069999Y-89780000D03*
%TO.P,U2,33*%
%TO.N,Net-(U2-Pad33)*%
X182069999Y-87240000D03*
%TO.P,U2,32*%
%TO.N,SCL*%
X179529999Y-89780000D03*
%TO.P,U2,31*%
%TO.N,SDA*%
X179529999Y-87240000D03*
%TO.P,U2,30*%
%TO.N,EXTERNAL_INTERRUPT*%
X176989999Y-89780000D03*
%TO.P,U2,29*%
%TO.N,STATUS_CHECK*%
X176989999Y-87240000D03*
%TO.P,U2,28*%
%TO.N,Net-(U2-Pad28)*%
X174449999Y-89780000D03*
%TO.P,U2,27*%
%TO.N,Net-(U2-Pad27)*%
X174449999Y-87240000D03*
%TO.P,U2,26*%
%TO.N,Net-(U2-Pad26)*%
X171909999Y-89780000D03*
%TO.P,U2,25*%
%TO.N,Net-(U2-Pad25)*%
X171909999Y-87240000D03*
%TO.P,U2,24*%
%TO.N,Net-(U2-Pad24)*%
X169369999Y-89780000D03*
%TO.P,U2,23*%
%TO.N,Net-(U2-Pad23)*%
X169369999Y-87240000D03*
%TO.P,U2,22*%
%TO.N,Net-(U2-Pad22)*%
X166829999Y-89780000D03*
%TO.P,U2,21*%
%TO.N,Net-(U2-Pad21)*%
X166829999Y-87240000D03*
%TO.P,U2,20*%
%TO.N,Net-(U2-Pad20)*%
X164289999Y-89780000D03*
%TO.P,U2,19*%
%TO.N,Net-(U2-Pad19)*%
X164289999Y-87240000D03*
%TO.P,U2,18*%
%TO.N,D7*%
X161749999Y-89780000D03*
%TO.P,U2,17*%
%TO.N,D6*%
X161749999Y-87240000D03*
%TO.P,U2,16*%
%TO.N,Net-(U2-Pad16)*%
X159209999Y-89780000D03*
%TO.P,U2,15*%
%TO.N,CHARGE_CONTROL_SIGNAL*%
X159209999Y-87240000D03*
%TO.P,U2,14*%
%TO.N,Net-(U2-Pad14)*%
X156669999Y-89780000D03*
%TO.P,U2,13*%
%TO.N,DATA*%
X156669999Y-87240000D03*
%TO.P,U2,12*%
%TO.N,Net-(U2-Pad12)*%
X154129999Y-89780000D03*
%TO.P,U2,11*%
%TO.N,Net-(U2-Pad11)*%
X154129999Y-87240000D03*
%TO.P,U2,10*%
%TO.N,Net-(U2-Pad10)*%
X151589999Y-89780000D03*
%TO.P,U2,9*%
%TO.N,AREF*%
X151589999Y-87240000D03*
%TO.P,U2,8*%
%TO.N,3V3*%
X149049999Y-89780000D03*
%TO.P,U2,7*%
X149049999Y-87240000D03*
%TO.P,U2,6*%
%TO.N,5V*%
X146509999Y-89780000D03*
%TO.P,U2,5*%
X146509999Y-87240000D03*
%TO.P,U2,4*%
%TO.N,GND*%
X143969999Y-89780000D03*
%TO.P,U2,3*%
X143969999Y-87240000D03*
%TO.P,U2,2*%
%TO.N,Net-(U2-Pad2)*%
X141429999Y-89780000D03*
%TO.P,U2,85*%
%TO.N,Net-(U2-Pad85)*%
X192169999Y-77080000D03*
%TO.P,U2,83*%
%TO.N,Net-(U2-Pad83)*%
X192169999Y-74540000D03*
%TO.P,U2,81*%
%TO.N,Net-(U2-Pad81)*%
X192169999Y-72000000D03*
%TO.P,U2,86*%
%TO.N,Net-(U2-Pad86)*%
X189629999Y-77080000D03*
%TO.P,U2,84*%
%TO.N,Net-(U2-Pad84)*%
X189629999Y-74540000D03*
%TO.P,U2,82*%
%TO.N,Net-(U2-Pad82)*%
X189629999Y-72000000D03*
%TO.P,U2,79*%
%TO.N,SCK*%
X192229999Y-64380000D03*
%TO.P,U2,77*%
%TO.N,MISO*%
X192229999Y-61840000D03*
%TO.P,U2,75*%
%TO.N,Net-(U2-Pad75)*%
X192229999Y-59300000D03*
%TO.P,U2,80*%
%TO.N,CS*%
X189689999Y-64380000D03*
%TO.P,U2,78*%
%TO.N,MOSI*%
X189689999Y-61840000D03*
%TO.P,U2,76*%
%TO.N,Net-(U2-Pad76)*%
X189689999Y-59300000D03*
%TO.P,U2,43*%
%TO.N,A0*%
X154129999Y-54220000D03*
%TO.P,U2,1*%
%TO.N,Net-(U2-Pad1)*%
X141429999Y-87240000D03*
%TD*%
D12*
%TO.N,5V*%
X146509999Y-89780000D02*
X146509999Y-87240000D01*
D13*
%TO.N,A8*%
X179694970Y-58274970D02*
X181920000Y-60500000D01*
X166679967Y-58274970D02*
X179694970Y-58274970D01*
X165704998Y-57300001D02*
X166679967Y-58274970D01*
X165704998Y-55634999D02*
X165704998Y-57300001D01*
X164289999Y-54220000D02*
X165704998Y-55634999D01*
%TO.N,A6*%
X164589977Y-58724980D02*
X172524980Y-58724980D01*
X163164998Y-57300001D02*
X164589977Y-58724980D01*
X163164998Y-55634999D02*
X163164998Y-57300001D01*
X172524980Y-58724980D02*
X174300000Y-60500000D01*
X161749999Y-54220000D02*
X163164998Y-55634999D01*
%TO.N,A4*%
X165354990Y-59174990D02*
X166680000Y-60500000D01*
X162499987Y-59174990D02*
X165354990Y-59174990D01*
X160624998Y-57300001D02*
X162499987Y-59174990D01*
X160624998Y-55634999D02*
X160624998Y-57300001D01*
X159209999Y-54220000D02*
X160624998Y-55634999D01*
%TO.N,A2*%
X160830293Y-60500000D02*
X161600000Y-60500000D01*
X157795000Y-57464707D02*
X160830293Y-60500000D01*
X157795000Y-55345001D02*
X157795000Y-57464707D01*
X156669999Y-54220000D02*
X157795000Y-55345001D01*
%TO.N,A0*%
X155255000Y-59235000D02*
X156520000Y-60500000D01*
X155255000Y-55345001D02*
X155255000Y-59235000D01*
X154129999Y-54220000D02*
X155255000Y-55345001D01*
D12*
%TO.N,3V3*%
X149049999Y-89780000D02*
X149049999Y-87240000D01*
X149049999Y-87240000D02*
X151089989Y-85200010D01*
X187000000Y-79000000D02*
X187000000Y-60500000D01*
X187799990Y-85200010D02*
X189000000Y-84000000D01*
X151089989Y-85200010D02*
X187799990Y-85200010D01*
X189000000Y-84000000D02*
X189000000Y-81000000D01*
X189000000Y-81000000D02*
X187000000Y-79000000D01*
%TD*%
D14*
%TO.N,GND*%
G36*
X153015362Y-53305241D02*
G01*
X152858319Y-53540273D01*
X152750146Y-53801426D01*
X152694999Y-54078665D01*
X152694999Y-54361335D01*
X152750146Y-54638574D01*
X152858319Y-54899727D01*
X153015362Y-55134759D01*
X153215240Y-55334637D01*
X153447758Y-55490000D01*
X153215240Y-55645363D01*
X153015362Y-55845241D01*
X152858319Y-56080273D01*
X152750146Y-56341426D01*
X152694999Y-56618665D01*
X152694999Y-56901335D01*
X152750146Y-57178574D01*
X152858319Y-57439727D01*
X153015362Y-57674759D01*
X153215240Y-57874637D01*
X153450272Y-58031680D01*
X153711425Y-58139853D01*
X153988664Y-58195000D01*
X154271334Y-58195000D01*
X154495001Y-58150509D01*
X154495001Y-58958286D01*
X154424236Y-58926513D01*
X154321185Y-58907682D01*
X154107000Y-59030344D01*
X154107000Y-60373000D01*
X154127000Y-60373000D01*
X154127000Y-60627000D01*
X154107000Y-60627000D01*
X154107000Y-61969656D01*
X154321185Y-62092318D01*
X154424236Y-62073487D01*
X154673900Y-61961390D01*
X154896897Y-61802740D01*
X155084658Y-61603634D01*
X155229968Y-61371724D01*
X155251550Y-61314971D01*
X155362843Y-61523187D01*
X155535919Y-61734080D01*
X155746812Y-61907157D01*
X155987419Y-62035764D01*
X156248493Y-62114960D01*
X156520000Y-62141701D01*
X156791506Y-62114960D01*
X157052580Y-62035764D01*
X157293187Y-61907157D01*
X157504080Y-61734081D01*
X157677157Y-61523188D01*
X157790000Y-61312073D01*
X157902843Y-61523187D01*
X158075919Y-61734080D01*
X158286812Y-61907157D01*
X158527419Y-62035764D01*
X158788493Y-62114960D01*
X159060000Y-62141701D01*
X159331506Y-62114960D01*
X159592580Y-62035764D01*
X159833187Y-61907157D01*
X160044080Y-61734081D01*
X160217157Y-61523188D01*
X160330000Y-61312073D01*
X160442843Y-61523187D01*
X160615919Y-61734080D01*
X160826812Y-61907157D01*
X161067419Y-62035764D01*
X161328493Y-62114960D01*
X161600000Y-62141701D01*
X161871506Y-62114960D01*
X162132580Y-62035764D01*
X162373187Y-61907157D01*
X162584080Y-61734081D01*
X162757157Y-61523188D01*
X162870000Y-61312073D01*
X162982843Y-61523187D01*
X163155919Y-61734080D01*
X163366812Y-61907157D01*
X163607419Y-62035764D01*
X163868493Y-62114960D01*
X164140000Y-62141701D01*
X164411506Y-62114960D01*
X164672580Y-62035764D01*
X164913187Y-61907157D01*
X165124080Y-61734081D01*
X165297157Y-61523188D01*
X165410000Y-61312073D01*
X165522843Y-61523187D01*
X165695919Y-61734080D01*
X165906812Y-61907157D01*
X166147419Y-62035764D01*
X166408493Y-62114960D01*
X166680000Y-62141701D01*
X166951506Y-62114960D01*
X167212580Y-62035764D01*
X167453187Y-61907157D01*
X167664080Y-61734081D01*
X167837157Y-61523188D01*
X167950000Y-61312073D01*
X168062843Y-61523187D01*
X168235919Y-61734080D01*
X168446812Y-61907157D01*
X168687419Y-62035764D01*
X168948493Y-62114960D01*
X169220000Y-62141701D01*
X169491506Y-62114960D01*
X169752580Y-62035764D01*
X169993187Y-61907157D01*
X170204080Y-61734081D01*
X170377157Y-61523188D01*
X170490000Y-61312073D01*
X170602843Y-61523187D01*
X170775919Y-61734080D01*
X170986812Y-61907157D01*
X171227419Y-62035764D01*
X171488493Y-62114960D01*
X171760000Y-62141701D01*
X172031506Y-62114960D01*
X172292580Y-62035764D01*
X172533187Y-61907157D01*
X172744080Y-61734081D01*
X172917157Y-61523188D01*
X173030000Y-61312073D01*
X173142843Y-61523187D01*
X173315919Y-61734080D01*
X173526812Y-61907157D01*
X173767419Y-62035764D01*
X174028493Y-62114960D01*
X174300000Y-62141701D01*
X174571506Y-62114960D01*
X174832580Y-62035764D01*
X175073187Y-61907157D01*
X175284080Y-61734081D01*
X175457157Y-61523188D01*
X175570000Y-61312073D01*
X175682843Y-61523187D01*
X175855919Y-61734080D01*
X176066812Y-61907157D01*
X176307419Y-62035764D01*
X176568493Y-62114960D01*
X176840000Y-62141701D01*
X177111506Y-62114960D01*
X177372580Y-62035764D01*
X177613187Y-61907157D01*
X177824080Y-61734081D01*
X177997157Y-61523188D01*
X178110000Y-61312073D01*
X178222843Y-61523187D01*
X178395919Y-61734080D01*
X178606812Y-61907157D01*
X178847419Y-62035764D01*
X179108493Y-62114960D01*
X179380000Y-62141701D01*
X179651506Y-62114960D01*
X179912580Y-62035764D01*
X180153187Y-61907157D01*
X180364080Y-61734081D01*
X180537157Y-61523188D01*
X180650000Y-61312073D01*
X180762843Y-61523187D01*
X180935919Y-61734080D01*
X181146812Y-61907157D01*
X181387419Y-62035764D01*
X181648493Y-62114960D01*
X181920000Y-62141701D01*
X182191506Y-62114960D01*
X182452580Y-62035764D01*
X182693187Y-61907157D01*
X182904080Y-61734081D01*
X183077157Y-61523188D01*
X183190000Y-61312073D01*
X183302843Y-61523187D01*
X183475919Y-61734080D01*
X183686812Y-61907157D01*
X183927419Y-62035764D01*
X184188493Y-62114960D01*
X184460000Y-62141701D01*
X184731506Y-62114960D01*
X184992580Y-62035764D01*
X185233187Y-61907157D01*
X185444080Y-61734081D01*
X185617157Y-61523188D01*
X185730000Y-61312073D01*
X185842843Y-61523187D01*
X185865001Y-61550186D01*
X185865000Y-78944249D01*
X185859509Y-79000000D01*
X185865000Y-79055751D01*
X185881423Y-79222498D01*
X185946324Y-79436446D01*
X186051716Y-79633623D01*
X186193551Y-79806449D01*
X186236865Y-79841996D01*
X187865001Y-81470133D01*
X187865001Y-82160339D01*
X187693900Y-82038610D01*
X187444236Y-81926513D01*
X187341185Y-81907682D01*
X187127000Y-82030344D01*
X187127000Y-83373000D01*
X187147000Y-83373000D01*
X187147000Y-83627000D01*
X187127000Y-83627000D01*
X187127000Y-83647000D01*
X186873000Y-83647000D01*
X186873000Y-83627000D01*
X186853000Y-83627000D01*
X186853000Y-83373000D01*
X186873000Y-83373000D01*
X186873000Y-82030344D01*
X186658815Y-81907682D01*
X186555764Y-81926513D01*
X186306100Y-82038610D01*
X186083103Y-82197260D01*
X185895342Y-82396366D01*
X185750032Y-82628276D01*
X185728451Y-82685029D01*
X185617157Y-82476812D01*
X185444081Y-82265919D01*
X185233188Y-82092843D01*
X184992581Y-81964236D01*
X184731507Y-81885040D01*
X184460000Y-81858299D01*
X184188494Y-81885040D01*
X183927420Y-81964236D01*
X183686813Y-82092843D01*
X183475920Y-82265919D01*
X183302843Y-82476812D01*
X183190000Y-82687927D01*
X183077157Y-82476812D01*
X182904081Y-82265919D01*
X182693188Y-82092843D01*
X182452581Y-81964236D01*
X182191507Y-81885040D01*
X181920000Y-81858299D01*
X181648494Y-81885040D01*
X181387420Y-81964236D01*
X181146813Y-82092843D01*
X180935920Y-82265919D01*
X180762843Y-82476812D01*
X180650000Y-82687927D01*
X180537157Y-82476812D01*
X180364081Y-82265919D01*
X180153188Y-82092843D01*
X179912581Y-81964236D01*
X179651507Y-81885040D01*
X179380000Y-81858299D01*
X179108494Y-81885040D01*
X178847420Y-81964236D01*
X178606813Y-82092843D01*
X178395920Y-82265919D01*
X178222843Y-82476812D01*
X178110000Y-82687927D01*
X177997157Y-82476812D01*
X177824081Y-82265919D01*
X177613188Y-82092843D01*
X177372581Y-81964236D01*
X177111507Y-81885040D01*
X176840000Y-81858299D01*
X176568494Y-81885040D01*
X176307420Y-81964236D01*
X176066813Y-82092843D01*
X175855920Y-82265919D01*
X175682843Y-82476812D01*
X175570000Y-82687927D01*
X175457157Y-82476812D01*
X175284081Y-82265919D01*
X175073188Y-82092843D01*
X174832581Y-81964236D01*
X174571507Y-81885040D01*
X174300000Y-81858299D01*
X174028494Y-81885040D01*
X173767420Y-81964236D01*
X173526813Y-82092843D01*
X173315920Y-82265919D01*
X173142843Y-82476812D01*
X173031549Y-82685028D01*
X173009968Y-82628276D01*
X172864658Y-82396366D01*
X172676897Y-82197260D01*
X172453900Y-82038610D01*
X172204236Y-81926513D01*
X172101185Y-81907682D01*
X171887000Y-82030344D01*
X171887000Y-83373000D01*
X171907000Y-83373000D01*
X171907000Y-83627000D01*
X171887000Y-83627000D01*
X171887000Y-83647000D01*
X171633000Y-83647000D01*
X171633000Y-83627000D01*
X171613000Y-83627000D01*
X171613000Y-83373000D01*
X171633000Y-83373000D01*
X171633000Y-82030344D01*
X171418815Y-81907682D01*
X171315764Y-81926513D01*
X171066100Y-82038610D01*
X170843103Y-82197260D01*
X170655342Y-82396366D01*
X170510032Y-82628276D01*
X170488451Y-82685029D01*
X170377157Y-82476812D01*
X170204081Y-82265919D01*
X169993188Y-82092843D01*
X169752581Y-81964236D01*
X169491507Y-81885040D01*
X169220000Y-81858299D01*
X168948494Y-81885040D01*
X168687420Y-81964236D01*
X168446813Y-82092843D01*
X168235920Y-82265919D01*
X168062843Y-82476812D01*
X167950000Y-82687927D01*
X167837157Y-82476812D01*
X167664081Y-82265919D01*
X167453188Y-82092843D01*
X167212581Y-81964236D01*
X166951507Y-81885040D01*
X166680000Y-81858299D01*
X166408494Y-81885040D01*
X166147420Y-81964236D01*
X165906813Y-82092843D01*
X165695920Y-82265919D01*
X165522843Y-82476812D01*
X165410000Y-82687927D01*
X165297157Y-82476812D01*
X165124081Y-82265919D01*
X164913188Y-82092843D01*
X164672581Y-81964236D01*
X164411507Y-81885040D01*
X164140000Y-81858299D01*
X163868494Y-81885040D01*
X163607420Y-81964236D01*
X163366813Y-82092843D01*
X163155920Y-82265919D01*
X162982843Y-82476812D01*
X162870000Y-82687927D01*
X162757157Y-82476812D01*
X162584081Y-82265919D01*
X162373188Y-82092843D01*
X162132581Y-81964236D01*
X161871507Y-81885040D01*
X161600000Y-81858299D01*
X161328494Y-81885040D01*
X161067420Y-81964236D01*
X160826813Y-82092843D01*
X160615920Y-82265919D01*
X160442843Y-82476812D01*
X160330000Y-82687927D01*
X160217157Y-82476812D01*
X160044081Y-82265919D01*
X159833188Y-82092843D01*
X159592581Y-81964236D01*
X159331507Y-81885040D01*
X159060000Y-81858299D01*
X158788494Y-81885040D01*
X158527420Y-81964236D01*
X158286813Y-82092843D01*
X158075920Y-82265919D01*
X157902843Y-82476812D01*
X157790000Y-82687927D01*
X157677157Y-82476812D01*
X157504081Y-82265919D01*
X157293188Y-82092843D01*
X157052581Y-81964236D01*
X156791507Y-81885040D01*
X156520000Y-81858299D01*
X156248494Y-81885040D01*
X155987420Y-81964236D01*
X155746813Y-82092843D01*
X155535920Y-82265919D01*
X155362843Y-82476812D01*
X155250000Y-82687927D01*
X155137157Y-82476812D01*
X154964081Y-82265919D01*
X154753188Y-82092843D01*
X154512581Y-81964236D01*
X154251507Y-81885040D01*
X153980000Y-81858299D01*
X153708494Y-81885040D01*
X153447420Y-81964236D01*
X153206813Y-82092843D01*
X152995920Y-82265919D01*
X152822843Y-82476812D01*
X152710000Y-82687927D01*
X152597157Y-82476812D01*
X152424081Y-82265919D01*
X152213188Y-82092843D01*
X151972581Y-81964236D01*
X151711507Y-81885040D01*
X151440000Y-81858299D01*
X151168494Y-81885040D01*
X150907420Y-81964236D01*
X150666813Y-82092843D01*
X150455920Y-82265919D01*
X150282843Y-82476812D01*
X150170000Y-82687927D01*
X150057157Y-82476812D01*
X149884081Y-82265919D01*
X149673188Y-82092843D01*
X149432581Y-81964236D01*
X149171507Y-81885040D01*
X148900000Y-81858299D01*
X148628494Y-81885040D01*
X148367420Y-81964236D01*
X148126813Y-82092843D01*
X147915920Y-82265919D01*
X147742843Y-82476812D01*
X147630000Y-82687927D01*
X147517157Y-82476812D01*
X147344081Y-82265919D01*
X147133188Y-82092843D01*
X146892581Y-81964236D01*
X146631507Y-81885040D01*
X146360000Y-81858299D01*
X146088494Y-81885040D01*
X145827420Y-81964236D01*
X145586813Y-82092843D01*
X145375920Y-82265919D01*
X145202843Y-82476812D01*
X145090000Y-82687927D01*
X144977157Y-82476812D01*
X144804081Y-82265919D01*
X144593188Y-82092843D01*
X144352581Y-81964236D01*
X144091507Y-81885040D01*
X143820000Y-81858299D01*
X143548494Y-81885040D01*
X143287420Y-81964236D01*
X143046813Y-82092843D01*
X142835920Y-82265919D01*
X142662843Y-82476812D01*
X142550000Y-82687927D01*
X142437157Y-82476812D01*
X142264081Y-82265919D01*
X142053188Y-82092843D01*
X141812581Y-81964236D01*
X141551507Y-81885040D01*
X141280000Y-81858299D01*
X141008494Y-81885040D01*
X140747420Y-81964236D01*
X140506813Y-82092843D01*
X140295920Y-82265919D01*
X140122843Y-82476812D01*
X139994236Y-82717419D01*
X139915040Y-82978493D01*
X139895000Y-83181963D01*
X139895000Y-83818036D01*
X139915040Y-84021506D01*
X139994236Y-84282580D01*
X140122843Y-84523187D01*
X140295919Y-84734080D01*
X140506812Y-84907157D01*
X140747419Y-85035764D01*
X141008493Y-85114960D01*
X141280000Y-85141701D01*
X141551506Y-85114960D01*
X141812580Y-85035764D01*
X142053187Y-84907157D01*
X142264080Y-84734081D01*
X142437157Y-84523188D01*
X142550000Y-84312073D01*
X142662843Y-84523187D01*
X142835919Y-84734080D01*
X143046812Y-84907157D01*
X143287419Y-85035764D01*
X143548493Y-85114960D01*
X143820000Y-85141701D01*
X144091506Y-85114960D01*
X144352580Y-85035764D01*
X144593187Y-84907157D01*
X144804080Y-84734081D01*
X144977157Y-84523188D01*
X145090000Y-84312073D01*
X145202843Y-84523187D01*
X145375919Y-84734080D01*
X145586812Y-84907157D01*
X145827419Y-85035764D01*
X146088493Y-85114960D01*
X146360000Y-85141701D01*
X146631506Y-85114960D01*
X146892580Y-85035764D01*
X147133187Y-84907157D01*
X147344080Y-84734081D01*
X147517157Y-84523188D01*
X147630000Y-84312073D01*
X147742843Y-84523187D01*
X147915919Y-84734080D01*
X148126812Y-84907157D01*
X148367419Y-85035764D01*
X148628493Y-85114960D01*
X148900000Y-85141701D01*
X149171506Y-85114960D01*
X149432580Y-85035764D01*
X149673187Y-84907157D01*
X149884080Y-84734081D01*
X150057157Y-84523188D01*
X150170000Y-84312073D01*
X150240638Y-84444228D01*
X148872717Y-85812150D01*
X148631425Y-85860147D01*
X148370272Y-85968320D01*
X148135240Y-86125363D01*
X147935362Y-86325241D01*
X147779999Y-86557759D01*
X147624636Y-86325241D01*
X147424758Y-86125363D01*
X147189726Y-85968320D01*
X146928573Y-85860147D01*
X146651334Y-85805000D01*
X146368664Y-85805000D01*
X146091425Y-85860147D01*
X145830272Y-85968320D01*
X145595240Y-86125363D01*
X145395362Y-86325241D01*
X145239084Y-86559128D01*
X145206670Y-86498486D01*
X144962701Y-86426903D01*
X144149604Y-87240000D01*
X144962701Y-88053097D01*
X145206670Y-87981514D01*
X145237193Y-87917008D01*
X145238319Y-87919727D01*
X145375000Y-88124285D01*
X145374999Y-88895716D01*
X145239084Y-89099128D01*
X145206670Y-89038486D01*
X144962701Y-88966903D01*
X144149604Y-89780000D01*
X144962701Y-90593097D01*
X145206670Y-90521514D01*
X145237193Y-90457008D01*
X145238319Y-90459727D01*
X145395362Y-90694759D01*
X145595240Y-90894637D01*
X145830272Y-91051680D01*
X146091425Y-91159853D01*
X146368664Y-91215000D01*
X146651334Y-91215000D01*
X146928573Y-91159853D01*
X147189726Y-91051680D01*
X147424758Y-90894637D01*
X147624636Y-90694759D01*
X147779999Y-90462241D01*
X147935362Y-90694759D01*
X148135240Y-90894637D01*
X148370272Y-91051680D01*
X148631425Y-91159853D01*
X148908664Y-91215000D01*
X149191334Y-91215000D01*
X149468573Y-91159853D01*
X149729726Y-91051680D01*
X149964758Y-90894637D01*
X150164636Y-90694759D01*
X150319999Y-90462241D01*
X150475362Y-90694759D01*
X150675240Y-90894637D01*
X150910272Y-91051680D01*
X151171425Y-91159853D01*
X151448664Y-91215000D01*
X151731334Y-91215000D01*
X152008573Y-91159853D01*
X152269726Y-91051680D01*
X152504758Y-90894637D01*
X152704636Y-90694759D01*
X152859999Y-90462241D01*
X153015362Y-90694759D01*
X153215240Y-90894637D01*
X153450272Y-91051680D01*
X153711425Y-91159853D01*
X153988664Y-91215000D01*
X154271334Y-91215000D01*
X154548573Y-91159853D01*
X154809726Y-91051680D01*
X155044758Y-90894637D01*
X155244636Y-90694759D01*
X155399999Y-90462241D01*
X155555362Y-90694759D01*
X155755240Y-90894637D01*
X155990272Y-91051680D01*
X156251425Y-91159853D01*
X156528664Y-91215000D01*
X156811334Y-91215000D01*
X157088573Y-91159853D01*
X157349726Y-91051680D01*
X157584758Y-90894637D01*
X157784636Y-90694759D01*
X157939999Y-90462241D01*
X158095362Y-90694759D01*
X158295240Y-90894637D01*
X158530272Y-91051680D01*
X158791425Y-91159853D01*
X159068664Y-91215000D01*
X159351334Y-91215000D01*
X159628573Y-91159853D01*
X159889726Y-91051680D01*
X160124758Y-90894637D01*
X160324636Y-90694759D01*
X160479999Y-90462241D01*
X160635362Y-90694759D01*
X160835240Y-90894637D01*
X161070272Y-91051680D01*
X161331425Y-91159853D01*
X161608664Y-91215000D01*
X161891334Y-91215000D01*
X162168573Y-91159853D01*
X162429726Y-91051680D01*
X162664758Y-90894637D01*
X162864636Y-90694759D01*
X163019999Y-90462241D01*
X163175362Y-90694759D01*
X163375240Y-90894637D01*
X163610272Y-91051680D01*
X163871425Y-91159853D01*
X164148664Y-91215000D01*
X164431334Y-91215000D01*
X164708573Y-91159853D01*
X164969726Y-91051680D01*
X165204758Y-90894637D01*
X165404636Y-90694759D01*
X165559999Y-90462241D01*
X165715362Y-90694759D01*
X165915240Y-90894637D01*
X166150272Y-91051680D01*
X166411425Y-91159853D01*
X166688664Y-91215000D01*
X166971334Y-91215000D01*
X167248573Y-91159853D01*
X167509726Y-91051680D01*
X167744758Y-90894637D01*
X167944636Y-90694759D01*
X168099999Y-90462241D01*
X168255362Y-90694759D01*
X168455240Y-90894637D01*
X168690272Y-91051680D01*
X168951425Y-91159853D01*
X169228664Y-91215000D01*
X169511334Y-91215000D01*
X169788573Y-91159853D01*
X170049726Y-91051680D01*
X170284758Y-90894637D01*
X170484636Y-90694759D01*
X170639999Y-90462241D01*
X170795362Y-90694759D01*
X170995240Y-90894637D01*
X171230272Y-91051680D01*
X171491425Y-91159853D01*
X171768664Y-91215000D01*
X172051334Y-91215000D01*
X172328573Y-91159853D01*
X172589726Y-91051680D01*
X172824758Y-90894637D01*
X173024636Y-90694759D01*
X173179999Y-90462241D01*
X173335362Y-90694759D01*
X173535240Y-90894637D01*
X173770272Y-91051680D01*
X174031425Y-91159853D01*
X174308664Y-91215000D01*
X174591334Y-91215000D01*
X174868573Y-91159853D01*
X175129726Y-91051680D01*
X175364758Y-90894637D01*
X175564636Y-90694759D01*
X175719999Y-90462241D01*
X175875362Y-90694759D01*
X176075240Y-90894637D01*
X176310272Y-91051680D01*
X176571425Y-91159853D01*
X176848664Y-91215000D01*
X177131334Y-91215000D01*
X177408573Y-91159853D01*
X177669726Y-91051680D01*
X177904758Y-90894637D01*
X178104636Y-90694759D01*
X178259999Y-90462241D01*
X178415362Y-90694759D01*
X178615240Y-90894637D01*
X178850272Y-91051680D01*
X179111425Y-91159853D01*
X179388664Y-91215000D01*
X179671334Y-91215000D01*
X179948573Y-91159853D01*
X180209726Y-91051680D01*
X180444758Y-90894637D01*
X180644636Y-90694759D01*
X180799999Y-90462241D01*
X180955362Y-90694759D01*
X181155240Y-90894637D01*
X181390272Y-91051680D01*
X181651425Y-91159853D01*
X181928664Y-91215000D01*
X182211334Y-91215000D01*
X182488573Y-91159853D01*
X182749726Y-91051680D01*
X182984758Y-90894637D01*
X183184636Y-90694759D01*
X183339999Y-90462241D01*
X183495362Y-90694759D01*
X183695240Y-90894637D01*
X183930272Y-91051680D01*
X184191425Y-91159853D01*
X184468664Y-91215000D01*
X184751334Y-91215000D01*
X185028573Y-91159853D01*
X185289726Y-91051680D01*
X185524758Y-90894637D01*
X185724636Y-90694759D01*
X185879999Y-90462241D01*
X186035362Y-90694759D01*
X186235240Y-90894637D01*
X186470272Y-91051680D01*
X186731425Y-91159853D01*
X187008664Y-91215000D01*
X187291334Y-91215000D01*
X187568573Y-91159853D01*
X187829726Y-91051680D01*
X188064758Y-90894637D01*
X188264636Y-90694759D01*
X188419999Y-90462241D01*
X188575362Y-90694759D01*
X188775240Y-90894637D01*
X189010272Y-91051680D01*
X189271425Y-91159853D01*
X189548664Y-91215000D01*
X189831334Y-91215000D01*
X190108573Y-91159853D01*
X190369726Y-91051680D01*
X190604758Y-90894637D01*
X190804636Y-90694759D01*
X190959999Y-90462241D01*
X191115362Y-90694759D01*
X191315240Y-90894637D01*
X191550272Y-91051680D01*
X191811425Y-91159853D01*
X192088664Y-91215000D01*
X192371334Y-91215000D01*
X192648573Y-91159853D01*
X192909726Y-91051680D01*
X193144758Y-90894637D01*
X193344636Y-90694759D01*
X193501679Y-90459727D01*
X193609852Y-90198574D01*
X193664999Y-89921335D01*
X193664999Y-89638665D01*
X193609852Y-89361426D01*
X193501679Y-89100273D01*
X193344636Y-88865241D01*
X193144758Y-88665363D01*
X192912240Y-88510000D01*
X193144758Y-88354637D01*
X193344636Y-88154759D01*
X193501679Y-87919727D01*
X193609852Y-87658574D01*
X193664999Y-87381335D01*
X193664999Y-87098665D01*
X193609852Y-86821426D01*
X193501679Y-86560273D01*
X193344636Y-86325241D01*
X193144758Y-86125363D01*
X192909726Y-85968320D01*
X192648573Y-85860147D01*
X192371334Y-85805000D01*
X192088664Y-85805000D01*
X191811425Y-85860147D01*
X191550272Y-85968320D01*
X191315240Y-86125363D01*
X191115362Y-86325241D01*
X190959999Y-86557759D01*
X190804636Y-86325241D01*
X190604758Y-86125363D01*
X190369726Y-85968320D01*
X190108573Y-85860147D01*
X189831334Y-85805000D01*
X189548664Y-85805000D01*
X189271425Y-85860147D01*
X189010272Y-85968320D01*
X188775240Y-86125363D01*
X188575362Y-86325241D01*
X188419999Y-86557759D01*
X188264636Y-86325241D01*
X188203172Y-86263777D01*
X188236437Y-86253686D01*
X188433613Y-86148294D01*
X188606439Y-86006459D01*
X188641986Y-85963145D01*
X189763140Y-84841992D01*
X189806449Y-84806449D01*
X189948284Y-84633623D01*
X190053676Y-84436447D01*
X190118577Y-84222499D01*
X190135000Y-84055752D01*
X190135000Y-84055743D01*
X190140490Y-84000001D01*
X190135000Y-83944259D01*
X190135000Y-81055751D01*
X190140491Y-80999999D01*
X190118577Y-80777500D01*
X190103471Y-80727705D01*
X190053676Y-80563553D01*
X189948284Y-80366377D01*
X189806449Y-80193551D01*
X189763141Y-80158009D01*
X188135000Y-78529869D01*
X188135000Y-71858665D01*
X188194999Y-71858665D01*
X188194999Y-72141335D01*
X188250146Y-72418574D01*
X188358319Y-72679727D01*
X188515362Y-72914759D01*
X188715240Y-73114637D01*
X188947758Y-73270000D01*
X188715240Y-73425363D01*
X188515362Y-73625241D01*
X188358319Y-73860273D01*
X188250146Y-74121426D01*
X188194999Y-74398665D01*
X188194999Y-74681335D01*
X188250146Y-74958574D01*
X188358319Y-75219727D01*
X188515362Y-75454759D01*
X188715240Y-75654637D01*
X188947758Y-75810000D01*
X188715240Y-75965363D01*
X188515362Y-76165241D01*
X188358319Y-76400273D01*
X188250146Y-76661426D01*
X188194999Y-76938665D01*
X188194999Y-77221335D01*
X188250146Y-77498574D01*
X188358319Y-77759727D01*
X188515362Y-77994759D01*
X188715240Y-78194637D01*
X188950272Y-78351680D01*
X189211425Y-78459853D01*
X189488664Y-78515000D01*
X189771334Y-78515000D01*
X190048573Y-78459853D01*
X190309726Y-78351680D01*
X190544758Y-78194637D01*
X190744636Y-77994759D01*
X190899999Y-77762241D01*
X191055362Y-77994759D01*
X191255240Y-78194637D01*
X191490272Y-78351680D01*
X191751425Y-78459853D01*
X192028664Y-78515000D01*
X192311334Y-78515000D01*
X192588573Y-78459853D01*
X192849726Y-78351680D01*
X193084758Y-78194637D01*
X193284636Y-77994759D01*
X193441679Y-77759727D01*
X193549852Y-77498574D01*
X193604999Y-77221335D01*
X193604999Y-76938665D01*
X193549852Y-76661426D01*
X193441679Y-76400273D01*
X193284636Y-76165241D01*
X193084758Y-75965363D01*
X192852240Y-75810000D01*
X193084758Y-75654637D01*
X193284636Y-75454759D01*
X193441679Y-75219727D01*
X193549852Y-74958574D01*
X193604999Y-74681335D01*
X193604999Y-74398665D01*
X193549852Y-74121426D01*
X193441679Y-73860273D01*
X193284636Y-73625241D01*
X193084758Y-73425363D01*
X192852240Y-73270000D01*
X193084758Y-73114637D01*
X193284636Y-72914759D01*
X193441679Y-72679727D01*
X193549852Y-72418574D01*
X193604999Y-72141335D01*
X193604999Y-71858665D01*
X193549852Y-71581426D01*
X193441679Y-71320273D01*
X193284636Y-71085241D01*
X193084758Y-70885363D01*
X192849726Y-70728320D01*
X192588573Y-70620147D01*
X192311334Y-70565000D01*
X192028664Y-70565000D01*
X191751425Y-70620147D01*
X191490272Y-70728320D01*
X191255240Y-70885363D01*
X191055362Y-71085241D01*
X190899999Y-71317759D01*
X190744636Y-71085241D01*
X190544758Y-70885363D01*
X190309726Y-70728320D01*
X190048573Y-70620147D01*
X189771334Y-70565000D01*
X189488664Y-70565000D01*
X189211425Y-70620147D01*
X188950272Y-70728320D01*
X188715240Y-70885363D01*
X188515362Y-71085241D01*
X188358319Y-71320273D01*
X188250146Y-71581426D01*
X188194999Y-71858665D01*
X188135000Y-71858665D01*
X188135000Y-61550186D01*
X188157157Y-61523188D01*
X188285764Y-61282581D01*
X188364960Y-61021507D01*
X188385000Y-60818037D01*
X188385000Y-60181964D01*
X188364960Y-59978494D01*
X188285764Y-59717420D01*
X188157157Y-59476812D01*
X187984081Y-59265919D01*
X187773188Y-59092843D01*
X187532581Y-58964236D01*
X187271507Y-58885040D01*
X187000000Y-58858299D01*
X186728494Y-58885040D01*
X186467420Y-58964236D01*
X186226813Y-59092843D01*
X186015920Y-59265919D01*
X185842843Y-59476812D01*
X185730000Y-59687927D01*
X185617157Y-59476812D01*
X185444081Y-59265919D01*
X185233188Y-59092843D01*
X184992581Y-58964236D01*
X184731507Y-58885040D01*
X184460000Y-58858299D01*
X184188494Y-58885040D01*
X183927420Y-58964236D01*
X183686813Y-59092843D01*
X183475920Y-59265919D01*
X183302843Y-59476812D01*
X183190000Y-59687927D01*
X183077157Y-59476812D01*
X182904081Y-59265919D01*
X182693188Y-59092843D01*
X182452581Y-58964236D01*
X182191507Y-58885040D01*
X181920000Y-58858299D01*
X181648494Y-58885040D01*
X181442369Y-58947567D01*
X180399607Y-57904806D01*
X180444758Y-57874637D01*
X180644636Y-57674759D01*
X180799999Y-57442241D01*
X180955362Y-57674759D01*
X181155240Y-57874637D01*
X181390272Y-58031680D01*
X181651425Y-58139853D01*
X181928664Y-58195000D01*
X182211334Y-58195000D01*
X182488573Y-58139853D01*
X182749726Y-58031680D01*
X182984758Y-57874637D01*
X183184636Y-57674759D01*
X183339999Y-57442241D01*
X183495362Y-57674759D01*
X183695240Y-57874637D01*
X183930272Y-58031680D01*
X184191425Y-58139853D01*
X184468664Y-58195000D01*
X184751334Y-58195000D01*
X185028573Y-58139853D01*
X185289726Y-58031680D01*
X185524758Y-57874637D01*
X185724636Y-57674759D01*
X185879999Y-57442241D01*
X186035362Y-57674759D01*
X186235240Y-57874637D01*
X186470272Y-58031680D01*
X186731425Y-58139853D01*
X187008664Y-58195000D01*
X187291334Y-58195000D01*
X187568573Y-58139853D01*
X187829726Y-58031680D01*
X188064758Y-57874637D01*
X188264636Y-57674759D01*
X188419999Y-57442241D01*
X188575362Y-57674759D01*
X188775240Y-57874637D01*
X189007758Y-58030000D01*
X188775240Y-58185363D01*
X188575362Y-58385241D01*
X188418319Y-58620273D01*
X188310146Y-58881426D01*
X188254999Y-59158665D01*
X188254999Y-59441335D01*
X188310146Y-59718574D01*
X188418319Y-59979727D01*
X188575362Y-60214759D01*
X188775240Y-60414637D01*
X189007758Y-60570000D01*
X188775240Y-60725363D01*
X188575362Y-60925241D01*
X188418319Y-61160273D01*
X188310146Y-61421426D01*
X188254999Y-61698665D01*
X188254999Y-61981335D01*
X188310146Y-62258574D01*
X188418319Y-62519727D01*
X188575362Y-62754759D01*
X188775240Y-62954637D01*
X189007758Y-63110000D01*
X188775240Y-63265363D01*
X188575362Y-63465241D01*
X188418319Y-63700273D01*
X188310146Y-63961426D01*
X188254999Y-64238665D01*
X188254999Y-64521335D01*
X188310146Y-64798574D01*
X188418319Y-65059727D01*
X188575362Y-65294759D01*
X188775240Y-65494637D01*
X189010272Y-65651680D01*
X189271425Y-65759853D01*
X189548664Y-65815000D01*
X189831334Y-65815000D01*
X190108573Y-65759853D01*
X190369726Y-65651680D01*
X190604758Y-65494637D01*
X190804636Y-65294759D01*
X190959999Y-65062241D01*
X191115362Y-65294759D01*
X191315240Y-65494637D01*
X191550272Y-65651680D01*
X191811425Y-65759853D01*
X192088664Y-65815000D01*
X192371334Y-65815000D01*
X192648573Y-65759853D01*
X192909726Y-65651680D01*
X193144758Y-65494637D01*
X193344636Y-65294759D01*
X193501679Y-65059727D01*
X193609852Y-64798574D01*
X193664999Y-64521335D01*
X193664999Y-64238665D01*
X193609852Y-63961426D01*
X193501679Y-63700273D01*
X193344636Y-63465241D01*
X193144758Y-63265363D01*
X192912240Y-63110000D01*
X193144758Y-62954637D01*
X193344636Y-62754759D01*
X193501679Y-62519727D01*
X193609852Y-62258574D01*
X193664999Y-61981335D01*
X193664999Y-61698665D01*
X193609852Y-61421426D01*
X193501679Y-61160273D01*
X193344636Y-60925241D01*
X193144758Y-60725363D01*
X192912240Y-60570000D01*
X193144758Y-60414637D01*
X193344636Y-60214759D01*
X193501679Y-59979727D01*
X193609852Y-59718574D01*
X193664999Y-59441335D01*
X193664999Y-59158665D01*
X193609852Y-58881426D01*
X193501679Y-58620273D01*
X193344636Y-58385241D01*
X193144758Y-58185363D01*
X192912240Y-58030000D01*
X193144758Y-57874637D01*
X193344636Y-57674759D01*
X193501679Y-57439727D01*
X193609852Y-57178574D01*
X193664999Y-56901335D01*
X193664999Y-56618665D01*
X193609852Y-56341426D01*
X193501679Y-56080273D01*
X193344636Y-55845241D01*
X193144758Y-55645363D01*
X192912240Y-55490000D01*
X193144758Y-55334637D01*
X193344636Y-55134759D01*
X193501679Y-54899727D01*
X193609852Y-54638574D01*
X193664999Y-54361335D01*
X193664999Y-54078665D01*
X193609852Y-53801426D01*
X193501679Y-53540273D01*
X193344636Y-53305241D01*
X193199395Y-53160000D01*
X193840001Y-53160000D01*
X193840000Y-91840000D01*
X139660000Y-91840000D01*
X139660000Y-87098665D01*
X139994999Y-87098665D01*
X139994999Y-87381335D01*
X140050146Y-87658574D01*
X140158319Y-87919727D01*
X140315362Y-88154759D01*
X140515240Y-88354637D01*
X140747758Y-88510000D01*
X140515240Y-88665363D01*
X140315362Y-88865241D01*
X140158319Y-89100273D01*
X140050146Y-89361426D01*
X139994999Y-89638665D01*
X139994999Y-89921335D01*
X140050146Y-90198574D01*
X140158319Y-90459727D01*
X140315362Y-90694759D01*
X140515240Y-90894637D01*
X140750272Y-91051680D01*
X141011425Y-91159853D01*
X141288664Y-91215000D01*
X141571334Y-91215000D01*
X141848573Y-91159853D01*
X142109726Y-91051680D01*
X142344758Y-90894637D01*
X142466693Y-90772702D01*
X143156902Y-90772702D01*
X143228485Y-91016671D01*
X143483995Y-91137571D01*
X143758183Y-91206300D01*
X144040511Y-91220217D01*
X144320129Y-91178787D01*
X144586291Y-91083603D01*
X144711513Y-91016671D01*
X144783096Y-90772702D01*
X143969999Y-89959605D01*
X143156902Y-90772702D01*
X142466693Y-90772702D01*
X142544636Y-90694759D01*
X142700914Y-90460872D01*
X142733328Y-90521514D01*
X142977297Y-90593097D01*
X143790394Y-89780000D01*
X142977297Y-88966903D01*
X142733328Y-89038486D01*
X142702805Y-89102992D01*
X142701679Y-89100273D01*
X142544636Y-88865241D01*
X142344758Y-88665363D01*
X142112240Y-88510000D01*
X142344758Y-88354637D01*
X142466693Y-88232702D01*
X143156902Y-88232702D01*
X143228485Y-88476671D01*
X143294635Y-88507971D01*
X143228485Y-88543329D01*
X143156902Y-88787298D01*
X143969999Y-89600395D01*
X144783096Y-88787298D01*
X144711513Y-88543329D01*
X144645363Y-88512029D01*
X144711513Y-88476671D01*
X144783096Y-88232702D01*
X143969999Y-87419605D01*
X143156902Y-88232702D01*
X142466693Y-88232702D01*
X142544636Y-88154759D01*
X142700914Y-87920872D01*
X142733328Y-87981514D01*
X142977297Y-88053097D01*
X143790394Y-87240000D01*
X142977297Y-86426903D01*
X142733328Y-86498486D01*
X142702805Y-86562992D01*
X142701679Y-86560273D01*
X142544636Y-86325241D01*
X142466693Y-86247298D01*
X143156902Y-86247298D01*
X143969999Y-87060395D01*
X144783096Y-86247298D01*
X144711513Y-86003329D01*
X144456003Y-85882429D01*
X144181815Y-85813700D01*
X143899487Y-85799783D01*
X143619869Y-85841213D01*
X143353707Y-85936397D01*
X143228485Y-86003329D01*
X143156902Y-86247298D01*
X142466693Y-86247298D01*
X142344758Y-86125363D01*
X142109726Y-85968320D01*
X141848573Y-85860147D01*
X141571334Y-85805000D01*
X141288664Y-85805000D01*
X141011425Y-85860147D01*
X140750272Y-85968320D01*
X140515240Y-86125363D01*
X140315362Y-86325241D01*
X140158319Y-86560273D01*
X140050146Y-86821426D01*
X139994999Y-87098665D01*
X139660000Y-87098665D01*
X139660000Y-60181963D01*
X139895000Y-60181963D01*
X139895000Y-60818036D01*
X139915040Y-61021506D01*
X139994236Y-61282580D01*
X140122843Y-61523187D01*
X140295919Y-61734080D01*
X140506812Y-61907157D01*
X140747419Y-62035764D01*
X141008493Y-62114960D01*
X141280000Y-62141701D01*
X141551506Y-62114960D01*
X141812580Y-62035764D01*
X142053187Y-61907157D01*
X142264080Y-61734081D01*
X142437157Y-61523188D01*
X142550000Y-61312073D01*
X142662843Y-61523187D01*
X142835919Y-61734080D01*
X143046812Y-61907157D01*
X143287419Y-62035764D01*
X143548493Y-62114960D01*
X143820000Y-62141701D01*
X144091506Y-62114960D01*
X144352580Y-62035764D01*
X144593187Y-61907157D01*
X144804080Y-61734081D01*
X144977157Y-61523188D01*
X145090000Y-61312073D01*
X145202843Y-61523187D01*
X145375919Y-61734080D01*
X145586812Y-61907157D01*
X145827419Y-62035764D01*
X146088493Y-62114960D01*
X146360000Y-62141701D01*
X146631506Y-62114960D01*
X146892580Y-62035764D01*
X147133187Y-61907157D01*
X147344080Y-61734081D01*
X147517157Y-61523188D01*
X147630000Y-61312073D01*
X147742843Y-61523187D01*
X147915919Y-61734080D01*
X148126812Y-61907157D01*
X148367419Y-62035764D01*
X148628493Y-62114960D01*
X148900000Y-62141701D01*
X149171506Y-62114960D01*
X149432580Y-62035764D01*
X149673187Y-61907157D01*
X149884080Y-61734081D01*
X150057157Y-61523188D01*
X150170000Y-61312073D01*
X150282843Y-61523187D01*
X150455919Y-61734080D01*
X150666812Y-61907157D01*
X150907419Y-62035764D01*
X151168493Y-62114960D01*
X151440000Y-62141701D01*
X151711506Y-62114960D01*
X151972580Y-62035764D01*
X152213187Y-61907157D01*
X152424080Y-61734081D01*
X152597157Y-61523188D01*
X152708451Y-61314972D01*
X152730032Y-61371724D01*
X152875342Y-61603634D01*
X153063103Y-61802740D01*
X153286100Y-61961390D01*
X153535764Y-62073487D01*
X153638815Y-62092318D01*
X153853000Y-61969656D01*
X153853000Y-60627000D01*
X153833000Y-60627000D01*
X153833000Y-60373000D01*
X153853000Y-60373000D01*
X153853000Y-59030344D01*
X153638815Y-58907682D01*
X153535764Y-58926513D01*
X153286100Y-59038610D01*
X153063103Y-59197260D01*
X152875342Y-59396366D01*
X152730032Y-59628276D01*
X152708451Y-59685029D01*
X152597157Y-59476812D01*
X152424081Y-59265919D01*
X152213188Y-59092843D01*
X151972581Y-58964236D01*
X151711507Y-58885040D01*
X151440000Y-58858299D01*
X151168494Y-58885040D01*
X150907420Y-58964236D01*
X150666813Y-59092843D01*
X150455920Y-59265919D01*
X150282843Y-59476812D01*
X150170000Y-59687927D01*
X150057157Y-59476812D01*
X149884081Y-59265919D01*
X149673188Y-59092843D01*
X149432581Y-58964236D01*
X149171507Y-58885040D01*
X148900000Y-58858299D01*
X148628494Y-58885040D01*
X148367420Y-58964236D01*
X148126813Y-59092843D01*
X147915920Y-59265919D01*
X147742843Y-59476812D01*
X147630000Y-59687927D01*
X147517157Y-59476812D01*
X147344081Y-59265919D01*
X147133188Y-59092843D01*
X146892581Y-58964236D01*
X146631507Y-58885040D01*
X146360000Y-58858299D01*
X146088494Y-58885040D01*
X145827420Y-58964236D01*
X145586813Y-59092843D01*
X145375920Y-59265919D01*
X145202843Y-59476812D01*
X145090000Y-59687927D01*
X144977157Y-59476812D01*
X144804081Y-59265919D01*
X144593188Y-59092843D01*
X144352581Y-58964236D01*
X144091507Y-58885040D01*
X143820000Y-58858299D01*
X143548494Y-58885040D01*
X143287420Y-58964236D01*
X143046813Y-59092843D01*
X142835920Y-59265919D01*
X142662843Y-59476812D01*
X142550000Y-59687927D01*
X142437157Y-59476812D01*
X142264081Y-59265919D01*
X142053188Y-59092843D01*
X141812581Y-58964236D01*
X141551507Y-58885040D01*
X141280000Y-58858299D01*
X141008494Y-58885040D01*
X140747420Y-58964236D01*
X140506813Y-59092843D01*
X140295920Y-59265919D01*
X140122843Y-59476812D01*
X139994236Y-59717419D01*
X139915040Y-59978493D01*
X139895000Y-60181963D01*
X139660000Y-60181963D01*
X139660000Y-53160000D01*
X153160603Y-53160000D01*
X153015362Y-53305241D01*
G37*
X153015362Y-53305241D02*
X152858319Y-53540273D01*
X152750146Y-53801426D01*
X152694999Y-54078665D01*
X152694999Y-54361335D01*
X152750146Y-54638574D01*
X152858319Y-54899727D01*
X153015362Y-55134759D01*
X153215240Y-55334637D01*
X153447758Y-55490000D01*
X153215240Y-55645363D01*
X153015362Y-55845241D01*
X152858319Y-56080273D01*
X152750146Y-56341426D01*
X152694999Y-56618665D01*
X152694999Y-56901335D01*
X152750146Y-57178574D01*
X152858319Y-57439727D01*
X153015362Y-57674759D01*
X153215240Y-57874637D01*
X153450272Y-58031680D01*
X153711425Y-58139853D01*
X153988664Y-58195000D01*
X154271334Y-58195000D01*
X154495001Y-58150509D01*
X154495001Y-58958286D01*
X154424236Y-58926513D01*
X154321185Y-58907682D01*
X154107000Y-59030344D01*
X154107000Y-60373000D01*
X154127000Y-60373000D01*
X154127000Y-60627000D01*
X154107000Y-60627000D01*
X154107000Y-61969656D01*
X154321185Y-62092318D01*
X154424236Y-62073487D01*
X154673900Y-61961390D01*
X154896897Y-61802740D01*
X155084658Y-61603634D01*
X155229968Y-61371724D01*
X155251550Y-61314971D01*
X155362843Y-61523187D01*
X155535919Y-61734080D01*
X155746812Y-61907157D01*
X155987419Y-62035764D01*
X156248493Y-62114960D01*
X156520000Y-62141701D01*
X156791506Y-62114960D01*
X157052580Y-62035764D01*
X157293187Y-61907157D01*
X157504080Y-61734081D01*
X157677157Y-61523188D01*
X157790000Y-61312073D01*
X157902843Y-61523187D01*
X158075919Y-61734080D01*
X158286812Y-61907157D01*
X158527419Y-62035764D01*
X158788493Y-62114960D01*
X159060000Y-62141701D01*
X159331506Y-62114960D01*
X159592580Y-62035764D01*
X159833187Y-61907157D01*
X160044080Y-61734081D01*
X160217157Y-61523188D01*
X160330000Y-61312073D01*
X160442843Y-61523187D01*
X160615919Y-61734080D01*
X160826812Y-61907157D01*
X161067419Y-62035764D01*
X161328493Y-62114960D01*
X161600000Y-62141701D01*
X161871506Y-62114960D01*
X162132580Y-62035764D01*
X162373187Y-61907157D01*
X162584080Y-61734081D01*
X162757157Y-61523188D01*
X162870000Y-61312073D01*
X162982843Y-61523187D01*
X163155919Y-61734080D01*
X163366812Y-61907157D01*
X163607419Y-62035764D01*
X163868493Y-62114960D01*
X164140000Y-62141701D01*
X164411506Y-62114960D01*
X164672580Y-62035764D01*
X164913187Y-61907157D01*
X165124080Y-61734081D01*
X165297157Y-61523188D01*
X165410000Y-61312073D01*
X165522843Y-61523187D01*
X165695919Y-61734080D01*
X165906812Y-61907157D01*
X166147419Y-62035764D01*
X166408493Y-62114960D01*
X166680000Y-62141701D01*
X166951506Y-62114960D01*
X167212580Y-62035764D01*
X167453187Y-61907157D01*
X167664080Y-61734081D01*
X167837157Y-61523188D01*
X167950000Y-61312073D01*
X168062843Y-61523187D01*
X168235919Y-61734080D01*
X168446812Y-61907157D01*
X168687419Y-62035764D01*
X168948493Y-62114960D01*
X169220000Y-62141701D01*
X169491506Y-62114960D01*
X169752580Y-62035764D01*
X169993187Y-61907157D01*
X170204080Y-61734081D01*
X170377157Y-61523188D01*
X170490000Y-61312073D01*
X170602843Y-61523187D01*
X170775919Y-61734080D01*
X170986812Y-61907157D01*
X171227419Y-62035764D01*
X171488493Y-62114960D01*
X171760000Y-62141701D01*
X172031506Y-62114960D01*
X172292580Y-62035764D01*
X172533187Y-61907157D01*
X172744080Y-61734081D01*
X172917157Y-61523188D01*
X173030000Y-61312073D01*
X173142843Y-61523187D01*
X173315919Y-61734080D01*
X173526812Y-61907157D01*
X173767419Y-62035764D01*
X174028493Y-62114960D01*
X174300000Y-62141701D01*
X174571506Y-62114960D01*
X174832580Y-62035764D01*
X175073187Y-61907157D01*
X175284080Y-61734081D01*
X175457157Y-61523188D01*
X175570000Y-61312073D01*
X175682843Y-61523187D01*
X175855919Y-61734080D01*
X176066812Y-61907157D01*
X176307419Y-62035764D01*
X176568493Y-62114960D01*
X176840000Y-62141701D01*
X177111506Y-62114960D01*
X177372580Y-62035764D01*
X177613187Y-61907157D01*
X177824080Y-61734081D01*
X177997157Y-61523188D01*
X178110000Y-61312073D01*
X178222843Y-61523187D01*
X178395919Y-61734080D01*
X178606812Y-61907157D01*
X178847419Y-62035764D01*
X179108493Y-62114960D01*
X179380000Y-62141701D01*
X179651506Y-62114960D01*
X179912580Y-62035764D01*
X180153187Y-61907157D01*
X180364080Y-61734081D01*
X180537157Y-61523188D01*
X180650000Y-61312073D01*
X180762843Y-61523187D01*
X180935919Y-61734080D01*
X181146812Y-61907157D01*
X181387419Y-62035764D01*
X181648493Y-62114960D01*
X181920000Y-62141701D01*
X182191506Y-62114960D01*
X182452580Y-62035764D01*
X182693187Y-61907157D01*
X182904080Y-61734081D01*
X183077157Y-61523188D01*
X183190000Y-61312073D01*
X183302843Y-61523187D01*
X183475919Y-61734080D01*
X183686812Y-61907157D01*
X183927419Y-62035764D01*
X184188493Y-62114960D01*
X184460000Y-62141701D01*
X184731506Y-62114960D01*
X184992580Y-62035764D01*
X185233187Y-61907157D01*
X185444080Y-61734081D01*
X185617157Y-61523188D01*
X185730000Y-61312073D01*
X185842843Y-61523187D01*
X185865001Y-61550186D01*
X185865000Y-78944249D01*
X185859509Y-79000000D01*
X185865000Y-79055751D01*
X185881423Y-79222498D01*
X185946324Y-79436446D01*
X186051716Y-79633623D01*
X186193551Y-79806449D01*
X186236865Y-79841996D01*
X187865001Y-81470133D01*
X187865001Y-82160339D01*
X187693900Y-82038610D01*
X187444236Y-81926513D01*
X187341185Y-81907682D01*
X187127000Y-82030344D01*
X187127000Y-83373000D01*
X187147000Y-83373000D01*
X187147000Y-83627000D01*
X187127000Y-83627000D01*
X187127000Y-83647000D01*
X186873000Y-83647000D01*
X186873000Y-83627000D01*
X186853000Y-83627000D01*
X186853000Y-83373000D01*
X186873000Y-83373000D01*
X186873000Y-82030344D01*
X186658815Y-81907682D01*
X186555764Y-81926513D01*
X186306100Y-82038610D01*
X186083103Y-82197260D01*
X185895342Y-82396366D01*
X185750032Y-82628276D01*
X185728451Y-82685029D01*
X185617157Y-82476812D01*
X185444081Y-82265919D01*
X185233188Y-82092843D01*
X184992581Y-81964236D01*
X184731507Y-81885040D01*
X184460000Y-81858299D01*
X184188494Y-81885040D01*
X183927420Y-81964236D01*
X183686813Y-82092843D01*
X183475920Y-82265919D01*
X183302843Y-82476812D01*
X183190000Y-82687927D01*
X183077157Y-82476812D01*
X182904081Y-82265919D01*
X182693188Y-82092843D01*
X182452581Y-81964236D01*
X182191507Y-81885040D01*
X181920000Y-81858299D01*
X181648494Y-81885040D01*
X181387420Y-81964236D01*
X181146813Y-82092843D01*
X180935920Y-82265919D01*
X180762843Y-82476812D01*
X180650000Y-82687927D01*
X180537157Y-82476812D01*
X180364081Y-82265919D01*
X180153188Y-82092843D01*
X179912581Y-81964236D01*
X179651507Y-81885040D01*
X179380000Y-81858299D01*
X179108494Y-81885040D01*
X178847420Y-81964236D01*
X178606813Y-82092843D01*
X178395920Y-82265919D01*
X178222843Y-82476812D01*
X178110000Y-82687927D01*
X177997157Y-82476812D01*
X177824081Y-82265919D01*
X177613188Y-82092843D01*
X177372581Y-81964236D01*
X177111507Y-81885040D01*
X176840000Y-81858299D01*
X176568494Y-81885040D01*
X176307420Y-81964236D01*
X176066813Y-82092843D01*
X175855920Y-82265919D01*
X175682843Y-82476812D01*
X175570000Y-82687927D01*
X175457157Y-82476812D01*
X175284081Y-82265919D01*
X175073188Y-82092843D01*
X174832581Y-81964236D01*
X174571507Y-81885040D01*
X174300000Y-81858299D01*
X174028494Y-81885040D01*
X173767420Y-81964236D01*
X173526813Y-82092843D01*
X173315920Y-82265919D01*
X173142843Y-82476812D01*
X173031549Y-82685028D01*
X173009968Y-82628276D01*
X172864658Y-82396366D01*
X172676897Y-82197260D01*
X172453900Y-82038610D01*
X172204236Y-81926513D01*
X172101185Y-81907682D01*
X171887000Y-82030344D01*
X171887000Y-83373000D01*
X171907000Y-83373000D01*
X171907000Y-83627000D01*
X171887000Y-83627000D01*
X171887000Y-83647000D01*
X171633000Y-83647000D01*
X171633000Y-83627000D01*
X171613000Y-83627000D01*
X171613000Y-83373000D01*
X171633000Y-83373000D01*
X171633000Y-82030344D01*
X171418815Y-81907682D01*
X171315764Y-81926513D01*
X171066100Y-82038610D01*
X170843103Y-82197260D01*
X170655342Y-82396366D01*
X170510032Y-82628276D01*
X170488451Y-82685029D01*
X170377157Y-82476812D01*
X170204081Y-82265919D01*
X169993188Y-82092843D01*
X169752581Y-81964236D01*
X169491507Y-81885040D01*
X169220000Y-81858299D01*
X168948494Y-81885040D01*
X168687420Y-81964236D01*
X168446813Y-82092843D01*
X168235920Y-82265919D01*
X168062843Y-82476812D01*
X167950000Y-82687927D01*
X167837157Y-82476812D01*
X167664081Y-82265919D01*
X167453188Y-82092843D01*
X167212581Y-81964236D01*
X166951507Y-81885040D01*
X166680000Y-81858299D01*
X166408494Y-81885040D01*
X166147420Y-81964236D01*
X165906813Y-82092843D01*
X165695920Y-82265919D01*
X165522843Y-82476812D01*
X165410000Y-82687927D01*
X165297157Y-82476812D01*
X165124081Y-82265919D01*
X164913188Y-82092843D01*
X164672581Y-81964236D01*
X164411507Y-81885040D01*
X164140000Y-81858299D01*
X163868494Y-81885040D01*
X163607420Y-81964236D01*
X163366813Y-82092843D01*
X163155920Y-82265919D01*
X162982843Y-82476812D01*
X162870000Y-82687927D01*
X162757157Y-82476812D01*
X162584081Y-82265919D01*
X162373188Y-82092843D01*
X162132581Y-81964236D01*
X161871507Y-81885040D01*
X161600000Y-81858299D01*
X161328494Y-81885040D01*
X161067420Y-81964236D01*
X160826813Y-82092843D01*
X160615920Y-82265919D01*
X160442843Y-82476812D01*
X160330000Y-82687927D01*
X160217157Y-82476812D01*
X160044081Y-82265919D01*
X159833188Y-82092843D01*
X159592581Y-81964236D01*
X159331507Y-81885040D01*
X159060000Y-81858299D01*
X158788494Y-81885040D01*
X158527420Y-81964236D01*
X158286813Y-82092843D01*
X158075920Y-82265919D01*
X157902843Y-82476812D01*
X157790000Y-82687927D01*
X157677157Y-82476812D01*
X157504081Y-82265919D01*
X157293188Y-82092843D01*
X157052581Y-81964236D01*
X156791507Y-81885040D01*
X156520000Y-81858299D01*
X156248494Y-81885040D01*
X155987420Y-81964236D01*
X155746813Y-82092843D01*
X155535920Y-82265919D01*
X155362843Y-82476812D01*
X155250000Y-82687927D01*
X155137157Y-82476812D01*
X154964081Y-82265919D01*
X154753188Y-82092843D01*
X154512581Y-81964236D01*
X154251507Y-81885040D01*
X153980000Y-81858299D01*
X153708494Y-81885040D01*
X153447420Y-81964236D01*
X153206813Y-82092843D01*
X152995920Y-82265919D01*
X152822843Y-82476812D01*
X152710000Y-82687927D01*
X152597157Y-82476812D01*
X152424081Y-82265919D01*
X152213188Y-82092843D01*
X151972581Y-81964236D01*
X151711507Y-81885040D01*
X151440000Y-81858299D01*
X151168494Y-81885040D01*
X150907420Y-81964236D01*
X150666813Y-82092843D01*
X150455920Y-82265919D01*
X150282843Y-82476812D01*
X150170000Y-82687927D01*
X150057157Y-82476812D01*
X149884081Y-82265919D01*
X149673188Y-82092843D01*
X149432581Y-81964236D01*
X149171507Y-81885040D01*
X148900000Y-81858299D01*
X148628494Y-81885040D01*
X148367420Y-81964236D01*
X148126813Y-82092843D01*
X147915920Y-82265919D01*
X147742843Y-82476812D01*
X147630000Y-82687927D01*
X147517157Y-82476812D01*
X147344081Y-82265919D01*
X147133188Y-82092843D01*
X146892581Y-81964236D01*
X146631507Y-81885040D01*
X146360000Y-81858299D01*
X146088494Y-81885040D01*
X145827420Y-81964236D01*
X145586813Y-82092843D01*
X145375920Y-82265919D01*
X145202843Y-82476812D01*
X145090000Y-82687927D01*
X144977157Y-82476812D01*
X144804081Y-82265919D01*
X144593188Y-82092843D01*
X144352581Y-81964236D01*
X144091507Y-81885040D01*
X143820000Y-81858299D01*
X143548494Y-81885040D01*
X143287420Y-81964236D01*
X143046813Y-82092843D01*
X142835920Y-82265919D01*
X142662843Y-82476812D01*
X142550000Y-82687927D01*
X142437157Y-82476812D01*
X142264081Y-82265919D01*
X142053188Y-82092843D01*
X141812581Y-81964236D01*
X141551507Y-81885040D01*
X141280000Y-81858299D01*
X141008494Y-81885040D01*
X140747420Y-81964236D01*
X140506813Y-82092843D01*
X140295920Y-82265919D01*
X140122843Y-82476812D01*
X139994236Y-82717419D01*
X139915040Y-82978493D01*
X139895000Y-83181963D01*
X139895000Y-83818036D01*
X139915040Y-84021506D01*
X139994236Y-84282580D01*
X140122843Y-84523187D01*
X140295919Y-84734080D01*
X140506812Y-84907157D01*
X140747419Y-85035764D01*
X141008493Y-85114960D01*
X141280000Y-85141701D01*
X141551506Y-85114960D01*
X141812580Y-85035764D01*
X142053187Y-84907157D01*
X142264080Y-84734081D01*
X142437157Y-84523188D01*
X142550000Y-84312073D01*
X142662843Y-84523187D01*
X142835919Y-84734080D01*
X143046812Y-84907157D01*
X143287419Y-85035764D01*
X143548493Y-85114960D01*
X143820000Y-85141701D01*
X144091506Y-85114960D01*
X144352580Y-85035764D01*
X144593187Y-84907157D01*
X144804080Y-84734081D01*
X144977157Y-84523188D01*
X145090000Y-84312073D01*
X145202843Y-84523187D01*
X145375919Y-84734080D01*
X145586812Y-84907157D01*
X145827419Y-85035764D01*
X146088493Y-85114960D01*
X146360000Y-85141701D01*
X146631506Y-85114960D01*
X146892580Y-85035764D01*
X147133187Y-84907157D01*
X147344080Y-84734081D01*
X147517157Y-84523188D01*
X147630000Y-84312073D01*
X147742843Y-84523187D01*
X147915919Y-84734080D01*
X148126812Y-84907157D01*
X148367419Y-85035764D01*
X148628493Y-85114960D01*
X148900000Y-85141701D01*
X149171506Y-85114960D01*
X149432580Y-85035764D01*
X149673187Y-84907157D01*
X149884080Y-84734081D01*
X150057157Y-84523188D01*
X150170000Y-84312073D01*
X150240638Y-84444228D01*
X148872717Y-85812150D01*
X148631425Y-85860147D01*
X148370272Y-85968320D01*
X148135240Y-86125363D01*
X147935362Y-86325241D01*
X147779999Y-86557759D01*
X147624636Y-86325241D01*
X147424758Y-86125363D01*
X147189726Y-85968320D01*
X146928573Y-85860147D01*
X146651334Y-85805000D01*
X146368664Y-85805000D01*
X146091425Y-85860147D01*
X145830272Y-85968320D01*
X145595240Y-86125363D01*
X145395362Y-86325241D01*
X145239084Y-86559128D01*
X145206670Y-86498486D01*
X144962701Y-86426903D01*
X144149604Y-87240000D01*
X144962701Y-88053097D01*
X145206670Y-87981514D01*
X145237193Y-87917008D01*
X145238319Y-87919727D01*
X145375000Y-88124285D01*
X145374999Y-88895716D01*
X145239084Y-89099128D01*
X145206670Y-89038486D01*
X144962701Y-88966903D01*
X144149604Y-89780000D01*
X144962701Y-90593097D01*
X145206670Y-90521514D01*
X145237193Y-90457008D01*
X145238319Y-90459727D01*
X145395362Y-90694759D01*
X145595240Y-90894637D01*
X145830272Y-91051680D01*
X146091425Y-91159853D01*
X146368664Y-91215000D01*
X146651334Y-91215000D01*
X146928573Y-91159853D01*
X147189726Y-91051680D01*
X147424758Y-90894637D01*
X147624636Y-90694759D01*
X147779999Y-90462241D01*
X147935362Y-90694759D01*
X148135240Y-90894637D01*
X148370272Y-91051680D01*
X148631425Y-91159853D01*
X148908664Y-91215000D01*
X149191334Y-91215000D01*
X149468573Y-91159853D01*
X149729726Y-91051680D01*
X149964758Y-90894637D01*
X150164636Y-90694759D01*
X150319999Y-90462241D01*
X150475362Y-90694759D01*
X150675240Y-90894637D01*
X150910272Y-91051680D01*
X151171425Y-91159853D01*
X151448664Y-91215000D01*
X151731334Y-91215000D01*
X152008573Y-91159853D01*
X152269726Y-91051680D01*
X152504758Y-90894637D01*
X152704636Y-90694759D01*
X152859999Y-90462241D01*
X153015362Y-90694759D01*
X153215240Y-90894637D01*
X153450272Y-91051680D01*
X153711425Y-91159853D01*
X153988664Y-91215000D01*
X154271334Y-91215000D01*
X154548573Y-91159853D01*
X154809726Y-91051680D01*
X155044758Y-90894637D01*
X155244636Y-90694759D01*
X155399999Y-90462241D01*
X155555362Y-90694759D01*
X155755240Y-90894637D01*
X155990272Y-91051680D01*
X156251425Y-91159853D01*
X156528664Y-91215000D01*
X156811334Y-91215000D01*
X157088573Y-91159853D01*
X157349726Y-91051680D01*
X157584758Y-90894637D01*
X157784636Y-90694759D01*
X157939999Y-90462241D01*
X158095362Y-90694759D01*
X158295240Y-90894637D01*
X158530272Y-91051680D01*
X158791425Y-91159853D01*
X159068664Y-91215000D01*
X159351334Y-91215000D01*
X159628573Y-91159853D01*
X159889726Y-91051680D01*
X160124758Y-90894637D01*
X160324636Y-90694759D01*
X160479999Y-90462241D01*
X160635362Y-90694759D01*
X160835240Y-90894637D01*
X161070272Y-91051680D01*
X161331425Y-91159853D01*
X161608664Y-91215000D01*
X161891334Y-91215000D01*
X162168573Y-91159853D01*
X162429726Y-91051680D01*
X162664758Y-90894637D01*
X162864636Y-90694759D01*
X163019999Y-90462241D01*
X163175362Y-90694759D01*
X163375240Y-90894637D01*
X163610272Y-91051680D01*
X163871425Y-91159853D01*
X164148664Y-91215000D01*
X164431334Y-91215000D01*
X164708573Y-91159853D01*
X164969726Y-91051680D01*
X165204758Y-90894637D01*
X165404636Y-90694759D01*
X165559999Y-90462241D01*
X165715362Y-90694759D01*
X165915240Y-90894637D01*
X166150272Y-91051680D01*
X166411425Y-91159853D01*
X166688664Y-91215000D01*
X166971334Y-91215000D01*
X167248573Y-91159853D01*
X167509726Y-91051680D01*
X167744758Y-90894637D01*
X167944636Y-90694759D01*
X168099999Y-90462241D01*
X168255362Y-90694759D01*
X168455240Y-90894637D01*
X168690272Y-91051680D01*
X168951425Y-91159853D01*
X169228664Y-91215000D01*
X169511334Y-91215000D01*
X169788573Y-91159853D01*
X170049726Y-91051680D01*
X170284758Y-90894637D01*
X170484636Y-90694759D01*
X170639999Y-90462241D01*
X170795362Y-90694759D01*
X170995240Y-90894637D01*
X171230272Y-91051680D01*
X171491425Y-91159853D01*
X171768664Y-91215000D01*
X172051334Y-91215000D01*
X172328573Y-91159853D01*
X172589726Y-91051680D01*
X172824758Y-90894637D01*
X173024636Y-90694759D01*
X173179999Y-90462241D01*
X173335362Y-90694759D01*
X173535240Y-90894637D01*
X173770272Y-91051680D01*
X174031425Y-91159853D01*
X174308664Y-91215000D01*
X174591334Y-91215000D01*
X174868573Y-91159853D01*
X175129726Y-91051680D01*
X175364758Y-90894637D01*
X175564636Y-90694759D01*
X175719999Y-90462241D01*
X175875362Y-90694759D01*
X176075240Y-90894637D01*
X176310272Y-91051680D01*
X176571425Y-91159853D01*
X176848664Y-91215000D01*
X177131334Y-91215000D01*
X177408573Y-91159853D01*
X177669726Y-91051680D01*
X177904758Y-90894637D01*
X178104636Y-90694759D01*
X178259999Y-90462241D01*
X178415362Y-90694759D01*
X178615240Y-90894637D01*
X178850272Y-91051680D01*
X179111425Y-91159853D01*
X179388664Y-91215000D01*
X179671334Y-91215000D01*
X179948573Y-91159853D01*
X180209726Y-91051680D01*
X180444758Y-90894637D01*
X180644636Y-90694759D01*
X180799999Y-90462241D01*
X180955362Y-90694759D01*
X181155240Y-90894637D01*
X181390272Y-91051680D01*
X181651425Y-91159853D01*
X181928664Y-91215000D01*
X182211334Y-91215000D01*
X182488573Y-91159853D01*
X182749726Y-91051680D01*
X182984758Y-90894637D01*
X183184636Y-90694759D01*
X183339999Y-90462241D01*
X183495362Y-90694759D01*
X183695240Y-90894637D01*
X183930272Y-91051680D01*
X184191425Y-91159853D01*
X184468664Y-91215000D01*
X184751334Y-91215000D01*
X185028573Y-91159853D01*
X185289726Y-91051680D01*
X185524758Y-90894637D01*
X185724636Y-90694759D01*
X185879999Y-90462241D01*
X186035362Y-90694759D01*
X186235240Y-90894637D01*
X186470272Y-91051680D01*
X186731425Y-91159853D01*
X187008664Y-91215000D01*
X187291334Y-91215000D01*
X187568573Y-91159853D01*
X187829726Y-91051680D01*
X188064758Y-90894637D01*
X188264636Y-90694759D01*
X188419999Y-90462241D01*
X188575362Y-90694759D01*
X188775240Y-90894637D01*
X189010272Y-91051680D01*
X189271425Y-91159853D01*
X189548664Y-91215000D01*
X189831334Y-91215000D01*
X190108573Y-91159853D01*
X190369726Y-91051680D01*
X190604758Y-90894637D01*
X190804636Y-90694759D01*
X190959999Y-90462241D01*
X191115362Y-90694759D01*
X191315240Y-90894637D01*
X191550272Y-91051680D01*
X191811425Y-91159853D01*
X192088664Y-91215000D01*
X192371334Y-91215000D01*
X192648573Y-91159853D01*
X192909726Y-91051680D01*
X193144758Y-90894637D01*
X193344636Y-90694759D01*
X193501679Y-90459727D01*
X193609852Y-90198574D01*
X193664999Y-89921335D01*
X193664999Y-89638665D01*
X193609852Y-89361426D01*
X193501679Y-89100273D01*
X193344636Y-88865241D01*
X193144758Y-88665363D01*
X192912240Y-88510000D01*
X193144758Y-88354637D01*
X193344636Y-88154759D01*
X193501679Y-87919727D01*
X193609852Y-87658574D01*
X193664999Y-87381335D01*
X193664999Y-87098665D01*
X193609852Y-86821426D01*
X193501679Y-86560273D01*
X193344636Y-86325241D01*
X193144758Y-86125363D01*
X192909726Y-85968320D01*
X192648573Y-85860147D01*
X192371334Y-85805000D01*
X192088664Y-85805000D01*
X191811425Y-85860147D01*
X191550272Y-85968320D01*
X191315240Y-86125363D01*
X191115362Y-86325241D01*
X190959999Y-86557759D01*
X190804636Y-86325241D01*
X190604758Y-86125363D01*
X190369726Y-85968320D01*
X190108573Y-85860147D01*
X189831334Y-85805000D01*
X189548664Y-85805000D01*
X189271425Y-85860147D01*
X189010272Y-85968320D01*
X188775240Y-86125363D01*
X188575362Y-86325241D01*
X188419999Y-86557759D01*
X188264636Y-86325241D01*
X188203172Y-86263777D01*
X188236437Y-86253686D01*
X188433613Y-86148294D01*
X188606439Y-86006459D01*
X188641986Y-85963145D01*
X189763140Y-84841992D01*
X189806449Y-84806449D01*
X189948284Y-84633623D01*
X190053676Y-84436447D01*
X190118577Y-84222499D01*
X190135000Y-84055752D01*
X190135000Y-84055743D01*
X190140490Y-84000001D01*
X190135000Y-83944259D01*
X190135000Y-81055751D01*
X190140491Y-80999999D01*
X190118577Y-80777500D01*
X190103471Y-80727705D01*
X190053676Y-80563553D01*
X189948284Y-80366377D01*
X189806449Y-80193551D01*
X189763141Y-80158009D01*
X188135000Y-78529869D01*
X188135000Y-71858665D01*
X188194999Y-71858665D01*
X188194999Y-72141335D01*
X188250146Y-72418574D01*
X188358319Y-72679727D01*
X188515362Y-72914759D01*
X188715240Y-73114637D01*
X188947758Y-73270000D01*
X188715240Y-73425363D01*
X188515362Y-73625241D01*
X188358319Y-73860273D01*
X188250146Y-74121426D01*
X188194999Y-74398665D01*
X188194999Y-74681335D01*
X188250146Y-74958574D01*
X188358319Y-75219727D01*
X188515362Y-75454759D01*
X188715240Y-75654637D01*
X188947758Y-75810000D01*
X188715240Y-75965363D01*
X188515362Y-76165241D01*
X188358319Y-76400273D01*
X188250146Y-76661426D01*
X188194999Y-76938665D01*
X188194999Y-77221335D01*
X188250146Y-77498574D01*
X188358319Y-77759727D01*
X188515362Y-77994759D01*
X188715240Y-78194637D01*
X188950272Y-78351680D01*
X189211425Y-78459853D01*
X189488664Y-78515000D01*
X189771334Y-78515000D01*
X190048573Y-78459853D01*
X190309726Y-78351680D01*
X190544758Y-78194637D01*
X190744636Y-77994759D01*
X190899999Y-77762241D01*
X191055362Y-77994759D01*
X191255240Y-78194637D01*
X191490272Y-78351680D01*
X191751425Y-78459853D01*
X192028664Y-78515000D01*
X192311334Y-78515000D01*
X192588573Y-78459853D01*
X192849726Y-78351680D01*
X193084758Y-78194637D01*
X193284636Y-77994759D01*
X193441679Y-77759727D01*
X193549852Y-77498574D01*
X193604999Y-77221335D01*
X193604999Y-76938665D01*
X193549852Y-76661426D01*
X193441679Y-76400273D01*
X193284636Y-76165241D01*
X193084758Y-75965363D01*
X192852240Y-75810000D01*
X193084758Y-75654637D01*
X193284636Y-75454759D01*
X193441679Y-75219727D01*
X193549852Y-74958574D01*
X193604999Y-74681335D01*
X193604999Y-74398665D01*
X193549852Y-74121426D01*
X193441679Y-73860273D01*
X193284636Y-73625241D01*
X193084758Y-73425363D01*
X192852240Y-73270000D01*
X193084758Y-73114637D01*
X193284636Y-72914759D01*
X193441679Y-72679727D01*
X193549852Y-72418574D01*
X193604999Y-72141335D01*
X193604999Y-71858665D01*
X193549852Y-71581426D01*
X193441679Y-71320273D01*
X193284636Y-71085241D01*
X193084758Y-70885363D01*
X192849726Y-70728320D01*
X192588573Y-70620147D01*
X192311334Y-70565000D01*
X192028664Y-70565000D01*
X191751425Y-70620147D01*
X191490272Y-70728320D01*
X191255240Y-70885363D01*
X191055362Y-71085241D01*
X190899999Y-71317759D01*
X190744636Y-71085241D01*
X190544758Y-70885363D01*
X190309726Y-70728320D01*
X190048573Y-70620147D01*
X189771334Y-70565000D01*
X189488664Y-70565000D01*
X189211425Y-70620147D01*
X188950272Y-70728320D01*
X188715240Y-70885363D01*
X188515362Y-71085241D01*
X188358319Y-71320273D01*
X188250146Y-71581426D01*
X188194999Y-71858665D01*
X188135000Y-71858665D01*
X188135000Y-61550186D01*
X188157157Y-61523188D01*
X188285764Y-61282581D01*
X188364960Y-61021507D01*
X188385000Y-60818037D01*
X188385000Y-60181964D01*
X188364960Y-59978494D01*
X188285764Y-59717420D01*
X188157157Y-59476812D01*
X187984081Y-59265919D01*
X187773188Y-59092843D01*
X187532581Y-58964236D01*
X187271507Y-58885040D01*
X187000000Y-58858299D01*
X186728494Y-58885040D01*
X186467420Y-58964236D01*
X186226813Y-59092843D01*
X186015920Y-59265919D01*
X185842843Y-59476812D01*
X185730000Y-59687927D01*
X185617157Y-59476812D01*
X185444081Y-59265919D01*
X185233188Y-59092843D01*
X184992581Y-58964236D01*
X184731507Y-58885040D01*
X184460000Y-58858299D01*
X184188494Y-58885040D01*
X183927420Y-58964236D01*
X183686813Y-59092843D01*
X183475920Y-59265919D01*
X183302843Y-59476812D01*
X183190000Y-59687927D01*
X183077157Y-59476812D01*
X182904081Y-59265919D01*
X182693188Y-59092843D01*
X182452581Y-58964236D01*
X182191507Y-58885040D01*
X181920000Y-58858299D01*
X181648494Y-58885040D01*
X181442369Y-58947567D01*
X180399607Y-57904806D01*
X180444758Y-57874637D01*
X180644636Y-57674759D01*
X180799999Y-57442241D01*
X180955362Y-57674759D01*
X181155240Y-57874637D01*
X181390272Y-58031680D01*
X181651425Y-58139853D01*
X181928664Y-58195000D01*
X182211334Y-58195000D01*
X182488573Y-58139853D01*
X182749726Y-58031680D01*
X182984758Y-57874637D01*
X183184636Y-57674759D01*
X183339999Y-57442241D01*
X183495362Y-57674759D01*
X183695240Y-57874637D01*
X183930272Y-58031680D01*
X184191425Y-58139853D01*
X184468664Y-58195000D01*
X184751334Y-58195000D01*
X185028573Y-58139853D01*
X185289726Y-58031680D01*
X185524758Y-57874637D01*
X185724636Y-57674759D01*
X185879999Y-57442241D01*
X186035362Y-57674759D01*
X186235240Y-57874637D01*
X186470272Y-58031680D01*
X186731425Y-58139853D01*
X187008664Y-58195000D01*
X187291334Y-58195000D01*
X187568573Y-58139853D01*
X187829726Y-58031680D01*
X188064758Y-57874637D01*
X188264636Y-57674759D01*
X188419999Y-57442241D01*
X188575362Y-57674759D01*
X188775240Y-57874637D01*
X189007758Y-58030000D01*
X188775240Y-58185363D01*
X188575362Y-58385241D01*
X188418319Y-58620273D01*
X188310146Y-58881426D01*
X188254999Y-59158665D01*
X188254999Y-59441335D01*
X188310146Y-59718574D01*
X188418319Y-59979727D01*
X188575362Y-60214759D01*
X188775240Y-60414637D01*
X189007758Y-60570000D01*
X188775240Y-60725363D01*
X188575362Y-60925241D01*
X188418319Y-61160273D01*
X188310146Y-61421426D01*
X188254999Y-61698665D01*
X188254999Y-61981335D01*
X188310146Y-62258574D01*
X188418319Y-62519727D01*
X188575362Y-62754759D01*
X188775240Y-62954637D01*
X189007758Y-63110000D01*
X188775240Y-63265363D01*
X188575362Y-63465241D01*
X188418319Y-63700273D01*
X188310146Y-63961426D01*
X188254999Y-64238665D01*
X188254999Y-64521335D01*
X188310146Y-64798574D01*
X188418319Y-65059727D01*
X188575362Y-65294759D01*
X188775240Y-65494637D01*
X189010272Y-65651680D01*
X189271425Y-65759853D01*
X189548664Y-65815000D01*
X189831334Y-65815000D01*
X190108573Y-65759853D01*
X190369726Y-65651680D01*
X190604758Y-65494637D01*
X190804636Y-65294759D01*
X190959999Y-65062241D01*
X191115362Y-65294759D01*
X191315240Y-65494637D01*
X191550272Y-65651680D01*
X191811425Y-65759853D01*
X192088664Y-65815000D01*
X192371334Y-65815000D01*
X192648573Y-65759853D01*
X192909726Y-65651680D01*
X193144758Y-65494637D01*
X193344636Y-65294759D01*
X193501679Y-65059727D01*
X193609852Y-64798574D01*
X193664999Y-64521335D01*
X193664999Y-64238665D01*
X193609852Y-63961426D01*
X193501679Y-63700273D01*
X193344636Y-63465241D01*
X193144758Y-63265363D01*
X192912240Y-63110000D01*
X193144758Y-62954637D01*
X193344636Y-62754759D01*
X193501679Y-62519727D01*
X193609852Y-62258574D01*
X193664999Y-61981335D01*
X193664999Y-61698665D01*
X193609852Y-61421426D01*
X193501679Y-61160273D01*
X193344636Y-60925241D01*
X193144758Y-60725363D01*
X192912240Y-60570000D01*
X193144758Y-60414637D01*
X193344636Y-60214759D01*
X193501679Y-59979727D01*
X193609852Y-59718574D01*
X193664999Y-59441335D01*
X193664999Y-59158665D01*
X193609852Y-58881426D01*
X193501679Y-58620273D01*
X193344636Y-58385241D01*
X193144758Y-58185363D01*
X192912240Y-58030000D01*
X193144758Y-57874637D01*
X193344636Y-57674759D01*
X193501679Y-57439727D01*
X193609852Y-57178574D01*
X193664999Y-56901335D01*
X193664999Y-56618665D01*
X193609852Y-56341426D01*
X193501679Y-56080273D01*
X193344636Y-55845241D01*
X193144758Y-55645363D01*
X192912240Y-55490000D01*
X193144758Y-55334637D01*
X193344636Y-55134759D01*
X193501679Y-54899727D01*
X193609852Y-54638574D01*
X193664999Y-54361335D01*
X193664999Y-54078665D01*
X193609852Y-53801426D01*
X193501679Y-53540273D01*
X193344636Y-53305241D01*
X193199395Y-53160000D01*
X193840001Y-53160000D01*
X193840000Y-91840000D01*
X139660000Y-91840000D01*
X139660000Y-87098665D01*
X139994999Y-87098665D01*
X139994999Y-87381335D01*
X140050146Y-87658574D01*
X140158319Y-87919727D01*
X140315362Y-88154759D01*
X140515240Y-88354637D01*
X140747758Y-88510000D01*
X140515240Y-88665363D01*
X140315362Y-88865241D01*
X140158319Y-89100273D01*
X140050146Y-89361426D01*
X139994999Y-89638665D01*
X139994999Y-89921335D01*
X140050146Y-90198574D01*
X140158319Y-90459727D01*
X140315362Y-90694759D01*
X140515240Y-90894637D01*
X140750272Y-91051680D01*
X141011425Y-91159853D01*
X141288664Y-91215000D01*
X141571334Y-91215000D01*
X141848573Y-91159853D01*
X142109726Y-91051680D01*
X142344758Y-90894637D01*
X142466693Y-90772702D01*
X143156902Y-90772702D01*
X143228485Y-91016671D01*
X143483995Y-91137571D01*
X143758183Y-91206300D01*
X144040511Y-91220217D01*
X144320129Y-91178787D01*
X144586291Y-91083603D01*
X144711513Y-91016671D01*
X144783096Y-90772702D01*
X143969999Y-89959605D01*
X143156902Y-90772702D01*
X142466693Y-90772702D01*
X142544636Y-90694759D01*
X142700914Y-90460872D01*
X142733328Y-90521514D01*
X142977297Y-90593097D01*
X143790394Y-89780000D01*
X142977297Y-88966903D01*
X142733328Y-89038486D01*
X142702805Y-89102992D01*
X142701679Y-89100273D01*
X142544636Y-88865241D01*
X142344758Y-88665363D01*
X142112240Y-88510000D01*
X142344758Y-88354637D01*
X142466693Y-88232702D01*
X143156902Y-88232702D01*
X143228485Y-88476671D01*
X143294635Y-88507971D01*
X143228485Y-88543329D01*
X143156902Y-88787298D01*
X143969999Y-89600395D01*
X144783096Y-88787298D01*
X144711513Y-88543329D01*
X144645363Y-88512029D01*
X144711513Y-88476671D01*
X144783096Y-88232702D01*
X143969999Y-87419605D01*
X143156902Y-88232702D01*
X142466693Y-88232702D01*
X142544636Y-88154759D01*
X142700914Y-87920872D01*
X142733328Y-87981514D01*
X142977297Y-88053097D01*
X143790394Y-87240000D01*
X142977297Y-86426903D01*
X142733328Y-86498486D01*
X142702805Y-86562992D01*
X142701679Y-86560273D01*
X142544636Y-86325241D01*
X142466693Y-86247298D01*
X143156902Y-86247298D01*
X143969999Y-87060395D01*
X144783096Y-86247298D01*
X144711513Y-86003329D01*
X144456003Y-85882429D01*
X144181815Y-85813700D01*
X143899487Y-85799783D01*
X143619869Y-85841213D01*
X143353707Y-85936397D01*
X143228485Y-86003329D01*
X143156902Y-86247298D01*
X142466693Y-86247298D01*
X142344758Y-86125363D01*
X142109726Y-85968320D01*
X141848573Y-85860147D01*
X141571334Y-85805000D01*
X141288664Y-85805000D01*
X141011425Y-85860147D01*
X140750272Y-85968320D01*
X140515240Y-86125363D01*
X140315362Y-86325241D01*
X140158319Y-86560273D01*
X140050146Y-86821426D01*
X139994999Y-87098665D01*
X139660000Y-87098665D01*
X139660000Y-60181963D01*
X139895000Y-60181963D01*
X139895000Y-60818036D01*
X139915040Y-61021506D01*
X139994236Y-61282580D01*
X140122843Y-61523187D01*
X140295919Y-61734080D01*
X140506812Y-61907157D01*
X140747419Y-62035764D01*
X141008493Y-62114960D01*
X141280000Y-62141701D01*
X141551506Y-62114960D01*
X141812580Y-62035764D01*
X142053187Y-61907157D01*
X142264080Y-61734081D01*
X142437157Y-61523188D01*
X142550000Y-61312073D01*
X142662843Y-61523187D01*
X142835919Y-61734080D01*
X143046812Y-61907157D01*
X143287419Y-62035764D01*
X143548493Y-62114960D01*
X143820000Y-62141701D01*
X144091506Y-62114960D01*
X144352580Y-62035764D01*
X144593187Y-61907157D01*
X144804080Y-61734081D01*
X144977157Y-61523188D01*
X145090000Y-61312073D01*
X145202843Y-61523187D01*
X145375919Y-61734080D01*
X145586812Y-61907157D01*
X145827419Y-62035764D01*
X146088493Y-62114960D01*
X146360000Y-62141701D01*
X146631506Y-62114960D01*
X146892580Y-62035764D01*
X147133187Y-61907157D01*
X147344080Y-61734081D01*
X147517157Y-61523188D01*
X147630000Y-61312073D01*
X147742843Y-61523187D01*
X147915919Y-61734080D01*
X148126812Y-61907157D01*
X148367419Y-62035764D01*
X148628493Y-62114960D01*
X148900000Y-62141701D01*
X149171506Y-62114960D01*
X149432580Y-62035764D01*
X149673187Y-61907157D01*
X149884080Y-61734081D01*
X150057157Y-61523188D01*
X150170000Y-61312073D01*
X150282843Y-61523187D01*
X150455919Y-61734080D01*
X150666812Y-61907157D01*
X150907419Y-62035764D01*
X151168493Y-62114960D01*
X151440000Y-62141701D01*
X151711506Y-62114960D01*
X151972580Y-62035764D01*
X152213187Y-61907157D01*
X152424080Y-61734081D01*
X152597157Y-61523188D01*
X152708451Y-61314972D01*
X152730032Y-61371724D01*
X152875342Y-61603634D01*
X153063103Y-61802740D01*
X153286100Y-61961390D01*
X153535764Y-62073487D01*
X153638815Y-62092318D01*
X153853000Y-61969656D01*
X153853000Y-60627000D01*
X153833000Y-60627000D01*
X153833000Y-60373000D01*
X153853000Y-60373000D01*
X153853000Y-59030344D01*
X153638815Y-58907682D01*
X153535764Y-58926513D01*
X153286100Y-59038610D01*
X153063103Y-59197260D01*
X152875342Y-59396366D01*
X152730032Y-59628276D01*
X152708451Y-59685029D01*
X152597157Y-59476812D01*
X152424081Y-59265919D01*
X152213188Y-59092843D01*
X151972581Y-58964236D01*
X151711507Y-58885040D01*
X151440000Y-58858299D01*
X151168494Y-58885040D01*
X150907420Y-58964236D01*
X150666813Y-59092843D01*
X150455920Y-59265919D01*
X150282843Y-59476812D01*
X150170000Y-59687927D01*
X150057157Y-59476812D01*
X149884081Y-59265919D01*
X149673188Y-59092843D01*
X149432581Y-58964236D01*
X149171507Y-58885040D01*
X148900000Y-58858299D01*
X148628494Y-58885040D01*
X148367420Y-58964236D01*
X148126813Y-59092843D01*
X147915920Y-59265919D01*
X147742843Y-59476812D01*
X147630000Y-59687927D01*
X147517157Y-59476812D01*
X147344081Y-59265919D01*
X147133188Y-59092843D01*
X146892581Y-58964236D01*
X146631507Y-58885040D01*
X146360000Y-58858299D01*
X146088494Y-58885040D01*
X145827420Y-58964236D01*
X145586813Y-59092843D01*
X145375920Y-59265919D01*
X145202843Y-59476812D01*
X145090000Y-59687927D01*
X144977157Y-59476812D01*
X144804081Y-59265919D01*
X144593188Y-59092843D01*
X144352581Y-58964236D01*
X144091507Y-58885040D01*
X143820000Y-58858299D01*
X143548494Y-58885040D01*
X143287420Y-58964236D01*
X143046813Y-59092843D01*
X142835920Y-59265919D01*
X142662843Y-59476812D01*
X142550000Y-59687927D01*
X142437157Y-59476812D01*
X142264081Y-59265919D01*
X142053188Y-59092843D01*
X141812581Y-58964236D01*
X141551507Y-58885040D01*
X141280000Y-58858299D01*
X141008494Y-58885040D01*
X140747420Y-58964236D01*
X140506813Y-59092843D01*
X140295920Y-59265919D01*
X140122843Y-59476812D01*
X139994236Y-59717419D01*
X139915040Y-59978493D01*
X139895000Y-60181963D01*
X139660000Y-60181963D01*
X139660000Y-53160000D01*
X153160603Y-53160000D01*
X153015362Y-53305241D01*
%TD*%
M02*
