%TF.GenerationSoftware,KiCad,Pcbnew,(5.1.6)-1*%
%TF.CreationDate,2022-06-29T11:00:20-07:00*%
%TF.ProjectId,ESP32 Adapter Board,45535033-3220-4416-9461-707465722042,rev?*%
%TF.SameCoordinates,Original*%
%TF.FileFunction,Soldermask,Top*%
%TF.FilePolarity,Negative*%
%FSLAX46Y46*%
G04 Gerber Fmt 4.6, Leading zero omitted, Abs format (unit mm)*
G04 Created by KiCad (PCBNEW (5.1.6)-1) date 2022-06-29 11:00:20*
%MOMM*%
%LPD*%
G01*
G04 APERTURE LIST*
%ADD10O,1.600000X2.100000*%
%ADD11C,1.700000*%
G04 APERTURE END LIST*
D10*
%TO.C,U1*%
X187000000Y-83500000D03*
X184460000Y-83500000D03*
X181920000Y-83500000D03*
X179380000Y-83500000D03*
X176840000Y-83500000D03*
X174300000Y-83500000D03*
X171760000Y-83500000D03*
X169220000Y-83500000D03*
X166680000Y-83500000D03*
X164140000Y-83500000D03*
X161600000Y-83500000D03*
X159060000Y-83500000D03*
X156520000Y-83500000D03*
X153980000Y-83500000D03*
X151440000Y-83500000D03*
X148900000Y-83500000D03*
X146360000Y-83500000D03*
X143820000Y-83500000D03*
X141280000Y-83500000D03*
X141280000Y-60500000D03*
X143820000Y-60500000D03*
X146360000Y-60500000D03*
X148900000Y-60500000D03*
X151440000Y-60500000D03*
X153980000Y-60500000D03*
X156520000Y-60500000D03*
X159060000Y-60500000D03*
X161600000Y-60500000D03*
X164140000Y-60500000D03*
X166680000Y-60500000D03*
X169220000Y-60500000D03*
X171760000Y-60500000D03*
X174300000Y-60500000D03*
X176840000Y-60500000D03*
X179380000Y-60500000D03*
X181920000Y-60500000D03*
X184460000Y-60500000D03*
X187000000Y-60500000D03*
%TD*%
D11*
%TO.C,U2*%
X192229999Y-56760000D03*
X192229999Y-54220000D03*
X189689999Y-56760000D03*
X189689999Y-54220000D03*
X187149999Y-56760000D03*
X187149999Y-54220000D03*
X184609999Y-56760000D03*
X184609999Y-54220000D03*
X182069999Y-56760000D03*
X182069999Y-54220000D03*
X179529999Y-56760000D03*
X179529999Y-54220000D03*
X176989999Y-56760000D03*
X176989999Y-54220000D03*
X174449999Y-56760000D03*
X174449999Y-54220000D03*
X171909999Y-56760000D03*
X171909999Y-54220000D03*
X169369999Y-56760000D03*
X169369999Y-54220000D03*
X166829999Y-56760000D03*
X166829999Y-54220000D03*
X164289999Y-56760000D03*
X164289999Y-54220000D03*
X161749999Y-56760000D03*
X161749999Y-54220000D03*
X159209999Y-56760000D03*
X159209999Y-54220000D03*
X156669999Y-56760000D03*
X156669999Y-54220000D03*
X154129999Y-56760000D03*
X192229999Y-89780000D03*
X192229999Y-87240000D03*
X189689999Y-89780000D03*
X189689999Y-87240000D03*
X187149999Y-89780000D03*
X187149999Y-87240000D03*
X184609999Y-89780000D03*
X184609999Y-87240000D03*
X182069999Y-89780000D03*
X182069999Y-87240000D03*
X179529999Y-89780000D03*
X179529999Y-87240000D03*
X176989999Y-89780000D03*
X176989999Y-87240000D03*
X174449999Y-89780000D03*
X174449999Y-87240000D03*
X171909999Y-89780000D03*
X171909999Y-87240000D03*
X169369999Y-89780000D03*
X169369999Y-87240000D03*
X166829999Y-89780000D03*
X166829999Y-87240000D03*
X164289999Y-89780000D03*
X164289999Y-87240000D03*
X161749999Y-89780000D03*
X161749999Y-87240000D03*
X159209999Y-89780000D03*
X159209999Y-87240000D03*
X156669999Y-89780000D03*
X156669999Y-87240000D03*
X154129999Y-89780000D03*
X154129999Y-87240000D03*
X151589999Y-89780000D03*
X151589999Y-87240000D03*
X149049999Y-89780000D03*
X149049999Y-87240000D03*
X146509999Y-89780000D03*
X146509999Y-87240000D03*
X143969999Y-89780000D03*
X143969999Y-87240000D03*
X141429999Y-89780000D03*
X192169999Y-77080000D03*
X192169999Y-74540000D03*
X192169999Y-72000000D03*
X189629999Y-77080000D03*
X189629999Y-74540000D03*
X189629999Y-72000000D03*
X192229999Y-64380000D03*
X192229999Y-61840000D03*
X192229999Y-59300000D03*
X189689999Y-64380000D03*
X189689999Y-61840000D03*
X189689999Y-59300000D03*
X154129999Y-54220000D03*
X141429999Y-87240000D03*
%TD*%
M02*
