%TF.GenerationSoftware,KiCad,Pcbnew,(5.1.6)-1*%
%TF.CreationDate,2022-06-29T11:00:19-07:00*%
%TF.ProjectId,ESP32 Adapter Board,45535033-3220-4416-9461-707465722042,rev?*%
%TF.SameCoordinates,Original*%
%TF.FileFunction,Copper,L1,Top*%
%TF.FilePolarity,Positive*%
%FSLAX46Y46*%
G04 Gerber Fmt 4.6, Leading zero omitted, Abs format (unit mm)*
G04 Created by KiCad (PCBNEW (5.1.6)-1) date 2022-06-29 11:00:19*
%MOMM*%
%LPD*%
G01*
G04 APERTURE LIST*
%TA.AperFunction,ComponentPad*%
%ADD10O,1.500000X2.000000*%
%TD*%
%TA.AperFunction,ComponentPad*%
%ADD11C,1.600000*%
%TD*%
%TA.AperFunction,Conductor*%
%ADD12C,0.250000*%
%TD*%
%TA.AperFunction,Conductor*%
%ADD13C,1.000000*%
%TD*%
G04 APERTURE END LIST*
D10*
%TO.P,U1,38*%
%TO.N,GND*%
X187000000Y-83500000D03*
%TO.P,U1,37*%
%TO.N,MOSI*%
X184460000Y-83500000D03*
%TO.P,U1,36*%
%TO.N,SCL*%
X181920000Y-83500000D03*
%TO.P,U1,35*%
%TO.N,BUS_CONNECT_SIGNAL*%
X179380000Y-83500000D03*
%TO.P,U1,34*%
%TO.N,STATUS_CHECK*%
X176840000Y-83500000D03*
%TO.P,U1,33*%
%TO.N,SDA*%
X174300000Y-83500000D03*
%TO.P,U1,32*%
%TO.N,GND*%
X171760000Y-83500000D03*
%TO.P,U1,31*%
%TO.N,MISO*%
X169220000Y-83500000D03*
%TO.P,U1,30*%
%TO.N,SCK*%
X166680000Y-83500000D03*
%TO.P,U1,29*%
%TO.N,CS*%
X164140000Y-83500000D03*
%TO.P,U1,28*%
%TO.N,EXTERNAL_INTERRUPT*%
X161600000Y-83500000D03*
%TO.P,U1,27*%
%TO.N,CHARGE_CONTROL_SIGNAL*%
X159060000Y-83500000D03*
%TO.P,U1,26*%
%TO.N,DATA*%
X156520000Y-83500000D03*
%TO.P,U1,25*%
%TO.N,Net-(U1-Pad25)*%
X153980000Y-83500000D03*
%TO.P,U1,24*%
%TO.N,Net-(U1-Pad24)*%
X151440000Y-83500000D03*
%TO.P,U1,23*%
%TO.N,Net-(U1-Pad23)*%
X148900000Y-83500000D03*
%TO.P,U1,22*%
%TO.N,Net-(U1-Pad22)*%
X146360000Y-83500000D03*
%TO.P,U1,21*%
%TO.N,Net-(U1-Pad21)*%
X143820000Y-83500000D03*
%TO.P,U1,20*%
%TO.N,Net-(U1-Pad20)*%
X141280000Y-83500000D03*
%TO.P,U1,19*%
%TO.N,5V*%
X141280000Y-60500000D03*
%TO.P,U1,18*%
%TO.N,Net-(U1-Pad18)*%
X143820000Y-60500000D03*
%TO.P,U1,17*%
%TO.N,Net-(U1-Pad17)*%
X146360000Y-60500000D03*
%TO.P,U1,16*%
%TO.N,Net-(U1-Pad16)*%
X148900000Y-60500000D03*
%TO.P,U1,15*%
%TO.N,Net-(U1-Pad15)*%
X151440000Y-60500000D03*
%TO.P,U1,14*%
%TO.N,GND*%
X153980000Y-60500000D03*
%TO.P,U1,13*%
%TO.N,A0*%
X156520000Y-60500000D03*
%TO.P,U1,12*%
%TO.N,A1*%
X159060000Y-60500000D03*
%TO.P,U1,11*%
%TO.N,A2*%
X161600000Y-60500000D03*
%TO.P,U1,10*%
%TO.N,A3*%
X164140000Y-60500000D03*
%TO.P,U1,9*%
%TO.N,A4*%
X166680000Y-60500000D03*
%TO.P,U1,8*%
%TO.N,Net-(U1-Pad8)*%
X169220000Y-60500000D03*
%TO.P,U1,7*%
%TO.N,A5*%
X171760000Y-60500000D03*
%TO.P,U1,6*%
%TO.N,A6*%
X174300000Y-60500000D03*
%TO.P,U1,5*%
%TO.N,A7*%
X176840000Y-60500000D03*
%TO.P,U1,4*%
%TO.N,A9*%
X179380000Y-60500000D03*
%TO.P,U1,3*%
%TO.N,A8*%
X181920000Y-60500000D03*
%TO.P,U1,2*%
%TO.N,Net-(U1-Pad2)*%
X184460000Y-60500000D03*
%TO.P,U1,1*%
%TO.N,3V3*%
X187000000Y-60500000D03*
%TD*%
D11*
%TO.P,U2,74*%
%TO.N,Net-(U2-Pad74)*%
X192229999Y-56760000D03*
%TO.P,U2,73*%
%TO.N,Net-(U2-Pad73)*%
X192229999Y-54220000D03*
%TO.P,U2,72*%
%TO.N,Net-(U2-Pad72)*%
X189689999Y-56760000D03*
%TO.P,U2,71*%
%TO.N,Net-(U2-Pad71)*%
X189689999Y-54220000D03*
%TO.P,U2,70*%
%TO.N,Net-(U2-Pad70)*%
X187149999Y-56760000D03*
%TO.P,U2,69*%
%TO.N,Net-(U2-Pad69)*%
X187149999Y-54220000D03*
%TO.P,U2,68*%
%TO.N,Net-(U2-Pad68)*%
X184609999Y-56760000D03*
%TO.P,U2,67*%
%TO.N,Net-(U2-Pad67)*%
X184609999Y-54220000D03*
%TO.P,U2,66*%
%TO.N,Net-(U2-Pad66)*%
X182069999Y-56760000D03*
%TO.P,U2,65*%
%TO.N,Net-(U2-Pad65)*%
X182069999Y-54220000D03*
%TO.P,U2,64*%
%TO.N,Net-(U2-Pad64)*%
X179529999Y-56760000D03*
%TO.P,U2,63*%
%TO.N,Net-(U2-Pad63)*%
X179529999Y-54220000D03*
%TO.P,U2,62*%
%TO.N,Net-(U2-Pad62)*%
X176989999Y-56760000D03*
%TO.P,U2,61*%
%TO.N,Net-(U2-Pad61)*%
X176989999Y-54220000D03*
%TO.P,U2,60*%
%TO.N,Net-(U2-Pad60)*%
X174449999Y-56760000D03*
%TO.P,U2,59*%
%TO.N,Net-(U2-Pad59)*%
X174449999Y-54220000D03*
%TO.P,U2,58*%
%TO.N,A15*%
X171909999Y-56760000D03*
%TO.P,U2,57*%
%TO.N,Net-(U2-Pad57)*%
X171909999Y-54220000D03*
%TO.P,U2,56*%
%TO.N,Net-(U2-Pad56)*%
X169369999Y-56760000D03*
%TO.P,U2,55*%
%TO.N,Net-(U2-Pad55)*%
X169369999Y-54220000D03*
%TO.P,U2,54*%
%TO.N,Net-(U2-Pad54)*%
X166829999Y-56760000D03*
%TO.P,U2,53*%
%TO.N,Net-(U2-Pad53)*%
X166829999Y-54220000D03*
%TO.P,U2,52*%
%TO.N,A9*%
X164289999Y-56760000D03*
%TO.P,U2,51*%
%TO.N,A8*%
X164289999Y-54220000D03*
%TO.P,U2,50*%
%TO.N,A7*%
X161749999Y-56760000D03*
%TO.P,U2,49*%
%TO.N,A6*%
X161749999Y-54220000D03*
%TO.P,U2,48*%
%TO.N,A5*%
X159209999Y-56760000D03*
%TO.P,U2,47*%
%TO.N,A4*%
X159209999Y-54220000D03*
%TO.P,U2,46*%
%TO.N,A3*%
X156669999Y-56760000D03*
%TO.P,U2,45*%
%TO.N,A2*%
X156669999Y-54220000D03*
%TO.P,U2,44*%
%TO.N,A1*%
X154129999Y-56760000D03*
%TO.P,U2,42*%
%TO.N,BUS_CONNECT_SIGNAL*%
X192229999Y-89780000D03*
%TO.P,U2,41*%
%TO.N,Net-(U2-Pad41)*%
X192229999Y-87240000D03*
%TO.P,U2,40*%
%TO.N,Net-(U2-Pad40)*%
X189689999Y-89780000D03*
%TO.P,U2,39*%
%TO.N,Net-(U2-Pad39)*%
X189689999Y-87240000D03*
%TO.P,U2,38*%
%TO.N,Net-(U2-Pad38)*%
X187149999Y-89780000D03*
%TO.P,U2,37*%
%TO.N,Net-(U2-Pad37)*%
X187149999Y-87240000D03*
%TO.P,U2,36*%
%TO.N,Net-(U2-Pad36)*%
X184609999Y-89780000D03*
%TO.P,U2,35*%
%TO.N,Net-(U2-Pad35)*%
X184609999Y-87240000D03*
%TO.P,U2,34*%
%TO.N,Net-(U2-Pad34)*%
X182069999Y-89780000D03*
%TO.P,U2,33*%
%TO.N,Net-(U2-Pad33)*%
X182069999Y-87240000D03*
%TO.P,U2,32*%
%TO.N,SCL*%
X179529999Y-89780000D03*
%TO.P,U2,31*%
%TO.N,SDA*%
X179529999Y-87240000D03*
%TO.P,U2,30*%
%TO.N,EXTERNAL_INTERRUPT*%
X176989999Y-89780000D03*
%TO.P,U2,29*%
%TO.N,STATUS_CHECK*%
X176989999Y-87240000D03*
%TO.P,U2,28*%
%TO.N,Net-(U2-Pad28)*%
X174449999Y-89780000D03*
%TO.P,U2,27*%
%TO.N,Net-(U2-Pad27)*%
X174449999Y-87240000D03*
%TO.P,U2,26*%
%TO.N,Net-(U2-Pad26)*%
X171909999Y-89780000D03*
%TO.P,U2,25*%
%TO.N,Net-(U2-Pad25)*%
X171909999Y-87240000D03*
%TO.P,U2,24*%
%TO.N,Net-(U2-Pad24)*%
X169369999Y-89780000D03*
%TO.P,U2,23*%
%TO.N,Net-(U2-Pad23)*%
X169369999Y-87240000D03*
%TO.P,U2,22*%
%TO.N,Net-(U2-Pad22)*%
X166829999Y-89780000D03*
%TO.P,U2,21*%
%TO.N,Net-(U2-Pad21)*%
X166829999Y-87240000D03*
%TO.P,U2,20*%
%TO.N,Net-(U2-Pad20)*%
X164289999Y-89780000D03*
%TO.P,U2,19*%
%TO.N,Net-(U2-Pad19)*%
X164289999Y-87240000D03*
%TO.P,U2,18*%
%TO.N,D7*%
X161749999Y-89780000D03*
%TO.P,U2,17*%
%TO.N,D6*%
X161749999Y-87240000D03*
%TO.P,U2,16*%
%TO.N,Net-(U2-Pad16)*%
X159209999Y-89780000D03*
%TO.P,U2,15*%
%TO.N,CHARGE_CONTROL_SIGNAL*%
X159209999Y-87240000D03*
%TO.P,U2,14*%
%TO.N,Net-(U2-Pad14)*%
X156669999Y-89780000D03*
%TO.P,U2,13*%
%TO.N,DATA*%
X156669999Y-87240000D03*
%TO.P,U2,12*%
%TO.N,Net-(U2-Pad12)*%
X154129999Y-89780000D03*
%TO.P,U2,11*%
%TO.N,Net-(U2-Pad11)*%
X154129999Y-87240000D03*
%TO.P,U2,10*%
%TO.N,Net-(U2-Pad10)*%
X151589999Y-89780000D03*
%TO.P,U2,9*%
%TO.N,AREF*%
X151589999Y-87240000D03*
%TO.P,U2,8*%
%TO.N,3V3*%
X149049999Y-89780000D03*
%TO.P,U2,7*%
X149049999Y-87240000D03*
%TO.P,U2,6*%
%TO.N,5V*%
X146509999Y-89780000D03*
%TO.P,U2,5*%
X146509999Y-87240000D03*
%TO.P,U2,4*%
%TO.N,GND*%
X143969999Y-89780000D03*
%TO.P,U2,3*%
X143969999Y-87240000D03*
%TO.P,U2,2*%
%TO.N,Net-(U2-Pad2)*%
X141429999Y-89780000D03*
%TO.P,U2,85*%
%TO.N,Net-(U2-Pad85)*%
X192169999Y-77080000D03*
%TO.P,U2,83*%
%TO.N,Net-(U2-Pad83)*%
X192169999Y-74540000D03*
%TO.P,U2,81*%
%TO.N,Net-(U2-Pad81)*%
X192169999Y-72000000D03*
%TO.P,U2,86*%
%TO.N,Net-(U2-Pad86)*%
X189629999Y-77080000D03*
%TO.P,U2,84*%
%TO.N,Net-(U2-Pad84)*%
X189629999Y-74540000D03*
%TO.P,U2,82*%
%TO.N,Net-(U2-Pad82)*%
X189629999Y-72000000D03*
%TO.P,U2,79*%
%TO.N,SCK*%
X192229999Y-64380000D03*
%TO.P,U2,77*%
%TO.N,MISO*%
X192229999Y-61840000D03*
%TO.P,U2,75*%
%TO.N,Net-(U2-Pad75)*%
X192229999Y-59300000D03*
%TO.P,U2,80*%
%TO.N,CS*%
X189689999Y-64380000D03*
%TO.P,U2,78*%
%TO.N,MOSI*%
X189689999Y-61840000D03*
%TO.P,U2,76*%
%TO.N,Net-(U2-Pad76)*%
X189689999Y-59300000D03*
%TO.P,U2,43*%
%TO.N,A0*%
X154129999Y-54220000D03*
%TO.P,U2,1*%
%TO.N,Net-(U2-Pad1)*%
X141429999Y-87240000D03*
%TD*%
D12*
%TO.N,SCL*%
X180944998Y-88365001D02*
X179529999Y-89780000D01*
X180944998Y-84475002D02*
X180944998Y-88365001D01*
X181920000Y-83500000D02*
X180944998Y-84475002D01*
%TO.N,SDA*%
X176449998Y-88365001D02*
X178404998Y-88365001D01*
X178404998Y-88365001D02*
X179529999Y-87240000D01*
X175575000Y-87490003D02*
X176449998Y-88365001D01*
X175575000Y-84775000D02*
X175575000Y-87490003D01*
X174300000Y-83500000D02*
X175575000Y-84775000D01*
%TO.N,MISO*%
X193355000Y-64920001D02*
X178775001Y-79500000D01*
X192229999Y-61840000D02*
X193355000Y-62965001D01*
X173220000Y-79500000D02*
X169220000Y-83500000D01*
X178775001Y-79500000D02*
X173220000Y-79500000D01*
X193355000Y-62965001D02*
X193355000Y-64920001D01*
%TO.N,SCK*%
X192229999Y-64380000D02*
X178609999Y-78000000D01*
X172180000Y-78000000D02*
X166680000Y-83500000D01*
X178609999Y-78000000D02*
X172180000Y-78000000D01*
%TO.N,CS*%
X171140000Y-76500000D02*
X164140000Y-83500000D01*
X189689999Y-64380000D02*
X177569999Y-76500000D01*
X177569999Y-76500000D02*
X171140000Y-76500000D01*
%TO.N,EXTERNAL_INTERRUPT*%
X162925010Y-84825010D02*
X161600000Y-83500000D01*
X173035000Y-86699999D02*
X171160011Y-84825010D01*
X173035000Y-87490003D02*
X173035000Y-86699999D01*
X174199996Y-88654999D02*
X173035000Y-87490003D01*
X175864998Y-88654999D02*
X174199996Y-88654999D01*
X171160011Y-84825010D02*
X162925010Y-84825010D01*
X176989999Y-89780000D02*
X175864998Y-88654999D01*
%TO.N,CHARGE_CONTROL_SIGNAL*%
X159209999Y-83649999D02*
X159060000Y-83500000D01*
X159209999Y-87240000D02*
X159209999Y-83649999D01*
%TO.N,BUS_CONNECT_SIGNAL*%
X190815000Y-86699999D02*
X190815000Y-88365001D01*
X190815000Y-88365001D02*
X192229999Y-89780000D01*
X185150000Y-86114999D02*
X190230000Y-86114999D01*
X183384990Y-82884990D02*
X183384990Y-84349989D01*
X182674990Y-82174990D02*
X183384990Y-82884990D01*
X190230000Y-86114999D02*
X190815000Y-86699999D01*
X183384990Y-84349989D02*
X185150000Y-86114999D01*
X180705010Y-82174990D02*
X182674990Y-82174990D01*
X179380000Y-83500000D02*
X180705010Y-82174990D01*
%TO.N,DATA*%
X156669999Y-83649999D02*
X156520000Y-83500000D01*
X156669999Y-87240000D02*
X156669999Y-83649999D01*
%TO.N,STATUS_CHECK*%
X176989999Y-83649999D02*
X176840000Y-83500000D01*
X176989999Y-87240000D02*
X176989999Y-83649999D01*
D13*
%TO.N,5V*%
X145009998Y-85739999D02*
X141219376Y-85739999D01*
X146509999Y-87240000D02*
X145009998Y-85739999D01*
X141280000Y-79720000D02*
X141280000Y-60500000D01*
X141219376Y-85739999D02*
X139725010Y-84245633D01*
X139725010Y-84245633D02*
X139725010Y-81274990D01*
X139725010Y-81274990D02*
X141280000Y-79720000D01*
D12*
%TO.N,A9*%
X179064997Y-60500000D02*
X179380000Y-60500000D01*
X175864998Y-56509997D02*
X175864998Y-57300001D01*
X174990000Y-55634999D02*
X175864998Y-56509997D01*
X165415000Y-55634999D02*
X174990000Y-55634999D01*
X175864998Y-57300001D02*
X179064997Y-60500000D01*
X164289999Y-56760000D02*
X165415000Y-55634999D01*
%TO.N,A7*%
X174225001Y-57885001D02*
X176840000Y-60500000D01*
X162875000Y-57885001D02*
X174225001Y-57885001D01*
X161749999Y-56760000D02*
X162875000Y-57885001D01*
%TO.N,A5*%
X159209999Y-56760000D02*
X160949999Y-58500000D01*
X169760000Y-58500000D02*
X171760000Y-60500000D01*
X160949999Y-58500000D02*
X169760000Y-58500000D01*
%TO.N,A3*%
X162640000Y-59000000D02*
X164140000Y-60500000D01*
X156669999Y-56760000D02*
X158909999Y-59000000D01*
X158909999Y-59000000D02*
X162640000Y-59000000D01*
%TO.N,A1*%
X156445001Y-57885001D02*
X159060000Y-60500000D01*
X155255000Y-57885001D02*
X156445001Y-57885001D01*
X154129999Y-56760000D02*
X155255000Y-57885001D01*
%TO.N,MOSI*%
X190815000Y-60714999D02*
X189689999Y-61840000D01*
X192770000Y-60714999D02*
X190815000Y-60714999D01*
X193805010Y-61750009D02*
X192770000Y-60714999D01*
X193805010Y-65106401D02*
X193805010Y-61750009D01*
X184460000Y-74451411D02*
X193805010Y-65106401D01*
X184460000Y-83500000D02*
X184460000Y-74451411D01*
%TD*%
M02*
