M48
; DRILL file {KiCad (5.1.6)-1} date 09/29/21 15:37:10
; FORMAT={3:3/ absolute / metric / suppress leading zeros}
; #@! TF.CreationDate,2021-09-29T15:37:10-07:00
; #@! TF.GenerationSoftware,Kicad,Pcbnew,(5.1.6)-1
FMAT,2
METRIC,TZ
T1C0.400
T2C0.500
T3C0.762
T4C0.800
T5C0.900
T6C1.000
T7C1.100
T8C1.200
T9C1.300
T10C1.800
T11C1.850
T12C2.000
T13C3.000
T14C3.050
T15C10.250
T16C1.900
T17C3.000
%
G90
G05
T1
X53000Y-158000
X53000Y-160250
X53000Y-162500
X55500Y-158000
X58000Y-158000
X60500Y-158000
X62500Y-129000
X63000Y-158000
X63000Y-160250
X63000Y-162500
X98500Y-129000
X107750Y-182250
X121500Y-169750
X125250Y-141500
X125250Y-147500
X131750Y-157500
X133750Y-167500
X134500Y-129000
X135000Y-191250
X136500Y-168250
X138250Y-198274
X142487Y-147763
X145250Y-190250
X145500Y-157250
X148750Y-150500
X148763Y-149487
X148769Y-148487
X148772Y-147465
X148773Y-146441
X148774Y-145416
X154500Y-145250
X155250Y-146250
X156000Y-147250
X156750Y-148250
X165250Y-137750
X170500Y-129000
X171500Y-158000
X172500Y-157750
X181500Y-157750
X186500Y-152750
X202750Y-173250
X206500Y-129000
X221000Y-144250
X224500Y-168500
X226250Y-156750
X227750Y-167250
X231500Y-169500
X242500Y-129000
X250000Y-182000
X250750Y-144500
X250750Y-148000
X253250Y-157250
X254500Y-165500
X254500Y-170250
X259750Y-144500
X259750Y-148250
X275750Y-181000
X278250Y-179500
X278500Y-129000
X282250Y-179500
X288500Y-157250
X308250Y-181250
X309750Y-147500
X310250Y-179500
X311750Y-149500
X313000Y-148750
X314500Y-129000
X314750Y-179500
X317000Y-176000
X329500Y-159000
X330500Y-158250
X331750Y-172750
X334250Y-172750
X336750Y-172750
X339250Y-172750
X339750Y-184000
X341750Y-172750
X344250Y-172750
X346750Y-172750
X349250Y-172750
X350500Y-129000
X351750Y-172750
X354250Y-172750
X359000Y-169250
X359000Y-172750
X359500Y-144500
X361750Y-141000
X366500Y-140250
X384500Y-131000
T2
X44245Y-183206
X44245Y-186294
X45301Y-180305
X45301Y-189195
X45496Y-183427
X45496Y-186073
X46401Y-180940
X46401Y-188560
X46746Y-183647
X46746Y-185853
X47286Y-177940
X47286Y-191560
X47501Y-181575
X47501Y-187925
X48102Y-178913
X48102Y-190587
X48918Y-179886
X48918Y-189614
X49959Y-176396
X49959Y-193104
X50394Y-177590
X50394Y-191910
X50828Y-178783
X50828Y-190717
X53000Y-175860
X53000Y-177130
X53000Y-178400
X53000Y-191100
X53000Y-192370
X53000Y-193640
X55500Y-175860
X55500Y-177130
X55500Y-178400
X55500Y-191110
X55500Y-192380
X55500Y-193650
X58000Y-175860
X58000Y-177130
X58000Y-178400
X58000Y-191110
X58000Y-192380
X58000Y-193650
X60500Y-175860
X60500Y-177130
X60500Y-178400
X60500Y-191110
X60500Y-192380
X60500Y-193650
X63000Y-175860
X63000Y-177130
X63000Y-178400
X63000Y-191100
X63000Y-192370
X63000Y-193640
X65172Y-178783
X65172Y-190717
X65606Y-177590
X65606Y-191910
X66041Y-176396
X66041Y-193104
X67082Y-179886
X67082Y-189614
X67898Y-178913
X67898Y-190587
X68499Y-181575
X68499Y-187925
X68714Y-177940
X68714Y-191560
X69254Y-183647
X69254Y-185853
X69599Y-180940
X69599Y-188560
X70504Y-183427
X70504Y-186073
X70699Y-180305
X70699Y-189195
X71755Y-183206
X71755Y-186294
X373245Y-183456
X373245Y-186544
X374301Y-180555
X374301Y-189445
X374496Y-183677
X374496Y-186323
X375401Y-181190
X375401Y-188810
X375746Y-183897
X375746Y-186103
X376286Y-178190
X376286Y-191810
X376501Y-181825
X376501Y-188175
X377102Y-179163
X377102Y-190837
X377918Y-180136
X377918Y-189864
X378959Y-176646
X378959Y-193354
X379394Y-177840
X379394Y-192160
X379828Y-179033
X379828Y-190967
X382000Y-176110
X382000Y-177380
X382000Y-178650
X382000Y-191350
X382000Y-192620
X382000Y-193890
X384172Y-179033
X384172Y-190967
X384606Y-177840
X384606Y-192160
X385041Y-176646
X385041Y-193354
X386082Y-180136
X386082Y-189864
X386898Y-179163
X386898Y-190837
X387499Y-181825
X387499Y-188175
X387714Y-178190
X387714Y-191810
X388254Y-183897
X388254Y-186103
X388599Y-181190
X388599Y-188810
X389504Y-183677
X389504Y-186323
X389699Y-180555
X389699Y-189445
X390755Y-183456
X390755Y-186544
T3
X364000Y-135000
X76000Y-135000
X256000Y-185000
X184000Y-185000
X148000Y-135000
X328000Y-185000
X112000Y-185000
X220000Y-135000
X292000Y-135000
T4
X127380Y-149760
X127380Y-152300
X127380Y-154840
X127380Y-157380
X127380Y-159920
X127380Y-162460
X127380Y-165000
X135000Y-149760
X135000Y-152300
X135000Y-154840
X135000Y-157380
X135000Y-159920
X135000Y-162460
X135000Y-165000
X157300Y-169240
X157300Y-171780
X159840Y-169240
X159840Y-171780
X162380Y-169240
X162380Y-171780
X164920Y-169240
X164920Y-171780
X167460Y-169240
X167460Y-171780
X170000Y-136220
X170000Y-138760
X170000Y-169240
X170000Y-171780
X172540Y-136220
X172540Y-138760
X172540Y-169240
X172540Y-171780
X175080Y-136220
X175080Y-138760
X175080Y-169240
X175080Y-171780
X177620Y-136220
X177620Y-138760
X177620Y-169240
X177620Y-171780
X180160Y-136220
X180160Y-138760
X180160Y-169240
X180160Y-171780
X182700Y-136220
X182700Y-138760
X182700Y-169240
X182700Y-171780
X185240Y-136220
X185240Y-138760
X185240Y-169240
X185240Y-171780
X187780Y-136220
X187780Y-138760
X187780Y-169240
X187780Y-171780
X190320Y-136220
X190320Y-138760
X190320Y-169240
X190320Y-171780
X192860Y-136220
X192860Y-138760
X192860Y-169240
X192860Y-171780
X195400Y-136220
X195400Y-138760
X195400Y-169240
X195400Y-171780
X197940Y-136220
X197940Y-138760
X197940Y-169240
X197940Y-171780
X200480Y-136220
X200480Y-138760
X200480Y-169240
X200480Y-171780
X203020Y-136220
X203020Y-138760
X203020Y-169240
X203020Y-171780
X205500Y-154000
X205500Y-156540
X205500Y-159080
X205560Y-136220
X205560Y-138760
X205560Y-141300
X205560Y-143840
X205560Y-146380
X205560Y-169240
X205560Y-171780
X208040Y-154000
X208040Y-156540
X208040Y-159080
X208100Y-136220
X208100Y-138760
X208100Y-141300
X208100Y-143840
X208100Y-146380
X208100Y-169240
X208100Y-171780
X271420Y-173500
X273960Y-173500
X276500Y-173500
X235380Y-149760
X235380Y-152300
X235380Y-154840
X235380Y-157380
X235380Y-159920
X235380Y-162460
X235380Y-165000
X243000Y-149760
X243000Y-152300
X243000Y-154840
X243000Y-157380
X243000Y-159920
X243000Y-162460
X243000Y-165000
X303920Y-173500
X306460Y-173500
X309000Y-173500
X270380Y-149760
X270380Y-152300
X270380Y-154840
X270380Y-157380
X270380Y-159920
X270380Y-162460
X270380Y-165000
X278000Y-149760
X278000Y-152300
X278000Y-154840
X278000Y-157380
X278000Y-159920
X278000Y-162460
X278000Y-165000
T5
X282750Y-187000
X285290Y-187000
X315250Y-187000
X317790Y-187000
X246500Y-187000
X249040Y-187000
X335000Y-187000
X337540Y-187000
T6
X90500Y-139500
X90500Y-142040
X90500Y-144580
X90500Y-147120
X370750Y-148500
X370750Y-153500
X126630Y-183500
X128015Y-186340
X129400Y-183500
X130785Y-186340
X132170Y-183500
X133555Y-186340
X134940Y-183500
X136325Y-186340
X137710Y-183500
X139095Y-186340
X140480Y-183500
X141865Y-186340
X143250Y-183500
X144635Y-186340
X146020Y-183500
X102500Y-167000
X102500Y-169540
X102500Y-172080
X101750Y-139250
X101750Y-141790
X101750Y-144330
X101750Y-146870
X101750Y-149410
X101750Y-151950
X163340Y-186500
X163340Y-189040
X165880Y-186500
X165880Y-189040
X168420Y-186500
X168420Y-189040
X170960Y-186500
X170960Y-189040
X173500Y-186500
X173500Y-189040
X98250Y-169500
X98250Y-172040
T7
X379500Y-139000
X379500Y-143500
X386000Y-139000
X386000Y-143500
X341800Y-175000
X341800Y-177500
X347700Y-175000
X347700Y-177500
T8
X96750Y-195000
X100250Y-195000
T9
X225000Y-192500
X232620Y-192500
T10
X266250Y-180000
X266250Y-185500
X298750Y-180000
X298750Y-185500
T11
X44000Y-124000
X44000Y-131000
X49000Y-124000
X49000Y-131000
X391000Y-124000
X391000Y-131000
X396000Y-124000
X396000Y-131000
X83000Y-189000
X83000Y-196000
X88000Y-189000
X88000Y-196000
X352000Y-189000
X352000Y-196000
X357000Y-189000
X357000Y-196000
T12
X234000Y-185000
X206000Y-185000
X213000Y-185000
X227000Y-177500
X220000Y-185000
X206000Y-177500
X213000Y-177500
X227000Y-185000
X220000Y-177500
X215000Y-192500
X234000Y-177500
T13
X184000Y-192500
X148000Y-127500
X112000Y-192500
X76000Y-127500
X292000Y-127500
X328000Y-192500
X364000Y-127500
X256000Y-192500
X220000Y-127500
T14
X119675Y-184920
X152975Y-184920
T15
X382000Y-185000
T16
X342550Y-188900
X346950Y-188900
T17
X266250Y-192800
X298750Y-192800
T15
G00X53125Y-185000
M15
G01X62875Y-185000
M16
G05
T0
M30
