%TF.GenerationSoftware,KiCad,Pcbnew,(5.1.6)-1*%
%TF.CreationDate,2021-09-29T15:37:12-07:00*%
%TF.ProjectId,NiCd Battery Shield - VP400KH,4e694364-2042-4617-9474-657279205368,1*%
%TF.SameCoordinates,Original*%
%TF.FileFunction,Soldermask,Bot*%
%TF.FilePolarity,Negative*%
%FSLAX46Y46*%
G04 Gerber Fmt 4.6, Leading zero omitted, Abs format (unit mm)*
G04 Created by KiCad (PCBNEW (5.1.6)-1) date 2021-09-29 15:37:12*
%MOMM*%
%LPD*%
G01*
G04 APERTURE LIST*
%ADD10C,2.100000*%
%ADD11C,20.100000*%
%ADD12C,0.600000*%
%ADD13O,30.100000X20.100000*%
%ADD14C,1.350000*%
%ADD15C,3.600000*%
%ADD16R,2.100000X2.100000*%
%ADD17C,1.624000*%
%ADD18C,4.100000*%
%ADD19C,2.700000*%
%ADD20C,1.900000*%
%ADD21R,1.900000X1.900000*%
%ADD22C,3.100000*%
%ADD23O,2.800000X3.800000*%
%ADD24O,2.500000X1.700000*%
%ADD25R,2.500000X1.700000*%
%ADD26C,1.700000*%
%ADD27R,1.600000X1.600000*%
%ADD28C,1.600000*%
%ADD29O,1.800000X1.800000*%
%ADD30R,1.800000X1.800000*%
%ADD31C,1.800000*%
%ADD32R,2.500000X2.500000*%
%ADD33C,2.500000*%
G04 APERTURE END LIST*
D10*
%TO.C,SW1*%
X341800000Y-175000000D03*
X347700000Y-175000000D03*
X341800000Y-177500000D03*
X347700000Y-177500000D03*
X346950000Y-188900000D03*
X342550000Y-188900000D03*
%TD*%
D11*
%TO.C,J1*%
X382000000Y-185000000D03*
D12*
X382000000Y-178650000D03*
X379828172Y-179032952D03*
X377918299Y-180135618D03*
X376500739Y-181825000D03*
X375746471Y-183897334D03*
X375746471Y-186102666D03*
X376500739Y-188175000D03*
X377918299Y-189864382D03*
X379828172Y-190967048D03*
X382000000Y-191350000D03*
X384171828Y-190967048D03*
X386081701Y-189864382D03*
X387499261Y-188175000D03*
X388253529Y-186102666D03*
X388253529Y-183897334D03*
X387499261Y-181825000D03*
X386081701Y-180135618D03*
X384171828Y-179032952D03*
X382000000Y-177380000D03*
X379393807Y-177839542D03*
X377101958Y-179162741D03*
X375400886Y-181190000D03*
X374495765Y-183676801D03*
X374495765Y-186323199D03*
X375400886Y-188810000D03*
X377101958Y-190837259D03*
X379393807Y-192160458D03*
X382000000Y-192620000D03*
X384606193Y-192160458D03*
X386898042Y-190837259D03*
X388599114Y-188810000D03*
X389504235Y-186323199D03*
X389504235Y-183676801D03*
X388599114Y-181190000D03*
X386898042Y-179162741D03*
X384606193Y-177839542D03*
X382000000Y-176110000D03*
X378959441Y-176646133D03*
X376285618Y-178189865D03*
X374301034Y-180555000D03*
X373245059Y-183456268D03*
X373245059Y-186543732D03*
X374301034Y-189445000D03*
X376285618Y-191810135D03*
X378959441Y-193353867D03*
X382000000Y-193890000D03*
X385040559Y-193353867D03*
X387714382Y-191810135D03*
X389698966Y-189445000D03*
X390754941Y-186543732D03*
X390754941Y-183456268D03*
X389698966Y-180555000D03*
X387714382Y-178189865D03*
X385040559Y-176646133D03*
%TD*%
%TO.C,J12*%
X58000000Y-193650000D03*
X58000000Y-191110000D03*
X60500000Y-192380000D03*
X60500000Y-191110000D03*
X60500000Y-193650000D03*
X58000000Y-192380000D03*
X55500000Y-193650000D03*
X55500000Y-191110000D03*
X55500000Y-192380000D03*
X58000000Y-178400000D03*
X58000000Y-177130000D03*
X58000000Y-175860000D03*
X60500000Y-178400000D03*
X60500000Y-175860000D03*
X60500000Y-177130000D03*
X55500000Y-178400000D03*
X55500000Y-177130000D03*
X55500000Y-175860000D03*
X68714382Y-191560135D03*
X63000000Y-191100000D03*
X63000000Y-178400000D03*
X65606193Y-177589542D03*
X63000000Y-192370000D03*
X69599114Y-188560000D03*
X66040559Y-176396133D03*
X68714382Y-177939865D03*
X70698966Y-180305000D03*
X63000000Y-177130000D03*
X63000000Y-193640000D03*
X70504235Y-183426801D03*
X68499261Y-187925000D03*
X65171828Y-178782952D03*
X71754941Y-183206268D03*
X70698966Y-189195000D03*
X66040559Y-193103867D03*
X63000000Y-175860000D03*
X67898042Y-178912741D03*
X69599114Y-180940000D03*
X70504235Y-186073199D03*
X67081701Y-189614382D03*
X68499261Y-181575000D03*
X67081701Y-179885618D03*
X65606193Y-191910458D03*
X65171828Y-190717048D03*
X67898042Y-190587259D03*
X69253529Y-183647334D03*
X71754941Y-186293732D03*
X69253529Y-185852666D03*
X47285618Y-191560135D03*
X44245059Y-186293732D03*
X46400886Y-188560000D03*
X53000000Y-191100000D03*
X46746471Y-183647334D03*
X53000000Y-178400000D03*
X46400886Y-180940000D03*
X48918299Y-189614382D03*
X53000000Y-192370000D03*
X53000000Y-177130000D03*
X53000000Y-193640000D03*
X50828172Y-178782952D03*
X50393807Y-177589542D03*
X50828172Y-190717048D03*
X49959441Y-193103867D03*
X45301034Y-189195000D03*
X45301034Y-180305000D03*
X45495765Y-183426801D03*
X47500739Y-181575000D03*
X47285618Y-177939865D03*
X47500739Y-187925000D03*
X49959441Y-176396133D03*
X53000000Y-175860000D03*
X48101958Y-178912741D03*
X50393807Y-191910458D03*
X48101958Y-190587259D03*
X46746471Y-185852666D03*
X48918299Y-179885618D03*
X44245059Y-183206268D03*
X45495765Y-186073199D03*
D13*
X58000000Y-185000000D03*
%TD*%
D14*
%TO.C,J6*%
X144635000Y-186340000D03*
X141865000Y-186340000D03*
X139095000Y-186340000D03*
X136325000Y-186340000D03*
X133555000Y-186340000D03*
X130785000Y-186340000D03*
X128015000Y-186340000D03*
X146020000Y-183500000D03*
X143250000Y-183500000D03*
X140480000Y-183500000D03*
X137710000Y-183500000D03*
X134940000Y-183500000D03*
X132170000Y-183500000D03*
X129400000Y-183500000D03*
X126630000Y-183500000D03*
D15*
X152975000Y-184920000D03*
X119675000Y-184920000D03*
%TD*%
D10*
%TO.C,C4*%
X370750000Y-153500000D03*
D16*
X370750000Y-148500000D03*
%TD*%
D17*
%TO.C,J7*%
X220000000Y-135000000D03*
%TD*%
D18*
%TO.C,TP19*%
X76000000Y-127500000D03*
%TD*%
%TO.C,TP17*%
X112000000Y-192500000D03*
%TD*%
%TO.C,TP14*%
X148000000Y-127500000D03*
%TD*%
%TO.C,TP12*%
X184000000Y-192500000D03*
%TD*%
%TO.C,TP10*%
X220000000Y-127500000D03*
%TD*%
%TO.C,TP8*%
X256000000Y-192500000D03*
%TD*%
%TO.C,TP6*%
X292000000Y-127500000D03*
%TD*%
%TO.C,TP4*%
X328000000Y-192500000D03*
%TD*%
%TO.C,TP2*%
X364000000Y-127500000D03*
%TD*%
D19*
%TO.C,TP15*%
X232620000Y-192500000D03*
X225000000Y-192500000D03*
%TD*%
D17*
%TO.C,J11*%
X76000000Y-135000000D03*
%TD*%
%TO.C,J10*%
X112000000Y-185000000D03*
%TD*%
%TO.C,J9*%
X148000000Y-135000000D03*
%TD*%
%TO.C,J8*%
X184000000Y-185000000D03*
%TD*%
%TO.C,J5*%
X256000000Y-185000000D03*
%TD*%
%TO.C,J4*%
X292000000Y-135000000D03*
%TD*%
%TO.C,J3*%
X328000000Y-185000000D03*
%TD*%
%TO.C,J2*%
X364000000Y-135000000D03*
%TD*%
D20*
%TO.C,D5*%
X337540000Y-187000000D03*
D21*
X335000000Y-187000000D03*
%TD*%
D20*
%TO.C,D3*%
X249040000Y-187000000D03*
D21*
X246500000Y-187000000D03*
%TD*%
D20*
%TO.C,D4*%
X317790000Y-187000000D03*
D21*
X315250000Y-187000000D03*
%TD*%
D22*
%TO.C,J13*%
X298750000Y-192800000D03*
D23*
X298750000Y-180000000D03*
G36*
G01*
X300150000Y-183859260D02*
X300150000Y-187140740D01*
G75*
G02*
X299890740Y-187400000I-259260J0D01*
G01*
X297609260Y-187400000D01*
G75*
G02*
X297350000Y-187140740I0J259260D01*
G01*
X297350000Y-183859260D01*
G75*
G02*
X297609260Y-183600000I259260J0D01*
G01*
X299890740Y-183600000D01*
G75*
G02*
X300150000Y-183859260I0J-259260D01*
G01*
G37*
%TD*%
D24*
%TO.C,U1*%
X270380000Y-165000000D03*
X278000000Y-149760000D03*
X270380000Y-162460000D03*
X278000000Y-152300000D03*
X270380000Y-159920000D03*
X278000000Y-154840000D03*
X270380000Y-157380000D03*
X278000000Y-157380000D03*
X270380000Y-154840000D03*
X278000000Y-159920000D03*
X270380000Y-152300000D03*
X278000000Y-162460000D03*
X270380000Y-149760000D03*
D25*
X278000000Y-165000000D03*
%TD*%
D24*
%TO.C,U2*%
X235380000Y-165000000D03*
X243000000Y-149760000D03*
X235380000Y-162460000D03*
X243000000Y-152300000D03*
X235380000Y-159920000D03*
X243000000Y-154840000D03*
X235380000Y-157380000D03*
X243000000Y-157380000D03*
X235380000Y-154840000D03*
X243000000Y-159920000D03*
X235380000Y-152300000D03*
X243000000Y-162460000D03*
X235380000Y-149760000D03*
D25*
X243000000Y-165000000D03*
%TD*%
D24*
%TO.C,U3*%
X127380000Y-165000000D03*
X135000000Y-149760000D03*
X127380000Y-162460000D03*
X135000000Y-152300000D03*
X127380000Y-159920000D03*
X135000000Y-154840000D03*
X127380000Y-157380000D03*
X135000000Y-157380000D03*
X127380000Y-154840000D03*
X135000000Y-159920000D03*
X127380000Y-152300000D03*
X135000000Y-162460000D03*
X127380000Y-149760000D03*
D25*
X135000000Y-165000000D03*
%TD*%
D26*
%TO.C,U4*%
X208100000Y-138760000D03*
X208100000Y-136220000D03*
X205560000Y-138760000D03*
X205560000Y-136220000D03*
X203020000Y-138760000D03*
X203020000Y-136220000D03*
X200480000Y-138760000D03*
X200480000Y-136220000D03*
X197940000Y-138760000D03*
X197940000Y-136220000D03*
X195400000Y-138760000D03*
X195400000Y-136220000D03*
X192860000Y-138760000D03*
X192860000Y-136220000D03*
X190320000Y-138760000D03*
X190320000Y-136220000D03*
X187780000Y-138760000D03*
X187780000Y-136220000D03*
X185240000Y-138760000D03*
X185240000Y-136220000D03*
X182700000Y-138760000D03*
X182700000Y-136220000D03*
X180160000Y-138760000D03*
X180160000Y-136220000D03*
X177620000Y-138760000D03*
X177620000Y-136220000D03*
X175080000Y-138760000D03*
X175080000Y-136220000D03*
X172540000Y-138760000D03*
X172540000Y-136220000D03*
X170000000Y-138760000D03*
X208100000Y-171780000D03*
X208100000Y-169240000D03*
X205560000Y-171780000D03*
X205560000Y-169240000D03*
X203020000Y-171780000D03*
X203020000Y-169240000D03*
X200480000Y-171780000D03*
X200480000Y-169240000D03*
X197940000Y-171780000D03*
X197940000Y-169240000D03*
X195400000Y-171780000D03*
X195400000Y-169240000D03*
X192860000Y-171780000D03*
X192860000Y-169240000D03*
X190320000Y-171780000D03*
X190320000Y-169240000D03*
X187780000Y-171780000D03*
X187780000Y-169240000D03*
X185240000Y-171780000D03*
X185240000Y-169240000D03*
X182700000Y-171780000D03*
X182700000Y-169240000D03*
X180160000Y-171780000D03*
X180160000Y-169240000D03*
X177620000Y-171780000D03*
X177620000Y-169240000D03*
X175080000Y-171780000D03*
X175080000Y-169240000D03*
X172540000Y-171780000D03*
X172540000Y-169240000D03*
X170000000Y-171780000D03*
X170000000Y-169240000D03*
X167460000Y-171780000D03*
X167460000Y-169240000D03*
X164920000Y-171780000D03*
X164920000Y-169240000D03*
X162380000Y-171780000D03*
X162380000Y-169240000D03*
X159840000Y-171780000D03*
X159840000Y-169240000D03*
X157300000Y-171780000D03*
X208040000Y-159080000D03*
X208040000Y-156540000D03*
X208040000Y-154000000D03*
X205500000Y-159080000D03*
X205500000Y-156540000D03*
X205500000Y-154000000D03*
X208100000Y-146380000D03*
X208100000Y-143840000D03*
X208100000Y-141300000D03*
X205560000Y-146380000D03*
X205560000Y-143840000D03*
X205560000Y-141300000D03*
X170000000Y-136220000D03*
X157300000Y-169240000D03*
%TD*%
D27*
%TO.C,Q2*%
X309000000Y-173500000D03*
D28*
X303920000Y-173500000D03*
X306460000Y-173500000D03*
%TD*%
D18*
%TO.C,TP1*%
X206000000Y-185000000D03*
%TD*%
%TO.C,TP3*%
X206000000Y-177500000D03*
%TD*%
%TO.C,TP5*%
X213000000Y-185000000D03*
%TD*%
%TO.C,TP7*%
X213000000Y-177500000D03*
%TD*%
%TO.C,TP9*%
X220000000Y-185000000D03*
%TD*%
%TO.C,TP11*%
X220000000Y-177500000D03*
%TD*%
%TO.C,TP13*%
X227000000Y-185000000D03*
%TD*%
%TO.C,TP16*%
X227000000Y-177500000D03*
%TD*%
%TO.C,TP18*%
X234000000Y-185000000D03*
%TD*%
%TO.C,TP20*%
X234000000Y-177500000D03*
%TD*%
%TO.C,TP21*%
X215000000Y-192500000D03*
%TD*%
D22*
%TO.C,H1*%
X49000000Y-131000000D03*
X44000000Y-131000000D03*
X49000000Y-124000000D03*
X44000000Y-124000000D03*
%TD*%
%TO.C,H2*%
X88000000Y-196000000D03*
X83000000Y-196000000D03*
X88000000Y-189000000D03*
X83000000Y-189000000D03*
%TD*%
%TO.C,H3*%
X396000000Y-131000000D03*
X391000000Y-131000000D03*
X396000000Y-124000000D03*
X391000000Y-124000000D03*
%TD*%
%TO.C,H4*%
X357000000Y-196000000D03*
X352000000Y-196000000D03*
X357000000Y-189000000D03*
X352000000Y-189000000D03*
%TD*%
D10*
%TO.C,SW2*%
X386000000Y-139000000D03*
X386000000Y-143500000D03*
X379500000Y-139000000D03*
X379500000Y-143500000D03*
%TD*%
D21*
%TO.C,D17*%
X282750000Y-187000000D03*
D20*
X285290000Y-187000000D03*
%TD*%
D29*
%TO.C,J14*%
X90500000Y-147120000D03*
X90500000Y-144580000D03*
X90500000Y-142040000D03*
D30*
X90500000Y-139500000D03*
%TD*%
%TO.C,J15*%
X101750000Y-139250000D03*
D29*
X101750000Y-141790000D03*
X101750000Y-144330000D03*
X101750000Y-146870000D03*
X101750000Y-149410000D03*
X101750000Y-151950000D03*
%TD*%
%TO.C,J16*%
G36*
G01*
X267650000Y-183859260D02*
X267650000Y-187140740D01*
G75*
G02*
X267390740Y-187400000I-259260J0D01*
G01*
X265109260Y-187400000D01*
G75*
G02*
X264850000Y-187140740I0J259260D01*
G01*
X264850000Y-183859260D01*
G75*
G02*
X265109260Y-183600000I259260J0D01*
G01*
X267390740Y-183600000D01*
G75*
G02*
X267650000Y-183859260I0J-259260D01*
G01*
G37*
D23*
X266250000Y-180000000D03*
D22*
X266250000Y-192800000D03*
%TD*%
D28*
%TO.C,Q4*%
X273960000Y-173500000D03*
X271420000Y-173500000D03*
D27*
X276500000Y-173500000D03*
%TD*%
%TO.C,J17*%
G36*
G01*
X172864706Y-185600000D02*
X174135294Y-185600000D01*
G75*
G02*
X174400000Y-185864706I0J-264706D01*
G01*
X174400000Y-187135294D01*
G75*
G02*
X174135294Y-187400000I-264706J0D01*
G01*
X172864706Y-187400000D01*
G75*
G02*
X172600000Y-187135294I0J264706D01*
G01*
X172600000Y-185864706D01*
G75*
G02*
X172864706Y-185600000I264706J0D01*
G01*
G37*
D31*
X170960000Y-186500000D03*
X168420000Y-186500000D03*
X165880000Y-186500000D03*
X163340000Y-186500000D03*
X173500000Y-189040000D03*
X170960000Y-189040000D03*
X168420000Y-189040000D03*
X165880000Y-189040000D03*
X163340000Y-189040000D03*
%TD*%
D30*
%TO.C,J18*%
X102500000Y-167000000D03*
D29*
X102500000Y-169540000D03*
X102500000Y-172080000D03*
%TD*%
D32*
%TO.C,J19*%
X96750000Y-195000000D03*
D33*
X100250000Y-195000000D03*
%TD*%
D30*
%TO.C,J20*%
X98250000Y-169500000D03*
D29*
X98250000Y-172040000D03*
%TD*%
M02*
