M48
; DRILL file {KiCad (5.1.6)-1} date 06/29/22 11:00:18
; FORMAT={3:3/ absolute / metric / suppress leading zeros}
; #@! TF.CreationDate,2022-06-29T11:00:18-07:00
; #@! TF.GenerationSoftware,Kicad,Pcbnew,(5.1.6)-1
FMAT,2
METRIC,TZ
T1C0.800
T2C1.000
%
G90
G05
T1
X141430Y-87240
X141430Y-89780
X143970Y-87240
X143970Y-89780
X146510Y-87240
X146510Y-89780
X149050Y-87240
X149050Y-89780
X151590Y-87240
X151590Y-89780
X154130Y-54220
X154130Y-56760
X154130Y-87240
X154130Y-89780
X156670Y-54220
X156670Y-56760
X156670Y-87240
X156670Y-89780
X159210Y-54220
X159210Y-56760
X159210Y-87240
X159210Y-89780
X161750Y-54220
X161750Y-56760
X161750Y-87240
X161750Y-89780
X164290Y-54220
X164290Y-56760
X164290Y-87240
X164290Y-89780
X166830Y-54220
X166830Y-56760
X166830Y-87240
X166830Y-89780
X169370Y-54220
X169370Y-56760
X169370Y-87240
X169370Y-89780
X171910Y-54220
X171910Y-56760
X171910Y-87240
X171910Y-89780
X174450Y-54220
X174450Y-56760
X174450Y-87240
X174450Y-89780
X176990Y-54220
X176990Y-56760
X176990Y-87240
X176990Y-89780
X179530Y-54220
X179530Y-56760
X179530Y-87240
X179530Y-89780
X182070Y-54220
X182070Y-56760
X182070Y-87240
X182070Y-89780
X184610Y-54220
X184610Y-56760
X184610Y-87240
X184610Y-89780
X187150Y-54220
X187150Y-56760
X187150Y-87240
X187150Y-89780
X189630Y-72000
X189630Y-74540
X189630Y-77080
X189690Y-54220
X189690Y-56760
X189690Y-59300
X189690Y-61840
X189690Y-64380
X189690Y-87240
X189690Y-89780
X192170Y-72000
X192170Y-74540
X192170Y-77080
X192230Y-54220
X192230Y-56760
X192230Y-59300
X192230Y-61840
X192230Y-64380
X192230Y-87240
X192230Y-89780
T2
X141280Y-60500
X141280Y-83500
X143820Y-60500
X143820Y-83500
X146360Y-60500
X146360Y-83500
X148900Y-60500
X148900Y-83500
X151440Y-60500
X151440Y-83500
X153980Y-60500
X153980Y-83500
X156520Y-60500
X156520Y-83500
X159060Y-60500
X159060Y-83500
X161600Y-60500
X161600Y-83500
X164140Y-60500
X164140Y-83500
X166680Y-60500
X166680Y-83500
X169220Y-60500
X169220Y-83500
X171760Y-60500
X171760Y-83500
X174300Y-60500
X174300Y-83500
X176840Y-60500
X176840Y-83500
X179380Y-60500
X179380Y-83500
X181920Y-60500
X181920Y-83500
X184460Y-60500
X184460Y-83500
X187000Y-60500
X187000Y-83500
T0
M30
