%TF.GenerationSoftware,KiCad,Pcbnew,(5.1.6)-1*%
%TF.CreationDate,2022-06-29T11:00:19-07:00*%
%TF.ProjectId,ESP32 Adapter Board,45535033-3220-4416-9461-707465722042,rev?*%
%TF.SameCoordinates,Original*%
%TF.FileFunction,Legend,Top*%
%TF.FilePolarity,Positive*%
%FSLAX46Y46*%
G04 Gerber Fmt 4.6, Leading zero omitted, Abs format (unit mm)*
G04 Created by KiCad (PCBNEW (5.1.6)-1) date 2022-06-29 11:00:19*
%MOMM*%
%LPD*%
G01*
G04 APERTURE LIST*
%ADD10C,0.150000*%
%ADD11C,0.120000*%
G04 APERTURE END LIST*
D10*
X140250000Y-54212500D02*
X140607142Y-54212500D01*
X140178571Y-54426785D02*
X140428571Y-53676785D01*
X140678571Y-54426785D01*
X140821428Y-53676785D02*
X141250000Y-53676785D01*
X141035714Y-54426785D02*
X141035714Y-53676785D01*
X141500000Y-54426785D02*
X141500000Y-53676785D01*
X141750000Y-54212500D01*
X142000000Y-53676785D01*
X142000000Y-54426785D01*
X142357142Y-54033928D02*
X142607142Y-54033928D01*
X142714285Y-54426785D02*
X142357142Y-54426785D01*
X142357142Y-53676785D01*
X142714285Y-53676785D01*
X143428571Y-53712500D02*
X143357142Y-53676785D01*
X143250000Y-53676785D01*
X143142857Y-53712500D01*
X143071428Y-53783928D01*
X143035714Y-53855357D01*
X143000000Y-53998214D01*
X143000000Y-54105357D01*
X143035714Y-54248214D01*
X143071428Y-54319642D01*
X143142857Y-54391071D01*
X143250000Y-54426785D01*
X143321428Y-54426785D01*
X143428571Y-54391071D01*
X143464285Y-54355357D01*
X143464285Y-54105357D01*
X143321428Y-54105357D01*
X143750000Y-54212500D02*
X144107142Y-54212500D01*
X143678571Y-54426785D02*
X143928571Y-53676785D01*
X144178571Y-54426785D01*
X144392857Y-53748214D02*
X144428571Y-53712500D01*
X144500000Y-53676785D01*
X144678571Y-53676785D01*
X144750000Y-53712500D01*
X144785714Y-53748214D01*
X144821428Y-53819642D01*
X144821428Y-53891071D01*
X144785714Y-53998214D01*
X144357142Y-54426785D01*
X144821428Y-54426785D01*
X145500000Y-53676785D02*
X145142857Y-53676785D01*
X145107142Y-54033928D01*
X145142857Y-53998214D01*
X145214285Y-53962500D01*
X145392857Y-53962500D01*
X145464285Y-53998214D01*
X145500000Y-54033928D01*
X145535714Y-54105357D01*
X145535714Y-54283928D01*
X145500000Y-54355357D01*
X145464285Y-54391071D01*
X145392857Y-54426785D01*
X145214285Y-54426785D01*
X145142857Y-54391071D01*
X145107142Y-54355357D01*
X146178571Y-53676785D02*
X146035714Y-53676785D01*
X145964285Y-53712500D01*
X145928571Y-53748214D01*
X145857142Y-53855357D01*
X145821428Y-53998214D01*
X145821428Y-54283928D01*
X145857142Y-54355357D01*
X145892857Y-54391071D01*
X145964285Y-54426785D01*
X146107142Y-54426785D01*
X146178571Y-54391071D01*
X146214285Y-54355357D01*
X146250000Y-54283928D01*
X146250000Y-54105357D01*
X146214285Y-54033928D01*
X146178571Y-53998214D01*
X146107142Y-53962500D01*
X145964285Y-53962500D01*
X145892857Y-53998214D01*
X145857142Y-54033928D01*
X145821428Y-54105357D01*
X146714285Y-53676785D02*
X146785714Y-53676785D01*
X146857142Y-53712500D01*
X146892857Y-53748214D01*
X146928571Y-53819642D01*
X146964285Y-53962500D01*
X146964285Y-54141071D01*
X146928571Y-54283928D01*
X146892857Y-54355357D01*
X146857142Y-54391071D01*
X146785714Y-54426785D01*
X146714285Y-54426785D01*
X146642857Y-54391071D01*
X146607142Y-54355357D01*
X146571428Y-54283928D01*
X146535714Y-54141071D01*
X146535714Y-53962500D01*
X146571428Y-53819642D01*
X146607142Y-53748214D01*
X146642857Y-53712500D01*
X146714285Y-53676785D01*
X147857142Y-54426785D02*
X147857142Y-53676785D01*
X148142857Y-53676785D01*
X148214285Y-53712500D01*
X148250000Y-53748214D01*
X148285714Y-53819642D01*
X148285714Y-53926785D01*
X148250000Y-53998214D01*
X148214285Y-54033928D01*
X148142857Y-54069642D01*
X147857142Y-54069642D01*
X149035714Y-54426785D02*
X148785714Y-54069642D01*
X148607142Y-54426785D02*
X148607142Y-53676785D01*
X148892857Y-53676785D01*
X148964285Y-53712500D01*
X149000000Y-53748214D01*
X149035714Y-53819642D01*
X149035714Y-53926785D01*
X149000000Y-53998214D01*
X148964285Y-54033928D01*
X148892857Y-54069642D01*
X148607142Y-54069642D01*
X149500000Y-53676785D02*
X149642857Y-53676785D01*
X149714285Y-53712500D01*
X149785714Y-53783928D01*
X149821428Y-53926785D01*
X149821428Y-54176785D01*
X149785714Y-54319642D01*
X149714285Y-54391071D01*
X149642857Y-54426785D01*
X149500000Y-54426785D01*
X149428571Y-54391071D01*
X149357142Y-54319642D01*
X149321428Y-54176785D01*
X149321428Y-53926785D01*
X149357142Y-53783928D01*
X149428571Y-53712500D01*
X149500000Y-53676785D01*
X150714285Y-54426785D02*
X150714285Y-53676785D01*
X150964285Y-54212500D01*
X151214285Y-53676785D01*
X151214285Y-54426785D01*
X151571428Y-54426785D02*
X151571428Y-53676785D01*
X151928571Y-54426785D02*
X151928571Y-53676785D01*
X152357142Y-54426785D01*
X152357142Y-53676785D01*
X152714285Y-54426785D02*
X152714285Y-53676785D01*
X141410714Y-54951785D02*
X141839285Y-54951785D01*
X141625000Y-55701785D02*
X141625000Y-54951785D01*
X142232142Y-54951785D02*
X142375000Y-54951785D01*
X142446428Y-54987500D01*
X142517857Y-55058928D01*
X142553571Y-55201785D01*
X142553571Y-55451785D01*
X142517857Y-55594642D01*
X142446428Y-55666071D01*
X142375000Y-55701785D01*
X142232142Y-55701785D01*
X142160714Y-55666071D01*
X142089285Y-55594642D01*
X142053571Y-55451785D01*
X142053571Y-55201785D01*
X142089285Y-55058928D01*
X142160714Y-54987500D01*
X142232142Y-54951785D01*
X143446428Y-55308928D02*
X143696428Y-55308928D01*
X143803571Y-55701785D02*
X143446428Y-55701785D01*
X143446428Y-54951785D01*
X143803571Y-54951785D01*
X144089285Y-55666071D02*
X144196428Y-55701785D01*
X144375000Y-55701785D01*
X144446428Y-55666071D01*
X144482142Y-55630357D01*
X144517857Y-55558928D01*
X144517857Y-55487500D01*
X144482142Y-55416071D01*
X144446428Y-55380357D01*
X144375000Y-55344642D01*
X144232142Y-55308928D01*
X144160714Y-55273214D01*
X144125000Y-55237500D01*
X144089285Y-55166071D01*
X144089285Y-55094642D01*
X144125000Y-55023214D01*
X144160714Y-54987500D01*
X144232142Y-54951785D01*
X144410714Y-54951785D01*
X144517857Y-54987500D01*
X144839285Y-55701785D02*
X144839285Y-54951785D01*
X145125000Y-54951785D01*
X145196428Y-54987500D01*
X145232142Y-55023214D01*
X145267857Y-55094642D01*
X145267857Y-55201785D01*
X145232142Y-55273214D01*
X145196428Y-55308928D01*
X145125000Y-55344642D01*
X144839285Y-55344642D01*
X145517857Y-54951785D02*
X145982142Y-54951785D01*
X145732142Y-55237500D01*
X145839285Y-55237500D01*
X145910714Y-55273214D01*
X145946428Y-55308928D01*
X145982142Y-55380357D01*
X145982142Y-55558928D01*
X145946428Y-55630357D01*
X145910714Y-55666071D01*
X145839285Y-55701785D01*
X145625000Y-55701785D01*
X145553571Y-55666071D01*
X145517857Y-55630357D01*
X146267857Y-55023214D02*
X146303571Y-54987500D01*
X146375000Y-54951785D01*
X146553571Y-54951785D01*
X146625000Y-54987500D01*
X146660714Y-55023214D01*
X146696428Y-55094642D01*
X146696428Y-55166071D01*
X146660714Y-55273214D01*
X146232142Y-55701785D01*
X146696428Y-55701785D01*
X147517857Y-54951785D02*
X147982142Y-54951785D01*
X147732142Y-55237500D01*
X147839285Y-55237500D01*
X147910714Y-55273214D01*
X147946428Y-55308928D01*
X147982142Y-55380357D01*
X147982142Y-55558928D01*
X147946428Y-55630357D01*
X147910714Y-55666071D01*
X147839285Y-55701785D01*
X147625000Y-55701785D01*
X147553571Y-55666071D01*
X147517857Y-55630357D01*
X148410714Y-55273214D02*
X148339285Y-55237500D01*
X148303571Y-55201785D01*
X148267857Y-55130357D01*
X148267857Y-55094642D01*
X148303571Y-55023214D01*
X148339285Y-54987500D01*
X148410714Y-54951785D01*
X148553571Y-54951785D01*
X148625000Y-54987500D01*
X148660714Y-55023214D01*
X148696428Y-55094642D01*
X148696428Y-55130357D01*
X148660714Y-55201785D01*
X148625000Y-55237500D01*
X148553571Y-55273214D01*
X148410714Y-55273214D01*
X148339285Y-55308928D01*
X148303571Y-55344642D01*
X148267857Y-55416071D01*
X148267857Y-55558928D01*
X148303571Y-55630357D01*
X148339285Y-55666071D01*
X148410714Y-55701785D01*
X148553571Y-55701785D01*
X148625000Y-55666071D01*
X148660714Y-55630357D01*
X148696428Y-55558928D01*
X148696428Y-55416071D01*
X148660714Y-55344642D01*
X148625000Y-55308928D01*
X148553571Y-55273214D01*
X149017857Y-55416071D02*
X149589285Y-55416071D01*
X149946428Y-55701785D02*
X149946428Y-54951785D01*
X150232142Y-54951785D01*
X150303571Y-54987500D01*
X150339285Y-55023214D01*
X150375000Y-55094642D01*
X150375000Y-55201785D01*
X150339285Y-55273214D01*
X150303571Y-55308928D01*
X150232142Y-55344642D01*
X149946428Y-55344642D01*
X150696428Y-55701785D02*
X150696428Y-54951785D01*
X151053571Y-55701785D02*
X151053571Y-54951785D01*
X151482142Y-55701785D01*
X151482142Y-54951785D01*
X140571428Y-56976785D02*
X140571428Y-56226785D01*
X140750000Y-56226785D01*
X140857142Y-56262500D01*
X140928571Y-56333928D01*
X140964285Y-56405357D01*
X141000000Y-56548214D01*
X141000000Y-56655357D01*
X140964285Y-56798214D01*
X140928571Y-56869642D01*
X140857142Y-56941071D01*
X140750000Y-56976785D01*
X140571428Y-56976785D01*
X141321428Y-56583928D02*
X141571428Y-56583928D01*
X141678571Y-56976785D02*
X141321428Y-56976785D01*
X141321428Y-56226785D01*
X141678571Y-56226785D01*
X141892857Y-56226785D02*
X142142857Y-56976785D01*
X142392857Y-56226785D01*
X143464285Y-56583928D02*
X143571428Y-56619642D01*
X143607142Y-56655357D01*
X143642857Y-56726785D01*
X143642857Y-56833928D01*
X143607142Y-56905357D01*
X143571428Y-56941071D01*
X143500000Y-56976785D01*
X143214285Y-56976785D01*
X143214285Y-56226785D01*
X143464285Y-56226785D01*
X143535714Y-56262500D01*
X143571428Y-56298214D01*
X143607142Y-56369642D01*
X143607142Y-56441071D01*
X143571428Y-56512500D01*
X143535714Y-56548214D01*
X143464285Y-56583928D01*
X143214285Y-56583928D01*
X144107142Y-56226785D02*
X144250000Y-56226785D01*
X144321428Y-56262500D01*
X144392857Y-56333928D01*
X144428571Y-56476785D01*
X144428571Y-56726785D01*
X144392857Y-56869642D01*
X144321428Y-56941071D01*
X144250000Y-56976785D01*
X144107142Y-56976785D01*
X144035714Y-56941071D01*
X143964285Y-56869642D01*
X143928571Y-56726785D01*
X143928571Y-56476785D01*
X143964285Y-56333928D01*
X144035714Y-56262500D01*
X144107142Y-56226785D01*
X144714285Y-56762500D02*
X145071428Y-56762500D01*
X144642857Y-56976785D02*
X144892857Y-56226785D01*
X145142857Y-56976785D01*
X145821428Y-56976785D02*
X145571428Y-56619642D01*
X145392857Y-56976785D02*
X145392857Y-56226785D01*
X145678571Y-56226785D01*
X145750000Y-56262500D01*
X145785714Y-56298214D01*
X145821428Y-56369642D01*
X145821428Y-56476785D01*
X145785714Y-56548214D01*
X145750000Y-56583928D01*
X145678571Y-56619642D01*
X145392857Y-56619642D01*
X146142857Y-56976785D02*
X146142857Y-56226785D01*
X146321428Y-56226785D01*
X146428571Y-56262500D01*
X146500000Y-56333928D01*
X146535714Y-56405357D01*
X146571428Y-56548214D01*
X146571428Y-56655357D01*
X146535714Y-56798214D01*
X146500000Y-56869642D01*
X146428571Y-56941071D01*
X146321428Y-56976785D01*
X146142857Y-56976785D01*
X147464285Y-56226785D02*
X147464285Y-56833928D01*
X147500000Y-56905357D01*
X147535714Y-56941071D01*
X147607142Y-56976785D01*
X147750000Y-56976785D01*
X147821428Y-56941071D01*
X147857142Y-56905357D01*
X147892857Y-56833928D01*
X147892857Y-56226785D01*
X148214285Y-56941071D02*
X148321428Y-56976785D01*
X148500000Y-56976785D01*
X148571428Y-56941071D01*
X148607142Y-56905357D01*
X148642857Y-56833928D01*
X148642857Y-56762500D01*
X148607142Y-56691071D01*
X148571428Y-56655357D01*
X148500000Y-56619642D01*
X148357142Y-56583928D01*
X148285714Y-56548214D01*
X148250000Y-56512500D01*
X148214285Y-56441071D01*
X148214285Y-56369642D01*
X148250000Y-56298214D01*
X148285714Y-56262500D01*
X148357142Y-56226785D01*
X148535714Y-56226785D01*
X148642857Y-56262500D01*
X148964285Y-56583928D02*
X149214285Y-56583928D01*
X149321428Y-56976785D02*
X148964285Y-56976785D01*
X148964285Y-56226785D01*
X149321428Y-56226785D01*
X150142857Y-56226785D02*
X150321428Y-56976785D01*
X150464285Y-56441071D01*
X150607142Y-56976785D01*
X150785714Y-56226785D01*
X151071428Y-56976785D02*
X151071428Y-56226785D01*
X151321428Y-56226785D02*
X151750000Y-56226785D01*
X151535714Y-56976785D02*
X151535714Y-56226785D01*
X152000000Y-56976785D02*
X152000000Y-56226785D01*
X152000000Y-56583928D02*
X152428571Y-56583928D01*
X152428571Y-56976785D02*
X152428571Y-56226785D01*
X142250000Y-57858928D02*
X142357142Y-57894642D01*
X142392857Y-57930357D01*
X142428571Y-58001785D01*
X142428571Y-58108928D01*
X142392857Y-58180357D01*
X142357142Y-58216071D01*
X142285714Y-58251785D01*
X142000000Y-58251785D01*
X142000000Y-57501785D01*
X142250000Y-57501785D01*
X142321428Y-57537500D01*
X142357142Y-57573214D01*
X142392857Y-57644642D01*
X142392857Y-57716071D01*
X142357142Y-57787500D01*
X142321428Y-57823214D01*
X142250000Y-57858928D01*
X142000000Y-57858928D01*
X142714285Y-58037500D02*
X143071428Y-58037500D01*
X142642857Y-58251785D02*
X142892857Y-57501785D01*
X143142857Y-58251785D01*
X143285714Y-57501785D02*
X143714285Y-57501785D01*
X143500000Y-58251785D02*
X143500000Y-57501785D01*
X143857142Y-57501785D02*
X144285714Y-57501785D01*
X144071428Y-58251785D02*
X144071428Y-57501785D01*
X144535714Y-57858928D02*
X144785714Y-57858928D01*
X144892857Y-58251785D02*
X144535714Y-58251785D01*
X144535714Y-57501785D01*
X144892857Y-57501785D01*
X145642857Y-58251785D02*
X145392857Y-57894642D01*
X145214285Y-58251785D02*
X145214285Y-57501785D01*
X145500000Y-57501785D01*
X145571428Y-57537500D01*
X145607142Y-57573214D01*
X145642857Y-57644642D01*
X145642857Y-57751785D01*
X145607142Y-57823214D01*
X145571428Y-57858928D01*
X145500000Y-57894642D01*
X145214285Y-57894642D01*
X146107142Y-57894642D02*
X146107142Y-58251785D01*
X145857142Y-57501785D02*
X146107142Y-57894642D01*
X146357142Y-57501785D01*
X147142857Y-58216071D02*
X147250000Y-58251785D01*
X147428571Y-58251785D01*
X147500000Y-58216071D01*
X147535714Y-58180357D01*
X147571428Y-58108928D01*
X147571428Y-58037500D01*
X147535714Y-57966071D01*
X147500000Y-57930357D01*
X147428571Y-57894642D01*
X147285714Y-57858928D01*
X147214285Y-57823214D01*
X147178571Y-57787500D01*
X147142857Y-57716071D01*
X147142857Y-57644642D01*
X147178571Y-57573214D01*
X147214285Y-57537500D01*
X147285714Y-57501785D01*
X147464285Y-57501785D01*
X147571428Y-57537500D01*
X148035714Y-57894642D02*
X148035714Y-58251785D01*
X147785714Y-57501785D02*
X148035714Y-57894642D01*
X148285714Y-57501785D01*
X148500000Y-58216071D02*
X148607142Y-58251785D01*
X148785714Y-58251785D01*
X148857142Y-58216071D01*
X148892857Y-58180357D01*
X148928571Y-58108928D01*
X148928571Y-58037500D01*
X148892857Y-57966071D01*
X148857142Y-57930357D01*
X148785714Y-57894642D01*
X148642857Y-57858928D01*
X148571428Y-57823214D01*
X148535714Y-57787500D01*
X148500000Y-57716071D01*
X148500000Y-57644642D01*
X148535714Y-57573214D01*
X148571428Y-57537500D01*
X148642857Y-57501785D01*
X148821428Y-57501785D01*
X148928571Y-57537500D01*
X149142857Y-57501785D02*
X149571428Y-57501785D01*
X149357142Y-58251785D02*
X149357142Y-57501785D01*
X149821428Y-57858928D02*
X150071428Y-57858928D01*
X150178571Y-58251785D02*
X149821428Y-58251785D01*
X149821428Y-57501785D01*
X150178571Y-57501785D01*
X150500000Y-58251785D02*
X150500000Y-57501785D01*
X150750000Y-58037500D01*
X151000000Y-57501785D01*
X151000000Y-58251785D01*
D11*
%TO.C,U1*%
X139500000Y-68000000D02*
X139500000Y-76000000D01*
X145000000Y-68000000D02*
X139500000Y-68000000D01*
X145000000Y-76000000D02*
X145000000Y-68000000D01*
X139500000Y-76000000D02*
X145000000Y-76000000D01*
X187000000Y-81500000D02*
X187000000Y-62500000D01*
X162000000Y-81500000D02*
X187000000Y-81500000D01*
X162000000Y-62500000D02*
X162000000Y-81500000D01*
X187000000Y-62500000D02*
X162000000Y-62500000D01*
X188000000Y-84750000D02*
X188000000Y-59250000D01*
X140250000Y-84750000D02*
X188000000Y-84750000D01*
X140250000Y-59250000D02*
X140250000Y-84750000D01*
X188000000Y-59250000D02*
X140250000Y-59250000D01*
%TO.C,U2*%
X139629999Y-91000000D02*
X139629999Y-53000000D01*
X193629999Y-91000000D02*
X139629999Y-91000000D01*
X193629999Y-53000000D02*
X193629999Y-91000000D01*
X139629999Y-53000000D02*
X193629999Y-53000000D01*
%TO.C,U1*%
D10*
X188238095Y-83952380D02*
X188238095Y-84761904D01*
X188285714Y-84857142D01*
X188333333Y-84904761D01*
X188428571Y-84952380D01*
X188619047Y-84952380D01*
X188714285Y-84904761D01*
X188761904Y-84857142D01*
X188809523Y-84761904D01*
X188809523Y-83952380D01*
X189809523Y-84952380D02*
X189238095Y-84952380D01*
X189523809Y-84952380D02*
X189523809Y-83952380D01*
X189428571Y-84095238D01*
X189333333Y-84190476D01*
X189238095Y-84238095D01*
%TO.C,U2*%
X191738095Y-83952380D02*
X191738095Y-84761904D01*
X191785714Y-84857142D01*
X191833333Y-84904761D01*
X191928571Y-84952380D01*
X192119047Y-84952380D01*
X192214285Y-84904761D01*
X192261904Y-84857142D01*
X192309523Y-84761904D01*
X192309523Y-83952380D01*
X192738095Y-84047619D02*
X192785714Y-84000000D01*
X192880952Y-83952380D01*
X193119047Y-83952380D01*
X193214285Y-84000000D01*
X193261904Y-84047619D01*
X193309523Y-84142857D01*
X193309523Y-84238095D01*
X193261904Y-84380952D01*
X192690476Y-84952380D01*
X193309523Y-84952380D01*
%TD*%
M02*
