%TF.GenerationSoftware,KiCad,Pcbnew,(5.1.6)-1*%
%TF.CreationDate,2022-06-29T11:00:19-07:00*%
%TF.ProjectId,ESP32 Adapter Board,45535033-3220-4416-9461-707465722042,rev?*%
%TF.SameCoordinates,Original*%
%TF.FileFunction,Legend,Bot*%
%TF.FilePolarity,Positive*%
%FSLAX46Y46*%
G04 Gerber Fmt 4.6, Leading zero omitted, Abs format (unit mm)*
G04 Created by KiCad (PCBNEW (5.1.6)-1) date 2022-06-29 11:00:19*
%MOMM*%
%LPD*%
G01*
G04 APERTURE LIST*
%ADD10C,0.150000*%
G04 APERTURE END LIST*
D10*
X174071428Y-67477380D02*
X174071428Y-66477380D01*
X173833333Y-66477380D01*
X173690476Y-66525000D01*
X173595238Y-66620238D01*
X173547619Y-66715476D01*
X173500000Y-66905952D01*
X173500000Y-67048809D01*
X173547619Y-67239285D01*
X173595238Y-67334523D01*
X173690476Y-67429761D01*
X173833333Y-67477380D01*
X174071428Y-67477380D01*
X173071428Y-66953571D02*
X172738095Y-66953571D01*
X172595238Y-67477380D02*
X173071428Y-67477380D01*
X173071428Y-66477380D01*
X172595238Y-66477380D01*
X172214285Y-67429761D02*
X172071428Y-67477380D01*
X171833333Y-67477380D01*
X171738095Y-67429761D01*
X171690476Y-67382142D01*
X171642857Y-67286904D01*
X171642857Y-67191666D01*
X171690476Y-67096428D01*
X171738095Y-67048809D01*
X171833333Y-67001190D01*
X172023809Y-66953571D01*
X172119047Y-66905952D01*
X172166666Y-66858333D01*
X172214285Y-66763095D01*
X172214285Y-66667857D01*
X172166666Y-66572619D01*
X172119047Y-66525000D01*
X172023809Y-66477380D01*
X171785714Y-66477380D01*
X171642857Y-66525000D01*
X171214285Y-67477380D02*
X171214285Y-66477380D01*
X170214285Y-66525000D02*
X170309523Y-66477380D01*
X170452380Y-66477380D01*
X170595238Y-66525000D01*
X170690476Y-66620238D01*
X170738095Y-66715476D01*
X170785714Y-66905952D01*
X170785714Y-67048809D01*
X170738095Y-67239285D01*
X170690476Y-67334523D01*
X170595238Y-67429761D01*
X170452380Y-67477380D01*
X170357142Y-67477380D01*
X170214285Y-67429761D01*
X170166666Y-67382142D01*
X170166666Y-67048809D01*
X170357142Y-67048809D01*
X169738095Y-67477380D02*
X169738095Y-66477380D01*
X169166666Y-67477380D01*
X169166666Y-66477380D01*
X168690476Y-66953571D02*
X168357142Y-66953571D01*
X168214285Y-67477380D02*
X168690476Y-67477380D01*
X168690476Y-66477380D01*
X168214285Y-66477380D01*
X167785714Y-67477380D02*
X167785714Y-66477380D01*
X167547619Y-66477380D01*
X167404761Y-66525000D01*
X167309523Y-66620238D01*
X167261904Y-66715476D01*
X167214285Y-66905952D01*
X167214285Y-67048809D01*
X167261904Y-67239285D01*
X167309523Y-67334523D01*
X167404761Y-67429761D01*
X167547619Y-67477380D01*
X167785714Y-67477380D01*
X165690476Y-66953571D02*
X165547619Y-67001190D01*
X165500000Y-67048809D01*
X165452380Y-67144047D01*
X165452380Y-67286904D01*
X165500000Y-67382142D01*
X165547619Y-67429761D01*
X165642857Y-67477380D01*
X166023809Y-67477380D01*
X166023809Y-66477380D01*
X165690476Y-66477380D01*
X165595238Y-66525000D01*
X165547619Y-66572619D01*
X165500000Y-66667857D01*
X165500000Y-66763095D01*
X165547619Y-66858333D01*
X165595238Y-66905952D01*
X165690476Y-66953571D01*
X166023809Y-66953571D01*
X164833333Y-67001190D02*
X164833333Y-67477380D01*
X165166666Y-66477380D02*
X164833333Y-67001190D01*
X164500000Y-66477380D01*
X162833333Y-67477380D02*
X163166666Y-67001190D01*
X163404761Y-67477380D02*
X163404761Y-66477380D01*
X163023809Y-66477380D01*
X162928571Y-66525000D01*
X162880952Y-66572619D01*
X162833333Y-66667857D01*
X162833333Y-66810714D01*
X162880952Y-66905952D01*
X162928571Y-66953571D01*
X163023809Y-67001190D01*
X163404761Y-67001190D01*
X162404761Y-67477380D02*
X162404761Y-66477380D01*
X161452380Y-67477380D02*
X161928571Y-67477380D01*
X161928571Y-66477380D01*
X161119047Y-66953571D02*
X160785714Y-66953571D01*
X160642857Y-67477380D02*
X161119047Y-67477380D01*
X161119047Y-66477380D01*
X160642857Y-66477380D01*
X160023809Y-67001190D02*
X160023809Y-67477380D01*
X160357142Y-66477380D02*
X160023809Y-67001190D01*
X159690476Y-66477380D01*
X158071428Y-66525000D02*
X158166666Y-66477380D01*
X158309523Y-66477380D01*
X158452380Y-66525000D01*
X158547619Y-66620238D01*
X158595238Y-66715476D01*
X158642857Y-66905952D01*
X158642857Y-67048809D01*
X158595238Y-67239285D01*
X158547619Y-67334523D01*
X158452380Y-67429761D01*
X158309523Y-67477380D01*
X158214285Y-67477380D01*
X158071428Y-67429761D01*
X158023809Y-67382142D01*
X158023809Y-67048809D01*
X158214285Y-67048809D01*
X157595238Y-66477380D02*
X157595238Y-67286904D01*
X157547619Y-67382142D01*
X157500000Y-67429761D01*
X157404761Y-67477380D01*
X157214285Y-67477380D01*
X157119047Y-67429761D01*
X157071428Y-67382142D01*
X157023809Y-67286904D01*
X157023809Y-66477380D01*
X156547619Y-67477380D02*
X156547619Y-66477380D01*
X155976190Y-67477380D01*
X155976190Y-66477380D01*
X155500000Y-67477380D02*
X155500000Y-66477380D01*
X154928571Y-67477380D01*
X154928571Y-66477380D01*
X168142857Y-68127380D02*
X168142857Y-68841666D01*
X168190476Y-68984523D01*
X168285714Y-69079761D01*
X168428571Y-69127380D01*
X168523809Y-69127380D01*
X167666666Y-68127380D02*
X167666666Y-68936904D01*
X167619047Y-69032142D01*
X167571428Y-69079761D01*
X167476190Y-69127380D01*
X167285714Y-69127380D01*
X167190476Y-69079761D01*
X167142857Y-69032142D01*
X167095238Y-68936904D01*
X167095238Y-68127380D01*
X166619047Y-69127380D02*
X166619047Y-68127380D01*
X166047619Y-69127380D01*
X166047619Y-68127380D01*
X165571428Y-68603571D02*
X165238095Y-68603571D01*
X165095238Y-69127380D02*
X165571428Y-69127380D01*
X165571428Y-68127380D01*
X165095238Y-68127380D01*
X163952380Y-68222619D02*
X163904761Y-68175000D01*
X163809523Y-68127380D01*
X163571428Y-68127380D01*
X163476190Y-68175000D01*
X163428571Y-68222619D01*
X163380952Y-68317857D01*
X163380952Y-68413095D01*
X163428571Y-68555952D01*
X164000000Y-69127380D01*
X163380952Y-69127380D01*
X162761904Y-68127380D02*
X162666666Y-68127380D01*
X162571428Y-68175000D01*
X162523809Y-68222619D01*
X162476190Y-68317857D01*
X162428571Y-68508333D01*
X162428571Y-68746428D01*
X162476190Y-68936904D01*
X162523809Y-69032142D01*
X162571428Y-69079761D01*
X162666666Y-69127380D01*
X162761904Y-69127380D01*
X162857142Y-69079761D01*
X162904761Y-69032142D01*
X162952380Y-68936904D01*
X163000000Y-68746428D01*
X163000000Y-68508333D01*
X162952380Y-68317857D01*
X162904761Y-68222619D01*
X162857142Y-68175000D01*
X162761904Y-68127380D01*
X162047619Y-68222619D02*
X162000000Y-68175000D01*
X161904761Y-68127380D01*
X161666666Y-68127380D01*
X161571428Y-68175000D01*
X161523809Y-68222619D01*
X161476190Y-68317857D01*
X161476190Y-68413095D01*
X161523809Y-68555952D01*
X162095238Y-69127380D01*
X161476190Y-69127380D01*
X161095238Y-68222619D02*
X161047619Y-68175000D01*
X160952380Y-68127380D01*
X160714285Y-68127380D01*
X160619047Y-68175000D01*
X160571428Y-68222619D01*
X160523809Y-68317857D01*
X160523809Y-68413095D01*
X160571428Y-68555952D01*
X161142857Y-69127380D01*
X160523809Y-69127380D01*
X181619047Y-70253571D02*
X181952380Y-70253571D01*
X181952380Y-70777380D02*
X181952380Y-69777380D01*
X181476190Y-69777380D01*
X180904761Y-69777380D02*
X180714285Y-69777380D01*
X180619047Y-69825000D01*
X180523809Y-69920238D01*
X180476190Y-70110714D01*
X180476190Y-70444047D01*
X180523809Y-70634523D01*
X180619047Y-70729761D01*
X180714285Y-70777380D01*
X180904761Y-70777380D01*
X181000000Y-70729761D01*
X181095238Y-70634523D01*
X181142857Y-70444047D01*
X181142857Y-70110714D01*
X181095238Y-69920238D01*
X181000000Y-69825000D01*
X180904761Y-69777380D01*
X179476190Y-70777380D02*
X179809523Y-70301190D01*
X180047619Y-70777380D02*
X180047619Y-69777380D01*
X179666666Y-69777380D01*
X179571428Y-69825000D01*
X179523809Y-69872619D01*
X179476190Y-69967857D01*
X179476190Y-70110714D01*
X179523809Y-70205952D01*
X179571428Y-70253571D01*
X179666666Y-70301190D01*
X180047619Y-70301190D01*
X178285714Y-69777380D02*
X178285714Y-70586904D01*
X178238095Y-70682142D01*
X178190476Y-70729761D01*
X178095238Y-70777380D01*
X177904761Y-70777380D01*
X177809523Y-70729761D01*
X177761904Y-70682142D01*
X177714285Y-70586904D01*
X177714285Y-69777380D01*
X177285714Y-70729761D02*
X177142857Y-70777380D01*
X176904761Y-70777380D01*
X176809523Y-70729761D01*
X176761904Y-70682142D01*
X176714285Y-70586904D01*
X176714285Y-70491666D01*
X176761904Y-70396428D01*
X176809523Y-70348809D01*
X176904761Y-70301190D01*
X177095238Y-70253571D01*
X177190476Y-70205952D01*
X177238095Y-70158333D01*
X177285714Y-70063095D01*
X177285714Y-69967857D01*
X177238095Y-69872619D01*
X177190476Y-69825000D01*
X177095238Y-69777380D01*
X176857142Y-69777380D01*
X176714285Y-69825000D01*
X176285714Y-70253571D02*
X175952380Y-70253571D01*
X175809523Y-70777380D02*
X176285714Y-70777380D01*
X176285714Y-69777380D01*
X175809523Y-69777380D01*
X174714285Y-69777380D02*
X174476190Y-70777380D01*
X174285714Y-70063095D01*
X174095238Y-70777380D01*
X173857142Y-69777380D01*
X173476190Y-70777380D02*
X173476190Y-69777380D01*
X173142857Y-69777380D02*
X172571428Y-69777380D01*
X172857142Y-70777380D02*
X172857142Y-69777380D01*
X172238095Y-70777380D02*
X172238095Y-69777380D01*
X172238095Y-70253571D02*
X171666666Y-70253571D01*
X171666666Y-70777380D02*
X171666666Y-69777380D01*
X170571428Y-69777380D02*
X170000000Y-69777380D01*
X170285714Y-70777380D02*
X170285714Y-69777380D01*
X169666666Y-70777380D02*
X169666666Y-69777380D01*
X169666666Y-70253571D02*
X169095238Y-70253571D01*
X169095238Y-70777380D02*
X169095238Y-69777380D01*
X168619047Y-70253571D02*
X168285714Y-70253571D01*
X168142857Y-70777380D02*
X168619047Y-70777380D01*
X168619047Y-69777380D01*
X168142857Y-69777380D01*
X166619047Y-70253571D02*
X166476190Y-70301190D01*
X166428571Y-70348809D01*
X166380952Y-70444047D01*
X166380952Y-70586904D01*
X166428571Y-70682142D01*
X166476190Y-70729761D01*
X166571428Y-70777380D01*
X166952380Y-70777380D01*
X166952380Y-69777380D01*
X166619047Y-69777380D01*
X166523809Y-69825000D01*
X166476190Y-69872619D01*
X166428571Y-69967857D01*
X166428571Y-70063095D01*
X166476190Y-70158333D01*
X166523809Y-70205952D01*
X166619047Y-70253571D01*
X166952380Y-70253571D01*
X166000000Y-70491666D02*
X165523809Y-70491666D01*
X166095238Y-70777380D02*
X165761904Y-69777380D01*
X165428571Y-70777380D01*
X165238095Y-69777380D02*
X164666666Y-69777380D01*
X164952380Y-70777380D02*
X164952380Y-69777380D01*
X164476190Y-69777380D02*
X163904761Y-69777380D01*
X164190476Y-70777380D02*
X164190476Y-69777380D01*
X163571428Y-70253571D02*
X163238095Y-70253571D01*
X163095238Y-70777380D02*
X163571428Y-70777380D01*
X163571428Y-69777380D01*
X163095238Y-69777380D01*
X162095238Y-70777380D02*
X162428571Y-70301190D01*
X162666666Y-70777380D02*
X162666666Y-69777380D01*
X162285714Y-69777380D01*
X162190476Y-69825000D01*
X162142857Y-69872619D01*
X162095238Y-69967857D01*
X162095238Y-70110714D01*
X162142857Y-70205952D01*
X162190476Y-70253571D01*
X162285714Y-70301190D01*
X162666666Y-70301190D01*
X161476190Y-70301190D02*
X161476190Y-70777380D01*
X161809523Y-69777380D02*
X161476190Y-70301190D01*
X161142857Y-69777380D01*
X159714285Y-70253571D02*
X159571428Y-70301190D01*
X159523809Y-70348809D01*
X159476190Y-70444047D01*
X159476190Y-70586904D01*
X159523809Y-70682142D01*
X159571428Y-70729761D01*
X159666666Y-70777380D01*
X160047619Y-70777380D01*
X160047619Y-69777380D01*
X159714285Y-69777380D01*
X159619047Y-69825000D01*
X159571428Y-69872619D01*
X159523809Y-69967857D01*
X159523809Y-70063095D01*
X159571428Y-70158333D01*
X159619047Y-70205952D01*
X159714285Y-70253571D01*
X160047619Y-70253571D01*
X159095238Y-70491666D02*
X158619047Y-70491666D01*
X159190476Y-70777380D02*
X158857142Y-69777380D01*
X158523809Y-70777380D01*
X157619047Y-70682142D02*
X157666666Y-70729761D01*
X157809523Y-70777380D01*
X157904761Y-70777380D01*
X158047619Y-70729761D01*
X158142857Y-70634523D01*
X158190476Y-70539285D01*
X158238095Y-70348809D01*
X158238095Y-70205952D01*
X158190476Y-70015476D01*
X158142857Y-69920238D01*
X158047619Y-69825000D01*
X157904761Y-69777380D01*
X157809523Y-69777380D01*
X157666666Y-69825000D01*
X157619047Y-69872619D01*
X157190476Y-70777380D02*
X157190476Y-69777380D01*
X156619047Y-70777380D02*
X157047619Y-70205952D01*
X156619047Y-69777380D02*
X157190476Y-70348809D01*
X156190476Y-70396428D02*
X155428571Y-70396428D01*
X154952380Y-69777380D02*
X154952380Y-70586904D01*
X154904761Y-70682142D01*
X154857142Y-70729761D01*
X154761904Y-70777380D01*
X154571428Y-70777380D01*
X154476190Y-70729761D01*
X154428571Y-70682142D01*
X154380952Y-70586904D01*
X154380952Y-69777380D01*
X153904761Y-70777380D02*
X153904761Y-69777380D01*
X153523809Y-69777380D01*
X153428571Y-69825000D01*
X153380952Y-69872619D01*
X153333333Y-69967857D01*
X153333333Y-70110714D01*
X153380952Y-70205952D01*
X153428571Y-70253571D01*
X153523809Y-70301190D01*
X153904761Y-70301190D01*
X152190476Y-70729761D02*
X152047619Y-70777380D01*
X151809523Y-70777380D01*
X151714285Y-70729761D01*
X151666666Y-70682142D01*
X151619047Y-70586904D01*
X151619047Y-70491666D01*
X151666666Y-70396428D01*
X151714285Y-70348809D01*
X151809523Y-70301190D01*
X152000000Y-70253571D01*
X152095238Y-70205952D01*
X152142857Y-70158333D01*
X152190476Y-70063095D01*
X152190476Y-69967857D01*
X152142857Y-69872619D01*
X152095238Y-69825000D01*
X152000000Y-69777380D01*
X151761904Y-69777380D01*
X151619047Y-69825000D01*
X151000000Y-70301190D02*
X151000000Y-70777380D01*
X151333333Y-69777380D02*
X151000000Y-70301190D01*
X150666666Y-69777380D01*
X150380952Y-70729761D02*
X150238095Y-70777380D01*
X150000000Y-70777380D01*
X149904761Y-70729761D01*
X149857142Y-70682142D01*
X149809523Y-70586904D01*
X149809523Y-70491666D01*
X149857142Y-70396428D01*
X149904761Y-70348809D01*
X150000000Y-70301190D01*
X150190476Y-70253571D01*
X150285714Y-70205952D01*
X150333333Y-70158333D01*
X150380952Y-70063095D01*
X150380952Y-69967857D01*
X150333333Y-69872619D01*
X150285714Y-69825000D01*
X150190476Y-69777380D01*
X149952380Y-69777380D01*
X149809523Y-69825000D01*
X149523809Y-69777380D02*
X148952380Y-69777380D01*
X149238095Y-70777380D02*
X149238095Y-69777380D01*
X148619047Y-70253571D02*
X148285714Y-70253571D01*
X148142857Y-70777380D02*
X148619047Y-70777380D01*
X148619047Y-69777380D01*
X148142857Y-69777380D01*
X147714285Y-70777380D02*
X147714285Y-69777380D01*
X147380952Y-70491666D01*
X147047619Y-69777380D01*
X147047619Y-70777380D01*
X175166666Y-72427380D02*
X175166666Y-71427380D01*
X174595238Y-72427380D01*
X174595238Y-71427380D01*
X174119047Y-72427380D02*
X174119047Y-71427380D01*
X173642857Y-72046428D02*
X172880952Y-72046428D01*
X171833333Y-72332142D02*
X171880952Y-72379761D01*
X172023809Y-72427380D01*
X172119047Y-72427380D01*
X172261904Y-72379761D01*
X172357142Y-72284523D01*
X172404761Y-72189285D01*
X172452380Y-71998809D01*
X172452380Y-71855952D01*
X172404761Y-71665476D01*
X172357142Y-71570238D01*
X172261904Y-71475000D01*
X172119047Y-71427380D01*
X172023809Y-71427380D01*
X171880952Y-71475000D01*
X171833333Y-71522619D01*
X171404761Y-72427380D02*
X171404761Y-71427380D01*
X171166666Y-71427380D01*
X171023809Y-71475000D01*
X170928571Y-71570238D01*
X170880952Y-71665476D01*
X170833333Y-71855952D01*
X170833333Y-71998809D01*
X170880952Y-72189285D01*
X170928571Y-72284523D01*
X171023809Y-72379761D01*
X171166666Y-72427380D01*
X171404761Y-72427380D01*
X169309523Y-71903571D02*
X169166666Y-71951190D01*
X169119047Y-71998809D01*
X169071428Y-72094047D01*
X169071428Y-72236904D01*
X169119047Y-72332142D01*
X169166666Y-72379761D01*
X169261904Y-72427380D01*
X169642857Y-72427380D01*
X169642857Y-71427380D01*
X169309523Y-71427380D01*
X169214285Y-71475000D01*
X169166666Y-71522619D01*
X169119047Y-71617857D01*
X169119047Y-71713095D01*
X169166666Y-71808333D01*
X169214285Y-71855952D01*
X169309523Y-71903571D01*
X169642857Y-71903571D01*
X168690476Y-72141666D02*
X168214285Y-72141666D01*
X168785714Y-72427380D02*
X168452380Y-71427380D01*
X168119047Y-72427380D01*
X167928571Y-71427380D02*
X167357142Y-71427380D01*
X167642857Y-72427380D02*
X167642857Y-71427380D01*
X167166666Y-71427380D02*
X166595238Y-71427380D01*
X166880952Y-72427380D02*
X166880952Y-71427380D01*
X166261904Y-71903571D02*
X165928571Y-71903571D01*
X165785714Y-72427380D02*
X166261904Y-72427380D01*
X166261904Y-71427380D01*
X165785714Y-71427380D01*
X164785714Y-72427380D02*
X165119047Y-71951190D01*
X165357142Y-72427380D02*
X165357142Y-71427380D01*
X164976190Y-71427380D01*
X164880952Y-71475000D01*
X164833333Y-71522619D01*
X164785714Y-71617857D01*
X164785714Y-71760714D01*
X164833333Y-71855952D01*
X164880952Y-71903571D01*
X164976190Y-71951190D01*
X165357142Y-71951190D01*
X164166666Y-71951190D02*
X164166666Y-72427380D01*
X164500000Y-71427380D02*
X164166666Y-71951190D01*
X163833333Y-71427380D01*
X162738095Y-72427380D02*
X162738095Y-71427380D01*
X162357142Y-71427380D01*
X162261904Y-71475000D01*
X162214285Y-71522619D01*
X162166666Y-71617857D01*
X162166666Y-71760714D01*
X162214285Y-71855952D01*
X162261904Y-71903571D01*
X162357142Y-71951190D01*
X162738095Y-71951190D01*
X161785714Y-72141666D02*
X161309523Y-72141666D01*
X161880952Y-72427380D02*
X161547619Y-71427380D01*
X161214285Y-72427380D01*
X160309523Y-72332142D02*
X160357142Y-72379761D01*
X160500000Y-72427380D01*
X160595238Y-72427380D01*
X160738095Y-72379761D01*
X160833333Y-72284523D01*
X160880952Y-72189285D01*
X160928571Y-71998809D01*
X160928571Y-71855952D01*
X160880952Y-71665476D01*
X160833333Y-71570238D01*
X160738095Y-71475000D01*
X160595238Y-71427380D01*
X160500000Y-71427380D01*
X160357142Y-71475000D01*
X160309523Y-71522619D01*
X159880952Y-72427380D02*
X159880952Y-71427380D01*
X159309523Y-72427380D02*
X159738095Y-71855952D01*
X159309523Y-71427380D02*
X159880952Y-71998809D01*
X158119047Y-72046428D02*
X157357142Y-72046428D01*
X155595238Y-72427380D02*
X156166666Y-72427380D01*
X155880952Y-72427380D02*
X155880952Y-71427380D01*
X155976190Y-71570238D01*
X156071428Y-71665476D01*
X156166666Y-71713095D01*
X155214285Y-71522619D02*
X155166666Y-71475000D01*
X155071428Y-71427380D01*
X154833333Y-71427380D01*
X154738095Y-71475000D01*
X154690476Y-71522619D01*
X154642857Y-71617857D01*
X154642857Y-71713095D01*
X154690476Y-71855952D01*
X155261904Y-72427380D01*
X154642857Y-72427380D01*
X154357142Y-71427380D02*
X154023809Y-72427380D01*
X153690476Y-71427380D01*
M02*
