M48
; DRILL file {KiCad (5.1.6)-1} date 05/10/21 16:48:59
; FORMAT={-:-/ absolute / inch / decimal}
; #@! TF.CreationDate,2021-05-10T16:48:59-07:00
; #@! TF.GenerationSoftware,Kicad,Pcbnew,(5.1.6)-1
; #@! TF.FileFunction,Plated,1,2,PTH
FMAT,2
INCH
T1C0.0157
T2C0.0197
T3C0.0300
T4C0.0315
T5C0.0354
T6C0.0394
T7C0.0433
T8C0.0512
T9C0.0709
T10C0.0728
T11C0.0787
T12C0.1181
T13C0.1201
T14C0.3937
%
G90
G05
T1
X2.0866Y-6.2205
X2.0866Y-6.3091
X2.0866Y-6.3976
X2.185Y-6.2205
X2.2835Y-6.2205
X2.3819Y-6.2205
X2.4606Y-5.0787
X2.4803Y-6.2205
X2.4803Y-6.3091
X2.4803Y-6.3976
X3.878Y-5.0787
X4.2421Y-7.1752
X4.8819Y-6.6339
X4.9311Y-5.5709
X4.9311Y-5.8071
X5.2657Y-6.5945
X5.2953Y-5.0787
X5.374Y-6.624
X5.6097Y-5.8174
X5.6299Y-7.5295
X5.7283Y-6.1909
X5.816Y-7.8061
X5.8563Y-5.9252
X5.8568Y-5.8853
X5.857Y-5.846
X5.8572Y-5.8057
X5.8572Y-5.7654
X5.8572Y-5.725
X6.0827Y-5.7185
X6.1122Y-5.7579
X6.1417Y-5.7972
X6.1713Y-5.8366
X6.1713Y-7.5
X6.5059Y-5.4232
X6.6289Y-7.2293
X6.7126Y-5.0787
X6.752Y-6.2205
X6.7913Y-6.2106
X6.8209Y-6.4173
X7.9823Y-6.8209
X8.1299Y-5.0787
X8.7008Y-5.6791
X8.8386Y-6.6339
X8.9075Y-6.1713
X8.9665Y-6.5846
X9.1142Y-6.6732
X9.5472Y-5.0787
X9.872Y-5.689
X9.872Y-5.8268
X9.9705Y-6.1909
X10.0197Y-6.5157
X10.0197Y-6.7028
X10.2264Y-5.689
X10.2264Y-5.8366
X10.9646Y-5.0787
X11.3583Y-6.1909
X12.1358Y-7.1358
X12.1949Y-5.8071
X12.2146Y-7.0669
X12.2736Y-5.8858
X12.3228Y-5.8563
X12.3819Y-5.0787
X12.3917Y-7.0669
X12.4803Y-6.9291
X12.9724Y-6.2598
X13.0118Y-6.2303
X13.061Y-6.8602
X13.1594Y-6.8602
X13.2579Y-6.8602
X13.3563Y-6.8602
X13.435Y-7.2441
X13.4547Y-6.8602
X13.5531Y-6.8602
X13.7008Y-7.2441
X13.7992Y-5.0787
X14.1339Y-6.565
X14.1339Y-6.6634
X14.1339Y-6.7618
X14.1339Y-6.8602
X14.1535Y-5.689
X14.2421Y-5.5512
X14.4291Y-5.5217
X15.1378Y-5.1575
T2
X1.7419Y-7.2128
X1.7419Y-7.3344
X1.7835Y-7.0986
X1.7835Y-7.4486
X1.7912Y-7.2215
X1.7912Y-7.3257
X1.8268Y-7.1236
X1.8268Y-7.4236
X1.8404Y-7.2302
X1.8404Y-7.317
X1.8616Y-7.0055
X1.8616Y-7.5417
X1.8701Y-7.1486
X1.8701Y-7.3986
X1.8938Y-7.0438
X1.8938Y-7.5034
X1.9259Y-7.0821
X1.9259Y-7.4651
X1.9669Y-6.9447
X1.9669Y-7.6025
X1.984Y-6.9917
X1.984Y-7.5555
X2.0011Y-7.0387
X2.0011Y-7.5085
X2.0866Y-6.9236
X2.0866Y-6.9736
X2.0866Y-7.0236
X2.0866Y-7.5236
X2.0866Y-7.5736
X2.0866Y-7.6236
X2.185Y-6.9236
X2.185Y-6.9736
X2.185Y-7.0236
X2.185Y-7.524
X2.185Y-7.574
X2.185Y-7.624
X2.2835Y-6.9236
X2.2835Y-6.9736
X2.2835Y-7.0236
X2.2835Y-7.524
X2.2835Y-7.574
X2.2835Y-7.624
X2.3819Y-6.9236
X2.3819Y-6.9736
X2.3819Y-7.0236
X2.3819Y-7.524
X2.3819Y-7.574
X2.3819Y-7.624
X2.4803Y-6.9236
X2.4803Y-6.9736
X2.4803Y-7.0236
X2.4803Y-7.5236
X2.4803Y-7.5736
X2.4803Y-7.6236
X2.5658Y-7.0387
X2.5658Y-7.5085
X2.5829Y-6.9917
X2.5829Y-7.5555
X2.6Y-6.9447
X2.6Y-7.6025
X2.641Y-7.0821
X2.641Y-7.4651
X2.6732Y-7.0438
X2.6732Y-7.5034
X2.6968Y-7.1486
X2.6968Y-7.3986
X2.7053Y-7.0055
X2.7053Y-7.5417
X2.7265Y-7.2302
X2.7265Y-7.317
X2.7401Y-7.1236
X2.7401Y-7.4236
X2.7758Y-7.2215
X2.7758Y-7.3257
X2.7834Y-7.0986
X2.7834Y-7.4486
X2.825Y-7.2128
X2.825Y-7.3344
X14.6947Y-7.2227
X14.6947Y-7.3442
X14.7363Y-7.1085
X14.7363Y-7.4585
X14.7439Y-7.2314
X14.7439Y-7.3356
X14.7796Y-7.1335
X14.7796Y-7.4335
X14.7932Y-7.2401
X14.7932Y-7.3269
X14.8144Y-7.0153
X14.8144Y-7.5516
X14.8229Y-7.1585
X14.8229Y-7.4085
X14.8465Y-7.0537
X14.8465Y-7.5133
X14.8787Y-7.092
X14.8787Y-7.475
X14.9197Y-6.9546
X14.9197Y-7.6124
X14.9368Y-7.0016
X14.9368Y-7.5654
X14.9539Y-7.0485
X14.9539Y-7.5184
X15.0394Y-6.9335
X15.0394Y-6.9835
X15.0394Y-7.0335
X15.0394Y-7.5335
X15.0394Y-7.5835
X15.0394Y-7.6335
X15.1249Y-7.0485
X15.1249Y-7.5184
X15.142Y-7.0016
X15.142Y-7.5654
X15.1591Y-6.9546
X15.1591Y-7.6124
X15.2001Y-7.092
X15.2001Y-7.475
X15.2322Y-7.0537
X15.2322Y-7.5133
X15.2559Y-7.1585
X15.2559Y-7.4085
X15.2643Y-7.0153
X15.2643Y-7.5516
X15.2856Y-7.2401
X15.2856Y-7.3269
X15.2992Y-7.1335
X15.2992Y-7.4335
X15.3348Y-7.2314
X15.3348Y-7.3356
X15.3425Y-7.1085
X15.3425Y-7.4585
X15.3841Y-7.2227
X15.3841Y-7.3442
T3
X12.9134Y-7.2835
X2.9921Y-5.315
X8.6614Y-5.315
X14.3307Y-5.315
X4.4094Y-7.2835
X10.0787Y-7.2835
X5.8268Y-5.315
X11.4961Y-5.315
X7.2441Y-7.2835
T4
X11.9654Y-6.8307
X12.0654Y-6.8307
X12.1654Y-6.8307
X9.2669Y-5.8961
X9.2669Y-5.9961
X9.2669Y-6.0961
X9.2669Y-6.1961
X9.2669Y-6.2961
X9.2669Y-6.3961
X9.2669Y-6.4961
X9.5669Y-5.8961
X9.5669Y-5.9961
X9.5669Y-6.0961
X9.5669Y-6.1961
X9.5669Y-6.2961
X9.5669Y-6.3961
X9.5669Y-6.4961
X10.6449Y-5.8961
X10.6449Y-5.9961
X10.6449Y-6.0961
X10.6449Y-6.1961
X10.6449Y-6.2961
X10.6449Y-6.3961
X10.6449Y-6.4961
X10.9449Y-5.8961
X10.9449Y-5.9961
X10.9449Y-6.0961
X10.9449Y-6.1961
X10.9449Y-6.2961
X10.9449Y-6.3961
X10.9449Y-6.4961
X5.015Y-5.8961
X5.015Y-5.9961
X5.015Y-6.0961
X5.015Y-6.1961
X5.015Y-6.2961
X5.015Y-6.3961
X5.015Y-6.4961
X5.315Y-5.8961
X5.315Y-5.9961
X5.315Y-6.0961
X5.315Y-6.1961
X5.315Y-6.2961
X5.315Y-6.3961
X5.315Y-6.4961
X6.1929Y-6.663
X6.1929Y-6.763
X6.2929Y-6.663
X6.2929Y-6.763
X6.3929Y-6.663
X6.3929Y-6.763
X6.4929Y-6.663
X6.4929Y-6.763
X6.5929Y-6.663
X6.5929Y-6.763
X6.6929Y-5.363
X6.6929Y-5.463
X6.6929Y-6.663
X6.6929Y-6.763
X6.7929Y-5.363
X6.7929Y-5.463
X6.7929Y-6.663
X6.7929Y-6.763
X6.8929Y-5.363
X6.8929Y-5.463
X6.8929Y-6.663
X6.8929Y-6.763
X6.9929Y-5.363
X6.9929Y-5.463
X6.9929Y-6.663
X6.9929Y-6.763
X7.0929Y-5.363
X7.0929Y-5.463
X7.0929Y-6.663
X7.0929Y-6.763
X7.1929Y-5.363
X7.1929Y-5.463
X7.1929Y-6.663
X7.1929Y-6.763
X7.2929Y-5.363
X7.2929Y-5.463
X7.2929Y-6.663
X7.2929Y-6.763
X7.3929Y-5.363
X7.3929Y-5.463
X7.3929Y-6.663
X7.3929Y-6.763
X7.4929Y-5.363
X7.4929Y-5.463
X7.4929Y-6.663
X7.4929Y-6.763
X7.5929Y-5.363
X7.5929Y-5.463
X7.5929Y-6.663
X7.5929Y-6.763
X7.6929Y-5.363
X7.6929Y-5.463
X7.6929Y-6.663
X7.6929Y-6.763
X7.7929Y-5.363
X7.7929Y-5.463
X7.7929Y-6.663
X7.7929Y-6.763
X7.8929Y-5.363
X7.8929Y-5.463
X7.8929Y-6.663
X7.8929Y-6.763
X7.9929Y-5.363
X7.9929Y-5.463
X7.9929Y-6.663
X7.9929Y-6.763
X8.0906Y-6.063
X8.0906Y-6.163
X8.0906Y-6.263
X8.0929Y-5.363
X8.0929Y-5.463
X8.0929Y-5.563
X8.0929Y-5.663
X8.0929Y-5.763
X8.0929Y-6.663
X8.0929Y-6.763
X8.1906Y-6.063
X8.1906Y-6.163
X8.1906Y-6.263
X8.1929Y-5.363
X8.1929Y-5.463
X8.1929Y-5.563
X8.1929Y-5.663
X8.1929Y-5.763
X8.1929Y-6.663
X8.1929Y-6.763
T5
X13.5039Y-7.3622
X13.6039Y-7.3622
X12.4114Y-7.3622
X12.5114Y-7.3622
X13.2283Y-7.3622
X13.3283Y-7.3622
T6
X3.563Y-5.4892
X3.563Y-5.5892
X3.563Y-5.6892
X3.563Y-5.7892
X5.4331Y-7.2244
X5.4876Y-7.3362
X5.5421Y-7.2244
X5.5967Y-7.3362
X5.6512Y-7.2244
X5.7057Y-7.3362
X5.7602Y-7.2244
X5.8148Y-7.3362
X5.8693Y-7.2244
X5.9238Y-7.3362
X5.9783Y-7.2244
X6.0329Y-7.3362
X6.0874Y-7.2244
X6.1419Y-7.3362
X6.1965Y-7.2244
X14.5472Y-5.9547
X14.5472Y-6.1516
X4.0157Y-5.4892
X4.0157Y-5.5892
X4.0157Y-5.6892
X4.0157Y-5.7892
X4.0157Y-5.8892
X4.0157Y-5.9892
T7
X14.9409Y-5.4724
X14.9409Y-5.6496
X15.1969Y-5.4724
X15.1969Y-5.6496
X10.7283Y-7.3425
X10.7283Y-7.5197
X10.9843Y-7.3425
X10.9843Y-7.5197
T8
X8.8583Y-7.5787
X9.1583Y-7.5787
T9
X11.7618Y-7.0866
X11.7618Y-7.3031
T10
X3.2677Y-7.4409
X3.2677Y-7.7165
X3.4646Y-7.4409
X3.4646Y-7.7165
X13.8583Y-7.4409
X13.8583Y-7.7165
X14.0551Y-7.4409
X14.0551Y-7.7165
X1.7323Y-4.8819
X1.7323Y-5.1575
X1.9291Y-4.8819
X1.9291Y-5.1575
X15.3937Y-4.8819
X15.3937Y-5.1575
X15.5906Y-4.8819
X15.5906Y-5.1575
T11
X8.6614Y-7.2835
X9.2126Y-7.2835
X8.937Y-6.9882
X8.937Y-7.2835
X8.3858Y-7.2835
X8.6614Y-6.9882
X8.3858Y-6.9882
X8.1102Y-6.9882
X8.4646Y-7.5787
X8.1102Y-7.2835
X9.2126Y-6.9882
T12
X11.4961Y-5.0197
X12.9134Y-7.5787
X10.0787Y-7.5787
X5.8268Y-5.0197
X8.6614Y-5.0197
X4.4094Y-7.5787
X2.9921Y-5.0197
X7.2441Y-7.5787
X14.3307Y-5.0197
T13
X5.1593Y-7.2803
X6.4703Y-7.2803
T14
X15.0394Y-7.2835
T14
G00X2.0866Y-7.2835
M15
G01X2.4803Y-7.2835
M16
G05
T0
M30
